G04 Layer: TopLayer*
G04 EasyEDA v6.1.49, Tue, 11 Jun 2019 08:39:05 GMT*
G04 95c1c70a206543ea8c01bf924e9efc33,195b170a8e6c43a181dcefc3e1346bee,10*
G04 Gerber Generator version 0.2*
G04 Scale: 100 percent, Rotated: No, Reflected: No *
G04 Dimensions in millimeters *
G04 leading zeros omitted , absolute positions ,3 integer and 3 decimal *
%FSLAX33Y33*%
%MOMM*%
G90*
G71D02*

%ADD10C,0.254000*%
%ADD11C,0.509999*%
%ADD12C,0.381000*%
%ADD13C,0.508000*%
%ADD18C,1.270000*%
%ADD20C,1.574800*%
%ADD22C,1.651000*%
%ADD23C,1.699260*%
%ADD24C,1.422400*%
%ADD25C,1.519987*%
%ADD26R,1.519987X1.519987*%
%ADD27R,1.899996X1.899996*%
%ADD28C,1.899996*%

%LPD*%
G36*
G01X47014Y57984D02*
G01X2490Y57984D01*
G01X2425Y57983D01*
G01X2361Y57979D01*
G01X2296Y57974D01*
G01X2232Y57966D01*
G01X2168Y57956D01*
G01X2104Y57944D01*
G01X2041Y57931D01*
G01X1978Y57915D01*
G01X1916Y57897D01*
G01X1854Y57877D01*
G01X1794Y57854D01*
G01X1733Y57830D01*
G01X1674Y57805D01*
G01X1616Y57777D01*
G01X1558Y57747D01*
G01X1502Y57715D01*
G01X1446Y57682D01*
G01X1392Y57647D01*
G01X1339Y57610D01*
G01X1287Y57571D01*
G01X1236Y57530D01*
G01X1187Y57488D01*
G01X1139Y57445D01*
G01X1093Y57400D01*
G01X1048Y57353D01*
G01X1004Y57305D01*
G01X922Y57205D01*
G01X884Y57153D01*
G01X847Y57099D01*
G01X812Y57045D01*
G01X779Y56989D01*
G01X748Y56933D01*
G01X718Y56875D01*
G01X691Y56816D01*
G01X665Y56757D01*
G01X641Y56697D01*
G01X619Y56636D01*
G01X600Y56574D01*
G01X582Y56512D01*
G01X566Y56449D01*
G01X553Y56386D01*
G01X541Y56322D01*
G01X532Y56258D01*
G01X524Y56194D01*
G01X519Y56129D01*
G01X516Y56064D01*
G01X515Y56000D01*
G01X515Y51744D01*
G01X516Y51729D01*
G01X519Y51715D01*
G01X524Y51702D01*
G01X531Y51689D01*
G01X540Y51677D01*
G01X550Y51667D01*
G01X561Y51658D01*
G01X574Y51651D01*
G01X588Y51646D01*
G01X602Y51643D01*
G01X616Y51642D01*
G01X2999Y51642D01*
G01X3032Y51641D01*
G01X3065Y51638D01*
G01X3098Y51633D01*
G01X3130Y51625D01*
G01X3161Y51616D01*
G01X3192Y51604D01*
G01X3222Y51590D01*
G01X3251Y51575D01*
G01X3279Y51557D01*
G01X3305Y51538D01*
G01X3331Y51517D01*
G01X3355Y51495D01*
G01X3377Y51471D01*
G01X3398Y51446D01*
G01X3417Y51419D01*
G01X3435Y51391D01*
G01X3450Y51362D01*
G01X3464Y51332D01*
G01X3475Y51301D01*
G01X3485Y51270D01*
G01X3492Y51238D01*
G01X3498Y51205D01*
G01X3501Y51172D01*
G01X3502Y51140D01*
G01X3502Y49940D01*
G01X3501Y49907D01*
G01X3498Y49874D01*
G01X3492Y49842D01*
G01X3485Y49810D01*
G01X3475Y49778D01*
G01X3464Y49747D01*
G01X3450Y49717D01*
G01X3435Y49688D01*
G01X3417Y49660D01*
G01X3398Y49634D01*
G01X3377Y49608D01*
G01X3355Y49584D01*
G01X3331Y49562D01*
G01X3305Y49541D01*
G01X3279Y49522D01*
G01X3251Y49504D01*
G01X3222Y49489D01*
G01X3192Y49475D01*
G01X3161Y49464D01*
G01X3130Y49454D01*
G01X3098Y49447D01*
G01X3065Y49441D01*
G01X3032Y49438D01*
G01X2999Y49437D01*
G01X616Y49437D01*
G01X602Y49436D01*
G01X588Y49433D01*
G01X574Y49428D01*
G01X561Y49421D01*
G01X550Y49412D01*
G01X540Y49402D01*
G01X531Y49390D01*
G01X524Y49378D01*
G01X519Y49364D01*
G01X516Y49350D01*
G01X515Y49335D01*
G01X515Y49204D01*
G01X516Y49189D01*
G01X519Y49175D01*
G01X524Y49162D01*
G01X531Y49149D01*
G01X540Y49137D01*
G01X550Y49127D01*
G01X561Y49118D01*
G01X574Y49111D01*
G01X588Y49106D01*
G01X602Y49103D01*
G01X616Y49102D01*
G01X1061Y49102D01*
G01X1061Y48363D01*
G01X616Y48363D01*
G01X602Y48362D01*
G01X588Y48359D01*
G01X574Y48354D01*
G01X561Y48347D01*
G01X550Y48338D01*
G01X540Y48328D01*
G01X531Y48316D01*
G01X524Y48304D01*
G01X519Y48290D01*
G01X516Y48276D01*
G01X515Y48262D01*
G01X515Y47738D01*
G01X516Y47723D01*
G01X519Y47709D01*
G01X524Y47696D01*
G01X531Y47683D01*
G01X540Y47671D01*
G01X550Y47661D01*
G01X561Y47652D01*
G01X574Y47645D01*
G01X588Y47640D01*
G01X602Y47637D01*
G01X616Y47636D01*
G01X1061Y47636D01*
G01X1061Y46897D01*
G01X616Y46897D01*
G01X602Y46896D01*
G01X588Y46893D01*
G01X574Y46888D01*
G01X561Y46881D01*
G01X550Y46872D01*
G01X540Y46862D01*
G01X531Y46850D01*
G01X524Y46838D01*
G01X519Y46824D01*
G01X516Y46810D01*
G01X515Y46795D01*
G01X515Y46664D01*
G01X516Y46649D01*
G01X519Y46635D01*
G01X524Y46622D01*
G01X531Y46609D01*
G01X540Y46597D01*
G01X550Y46587D01*
G01X561Y46578D01*
G01X574Y46571D01*
G01X588Y46566D01*
G01X602Y46563D01*
G01X616Y46562D01*
G01X2999Y46562D01*
G01X3032Y46561D01*
G01X3065Y46558D01*
G01X3098Y46553D01*
G01X3130Y46545D01*
G01X3161Y46536D01*
G01X3192Y46524D01*
G01X3222Y46510D01*
G01X3251Y46495D01*
G01X3279Y46477D01*
G01X3305Y46458D01*
G01X3331Y46437D01*
G01X3355Y46415D01*
G01X3377Y46391D01*
G01X3398Y46366D01*
G01X3417Y46339D01*
G01X3435Y46311D01*
G01X3450Y46282D01*
G01X3464Y46252D01*
G01X3475Y46221D01*
G01X3485Y46190D01*
G01X3492Y46158D01*
G01X3498Y46125D01*
G01X3501Y46092D01*
G01X3502Y46060D01*
G01X3502Y44860D01*
G01X3501Y44827D01*
G01X3498Y44794D01*
G01X3492Y44762D01*
G01X3485Y44730D01*
G01X3475Y44698D01*
G01X3464Y44667D01*
G01X3450Y44637D01*
G01X3435Y44608D01*
G01X3417Y44580D01*
G01X3398Y44554D01*
G01X3377Y44528D01*
G01X3355Y44504D01*
G01X3331Y44482D01*
G01X3305Y44461D01*
G01X3279Y44442D01*
G01X3251Y44424D01*
G01X3222Y44409D01*
G01X3192Y44395D01*
G01X3161Y44384D01*
G01X3130Y44374D01*
G01X3098Y44367D01*
G01X3065Y44361D01*
G01X3032Y44358D01*
G01X2999Y44357D01*
G01X2609Y44357D01*
G01X2594Y44356D01*
G01X2580Y44353D01*
G01X2566Y44348D01*
G01X2554Y44341D01*
G01X2542Y44332D01*
G01X2532Y44322D01*
G01X2523Y44310D01*
G01X2516Y44298D01*
G01X2511Y44284D01*
G01X2508Y44270D01*
G01X2507Y44255D01*
G01X2507Y43606D01*
G01X2508Y43590D01*
G01X2512Y43574D01*
G01X2518Y43559D01*
G01X2526Y43546D01*
G01X2537Y43534D01*
G01X2784Y43287D01*
G01X2796Y43277D01*
G01X2809Y43268D01*
G01X2824Y43262D01*
G01X2839Y43258D01*
G01X2855Y43257D01*
G01X6390Y43257D01*
G01X6405Y43258D01*
G01X6419Y43261D01*
G01X6433Y43266D01*
G01X6445Y43273D01*
G01X6457Y43282D01*
G01X6467Y43292D01*
G01X6476Y43304D01*
G01X6483Y43317D01*
G01X6488Y43330D01*
G01X6491Y43344D01*
G01X6492Y43359D01*
G01X6492Y44255D01*
G01X6491Y44270D01*
G01X6488Y44284D01*
G01X6483Y44298D01*
G01X6476Y44310D01*
G01X6467Y44322D01*
G01X6457Y44332D01*
G01X6445Y44341D01*
G01X6433Y44348D01*
G01X6419Y44353D01*
G01X6405Y44356D01*
G01X6390Y44357D01*
G01X5999Y44357D01*
G01X5967Y44358D01*
G01X5934Y44361D01*
G01X5901Y44367D01*
G01X5869Y44374D01*
G01X5838Y44384D01*
G01X5807Y44395D01*
G01X5777Y44409D01*
G01X5748Y44424D01*
G01X5720Y44442D01*
G01X5694Y44461D01*
G01X5668Y44482D01*
G01X5644Y44504D01*
G01X5622Y44528D01*
G01X5601Y44554D01*
G01X5582Y44580D01*
G01X5564Y44608D01*
G01X5549Y44637D01*
G01X5535Y44667D01*
G01X5524Y44698D01*
G01X5514Y44730D01*
G01X5507Y44762D01*
G01X5501Y44794D01*
G01X5498Y44827D01*
G01X5497Y44860D01*
G01X5497Y46060D01*
G01X5498Y46092D01*
G01X5501Y46125D01*
G01X5507Y46158D01*
G01X5514Y46190D01*
G01X5524Y46221D01*
G01X5535Y46252D01*
G01X5549Y46282D01*
G01X5564Y46311D01*
G01X5582Y46339D01*
G01X5601Y46366D01*
G01X5622Y46391D01*
G01X5644Y46415D01*
G01X5668Y46437D01*
G01X5694Y46458D01*
G01X5720Y46477D01*
G01X5748Y46495D01*
G01X5777Y46510D01*
G01X5807Y46524D01*
G01X5838Y46536D01*
G01X5869Y46545D01*
G01X5901Y46553D01*
G01X5934Y46558D01*
G01X5967Y46561D01*
G01X5999Y46562D01*
G01X8499Y46562D01*
G01X8532Y46561D01*
G01X8565Y46558D01*
G01X8598Y46553D01*
G01X8630Y46545D01*
G01X8661Y46536D01*
G01X8692Y46524D01*
G01X8722Y46510D01*
G01X8751Y46495D01*
G01X8779Y46477D01*
G01X8805Y46458D01*
G01X8831Y46437D01*
G01X8855Y46415D01*
G01X8877Y46391D01*
G01X8898Y46366D01*
G01X8917Y46339D01*
G01X8935Y46311D01*
G01X8950Y46282D01*
G01X8964Y46252D01*
G01X8975Y46221D01*
G01X8985Y46190D01*
G01X8992Y46158D01*
G01X8998Y46125D01*
G01X9001Y46092D01*
G01X9002Y46060D01*
G01X9002Y44860D01*
G01X9001Y44827D01*
G01X8998Y44794D01*
G01X8992Y44762D01*
G01X8985Y44730D01*
G01X8975Y44698D01*
G01X8964Y44667D01*
G01X8950Y44637D01*
G01X8935Y44608D01*
G01X8917Y44580D01*
G01X8898Y44554D01*
G01X8877Y44528D01*
G01X8855Y44504D01*
G01X8831Y44482D01*
G01X8805Y44461D01*
G01X8779Y44442D01*
G01X8751Y44424D01*
G01X8722Y44409D01*
G01X8692Y44395D01*
G01X8661Y44384D01*
G01X8630Y44374D01*
G01X8598Y44367D01*
G01X8565Y44361D01*
G01X8532Y44358D01*
G01X8499Y44357D01*
G01X8109Y44357D01*
G01X8094Y44356D01*
G01X8080Y44353D01*
G01X8066Y44348D01*
G01X8054Y44341D01*
G01X8042Y44332D01*
G01X8032Y44322D01*
G01X8023Y44310D01*
G01X8016Y44298D01*
G01X8011Y44284D01*
G01X8008Y44270D01*
G01X8007Y44255D01*
G01X8007Y43105D01*
G01X8008Y43090D01*
G01X8012Y43074D01*
G01X8018Y43059D01*
G01X8026Y43046D01*
G01X8037Y43034D01*
G01X9356Y41714D01*
G01X9368Y41704D01*
G01X9382Y41696D01*
G01X9396Y41690D01*
G01X9412Y41686D01*
G01X9428Y41685D01*
G01X9444Y41686D01*
G01X9459Y41690D01*
G01X9474Y41696D01*
G01X9488Y41704D01*
G01X9500Y41715D01*
G01X9510Y41727D01*
G01X9519Y41741D01*
G01X9525Y41756D01*
G01X9541Y41805D01*
G01X9560Y41854D01*
G01X9580Y41901D01*
G01X9603Y41948D01*
G01X9627Y41994D01*
G01X9653Y42039D01*
G01X9681Y42083D01*
G01X9710Y42126D01*
G01X9742Y42167D01*
G01X9775Y42207D01*
G01X9809Y42246D01*
G01X9845Y42284D01*
G01X9883Y42319D01*
G01X9922Y42354D01*
G01X9962Y42387D01*
G01X10003Y42418D01*
G01X10046Y42447D01*
G01X10090Y42475D01*
G01X10135Y42501D01*
G01X10181Y42525D01*
G01X10228Y42547D01*
G01X10241Y42554D01*
G01X10253Y42562D01*
G01X10263Y42573D01*
G01X10272Y42584D01*
G01X10279Y42597D01*
G01X10284Y42611D01*
G01X10287Y42625D01*
G01X10288Y42640D01*
G01X10287Y42654D01*
G01X10284Y42668D01*
G01X10279Y42682D01*
G01X10272Y42695D01*
G01X10263Y42707D01*
G01X10253Y42717D01*
G01X10241Y42725D01*
G01X10228Y42732D01*
G01X10180Y42755D01*
G01X10133Y42780D01*
G01X10088Y42806D01*
G01X10043Y42834D01*
G01X9999Y42865D01*
G01X9957Y42896D01*
G01X9916Y42930D01*
G01X9877Y42965D01*
G01X9839Y43002D01*
G01X9802Y43041D01*
G01X9767Y43081D01*
G01X9734Y43122D01*
G01X9703Y43164D01*
G01X9673Y43208D01*
G01X9645Y43253D01*
G01X9619Y43299D01*
G01X9595Y43347D01*
G01X9573Y43395D01*
G01X9553Y43444D01*
G01X9535Y43493D01*
G01X9518Y43544D01*
G01X9504Y43595D01*
G01X9493Y43647D01*
G01X9483Y43699D01*
G01X9475Y43751D01*
G01X9470Y43804D01*
G01X9467Y43857D01*
G01X9466Y43910D01*
G01X9467Y43962D01*
G01X9470Y44014D01*
G01X9475Y44066D01*
G01X9482Y44117D01*
G01X9492Y44169D01*
G01X9503Y44220D01*
G01X9517Y44270D01*
G01X9532Y44320D01*
G01X9550Y44369D01*
G01X9570Y44417D01*
G01X9591Y44465D01*
G01X9615Y44511D01*
G01X9640Y44557D01*
G01X9667Y44602D01*
G01X9696Y44645D01*
G01X9726Y44687D01*
G01X9759Y44728D01*
G01X9793Y44768D01*
G01X9828Y44806D01*
G01X9865Y44843D01*
G01X9904Y44878D01*
G01X9943Y44912D01*
G01X9985Y44944D01*
G01X10027Y44974D01*
G01X10040Y44985D01*
G01X10051Y44997D01*
G01X10060Y45011D01*
G01X10066Y45026D01*
G01X10070Y45042D01*
G01X10071Y45058D01*
G01X10070Y45073D01*
G01X10067Y45087D01*
G01X10062Y45100D01*
G01X10055Y45113D01*
G01X10047Y45125D01*
G01X10036Y45135D01*
G01X10025Y45144D01*
G01X10012Y45151D01*
G01X9998Y45156D01*
G01X9984Y45159D01*
G01X9970Y45160D01*
G01X9968Y45160D01*
G01X9935Y45161D01*
G01X9902Y45164D01*
G01X9870Y45169D01*
G01X9838Y45177D01*
G01X9807Y45186D01*
G01X9776Y45198D01*
G01X9746Y45212D01*
G01X9717Y45227D01*
G01X9689Y45244D01*
G01X9662Y45264D01*
G01X9637Y45284D01*
G01X9613Y45307D01*
G01X9590Y45331D01*
G01X9569Y45356D01*
G01X9550Y45383D01*
G01X9533Y45411D01*
G01X9517Y45440D01*
G01X9504Y45470D01*
G01X9492Y45501D01*
G01X9483Y45532D01*
G01X9475Y45564D01*
G01X9470Y45597D01*
G01X9467Y45629D01*
G01X9466Y45662D01*
G01X9466Y47237D01*
G01X9467Y47270D01*
G01X9470Y47303D01*
G01X9475Y47335D01*
G01X9483Y47367D01*
G01X9492Y47399D01*
G01X9504Y47429D01*
G01X9517Y47459D01*
G01X9533Y47488D01*
G01X9550Y47516D01*
G01X9569Y47543D01*
G01X9590Y47568D01*
G01X9613Y47592D01*
G01X9637Y47615D01*
G01X9662Y47636D01*
G01X9689Y47655D01*
G01X9717Y47672D01*
G01X9746Y47688D01*
G01X9776Y47701D01*
G01X9807Y47713D01*
G01X9838Y47722D01*
G01X9870Y47730D01*
G01X9902Y47735D01*
G01X9935Y47738D01*
G01X9968Y47740D01*
G01X11543Y47740D01*
G01X11576Y47738D01*
G01X11609Y47735D01*
G01X11642Y47730D01*
G01X11674Y47722D01*
G01X11706Y47712D01*
G01X11737Y47701D01*
G01X11767Y47687D01*
G01X11796Y47671D01*
G01X11824Y47654D01*
G01X11851Y47634D01*
G01X11876Y47613D01*
G01X11901Y47590D01*
G01X11923Y47566D01*
G01X11944Y47540D01*
G01X11963Y47513D01*
G01X11980Y47485D01*
G01X11996Y47455D01*
G01X12009Y47425D01*
G01X12020Y47394D01*
G01X12030Y47362D01*
G01X12037Y47329D01*
G01X12042Y47297D01*
G01X12045Y47282D01*
G01X12050Y47268D01*
G01X12056Y47255D01*
G01X12065Y47243D01*
G01X12075Y47233D01*
G01X12087Y47224D01*
G01X12100Y47217D01*
G01X12114Y47211D01*
G01X12128Y47208D01*
G01X12143Y47207D01*
G01X13178Y47207D01*
G01X13193Y47208D01*
G01X13207Y47211D01*
G01X13221Y47217D01*
G01X13234Y47224D01*
G01X13246Y47233D01*
G01X13256Y47243D01*
G01X13265Y47255D01*
G01X13271Y47268D01*
G01X13276Y47282D01*
G01X13279Y47297D01*
G01X13284Y47329D01*
G01X13291Y47362D01*
G01X13301Y47394D01*
G01X13312Y47425D01*
G01X13325Y47455D01*
G01X13341Y47485D01*
G01X13358Y47513D01*
G01X13377Y47540D01*
G01X13398Y47566D01*
G01X13420Y47590D01*
G01X13445Y47613D01*
G01X13470Y47634D01*
G01X13497Y47654D01*
G01X13525Y47671D01*
G01X13554Y47687D01*
G01X13584Y47701D01*
G01X13615Y47712D01*
G01X13647Y47722D01*
G01X13679Y47730D01*
G01X13712Y47735D01*
G01X13745Y47738D01*
G01X13778Y47740D01*
G01X15353Y47740D01*
G01X15386Y47738D01*
G01X15418Y47735D01*
G01X15451Y47730D01*
G01X15483Y47722D01*
G01X15514Y47713D01*
G01X15545Y47701D01*
G01X15575Y47688D01*
G01X15604Y47672D01*
G01X15632Y47655D01*
G01X15659Y47636D01*
G01X15684Y47615D01*
G01X15708Y47592D01*
G01X15731Y47568D01*
G01X15752Y47543D01*
G01X15771Y47516D01*
G01X15788Y47488D01*
G01X15804Y47459D01*
G01X15817Y47429D01*
G01X15829Y47399D01*
G01X15838Y47367D01*
G01X15846Y47335D01*
G01X15851Y47303D01*
G01X15854Y47270D01*
G01X15855Y47237D01*
G01X15855Y45662D01*
G01X15854Y45629D01*
G01X15851Y45597D01*
G01X15846Y45564D01*
G01X15838Y45532D01*
G01X15829Y45501D01*
G01X15817Y45470D01*
G01X15804Y45440D01*
G01X15788Y45411D01*
G01X15771Y45383D01*
G01X15752Y45356D01*
G01X15731Y45331D01*
G01X15708Y45307D01*
G01X15684Y45284D01*
G01X15659Y45264D01*
G01X15632Y45244D01*
G01X15604Y45227D01*
G01X15575Y45212D01*
G01X15545Y45198D01*
G01X15514Y45186D01*
G01X15483Y45177D01*
G01X15451Y45169D01*
G01X15418Y45164D01*
G01X15386Y45161D01*
G01X15353Y45160D01*
G01X15351Y45160D01*
G01X15337Y45159D01*
G01X15323Y45156D01*
G01X15309Y45151D01*
G01X15296Y45144D01*
G01X15285Y45135D01*
G01X15274Y45125D01*
G01X15266Y45113D01*
G01X15259Y45100D01*
G01X15254Y45087D01*
G01X15251Y45073D01*
G01X15250Y45058D01*
G01X15251Y45042D01*
G01X15255Y45026D01*
G01X15261Y45011D01*
G01X15270Y44997D01*
G01X15281Y44985D01*
G01X15294Y44974D01*
G01X15336Y44944D01*
G01X15378Y44912D01*
G01X15417Y44878D01*
G01X15456Y44843D01*
G01X15493Y44806D01*
G01X15528Y44768D01*
G01X15562Y44728D01*
G01X15595Y44687D01*
G01X15625Y44645D01*
G01X15654Y44602D01*
G01X15681Y44557D01*
G01X15706Y44511D01*
G01X15730Y44465D01*
G01X15751Y44417D01*
G01X15771Y44369D01*
G01X15788Y44320D01*
G01X15804Y44270D01*
G01X15818Y44220D01*
G01X15829Y44169D01*
G01X15839Y44117D01*
G01X15846Y44066D01*
G01X15851Y44014D01*
G01X15854Y43962D01*
G01X15855Y43910D01*
G01X15854Y43857D01*
G01X15851Y43804D01*
G01X15846Y43751D01*
G01X15838Y43699D01*
G01X15828Y43647D01*
G01X15816Y43595D01*
G01X15803Y43544D01*
G01X15786Y43493D01*
G01X15768Y43444D01*
G01X15748Y43395D01*
G01X15726Y43347D01*
G01X15702Y43299D01*
G01X15676Y43253D01*
G01X15648Y43208D01*
G01X15618Y43164D01*
G01X15587Y43122D01*
G01X15554Y43081D01*
G01X15519Y43041D01*
G01X15482Y43002D01*
G01X15444Y42965D01*
G01X15405Y42930D01*
G01X15364Y42896D01*
G01X15322Y42865D01*
G01X15278Y42834D01*
G01X15233Y42806D01*
G01X15188Y42780D01*
G01X15141Y42755D01*
G01X15093Y42732D01*
G01X15080Y42725D01*
G01X15068Y42717D01*
G01X15058Y42707D01*
G01X15049Y42695D01*
G01X15042Y42682D01*
G01X15037Y42668D01*
G01X15034Y42654D01*
G01X15033Y42640D01*
G01X15034Y42625D01*
G01X15037Y42611D01*
G01X15042Y42597D01*
G01X15049Y42584D01*
G01X15058Y42573D01*
G01X15068Y42562D01*
G01X15080Y42554D01*
G01X15093Y42547D01*
G01X15141Y42524D01*
G01X15188Y42500D01*
G01X15233Y42473D01*
G01X15278Y42445D01*
G01X15322Y42415D01*
G01X15364Y42383D01*
G01X15405Y42349D01*
G01X15444Y42314D01*
G01X15482Y42277D01*
G01X15519Y42239D01*
G01X15554Y42199D01*
G01X15587Y42157D01*
G01X15618Y42115D01*
G01X15648Y42071D01*
G01X15676Y42026D01*
G01X15702Y41980D01*
G01X15726Y41933D01*
G01X15748Y41885D01*
G01X15768Y41836D01*
G01X15786Y41786D01*
G01X15803Y41735D01*
G01X15816Y41684D01*
G01X15828Y41633D01*
G01X15838Y41581D01*
G01X15846Y41528D01*
G01X15851Y41475D01*
G01X15854Y41423D01*
G01X15855Y41370D01*
G01X15854Y41317D01*
G01X15851Y41264D01*
G01X15846Y41211D01*
G01X15838Y41159D01*
G01X15828Y41107D01*
G01X15816Y41055D01*
G01X15803Y41004D01*
G01X15786Y40953D01*
G01X15768Y40904D01*
G01X15748Y40855D01*
G01X15726Y40807D01*
G01X15702Y40759D01*
G01X15676Y40713D01*
G01X15648Y40668D01*
G01X15618Y40624D01*
G01X15587Y40582D01*
G01X15554Y40541D01*
G01X15519Y40501D01*
G01X15482Y40462D01*
G01X15444Y40425D01*
G01X15405Y40390D01*
G01X15364Y40356D01*
G01X15322Y40325D01*
G01X15278Y40294D01*
G01X15233Y40266D01*
G01X15188Y40240D01*
G01X15141Y40215D01*
G01X15093Y40192D01*
G01X15080Y40185D01*
G01X15068Y40177D01*
G01X15058Y40167D01*
G01X15049Y40155D01*
G01X15042Y40142D01*
G01X15037Y40128D01*
G01X15034Y40114D01*
G01X15033Y40100D01*
G01X15034Y40085D01*
G01X15037Y40071D01*
G01X15042Y40057D01*
G01X15049Y40044D01*
G01X15058Y40033D01*
G01X15068Y40022D01*
G01X15080Y40014D01*
G01X15093Y40007D01*
G01X15141Y39984D01*
G01X15188Y39960D01*
G01X15233Y39933D01*
G01X15278Y39905D01*
G01X15322Y39875D01*
G01X15364Y39843D01*
G01X15405Y39809D01*
G01X15444Y39774D01*
G01X15482Y39737D01*
G01X15519Y39699D01*
G01X15554Y39659D01*
G01X15587Y39617D01*
G01X15618Y39575D01*
G01X15648Y39531D01*
G01X15676Y39486D01*
G01X15702Y39440D01*
G01X15726Y39393D01*
G01X15748Y39345D01*
G01X15768Y39296D01*
G01X15786Y39246D01*
G01X15803Y39195D01*
G01X15816Y39144D01*
G01X15828Y39093D01*
G01X15838Y39041D01*
G01X15846Y38988D01*
G01X15851Y38935D01*
G01X15854Y38883D01*
G01X15855Y38830D01*
G01X15854Y38777D01*
G01X15851Y38724D01*
G01X15846Y38671D01*
G01X15838Y38619D01*
G01X15828Y38567D01*
G01X15816Y38515D01*
G01X15803Y38464D01*
G01X15786Y38413D01*
G01X15768Y38364D01*
G01X15748Y38315D01*
G01X15726Y38267D01*
G01X15702Y38219D01*
G01X15676Y38173D01*
G01X15648Y38128D01*
G01X15618Y38084D01*
G01X15587Y38042D01*
G01X15554Y38001D01*
G01X15519Y37961D01*
G01X15482Y37922D01*
G01X15444Y37885D01*
G01X15405Y37850D01*
G01X15364Y37816D01*
G01X15322Y37785D01*
G01X15278Y37754D01*
G01X15233Y37726D01*
G01X15188Y37700D01*
G01X15141Y37675D01*
G01X15093Y37652D01*
G01X15080Y37645D01*
G01X15068Y37637D01*
G01X15058Y37627D01*
G01X15049Y37615D01*
G01X15042Y37602D01*
G01X15037Y37588D01*
G01X15034Y37574D01*
G01X15033Y37560D01*
G01X15034Y37545D01*
G01X15037Y37531D01*
G01X15042Y37517D01*
G01X15049Y37504D01*
G01X15058Y37493D01*
G01X15068Y37482D01*
G01X15080Y37474D01*
G01X15093Y37467D01*
G01X15141Y37444D01*
G01X15188Y37420D01*
G01X15233Y37393D01*
G01X15278Y37365D01*
G01X15322Y37335D01*
G01X15364Y37303D01*
G01X15405Y37269D01*
G01X15444Y37234D01*
G01X15482Y37197D01*
G01X15519Y37159D01*
G01X15554Y37119D01*
G01X15587Y37077D01*
G01X15618Y37035D01*
G01X15648Y36991D01*
G01X15676Y36946D01*
G01X15702Y36900D01*
G01X15726Y36853D01*
G01X15748Y36805D01*
G01X15768Y36756D01*
G01X15786Y36706D01*
G01X15803Y36655D01*
G01X15816Y36604D01*
G01X15828Y36553D01*
G01X15838Y36501D01*
G01X15846Y36448D01*
G01X15851Y36395D01*
G01X15854Y36343D01*
G01X15855Y36290D01*
G01X15854Y36237D01*
G01X15851Y36184D01*
G01X15846Y36131D01*
G01X15838Y36079D01*
G01X15828Y36027D01*
G01X15816Y35975D01*
G01X15803Y35924D01*
G01X15786Y35873D01*
G01X15768Y35824D01*
G01X15748Y35775D01*
G01X15726Y35727D01*
G01X15702Y35679D01*
G01X15676Y35633D01*
G01X15648Y35588D01*
G01X15618Y35544D01*
G01X15587Y35502D01*
G01X15554Y35461D01*
G01X15519Y35421D01*
G01X15482Y35382D01*
G01X15444Y35345D01*
G01X15405Y35310D01*
G01X15364Y35276D01*
G01X15322Y35245D01*
G01X15278Y35214D01*
G01X15233Y35186D01*
G01X15188Y35160D01*
G01X15141Y35135D01*
G01X15093Y35112D01*
G01X15080Y35105D01*
G01X15068Y35097D01*
G01X15058Y35087D01*
G01X15049Y35075D01*
G01X15042Y35062D01*
G01X15037Y35048D01*
G01X15034Y35034D01*
G01X15033Y35020D01*
G01X15034Y35005D01*
G01X15037Y34991D01*
G01X15042Y34977D01*
G01X15049Y34964D01*
G01X15058Y34953D01*
G01X15068Y34942D01*
G01X15080Y34934D01*
G01X15093Y34927D01*
G01X15141Y34904D01*
G01X15188Y34880D01*
G01X15233Y34853D01*
G01X15278Y34825D01*
G01X15322Y34795D01*
G01X15364Y34763D01*
G01X15405Y34729D01*
G01X15444Y34694D01*
G01X15482Y34657D01*
G01X15519Y34619D01*
G01X15554Y34579D01*
G01X15587Y34537D01*
G01X15618Y34495D01*
G01X15648Y34451D01*
G01X15676Y34406D01*
G01X15702Y34360D01*
G01X15726Y34313D01*
G01X15748Y34265D01*
G01X15768Y34216D01*
G01X15786Y34166D01*
G01X15803Y34115D01*
G01X15816Y34064D01*
G01X15828Y34013D01*
G01X15838Y33961D01*
G01X15846Y33908D01*
G01X15851Y33855D01*
G01X15854Y33803D01*
G01X15855Y33750D01*
G01X15854Y33697D01*
G01X15851Y33644D01*
G01X15846Y33591D01*
G01X15838Y33539D01*
G01X15828Y33487D01*
G01X15816Y33435D01*
G01X15803Y33384D01*
G01X15786Y33333D01*
G01X15768Y33284D01*
G01X15748Y33235D01*
G01X15726Y33187D01*
G01X15702Y33139D01*
G01X15676Y33093D01*
G01X15648Y33048D01*
G01X15618Y33004D01*
G01X15587Y32962D01*
G01X15554Y32921D01*
G01X15519Y32881D01*
G01X15482Y32842D01*
G01X15444Y32805D01*
G01X15405Y32770D01*
G01X15364Y32736D01*
G01X15322Y32705D01*
G01X15278Y32674D01*
G01X15233Y32646D01*
G01X15188Y32620D01*
G01X15141Y32595D01*
G01X15093Y32572D01*
G01X15080Y32565D01*
G01X15068Y32557D01*
G01X15058Y32547D01*
G01X15049Y32535D01*
G01X15042Y32522D01*
G01X15037Y32508D01*
G01X15034Y32494D01*
G01X15033Y32480D01*
G01X15034Y32465D01*
G01X15037Y32451D01*
G01X15042Y32437D01*
G01X15049Y32424D01*
G01X15058Y32413D01*
G01X15068Y32402D01*
G01X15080Y32394D01*
G01X15093Y32387D01*
G01X15141Y32364D01*
G01X15188Y32340D01*
G01X15233Y32313D01*
G01X15278Y32285D01*
G01X15322Y32255D01*
G01X15364Y32223D01*
G01X15405Y32189D01*
G01X15444Y32154D01*
G01X15482Y32117D01*
G01X15519Y32079D01*
G01X15554Y32039D01*
G01X15587Y31997D01*
G01X15618Y31955D01*
G01X15648Y31911D01*
G01X15676Y31866D01*
G01X15702Y31820D01*
G01X15726Y31773D01*
G01X15748Y31725D01*
G01X15768Y31676D01*
G01X15786Y31626D01*
G01X15803Y31575D01*
G01X15816Y31524D01*
G01X15828Y31473D01*
G01X15838Y31421D01*
G01X15846Y31368D01*
G01X15851Y31315D01*
G01X15854Y31263D01*
G01X15855Y31210D01*
G01X15854Y31157D01*
G01X15851Y31104D01*
G01X15846Y31051D01*
G01X15838Y30999D01*
G01X15828Y30947D01*
G01X15816Y30895D01*
G01X15803Y30844D01*
G01X15786Y30793D01*
G01X15768Y30744D01*
G01X15748Y30695D01*
G01X15726Y30647D01*
G01X15702Y30599D01*
G01X15676Y30553D01*
G01X15648Y30508D01*
G01X15618Y30464D01*
G01X15587Y30422D01*
G01X15554Y30381D01*
G01X15519Y30341D01*
G01X15482Y30302D01*
G01X15444Y30265D01*
G01X15405Y30230D01*
G01X15364Y30196D01*
G01X15322Y30165D01*
G01X15278Y30134D01*
G01X15233Y30106D01*
G01X15188Y30080D01*
G01X15141Y30055D01*
G01X15093Y30032D01*
G01X15080Y30025D01*
G01X15068Y30017D01*
G01X15058Y30007D01*
G01X15049Y29995D01*
G01X15042Y29982D01*
G01X15037Y29968D01*
G01X15034Y29954D01*
G01X15033Y29940D01*
G01X15034Y29925D01*
G01X15037Y29911D01*
G01X15042Y29897D01*
G01X15049Y29884D01*
G01X15058Y29873D01*
G01X15068Y29862D01*
G01X15080Y29854D01*
G01X15093Y29847D01*
G01X15141Y29824D01*
G01X15188Y29800D01*
G01X15233Y29773D01*
G01X15278Y29745D01*
G01X15322Y29715D01*
G01X15364Y29683D01*
G01X15405Y29649D01*
G01X15444Y29614D01*
G01X15482Y29577D01*
G01X15519Y29539D01*
G01X15554Y29499D01*
G01X15587Y29457D01*
G01X15618Y29415D01*
G01X15648Y29371D01*
G01X15676Y29326D01*
G01X15702Y29280D01*
G01X15726Y29233D01*
G01X15748Y29185D01*
G01X15768Y29136D01*
G01X15786Y29086D01*
G01X15803Y29035D01*
G01X15816Y28984D01*
G01X15828Y28933D01*
G01X15838Y28881D01*
G01X15846Y28828D01*
G01X15851Y28775D01*
G01X15854Y28723D01*
G01X15855Y28670D01*
G01X15854Y28617D01*
G01X15851Y28564D01*
G01X15846Y28511D01*
G01X15838Y28459D01*
G01X15828Y28407D01*
G01X15816Y28355D01*
G01X15803Y28304D01*
G01X15786Y28253D01*
G01X15768Y28204D01*
G01X15748Y28155D01*
G01X15726Y28107D01*
G01X15702Y28059D01*
G01X15676Y28013D01*
G01X15648Y27968D01*
G01X15618Y27924D01*
G01X15587Y27882D01*
G01X15554Y27841D01*
G01X15519Y27801D01*
G01X15482Y27762D01*
G01X15444Y27725D01*
G01X15405Y27690D01*
G01X15364Y27656D01*
G01X15322Y27625D01*
G01X15278Y27594D01*
G01X15233Y27566D01*
G01X15188Y27540D01*
G01X15141Y27515D01*
G01X15093Y27492D01*
G01X15080Y27485D01*
G01X15068Y27477D01*
G01X15058Y27467D01*
G01X15049Y27455D01*
G01X15042Y27442D01*
G01X15037Y27428D01*
G01X15034Y27414D01*
G01X15033Y27400D01*
G01X15034Y27385D01*
G01X15037Y27371D01*
G01X15042Y27357D01*
G01X15049Y27344D01*
G01X15058Y27333D01*
G01X15068Y27322D01*
G01X15080Y27314D01*
G01X15093Y27307D01*
G01X15141Y27284D01*
G01X15188Y27260D01*
G01X15233Y27233D01*
G01X15278Y27205D01*
G01X15322Y27175D01*
G01X15364Y27143D01*
G01X15405Y27109D01*
G01X15444Y27074D01*
G01X15482Y27037D01*
G01X15519Y26999D01*
G01X15554Y26959D01*
G01X15587Y26917D01*
G01X15618Y26875D01*
G01X15648Y26831D01*
G01X15676Y26786D01*
G01X15702Y26740D01*
G01X15726Y26693D01*
G01X15748Y26645D01*
G01X15768Y26596D01*
G01X15786Y26546D01*
G01X15803Y26495D01*
G01X15816Y26444D01*
G01X15828Y26393D01*
G01X15838Y26341D01*
G01X15846Y26288D01*
G01X15851Y26235D01*
G01X15854Y26183D01*
G01X15855Y26130D01*
G01X15854Y26077D01*
G01X15851Y26024D01*
G01X15846Y25971D01*
G01X15838Y25919D01*
G01X15828Y25867D01*
G01X15816Y25815D01*
G01X15803Y25764D01*
G01X15786Y25713D01*
G01X15768Y25664D01*
G01X15748Y25615D01*
G01X15726Y25567D01*
G01X15702Y25519D01*
G01X15676Y25473D01*
G01X15648Y25428D01*
G01X15618Y25384D01*
G01X15587Y25342D01*
G01X15554Y25301D01*
G01X15519Y25261D01*
G01X15482Y25222D01*
G01X15444Y25185D01*
G01X15405Y25150D01*
G01X15364Y25116D01*
G01X15322Y25085D01*
G01X15278Y25054D01*
G01X15233Y25026D01*
G01X15188Y25000D01*
G01X15141Y24975D01*
G01X15093Y24952D01*
G01X15080Y24945D01*
G01X15068Y24937D01*
G01X15058Y24927D01*
G01X15049Y24915D01*
G01X15042Y24902D01*
G01X15037Y24888D01*
G01X15034Y24874D01*
G01X15033Y24860D01*
G01X15034Y24845D01*
G01X15037Y24831D01*
G01X15042Y24817D01*
G01X15049Y24804D01*
G01X15058Y24793D01*
G01X15068Y24782D01*
G01X15080Y24774D01*
G01X15093Y24767D01*
G01X15141Y24744D01*
G01X15188Y24720D01*
G01X15233Y24693D01*
G01X15278Y24665D01*
G01X15322Y24635D01*
G01X15364Y24603D01*
G01X15405Y24569D01*
G01X15444Y24534D01*
G01X15482Y24497D01*
G01X15519Y24459D01*
G01X15554Y24419D01*
G01X15587Y24377D01*
G01X15618Y24335D01*
G01X15648Y24291D01*
G01X15676Y24246D01*
G01X15702Y24200D01*
G01X15726Y24153D01*
G01X15748Y24105D01*
G01X15768Y24056D01*
G01X15786Y24006D01*
G01X15803Y23955D01*
G01X15816Y23904D01*
G01X15828Y23853D01*
G01X15838Y23801D01*
G01X15846Y23748D01*
G01X15851Y23695D01*
G01X15854Y23643D01*
G01X15855Y23590D01*
G01X15854Y23537D01*
G01X15851Y23484D01*
G01X15846Y23431D01*
G01X15838Y23379D01*
G01X15828Y23327D01*
G01X15816Y23275D01*
G01X15803Y23224D01*
G01X15786Y23173D01*
G01X15768Y23124D01*
G01X15748Y23075D01*
G01X15726Y23027D01*
G01X15702Y22979D01*
G01X15676Y22933D01*
G01X15648Y22888D01*
G01X15618Y22844D01*
G01X15587Y22802D01*
G01X15554Y22761D01*
G01X15519Y22721D01*
G01X15482Y22682D01*
G01X15444Y22645D01*
G01X15405Y22610D01*
G01X15364Y22576D01*
G01X15322Y22545D01*
G01X15278Y22514D01*
G01X15233Y22486D01*
G01X15188Y22460D01*
G01X15141Y22435D01*
G01X15093Y22412D01*
G01X15080Y22405D01*
G01X15068Y22397D01*
G01X15058Y22387D01*
G01X15049Y22375D01*
G01X15042Y22362D01*
G01X15037Y22348D01*
G01X15034Y22334D01*
G01X15033Y22320D01*
G01X15034Y22305D01*
G01X15037Y22291D01*
G01X15042Y22277D01*
G01X15049Y22264D01*
G01X15058Y22253D01*
G01X15068Y22242D01*
G01X15080Y22234D01*
G01X15093Y22227D01*
G01X15141Y22204D01*
G01X15188Y22180D01*
G01X15233Y22153D01*
G01X15278Y22125D01*
G01X15322Y22095D01*
G01X15364Y22063D01*
G01X15405Y22029D01*
G01X15444Y21994D01*
G01X15482Y21957D01*
G01X15519Y21919D01*
G01X15554Y21879D01*
G01X15587Y21837D01*
G01X15618Y21795D01*
G01X15648Y21751D01*
G01X15676Y21706D01*
G01X15702Y21660D01*
G01X15726Y21613D01*
G01X15748Y21565D01*
G01X15768Y21516D01*
G01X15786Y21466D01*
G01X15803Y21415D01*
G01X15816Y21364D01*
G01X15828Y21313D01*
G01X15838Y21261D01*
G01X15846Y21208D01*
G01X15851Y21155D01*
G01X15854Y21103D01*
G01X15855Y21050D01*
G01X15854Y20997D01*
G01X15851Y20944D01*
G01X15846Y20891D01*
G01X15838Y20839D01*
G01X15828Y20787D01*
G01X15816Y20735D01*
G01X15803Y20684D01*
G01X15786Y20633D01*
G01X15768Y20584D01*
G01X15748Y20535D01*
G01X15726Y20487D01*
G01X15702Y20439D01*
G01X15676Y20393D01*
G01X15648Y20348D01*
G01X15618Y20304D01*
G01X15587Y20262D01*
G01X15554Y20221D01*
G01X15519Y20181D01*
G01X15482Y20142D01*
G01X15444Y20105D01*
G01X15405Y20070D01*
G01X15364Y20036D01*
G01X15322Y20005D01*
G01X15278Y19974D01*
G01X15233Y19946D01*
G01X15188Y19920D01*
G01X15141Y19895D01*
G01X15093Y19872D01*
G01X15080Y19865D01*
G01X15068Y19857D01*
G01X15058Y19847D01*
G01X15049Y19835D01*
G01X15042Y19822D01*
G01X15037Y19808D01*
G01X15034Y19794D01*
G01X15033Y19780D01*
G01X15034Y19765D01*
G01X15037Y19751D01*
G01X15042Y19737D01*
G01X15049Y19724D01*
G01X15058Y19713D01*
G01X15068Y19702D01*
G01X15080Y19694D01*
G01X15093Y19687D01*
G01X15141Y19664D01*
G01X15188Y19640D01*
G01X15233Y19613D01*
G01X15278Y19585D01*
G01X15322Y19555D01*
G01X15364Y19523D01*
G01X15405Y19489D01*
G01X15444Y19454D01*
G01X15482Y19417D01*
G01X15519Y19379D01*
G01X15554Y19339D01*
G01X15587Y19297D01*
G01X15618Y19255D01*
G01X15648Y19211D01*
G01X15676Y19166D01*
G01X15702Y19120D01*
G01X15726Y19073D01*
G01X15748Y19025D01*
G01X15768Y18976D01*
G01X15786Y18926D01*
G01X15803Y18875D01*
G01X15816Y18824D01*
G01X15828Y18773D01*
G01X15838Y18721D01*
G01X15846Y18668D01*
G01X15851Y18615D01*
G01X15854Y18563D01*
G01X15855Y18510D01*
G01X15854Y18457D01*
G01X15851Y18404D01*
G01X15846Y18351D01*
G01X15838Y18299D01*
G01X15828Y18247D01*
G01X15816Y18195D01*
G01X15803Y18144D01*
G01X15786Y18093D01*
G01X15768Y18044D01*
G01X15748Y17995D01*
G01X15726Y17947D01*
G01X15702Y17899D01*
G01X15676Y17853D01*
G01X15648Y17808D01*
G01X15618Y17764D01*
G01X15587Y17722D01*
G01X15554Y17681D01*
G01X15519Y17641D01*
G01X15482Y17602D01*
G01X15444Y17565D01*
G01X15405Y17530D01*
G01X15364Y17496D01*
G01X15322Y17465D01*
G01X15278Y17434D01*
G01X15233Y17406D01*
G01X15188Y17380D01*
G01X15141Y17355D01*
G01X15093Y17332D01*
G01X15080Y17325D01*
G01X15068Y17317D01*
G01X15058Y17307D01*
G01X15049Y17295D01*
G01X15042Y17282D01*
G01X15037Y17268D01*
G01X15034Y17254D01*
G01X15033Y17240D01*
G01X15034Y17225D01*
G01X15037Y17211D01*
G01X15042Y17197D01*
G01X15049Y17184D01*
G01X15058Y17173D01*
G01X15068Y17162D01*
G01X15080Y17154D01*
G01X15093Y17147D01*
G01X15141Y17124D01*
G01X15188Y17100D01*
G01X15233Y17073D01*
G01X15278Y17045D01*
G01X15322Y17015D01*
G01X15364Y16983D01*
G01X15405Y16949D01*
G01X15444Y16914D01*
G01X15482Y16877D01*
G01X15519Y16839D01*
G01X15554Y16799D01*
G01X15587Y16757D01*
G01X15618Y16715D01*
G01X15648Y16671D01*
G01X15676Y16626D01*
G01X15702Y16580D01*
G01X15726Y16533D01*
G01X15748Y16485D01*
G01X15768Y16436D01*
G01X15786Y16386D01*
G01X15803Y16335D01*
G01X15816Y16284D01*
G01X15828Y16233D01*
G01X15838Y16181D01*
G01X15846Y16128D01*
G01X15851Y16075D01*
G01X15854Y16023D01*
G01X15855Y15970D01*
G01X15854Y15917D01*
G01X15851Y15864D01*
G01X15846Y15811D01*
G01X15838Y15759D01*
G01X15828Y15707D01*
G01X15816Y15655D01*
G01X15803Y15604D01*
G01X15786Y15553D01*
G01X15768Y15504D01*
G01X15748Y15455D01*
G01X15726Y15407D01*
G01X15702Y15359D01*
G01X15676Y15313D01*
G01X15648Y15268D01*
G01X15618Y15224D01*
G01X15587Y15182D01*
G01X15554Y15141D01*
G01X15519Y15101D01*
G01X15482Y15062D01*
G01X15444Y15025D01*
G01X15405Y14990D01*
G01X15364Y14956D01*
G01X15322Y14925D01*
G01X15278Y14894D01*
G01X15233Y14866D01*
G01X15188Y14840D01*
G01X15141Y14815D01*
G01X15093Y14792D01*
G01X15080Y14785D01*
G01X15068Y14777D01*
G01X15058Y14767D01*
G01X15049Y14755D01*
G01X15042Y14742D01*
G01X15037Y14728D01*
G01X15034Y14714D01*
G01X15033Y14700D01*
G01X15034Y14685D01*
G01X15037Y14671D01*
G01X15042Y14657D01*
G01X15049Y14644D01*
G01X15058Y14633D01*
G01X15068Y14622D01*
G01X15080Y14614D01*
G01X15093Y14607D01*
G01X15141Y14584D01*
G01X15188Y14560D01*
G01X15233Y14533D01*
G01X15278Y14505D01*
G01X15322Y14475D01*
G01X15364Y14443D01*
G01X15405Y14409D01*
G01X15444Y14374D01*
G01X15482Y14337D01*
G01X15519Y14299D01*
G01X15554Y14259D01*
G01X15587Y14217D01*
G01X15618Y14175D01*
G01X15648Y14131D01*
G01X15676Y14086D01*
G01X15702Y14040D01*
G01X15726Y13993D01*
G01X15748Y13945D01*
G01X15768Y13896D01*
G01X15786Y13846D01*
G01X15803Y13795D01*
G01X15816Y13744D01*
G01X15828Y13693D01*
G01X15838Y13641D01*
G01X15846Y13588D01*
G01X15851Y13535D01*
G01X15854Y13483D01*
G01X15855Y13430D01*
G01X15854Y13378D01*
G01X15851Y13326D01*
G01X15846Y13274D01*
G01X15839Y13223D01*
G01X15829Y13172D01*
G01X15818Y13121D01*
G01X15804Y13071D01*
G01X15789Y13021D01*
G01X15772Y12972D01*
G01X15752Y12924D01*
G01X15731Y12877D01*
G01X15708Y12830D01*
G01X15683Y12785D01*
G01X15656Y12740D01*
G01X15627Y12697D01*
G01X15597Y12655D01*
G01X15565Y12614D01*
G01X15531Y12574D01*
G01X15496Y12536D01*
G01X15459Y12499D01*
G01X15421Y12464D01*
G01X15381Y12430D01*
G01X15340Y12398D01*
G01X15298Y12368D01*
G01X15255Y12339D01*
G01X15165Y12287D01*
G01X15118Y12264D01*
G01X15071Y12243D01*
G01X15023Y12224D01*
G01X14974Y12206D01*
G01X14924Y12191D01*
G01X14874Y12177D01*
G01X14824Y12166D01*
G01X14772Y12156D01*
G01X14721Y12149D01*
G01X14669Y12144D01*
G01X14617Y12141D01*
G01X14565Y12140D01*
G01X14512Y12141D01*
G01X14459Y12144D01*
G01X14406Y12150D01*
G01X14354Y12157D01*
G01X14302Y12167D01*
G01X14250Y12179D01*
G01X14199Y12193D01*
G01X14148Y12209D01*
G01X14098Y12227D01*
G01X14049Y12248D01*
G01X14001Y12270D01*
G01X13953Y12294D01*
G01X13907Y12320D01*
G01X13862Y12348D01*
G01X13818Y12378D01*
G01X13776Y12410D01*
G01X13734Y12443D01*
G01X13694Y12478D01*
G01X13656Y12515D01*
G01X13619Y12553D01*
G01X13584Y12593D01*
G01X13550Y12634D01*
G01X13540Y12645D01*
G01X13528Y12655D01*
G01X13515Y12663D01*
G01X13500Y12668D01*
G01X13485Y12672D01*
G01X13470Y12673D01*
G01X11851Y12673D01*
G01X11836Y12672D01*
G01X11821Y12668D01*
G01X11806Y12663D01*
G01X11793Y12655D01*
G01X11781Y12645D01*
G01X11771Y12634D01*
G01X11737Y12593D01*
G01X11702Y12553D01*
G01X11665Y12515D01*
G01X11627Y12478D01*
G01X11587Y12443D01*
G01X11545Y12410D01*
G01X11503Y12378D01*
G01X11459Y12348D01*
G01X11414Y12320D01*
G01X11367Y12294D01*
G01X11320Y12270D01*
G01X11272Y12248D01*
G01X11223Y12227D01*
G01X11173Y12209D01*
G01X11122Y12193D01*
G01X11071Y12179D01*
G01X11019Y12167D01*
G01X10967Y12157D01*
G01X10914Y12150D01*
G01X10862Y12144D01*
G01X10809Y12141D01*
G01X10755Y12140D01*
G01X10703Y12141D01*
G01X10652Y12144D01*
G01X10600Y12149D01*
G01X10548Y12156D01*
G01X10497Y12166D01*
G01X10446Y12177D01*
G01X10396Y12191D01*
G01X10346Y12206D01*
G01X10297Y12224D01*
G01X10249Y12243D01*
G01X10202Y12265D01*
G01X10155Y12288D01*
G01X10110Y12313D01*
G01X10065Y12340D01*
G01X10022Y12369D01*
G01X9980Y12399D01*
G01X9939Y12431D01*
G01X9899Y12465D01*
G01X9861Y12500D01*
G01X9824Y12537D01*
G01X9789Y12575D01*
G01X9755Y12615D01*
G01X9723Y12656D01*
G01X9693Y12698D01*
G01X9683Y12711D01*
G01X9670Y12722D01*
G01X9657Y12731D01*
G01X9641Y12737D01*
G01X9626Y12741D01*
G01X9609Y12742D01*
G01X9499Y12742D01*
G01X9460Y12743D01*
G01X9420Y12746D01*
G01X9381Y12752D01*
G01X9342Y12759D01*
G01X9303Y12768D01*
G01X9265Y12779D01*
G01X9228Y12793D01*
G01X9191Y12808D01*
G01X9156Y12825D01*
G01X9121Y12844D01*
G01X9087Y12864D01*
G01X9054Y12887D01*
G01X9023Y12911D01*
G01X8993Y12937D01*
G01X8964Y12964D01*
G01X8224Y13704D01*
G01X8212Y13714D01*
G01X8198Y13723D01*
G01X8183Y13729D01*
G01X8168Y13733D01*
G01X8152Y13734D01*
G01X6393Y13734D01*
G01X6377Y13732D01*
G01X6361Y13729D01*
G01X6346Y13722D01*
G01X6332Y13713D01*
G01X6320Y13703D01*
G01X6277Y13660D01*
G01X6231Y13620D01*
G01X6184Y13582D01*
G01X6172Y13572D01*
G01X6162Y13560D01*
G01X6154Y13546D01*
G01X6148Y13532D01*
G01X6144Y13516D01*
G01X6143Y13501D01*
G01X6144Y13485D01*
G01X6148Y13470D01*
G01X6154Y13455D01*
G01X6162Y13442D01*
G01X6172Y13430D01*
G01X6184Y13420D01*
G01X6223Y13389D01*
G01X6261Y13356D01*
G01X6298Y13321D01*
G01X6333Y13285D01*
G01X6366Y13248D01*
G01X6398Y13209D01*
G01X6428Y13169D01*
G01X6456Y13127D01*
G01X6482Y13085D01*
G01X6506Y13041D01*
G01X6529Y12996D01*
G01X6549Y12950D01*
G01X6568Y12903D01*
G01X6584Y12856D01*
G01X6598Y12808D01*
G01X6610Y12759D01*
G01X6620Y12710D01*
G01X6628Y12660D01*
G01X6633Y12610D01*
G01X6637Y12560D01*
G01X6638Y12510D01*
G01X6637Y12461D01*
G01X6634Y12413D01*
G01X6628Y12364D01*
G01X6621Y12316D01*
G01X6612Y12268D01*
G01X6600Y12221D01*
G01X6587Y12174D01*
G01X6571Y12127D01*
G01X6554Y12082D01*
G01X6535Y12037D01*
G01X6513Y11993D01*
G01X6490Y11950D01*
G01X6465Y11908D01*
G01X6439Y11867D01*
G01X6410Y11828D01*
G01X6380Y11789D01*
G01X6349Y11752D01*
G01X6315Y11717D01*
G01X6280Y11682D01*
G01X6244Y11650D01*
G01X6207Y11619D01*
G01X6168Y11589D01*
G01X6156Y11579D01*
G01X6145Y11567D01*
G01X6137Y11553D01*
G01X6131Y11538D01*
G01X6127Y11523D01*
G01X6126Y11507D01*
G01X6127Y11491D01*
G01X6131Y11475D01*
G01X6137Y11461D01*
G01X6145Y11447D01*
G01X6156Y11435D01*
G01X6168Y11425D01*
G01X6207Y11395D01*
G01X6244Y11364D01*
G01X6281Y11331D01*
G01X6316Y11297D01*
G01X6349Y11261D01*
G01X6381Y11224D01*
G01X6411Y11185D01*
G01X6439Y11145D01*
G01X6466Y11104D01*
G01X6491Y11062D01*
G01X6514Y11019D01*
G01X6535Y10975D01*
G01X6555Y10930D01*
G01X6572Y10885D01*
G01X5881Y10885D01*
G01X5881Y11303D01*
G01X5880Y11317D01*
G01X5877Y11332D01*
G01X5872Y11345D01*
G01X5865Y11358D01*
G01X5856Y11369D01*
G01X5846Y11380D01*
G01X5835Y11388D01*
G01X5822Y11395D01*
G01X5808Y11400D01*
G01X5794Y11403D01*
G01X5780Y11405D01*
G01X5757Y11402D01*
G01X5706Y11391D01*
G01X5655Y11383D01*
G01X5604Y11377D01*
G01X5552Y11374D01*
G01X5500Y11373D01*
G01X5449Y11374D01*
G01X5397Y11377D01*
G01X5345Y11383D01*
G01X5294Y11391D01*
G01X5244Y11402D01*
G01X5221Y11405D01*
G01X5206Y11403D01*
G01X5192Y11400D01*
G01X5179Y11395D01*
G01X5166Y11388D01*
G01X5154Y11380D01*
G01X5144Y11369D01*
G01X5135Y11358D01*
G01X5128Y11345D01*
G01X5123Y11332D01*
G01X5120Y11317D01*
G01X5119Y11303D01*
G01X5119Y10885D01*
G01X4428Y10885D01*
G01X4446Y10930D01*
G01X4465Y10975D01*
G01X4486Y11019D01*
G01X4509Y11062D01*
G01X4534Y11104D01*
G01X4561Y11145D01*
G01X4590Y11185D01*
G01X4620Y11224D01*
G01X4651Y11261D01*
G01X4685Y11297D01*
G01X4720Y11331D01*
G01X4756Y11364D01*
G01X4794Y11395D01*
G01X4833Y11425D01*
G01X4845Y11435D01*
G01X4855Y11447D01*
G01X4864Y11461D01*
G01X4870Y11475D01*
G01X4873Y11491D01*
G01X4875Y11507D01*
G01X4873Y11523D01*
G01X4870Y11538D01*
G01X4864Y11553D01*
G01X4855Y11567D01*
G01X4845Y11579D01*
G01X4833Y11589D01*
G01X4794Y11619D01*
G01X4756Y11650D01*
G01X4720Y11682D01*
G01X4685Y11717D01*
G01X4652Y11752D01*
G01X4620Y11789D01*
G01X4590Y11828D01*
G01X4562Y11867D01*
G01X4535Y11908D01*
G01X4510Y11950D01*
G01X4487Y11993D01*
G01X4466Y12037D01*
G01X4446Y12082D01*
G01X4429Y12127D01*
G01X4414Y12174D01*
G01X4400Y12221D01*
G01X4389Y12268D01*
G01X4379Y12316D01*
G01X4372Y12364D01*
G01X4367Y12413D01*
G01X4364Y12461D01*
G01X4363Y12510D01*
G01X4364Y12560D01*
G01X4367Y12610D01*
G01X4373Y12660D01*
G01X4380Y12710D01*
G01X4390Y12759D01*
G01X4402Y12808D01*
G01X4416Y12856D01*
G01X4433Y12903D01*
G01X4451Y12950D01*
G01X4472Y12996D01*
G01X4494Y13041D01*
G01X4518Y13085D01*
G01X4545Y13127D01*
G01X4573Y13169D01*
G01X4603Y13209D01*
G01X4634Y13248D01*
G01X4668Y13285D01*
G01X4703Y13321D01*
G01X4739Y13356D01*
G01X4777Y13389D01*
G01X4817Y13420D01*
G01X4829Y13430D01*
G01X4839Y13442D01*
G01X4847Y13455D01*
G01X4853Y13470D01*
G01X4856Y13485D01*
G01X4857Y13501D01*
G01X4856Y13516D01*
G01X4853Y13532D01*
G01X4847Y13546D01*
G01X4839Y13560D01*
G01X4829Y13572D01*
G01X4817Y13582D01*
G01X4777Y13613D01*
G01X4739Y13646D01*
G01X4703Y13680D01*
G01X4668Y13716D01*
G01X4634Y13754D01*
G01X4603Y13792D01*
G01X4573Y13833D01*
G01X4545Y13874D01*
G01X4518Y13917D01*
G01X4494Y13961D01*
G01X4472Y14006D01*
G01X4451Y14052D01*
G01X4433Y14098D01*
G01X4416Y14146D01*
G01X4402Y14194D01*
G01X4390Y14242D01*
G01X4380Y14292D01*
G01X4373Y14341D01*
G01X4367Y14391D01*
G01X4364Y14441D01*
G01X4363Y14491D01*
G01X4364Y14541D01*
G01X4367Y14591D01*
G01X4373Y14641D01*
G01X4380Y14691D01*
G01X4390Y14740D01*
G01X4402Y14788D01*
G01X4416Y14836D01*
G01X4432Y14884D01*
G01X4451Y14930D01*
G01X4471Y14976D01*
G01X4493Y15021D01*
G01X4518Y15065D01*
G01X4544Y15107D01*
G01X4572Y15149D01*
G01X4602Y15189D01*
G01X4633Y15228D01*
G01X4666Y15265D01*
G01X4676Y15277D01*
G01X4684Y15290D01*
G01X4689Y15304D01*
G01X4692Y15319D01*
G01X4694Y15334D01*
G01X4692Y15350D01*
G01X4689Y15366D01*
G01X4682Y15381D01*
G01X4674Y15395D01*
G01X4663Y15407D01*
G01X4651Y15417D01*
G01X4637Y15425D01*
G01X4608Y15441D01*
G01X4580Y15458D01*
G01X4554Y15477D01*
G01X4528Y15498D01*
G01X4504Y15521D01*
G01X4482Y15545D01*
G01X4461Y15570D01*
G01X4442Y15597D01*
G01X4425Y15625D01*
G01X4409Y15654D01*
G01X4396Y15684D01*
G01X4384Y15714D01*
G01X4375Y15746D01*
G01X4367Y15778D01*
G01X4362Y15810D01*
G01X4359Y15843D01*
G01X4358Y15876D01*
G01X4358Y17146D01*
G01X4359Y17179D01*
G01X4362Y17211D01*
G01X4367Y17244D01*
G01X4375Y17276D01*
G01X4384Y17307D01*
G01X4396Y17338D01*
G01X4409Y17368D01*
G01X4425Y17397D01*
G01X4442Y17425D01*
G01X4461Y17452D01*
G01X4482Y17477D01*
G01X4505Y17501D01*
G01X4529Y17523D01*
G01X4554Y17544D01*
G01X4581Y17563D01*
G01X4609Y17581D01*
G01X4638Y17596D01*
G01X4668Y17610D01*
G01X4699Y17622D01*
G01X4730Y17631D01*
G01X4762Y17639D01*
G01X4795Y17644D01*
G01X4827Y17647D01*
G01X4860Y17648D01*
G01X6130Y17648D01*
G01X6162Y17647D01*
G01X6194Y17644D01*
G01X6226Y17639D01*
G01X6257Y17632D01*
G01X6288Y17623D01*
G01X6318Y17612D01*
G01X6347Y17599D01*
G01X6376Y17584D01*
G01X6403Y17567D01*
G01X6430Y17549D01*
G01X6455Y17529D01*
G01X6479Y17508D01*
G01X6501Y17485D01*
G01X6522Y17460D01*
G01X6541Y17435D01*
G01X6559Y17408D01*
G01X6575Y17380D01*
G01X6589Y17351D01*
G01X6601Y17322D01*
G01X6607Y17308D01*
G01X6616Y17295D01*
G01X6626Y17283D01*
G01X6638Y17274D01*
G01X6651Y17266D01*
G01X6666Y17260D01*
G01X6681Y17257D01*
G01X6696Y17255D01*
G01X9976Y17255D01*
G01X9990Y17257D01*
G01X10004Y17260D01*
G01X10018Y17265D01*
G01X10031Y17272D01*
G01X10042Y17280D01*
G01X10053Y17291D01*
G01X10061Y17302D01*
G01X10068Y17315D01*
G01X10073Y17328D01*
G01X10076Y17343D01*
G01X10077Y17357D01*
G01X10076Y17374D01*
G01X10072Y17390D01*
G01X10065Y17405D01*
G01X10057Y17419D01*
G01X10046Y17431D01*
G01X10033Y17441D01*
G01X9987Y17473D01*
G01X9943Y17507D01*
G01X9901Y17543D01*
G01X9860Y17581D01*
G01X9821Y17620D01*
G01X9784Y17661D01*
G01X9748Y17704D01*
G01X9738Y17715D01*
G01X9726Y17724D01*
G01X9713Y17732D01*
G01X9699Y17737D01*
G01X9684Y17741D01*
G01X9669Y17742D01*
G01X9000Y17742D01*
G01X8961Y17743D01*
G01X8921Y17746D01*
G01X8882Y17751D01*
G01X8843Y17758D01*
G01X8804Y17768D01*
G01X8766Y17779D01*
G01X8729Y17792D01*
G01X8692Y17807D01*
G01X8656Y17824D01*
G01X8622Y17843D01*
G01X8588Y17864D01*
G01X8555Y17887D01*
G01X8524Y17911D01*
G01X8493Y17937D01*
G01X8465Y17964D01*
G01X6093Y20335D01*
G01X6081Y20345D01*
G01X6068Y20354D01*
G01X6053Y20360D01*
G01X6037Y20364D01*
G01X6022Y20365D01*
G01X4864Y20365D01*
G01X4832Y20366D01*
G01X4799Y20369D01*
G01X4766Y20375D01*
G01X4734Y20382D01*
G01X4703Y20392D01*
G01X4672Y20403D01*
G01X4642Y20417D01*
G01X4613Y20432D01*
G01X4585Y20450D01*
G01X4559Y20469D01*
G01X4533Y20490D01*
G01X4509Y20512D01*
G01X4487Y20536D01*
G01X4466Y20562D01*
G01X4447Y20588D01*
G01X4429Y20616D01*
G01X4414Y20645D01*
G01X4400Y20675D01*
G01X4389Y20706D01*
G01X4379Y20737D01*
G01X4372Y20769D01*
G01X4366Y20802D01*
G01X4363Y20835D01*
G01X4362Y20867D01*
G01X4362Y22137D01*
G01X4363Y22170D01*
G01X4366Y22202D01*
G01X4371Y22233D01*
G01X4378Y22265D01*
G01X4388Y22296D01*
G01X4399Y22326D01*
G01X4412Y22355D01*
G01X4427Y22384D01*
G01X4443Y22412D01*
G01X4462Y22438D01*
G01X4482Y22463D01*
G01X4503Y22487D01*
G01X4527Y22509D01*
G01X4551Y22530D01*
G01X4577Y22550D01*
G01X4604Y22567D01*
G01X4632Y22583D01*
G01X4645Y22591D01*
G01X4657Y22602D01*
G01X4667Y22614D01*
G01X4676Y22627D01*
G01X4682Y22642D01*
G01X4685Y22657D01*
G01X4687Y22673D01*
G01X4685Y22688D01*
G01X4682Y22703D01*
G01X4677Y22717D01*
G01X4669Y22730D01*
G01X4660Y22742D01*
G01X4627Y22779D01*
G01X4596Y22818D01*
G01X4567Y22858D01*
G01X4540Y22899D01*
G01X4514Y22941D01*
G01X4490Y22985D01*
G01X4468Y23029D01*
G01X4448Y23074D01*
G01X4430Y23121D01*
G01X4414Y23168D01*
G01X4401Y23215D01*
G01X4389Y23263D01*
G01X4379Y23312D01*
G01X4372Y23361D01*
G01X4366Y23410D01*
G01X4363Y23460D01*
G01X4362Y23509D01*
G01X4363Y23559D01*
G01X4366Y23609D01*
G01X4372Y23659D01*
G01X4380Y23709D01*
G01X4389Y23758D01*
G01X4402Y23807D01*
G01X4416Y23855D01*
G01X4432Y23902D01*
G01X4450Y23949D01*
G01X4471Y23995D01*
G01X4493Y24040D01*
G01X4518Y24084D01*
G01X4544Y24126D01*
G01X4572Y24168D01*
G01X4602Y24208D01*
G01X4634Y24247D01*
G01X4667Y24284D01*
G01X4702Y24320D01*
G01X4739Y24355D01*
G01X4777Y24387D01*
G01X4816Y24418D01*
G01X4828Y24429D01*
G01X4838Y24441D01*
G01X4846Y24454D01*
G01X4852Y24469D01*
G01X4855Y24484D01*
G01X4857Y24500D01*
G01X4855Y24515D01*
G01X4852Y24531D01*
G01X4846Y24545D01*
G01X4838Y24559D01*
G01X4828Y24571D01*
G01X4816Y24581D01*
G01X4777Y24612D01*
G01X4739Y24645D01*
G01X4702Y24679D01*
G01X4667Y24715D01*
G01X4634Y24752D01*
G01X4602Y24791D01*
G01X4572Y24832D01*
G01X4544Y24873D01*
G01X4518Y24916D01*
G01X4493Y24960D01*
G01X4471Y25005D01*
G01X4450Y25050D01*
G01X4432Y25097D01*
G01X4416Y25145D01*
G01X4402Y25193D01*
G01X4389Y25241D01*
G01X4380Y25291D01*
G01X4372Y25340D01*
G01X4366Y25390D01*
G01X4363Y25440D01*
G01X4362Y25490D01*
G01X4363Y25539D01*
G01X4366Y25588D01*
G01X4371Y25636D01*
G01X4379Y25685D01*
G01X4388Y25732D01*
G01X4399Y25780D01*
G01X4413Y25827D01*
G01X4428Y25873D01*
G01X4446Y25919D01*
G01X4465Y25963D01*
G01X4486Y26007D01*
G01X4509Y26050D01*
G01X4534Y26092D01*
G01X4561Y26133D01*
G01X4589Y26173D01*
G01X4619Y26211D01*
G01X4651Y26248D01*
G01X4684Y26284D01*
G01X4719Y26318D01*
G01X4755Y26351D01*
G01X4793Y26382D01*
G01X4832Y26411D01*
G01X4844Y26422D01*
G01X4854Y26434D01*
G01X4863Y26447D01*
G01X4869Y26462D01*
G01X4873Y26478D01*
G01X4874Y26494D01*
G01X4873Y26510D01*
G01X4869Y26525D01*
G01X4863Y26540D01*
G01X4854Y26553D01*
G01X4844Y26566D01*
G01X4832Y26576D01*
G01X4793Y26605D01*
G01X4755Y26637D01*
G01X4719Y26669D01*
G01X4684Y26704D01*
G01X4651Y26740D01*
G01X4619Y26777D01*
G01X4589Y26815D01*
G01X4560Y26855D01*
G01X4534Y26896D01*
G01X4509Y26938D01*
G01X4486Y26981D01*
G01X4464Y27025D01*
G01X4445Y27070D01*
G01X4428Y27116D01*
G01X5118Y27116D01*
G01X5118Y26698D01*
G01X5119Y26683D01*
G01X5123Y26669D01*
G01X5128Y26655D01*
G01X5135Y26643D01*
G01X5143Y26631D01*
G01X5154Y26621D01*
G01X5165Y26612D01*
G01X5178Y26605D01*
G01X5191Y26600D01*
G01X5206Y26597D01*
G01X5220Y26596D01*
G01X5243Y26599D01*
G01X5294Y26609D01*
G01X5345Y26617D01*
G01X5396Y26623D01*
G01X5448Y26627D01*
G01X5499Y26628D01*
G01X5551Y26627D01*
G01X5603Y26623D01*
G01X5654Y26617D01*
G01X5705Y26609D01*
G01X5756Y26599D01*
G01X5779Y26596D01*
G01X5793Y26597D01*
G01X5807Y26600D01*
G01X5821Y26605D01*
G01X5834Y26612D01*
G01X5845Y26621D01*
G01X5856Y26631D01*
G01X5864Y26643D01*
G01X5871Y26655D01*
G01X5876Y26669D01*
G01X5879Y26683D01*
G01X5880Y26698D01*
G01X5880Y27116D01*
G01X6571Y27116D01*
G01X6554Y27070D01*
G01X6535Y27025D01*
G01X6513Y26981D01*
G01X6490Y26938D01*
G01X6465Y26896D01*
G01X6439Y26855D01*
G01X6410Y26815D01*
G01X6380Y26777D01*
G01X6348Y26740D01*
G01X6315Y26704D01*
G01X6280Y26669D01*
G01X6244Y26637D01*
G01X6206Y26605D01*
G01X6167Y26576D01*
G01X6155Y26566D01*
G01X6145Y26553D01*
G01X6136Y26540D01*
G01X6130Y26525D01*
G01X6126Y26510D01*
G01X6125Y26494D01*
G01X6126Y26478D01*
G01X6130Y26462D01*
G01X6136Y26447D01*
G01X6145Y26434D01*
G01X6155Y26422D01*
G01X6167Y26411D01*
G01X6206Y26382D01*
G01X6244Y26351D01*
G01X6280Y26318D01*
G01X6315Y26284D01*
G01X6348Y26248D01*
G01X6379Y26211D01*
G01X6410Y26173D01*
G01X6438Y26133D01*
G01X6465Y26092D01*
G01X6490Y26050D01*
G01X6513Y26007D01*
G01X6534Y25963D01*
G01X6553Y25919D01*
G01X6571Y25873D01*
G01X6586Y25827D01*
G01X6600Y25780D01*
G01X6611Y25732D01*
G01X6620Y25685D01*
G01X6628Y25636D01*
G01X6633Y25588D01*
G01X6636Y25539D01*
G01X6637Y25490D01*
G01X6636Y25440D01*
G01X6633Y25390D01*
G01X6627Y25340D01*
G01X6619Y25291D01*
G01X6609Y25241D01*
G01X6597Y25193D01*
G01X6583Y25145D01*
G01X6567Y25097D01*
G01X6549Y25050D01*
G01X6528Y25005D01*
G01X6506Y24960D01*
G01X6481Y24916D01*
G01X6455Y24873D01*
G01X6427Y24832D01*
G01X6397Y24791D01*
G01X6365Y24752D01*
G01X6332Y24715D01*
G01X6297Y24679D01*
G01X6260Y24645D01*
G01X6222Y24612D01*
G01X6183Y24581D01*
G01X6171Y24571D01*
G01X6161Y24559D01*
G01X6153Y24545D01*
G01X6147Y24531D01*
G01X6144Y24515D01*
G01X6142Y24500D01*
G01X6144Y24484D01*
G01X6147Y24469D01*
G01X6153Y24454D01*
G01X6161Y24441D01*
G01X6171Y24429D01*
G01X6183Y24418D01*
G01X6230Y24381D01*
G01X6276Y24340D01*
G01X6319Y24298D01*
G01X6331Y24287D01*
G01X6345Y24278D01*
G01X6360Y24272D01*
G01X6376Y24268D01*
G01X6392Y24267D01*
G01X6490Y24267D01*
G01X6530Y24266D01*
G01X6569Y24262D01*
G01X6609Y24257D01*
G01X6648Y24250D01*
G01X6686Y24241D01*
G01X6724Y24229D01*
G01X6762Y24216D01*
G01X6798Y24201D01*
G01X6834Y24184D01*
G01X6869Y24165D01*
G01X6903Y24144D01*
G01X6935Y24122D01*
G01X6967Y24098D01*
G01X6997Y24072D01*
G01X7026Y24045D01*
G01X9284Y21787D01*
G01X9296Y21777D01*
G01X9309Y21768D01*
G01X9324Y21762D01*
G01X9339Y21758D01*
G01X9355Y21757D01*
G01X9623Y21757D01*
G01X9639Y21758D01*
G01X9655Y21762D01*
G01X9670Y21768D01*
G01X9684Y21777D01*
G01X9696Y21787D01*
G01X9706Y21800D01*
G01X9737Y21842D01*
G01X9771Y21883D01*
G01X9805Y21922D01*
G01X9842Y21960D01*
G01X9879Y21996D01*
G01X9919Y22031D01*
G01X9959Y22064D01*
G01X10001Y22096D01*
G01X10044Y22126D01*
G01X10089Y22154D01*
G01X10134Y22180D01*
G01X10181Y22204D01*
G01X10228Y22227D01*
G01X10241Y22234D01*
G01X10253Y22242D01*
G01X10263Y22253D01*
G01X10272Y22264D01*
G01X10279Y22277D01*
G01X10284Y22291D01*
G01X10287Y22305D01*
G01X10288Y22320D01*
G01X10287Y22334D01*
G01X10284Y22348D01*
G01X10279Y22362D01*
G01X10272Y22375D01*
G01X10263Y22387D01*
G01X10253Y22397D01*
G01X10241Y22405D01*
G01X10228Y22412D01*
G01X10180Y22435D01*
G01X10133Y22460D01*
G01X10088Y22486D01*
G01X10043Y22514D01*
G01X9999Y22545D01*
G01X9957Y22576D01*
G01X9916Y22610D01*
G01X9877Y22645D01*
G01X9839Y22682D01*
G01X9802Y22721D01*
G01X9767Y22761D01*
G01X9734Y22802D01*
G01X9703Y22844D01*
G01X9673Y22888D01*
G01X9645Y22933D01*
G01X9619Y22979D01*
G01X9595Y23027D01*
G01X9573Y23075D01*
G01X9553Y23124D01*
G01X9535Y23173D01*
G01X9518Y23224D01*
G01X9504Y23275D01*
G01X9493Y23327D01*
G01X9483Y23379D01*
G01X9475Y23431D01*
G01X9470Y23484D01*
G01X9467Y23537D01*
G01X9466Y23590D01*
G01X9467Y23643D01*
G01X9470Y23695D01*
G01X9475Y23748D01*
G01X9483Y23801D01*
G01X9493Y23853D01*
G01X9504Y23904D01*
G01X9518Y23955D01*
G01X9535Y24006D01*
G01X9553Y24056D01*
G01X9573Y24105D01*
G01X9595Y24153D01*
G01X9619Y24200D01*
G01X9645Y24246D01*
G01X9673Y24291D01*
G01X9703Y24335D01*
G01X9734Y24377D01*
G01X9767Y24419D01*
G01X9802Y24459D01*
G01X9839Y24497D01*
G01X9877Y24534D01*
G01X9916Y24569D01*
G01X9957Y24603D01*
G01X9999Y24635D01*
G01X10043Y24665D01*
G01X10088Y24693D01*
G01X10133Y24720D01*
G01X10180Y24744D01*
G01X10228Y24767D01*
G01X10241Y24774D01*
G01X10253Y24782D01*
G01X10263Y24793D01*
G01X10272Y24804D01*
G01X10279Y24817D01*
G01X10284Y24831D01*
G01X10287Y24845D01*
G01X10288Y24860D01*
G01X10287Y24874D01*
G01X10284Y24888D01*
G01X10279Y24902D01*
G01X10272Y24915D01*
G01X10263Y24927D01*
G01X10253Y24937D01*
G01X10241Y24945D01*
G01X10228Y24952D01*
G01X10180Y24975D01*
G01X10133Y25000D01*
G01X10088Y25026D01*
G01X10043Y25054D01*
G01X9999Y25085D01*
G01X9957Y25116D01*
G01X9916Y25150D01*
G01X9877Y25185D01*
G01X9839Y25222D01*
G01X9802Y25261D01*
G01X9767Y25301D01*
G01X9734Y25342D01*
G01X9703Y25384D01*
G01X9673Y25428D01*
G01X9645Y25473D01*
G01X9619Y25519D01*
G01X9595Y25567D01*
G01X9573Y25615D01*
G01X9553Y25664D01*
G01X9535Y25713D01*
G01X9518Y25764D01*
G01X9504Y25815D01*
G01X9493Y25867D01*
G01X9483Y25919D01*
G01X9475Y25971D01*
G01X9470Y26024D01*
G01X9467Y26077D01*
G01X9466Y26130D01*
G01X9467Y26183D01*
G01X9470Y26235D01*
G01X9475Y26288D01*
G01X9483Y26341D01*
G01X9493Y26393D01*
G01X9504Y26444D01*
G01X9518Y26495D01*
G01X9535Y26546D01*
G01X9553Y26596D01*
G01X9573Y26645D01*
G01X9595Y26693D01*
G01X9619Y26740D01*
G01X9645Y26786D01*
G01X9673Y26831D01*
G01X9703Y26875D01*
G01X9734Y26917D01*
G01X9767Y26959D01*
G01X9802Y26999D01*
G01X9839Y27037D01*
G01X9877Y27074D01*
G01X9916Y27109D01*
G01X9957Y27143D01*
G01X9999Y27175D01*
G01X10043Y27205D01*
G01X10088Y27233D01*
G01X10133Y27260D01*
G01X10180Y27284D01*
G01X10228Y27307D01*
G01X10241Y27314D01*
G01X10253Y27322D01*
G01X10263Y27333D01*
G01X10272Y27344D01*
G01X10279Y27357D01*
G01X10284Y27371D01*
G01X10287Y27385D01*
G01X10288Y27400D01*
G01X10287Y27414D01*
G01X10284Y27428D01*
G01X10279Y27442D01*
G01X10272Y27455D01*
G01X10263Y27467D01*
G01X10253Y27477D01*
G01X10241Y27485D01*
G01X10228Y27492D01*
G01X10180Y27515D01*
G01X10133Y27540D01*
G01X10088Y27566D01*
G01X10043Y27594D01*
G01X9999Y27625D01*
G01X9957Y27656D01*
G01X9916Y27690D01*
G01X9877Y27725D01*
G01X9839Y27762D01*
G01X9802Y27801D01*
G01X9767Y27841D01*
G01X9734Y27882D01*
G01X9703Y27924D01*
G01X9673Y27968D01*
G01X9645Y28013D01*
G01X9619Y28059D01*
G01X9595Y28107D01*
G01X9573Y28155D01*
G01X9553Y28204D01*
G01X9535Y28253D01*
G01X9518Y28304D01*
G01X9504Y28355D01*
G01X9493Y28407D01*
G01X9483Y28459D01*
G01X9475Y28511D01*
G01X9470Y28564D01*
G01X9467Y28617D01*
G01X9466Y28670D01*
G01X9467Y28723D01*
G01X9470Y28775D01*
G01X9475Y28828D01*
G01X9483Y28881D01*
G01X9493Y28933D01*
G01X9504Y28984D01*
G01X9518Y29035D01*
G01X9535Y29086D01*
G01X9553Y29136D01*
G01X9573Y29185D01*
G01X9595Y29233D01*
G01X9619Y29280D01*
G01X9645Y29326D01*
G01X9673Y29371D01*
G01X9703Y29415D01*
G01X9734Y29457D01*
G01X9767Y29499D01*
G01X9802Y29539D01*
G01X9839Y29577D01*
G01X9877Y29614D01*
G01X9916Y29649D01*
G01X9957Y29683D01*
G01X9999Y29715D01*
G01X10043Y29745D01*
G01X10088Y29773D01*
G01X10133Y29800D01*
G01X10180Y29824D01*
G01X10228Y29847D01*
G01X10241Y29854D01*
G01X10253Y29862D01*
G01X10263Y29873D01*
G01X10272Y29884D01*
G01X10279Y29897D01*
G01X10284Y29911D01*
G01X10287Y29925D01*
G01X10288Y29940D01*
G01X10287Y29954D01*
G01X10284Y29968D01*
G01X10279Y29982D01*
G01X10272Y29995D01*
G01X10263Y30007D01*
G01X10253Y30017D01*
G01X10241Y30025D01*
G01X10228Y30032D01*
G01X10180Y30055D01*
G01X10133Y30080D01*
G01X10088Y30106D01*
G01X10043Y30134D01*
G01X9999Y30165D01*
G01X9957Y30196D01*
G01X9916Y30230D01*
G01X9877Y30265D01*
G01X9839Y30302D01*
G01X9802Y30341D01*
G01X9767Y30381D01*
G01X9734Y30422D01*
G01X9703Y30464D01*
G01X9673Y30508D01*
G01X9645Y30553D01*
G01X9619Y30599D01*
G01X9595Y30647D01*
G01X9573Y30695D01*
G01X9553Y30744D01*
G01X9535Y30793D01*
G01X9518Y30844D01*
G01X9504Y30895D01*
G01X9493Y30947D01*
G01X9483Y30999D01*
G01X9475Y31051D01*
G01X9470Y31104D01*
G01X9467Y31157D01*
G01X9466Y31210D01*
G01X9467Y31263D01*
G01X9470Y31315D01*
G01X9475Y31368D01*
G01X9483Y31421D01*
G01X9493Y31473D01*
G01X9504Y31524D01*
G01X9518Y31575D01*
G01X9535Y31626D01*
G01X9553Y31676D01*
G01X9573Y31725D01*
G01X9595Y31773D01*
G01X9619Y31820D01*
G01X9645Y31866D01*
G01X9673Y31911D01*
G01X9703Y31955D01*
G01X9734Y31997D01*
G01X9767Y32039D01*
G01X9802Y32079D01*
G01X9839Y32117D01*
G01X9877Y32154D01*
G01X9916Y32189D01*
G01X9957Y32223D01*
G01X9999Y32255D01*
G01X10043Y32285D01*
G01X10088Y32313D01*
G01X10133Y32340D01*
G01X10180Y32364D01*
G01X10228Y32387D01*
G01X10241Y32394D01*
G01X10253Y32402D01*
G01X10263Y32413D01*
G01X10272Y32424D01*
G01X10279Y32437D01*
G01X10284Y32451D01*
G01X10287Y32465D01*
G01X10288Y32480D01*
G01X10287Y32494D01*
G01X10284Y32508D01*
G01X10279Y32522D01*
G01X10272Y32535D01*
G01X10263Y32547D01*
G01X10253Y32557D01*
G01X10241Y32565D01*
G01X10228Y32572D01*
G01X10181Y32595D01*
G01X10135Y32619D01*
G01X10090Y32645D01*
G01X10046Y32672D01*
G01X10003Y32702D01*
G01X9961Y32733D01*
G01X9921Y32766D01*
G01X9882Y32800D01*
G01X9844Y32836D01*
G01X9808Y32874D01*
G01X9774Y32913D01*
G01X9741Y32953D01*
G01X9730Y32965D01*
G01X9719Y32974D01*
G01X9705Y32982D01*
G01X9691Y32987D01*
G01X9676Y32991D01*
G01X9661Y32992D01*
G01X9240Y32992D01*
G01X9200Y32993D01*
G01X9161Y32996D01*
G01X9122Y33001D01*
G01X9083Y33009D01*
G01X9044Y33018D01*
G01X9006Y33029D01*
G01X8969Y33042D01*
G01X8932Y33058D01*
G01X8896Y33075D01*
G01X8861Y33094D01*
G01X8828Y33114D01*
G01X8795Y33137D01*
G01X8763Y33161D01*
G01X8733Y33187D01*
G01X8704Y33214D01*
G01X7243Y34676D01*
G01X7230Y34686D01*
G01X7217Y34695D01*
G01X7202Y34701D01*
G01X7187Y34704D01*
G01X7171Y34706D01*
G01X7155Y34704D01*
G01X7140Y34701D01*
G01X7125Y34695D01*
G01X7112Y34687D01*
G01X7100Y34677D01*
G01X7089Y34665D01*
G01X7081Y34652D01*
G01X7075Y34637D01*
G01X7057Y34591D01*
G01X7038Y34545D01*
G01X7017Y34500D01*
G01X6994Y34456D01*
G01X6969Y34413D01*
G01X6942Y34372D01*
G01X6913Y34331D01*
G01X6883Y34292D01*
G01X6851Y34254D01*
G01X6817Y34218D01*
G01X6782Y34183D01*
G01X6745Y34150D01*
G01X6707Y34118D01*
G01X6667Y34088D01*
G01X6655Y34078D01*
G01X6645Y34065D01*
G01X6636Y34052D01*
G01X6630Y34037D01*
G01X6626Y34022D01*
G01X6625Y34006D01*
G01X6626Y33990D01*
G01X6630Y33974D01*
G01X6636Y33959D01*
G01X6645Y33946D01*
G01X6655Y33934D01*
G01X6667Y33923D01*
G01X6706Y33894D01*
G01X6744Y33863D01*
G01X6780Y33830D01*
G01X6815Y33796D01*
G01X6848Y33760D01*
G01X6880Y33723D01*
G01X6910Y33684D01*
G01X6939Y33644D01*
G01X6965Y33603D01*
G01X6990Y33561D01*
G01X7014Y33518D01*
G01X7035Y33474D01*
G01X7054Y33429D01*
G01X7071Y33383D01*
G01X6381Y33383D01*
G01X6381Y33802D01*
G01X6380Y33816D01*
G01X6376Y33830D01*
G01X6371Y33844D01*
G01X6364Y33857D01*
G01X6356Y33868D01*
G01X6346Y33879D01*
G01X6334Y33887D01*
G01X6321Y33894D01*
G01X6308Y33899D01*
G01X6293Y33902D01*
G01X6279Y33903D01*
G01X6256Y33901D01*
G01X6205Y33890D01*
G01X6154Y33882D01*
G01X6103Y33876D01*
G01X6051Y33873D01*
G01X6000Y33871D01*
G01X5948Y33873D01*
G01X5896Y33876D01*
G01X5845Y33882D01*
G01X5794Y33890D01*
G01X5743Y33901D01*
G01X5720Y33903D01*
G01X5706Y33902D01*
G01X5692Y33899D01*
G01X5678Y33894D01*
G01X5665Y33887D01*
G01X5654Y33879D01*
G01X5643Y33868D01*
G01X5635Y33857D01*
G01X5628Y33844D01*
G01X5623Y33830D01*
G01X5620Y33816D01*
G01X5619Y33802D01*
G01X5619Y33383D01*
G01X4928Y33383D01*
G01X4945Y33429D01*
G01X4964Y33474D01*
G01X4986Y33518D01*
G01X5009Y33561D01*
G01X5034Y33603D01*
G01X5060Y33644D01*
G01X5089Y33684D01*
G01X5119Y33723D01*
G01X5151Y33760D01*
G01X5184Y33796D01*
G01X5219Y33830D01*
G01X5255Y33863D01*
G01X5293Y33894D01*
G01X5332Y33923D01*
G01X5344Y33934D01*
G01X5355Y33946D01*
G01X5363Y33959D01*
G01X5369Y33974D01*
G01X5373Y33990D01*
G01X5374Y34006D01*
G01X5373Y34022D01*
G01X5369Y34037D01*
G01X5363Y34052D01*
G01X5355Y34065D01*
G01X5344Y34078D01*
G01X5332Y34088D01*
G01X5293Y34117D01*
G01X5219Y34181D01*
G01X5185Y34215D01*
G01X5151Y34251D01*
G01X5120Y34288D01*
G01X5089Y34327D01*
G01X5061Y34366D01*
G01X5034Y34407D01*
G01X5009Y34449D01*
G01X4986Y34492D01*
G01X4965Y34536D01*
G01X4946Y34581D01*
G01X4928Y34626D01*
G01X4913Y34673D01*
G01X4900Y34719D01*
G01X4888Y34767D01*
G01X4879Y34815D01*
G01X4871Y34863D01*
G01X4866Y34911D01*
G01X4863Y34960D01*
G01X4862Y35009D01*
G01X4863Y35059D01*
G01X4866Y35109D01*
G01X4872Y35159D01*
G01X4880Y35209D01*
G01X4890Y35258D01*
G01X4902Y35307D01*
G01X4916Y35355D01*
G01X4932Y35402D01*
G01X4951Y35449D01*
G01X4971Y35495D01*
G01X4993Y35540D01*
G01X5018Y35583D01*
G01X5044Y35626D01*
G01X5072Y35668D01*
G01X5102Y35708D01*
G01X5134Y35747D01*
G01X5167Y35784D01*
G01X5202Y35820D01*
G01X5239Y35855D01*
G01X5277Y35887D01*
G01X5316Y35918D01*
G01X5328Y35929D01*
G01X5338Y35941D01*
G01X5346Y35954D01*
G01X5352Y35969D01*
G01X5356Y35984D01*
G01X5357Y36000D01*
G01X5356Y36015D01*
G01X5352Y36030D01*
G01X5346Y36045D01*
G01X5338Y36058D01*
G01X5328Y36070D01*
G01X5316Y36081D01*
G01X5277Y36112D01*
G01X5239Y36145D01*
G01X5202Y36179D01*
G01X5167Y36215D01*
G01X5134Y36252D01*
G01X5102Y36291D01*
G01X5072Y36331D01*
G01X5044Y36373D01*
G01X5018Y36416D01*
G01X4993Y36460D01*
G01X4971Y36504D01*
G01X4951Y36550D01*
G01X4932Y36597D01*
G01X4916Y36644D01*
G01X4902Y36693D01*
G01X4890Y36741D01*
G01X4880Y36790D01*
G01X4872Y36840D01*
G01X4866Y36890D01*
G01X4863Y36940D01*
G01X4862Y36990D01*
G01X4863Y37040D01*
G01X4866Y37090D01*
G01X4872Y37139D01*
G01X4879Y37189D01*
G01X4889Y37238D01*
G01X4901Y37286D01*
G01X4915Y37334D01*
G01X4931Y37381D01*
G01X4949Y37427D01*
G01X4970Y37473D01*
G01X4992Y37518D01*
G01X5016Y37561D01*
G01X5042Y37604D01*
G01X5070Y37645D01*
G01X5099Y37685D01*
G01X5131Y37724D01*
G01X5164Y37762D01*
G01X5173Y37773D01*
G01X5181Y37787D01*
G01X5186Y37801D01*
G01X5189Y37815D01*
G01X5191Y37831D01*
G01X5189Y37846D01*
G01X5186Y37862D01*
G01X5179Y37877D01*
G01X5171Y37890D01*
G01X5161Y37902D01*
G01X5149Y37913D01*
G01X5135Y37921D01*
G01X5106Y37937D01*
G01X5079Y37954D01*
G01X5053Y37973D01*
G01X5028Y37994D01*
G01X5004Y38017D01*
G01X4982Y38041D01*
G01X4961Y38066D01*
G01X4925Y38120D01*
G01X4910Y38149D01*
G01X4897Y38179D01*
G01X4886Y38209D01*
G01X4876Y38241D01*
G01X4869Y38272D01*
G01X4864Y38305D01*
G01X4860Y38337D01*
G01X4859Y38369D01*
G01X4859Y39639D01*
G01X4860Y39672D01*
G01X4864Y39705D01*
G01X4869Y39738D01*
G01X4877Y39770D01*
G01X4886Y39801D01*
G01X4898Y39832D01*
G01X4911Y39862D01*
G01X4927Y39891D01*
G01X4944Y39919D01*
G01X4963Y39945D01*
G01X4984Y39971D01*
G01X5007Y39995D01*
G01X5031Y40017D01*
G01X5056Y40038D01*
G01X5083Y40057D01*
G01X5111Y40075D01*
G01X5140Y40090D01*
G01X5170Y40104D01*
G01X5200Y40115D01*
G01X5232Y40125D01*
G01X5264Y40132D01*
G01X5296Y40138D01*
G01X5329Y40141D01*
G01X5362Y40142D01*
G01X6632Y40142D01*
G01X6665Y40141D01*
G01X6698Y40138D01*
G01X6730Y40132D01*
G01X6762Y40125D01*
G01X6793Y40115D01*
G01X6824Y40104D01*
G01X6854Y40090D01*
G01X6883Y40075D01*
G01X6911Y40057D01*
G01X6938Y40038D01*
G01X6963Y40017D01*
G01X6987Y39995D01*
G01X7010Y39971D01*
G01X7031Y39945D01*
G01X7050Y39919D01*
G01X7067Y39891D01*
G01X7083Y39862D01*
G01X7096Y39832D01*
G01X7108Y39801D01*
G01X7117Y39770D01*
G01X7125Y39738D01*
G01X7130Y39705D01*
G01X7133Y39672D01*
G01X7134Y39639D01*
G01X7134Y38980D01*
G01X7136Y38964D01*
G01X7139Y38949D01*
G01X7146Y38934D01*
G01X7154Y38921D01*
G01X7164Y38909D01*
G01X8996Y37077D01*
G01X9008Y37067D01*
G01X9022Y37058D01*
G01X9036Y37052D01*
G01X9052Y37048D01*
G01X9068Y37047D01*
G01X9661Y37047D01*
G01X9676Y37048D01*
G01X9691Y37052D01*
G01X9705Y37057D01*
G01X9719Y37065D01*
G01X9730Y37075D01*
G01X9741Y37086D01*
G01X9774Y37126D01*
G01X9808Y37165D01*
G01X9844Y37203D01*
G01X9882Y37239D01*
G01X9921Y37273D01*
G01X9961Y37306D01*
G01X10003Y37337D01*
G01X10046Y37367D01*
G01X10090Y37395D01*
G01X10135Y37421D01*
G01X10181Y37445D01*
G01X10228Y37467D01*
G01X10241Y37474D01*
G01X10253Y37482D01*
G01X10263Y37493D01*
G01X10272Y37504D01*
G01X10279Y37517D01*
G01X10284Y37531D01*
G01X10287Y37545D01*
G01X10288Y37560D01*
G01X10287Y37574D01*
G01X10284Y37588D01*
G01X10279Y37602D01*
G01X10272Y37615D01*
G01X10263Y37627D01*
G01X10253Y37637D01*
G01X10241Y37645D01*
G01X10228Y37652D01*
G01X10179Y37676D01*
G01X10131Y37701D01*
G01X10084Y37728D01*
G01X10038Y37757D01*
G01X9994Y37789D01*
G01X9951Y37822D01*
G01X9909Y37856D01*
G01X9869Y37893D01*
G01X9830Y37931D01*
G01X9793Y37971D01*
G01X9758Y38012D01*
G01X9724Y38055D01*
G01X9693Y38099D01*
G01X9663Y38144D01*
G01X9635Y38191D01*
G01X9626Y38203D01*
G01X9616Y38215D01*
G01X9604Y38224D01*
G01X9591Y38232D01*
G01X9577Y38238D01*
G01X9562Y38241D01*
G01X9547Y38242D01*
G01X9499Y38242D01*
G01X9460Y38243D01*
G01X9420Y38246D01*
G01X9381Y38251D01*
G01X9342Y38259D01*
G01X9303Y38268D01*
G01X9265Y38279D01*
G01X9228Y38292D01*
G01X9191Y38308D01*
G01X9156Y38325D01*
G01X9121Y38344D01*
G01X9087Y38364D01*
G01X9054Y38387D01*
G01X9023Y38411D01*
G01X8993Y38437D01*
G01X8964Y38464D01*
G01X8464Y38964D01*
G01X8437Y38993D01*
G01X8411Y39023D01*
G01X8387Y39054D01*
G01X8364Y39087D01*
G01X8343Y39121D01*
G01X8325Y39156D01*
G01X8307Y39192D01*
G01X8292Y39228D01*
G01X8279Y39266D01*
G01X8268Y39304D01*
G01X8258Y39342D01*
G01X8251Y39381D01*
G01X8246Y39420D01*
G01X8243Y39460D01*
G01X8242Y39500D01*
G01X8242Y40644D01*
G01X8241Y40660D01*
G01X8237Y40675D01*
G01X8231Y40690D01*
G01X8223Y40703D01*
G01X8212Y40716D01*
G01X7215Y41712D01*
G01X7203Y41723D01*
G01X7190Y41731D01*
G01X7175Y41737D01*
G01X7160Y41741D01*
G01X7144Y41742D01*
G01X2499Y41742D01*
G01X2460Y41743D01*
G01X2420Y41746D01*
G01X2381Y41751D01*
G01X2342Y41759D01*
G01X2303Y41768D01*
G01X2265Y41779D01*
G01X2228Y41792D01*
G01X2191Y41808D01*
G01X2156Y41825D01*
G01X2121Y41844D01*
G01X2087Y41864D01*
G01X2054Y41887D01*
G01X2023Y41911D01*
G01X1993Y41937D01*
G01X1964Y41964D01*
G01X1214Y42714D01*
G01X1186Y42743D01*
G01X1161Y42773D01*
G01X1137Y42804D01*
G01X1114Y42837D01*
G01X1093Y42871D01*
G01X1074Y42906D01*
G01X1057Y42942D01*
G01X1042Y42978D01*
G01X1029Y43016D01*
G01X1018Y43054D01*
G01X1008Y43092D01*
G01X1001Y43131D01*
G01X996Y43170D01*
G01X993Y43210D01*
G01X992Y43250D01*
G01X992Y44255D01*
G01X991Y44270D01*
G01X988Y44284D01*
G01X983Y44298D01*
G01X976Y44310D01*
G01X967Y44322D01*
G01X957Y44332D01*
G01X945Y44341D01*
G01X932Y44348D01*
G01X919Y44353D01*
G01X905Y44356D01*
G01X890Y44357D01*
G01X616Y44357D01*
G01X602Y44356D01*
G01X588Y44353D01*
G01X574Y44348D01*
G01X561Y44341D01*
G01X550Y44332D01*
G01X540Y44322D01*
G01X531Y44310D01*
G01X524Y44298D01*
G01X519Y44284D01*
G01X516Y44270D01*
G01X515Y44255D01*
G01X515Y2499D01*
G01X516Y2435D01*
G01X519Y2371D01*
G01X524Y2307D01*
G01X532Y2243D01*
G01X541Y2179D01*
G01X552Y2116D01*
G01X566Y2053D01*
G01X581Y1991D01*
G01X599Y1929D01*
G01X618Y1868D01*
G01X640Y1807D01*
G01X663Y1747D01*
G01X688Y1688D01*
G01X715Y1630D01*
G01X745Y1573D01*
G01X776Y1516D01*
G01X808Y1461D01*
G01X843Y1407D01*
G01X879Y1354D01*
G01X917Y1302D01*
G01X957Y1251D01*
G01X998Y1202D01*
G01X1041Y1154D01*
G01X1085Y1107D01*
G01X1131Y1062D01*
G01X1178Y1019D01*
G01X1227Y977D01*
G01X1277Y936D01*
G01X1328Y897D01*
G01X1381Y860D01*
G01X1434Y825D01*
G01X1489Y791D01*
G01X1545Y760D01*
G01X1602Y730D01*
G01X1659Y701D01*
G01X1718Y675D01*
G01X1778Y651D01*
G01X1838Y628D01*
G01X1899Y608D01*
G01X1960Y589D01*
G01X2023Y573D01*
G01X2085Y559D01*
G01X2148Y546D01*
G01X2212Y536D01*
G01X2276Y528D01*
G01X2340Y521D01*
G01X2404Y517D01*
G01X2468Y515D01*
G01X2475Y515D01*
G01X2500Y516D01*
G01X46999Y516D01*
G01X47026Y515D01*
G01X47033Y515D01*
G01X47097Y517D01*
G01X47162Y521D01*
G01X47225Y528D01*
G01X47289Y536D01*
G01X47353Y546D01*
G01X47416Y559D01*
G01X47478Y573D01*
G01X47540Y590D01*
G01X47602Y608D01*
G01X47663Y629D01*
G01X47723Y651D01*
G01X47782Y676D01*
G01X47841Y702D01*
G01X47899Y730D01*
G01X47955Y760D01*
G01X48011Y792D01*
G01X48066Y826D01*
G01X48120Y861D01*
G01X48172Y898D01*
G01X48223Y937D01*
G01X48273Y977D01*
G01X48322Y1019D01*
G01X48369Y1063D01*
G01X48415Y1108D01*
G01X48459Y1155D01*
G01X48502Y1203D01*
G01X48543Y1252D01*
G01X48583Y1303D01*
G01X48621Y1354D01*
G01X48657Y1407D01*
G01X48691Y1462D01*
G01X48724Y1517D01*
G01X48755Y1573D01*
G01X48784Y1631D01*
G01X48811Y1689D01*
G01X48836Y1748D01*
G01X48860Y1808D01*
G01X48881Y1868D01*
G01X48901Y1930D01*
G01X48918Y1991D01*
G01X48934Y2054D01*
G01X48947Y2117D01*
G01X48958Y2180D01*
G01X48968Y2243D01*
G01X48975Y2307D01*
G01X48980Y2371D01*
G01X48983Y2435D01*
G01X48984Y2500D01*
G01X48984Y56011D01*
G01X48983Y56075D01*
G01X48979Y56140D01*
G01X48974Y56204D01*
G01X48966Y56268D01*
G01X48956Y56332D01*
G01X48945Y56395D01*
G01X48931Y56458D01*
G01X48915Y56520D01*
G01X48897Y56582D01*
G01X48877Y56643D01*
G01X48855Y56704D01*
G01X48831Y56764D01*
G01X48806Y56823D01*
G01X48778Y56881D01*
G01X48748Y56938D01*
G01X48717Y56994D01*
G01X48684Y57050D01*
G01X48649Y57104D01*
G01X48612Y57157D01*
G01X48574Y57208D01*
G01X48534Y57259D01*
G01X48492Y57308D01*
G01X48449Y57356D01*
G01X48404Y57402D01*
G01X48358Y57447D01*
G01X48310Y57490D01*
G01X48261Y57532D01*
G01X48211Y57572D01*
G01X48159Y57610D01*
G01X48106Y57647D01*
G01X48052Y57682D01*
G01X47997Y57715D01*
G01X47941Y57747D01*
G01X47884Y57777D01*
G01X47826Y57804D01*
G01X47767Y57830D01*
G01X47707Y57854D01*
G01X47646Y57876D01*
G01X47585Y57896D01*
G01X47523Y57914D01*
G01X47461Y57930D01*
G01X47398Y57944D01*
G01X47335Y57956D01*
G01X47271Y57966D01*
G01X47207Y57973D01*
G01X47143Y57979D01*
G01X47079Y57983D01*
G01X47014Y57984D01*
G37*

%LPC*%
G36*
G01X22282Y52323D02*
G01X22229Y52324D01*
G01X22175Y52323D01*
G01X22121Y52320D01*
G01X22068Y52314D01*
G01X22014Y52307D01*
G01X21962Y52297D01*
G01X21909Y52285D01*
G01X21857Y52271D01*
G01X21806Y52255D01*
G01X21755Y52237D01*
G01X21705Y52217D01*
G01X21656Y52195D01*
G01X21608Y52170D01*
G01X21561Y52144D01*
G01X21515Y52116D01*
G01X21470Y52087D01*
G01X21427Y52055D01*
G01X21385Y52022D01*
G01X21344Y51987D01*
G01X21305Y51950D01*
G01X21267Y51912D01*
G01X21230Y51872D01*
G01X21196Y51831D01*
G01X21163Y51788D01*
G01X21132Y51745D01*
G01X21102Y51700D01*
G01X21075Y51653D01*
G01X21049Y51606D01*
G01X21041Y51593D01*
G01X21030Y51581D01*
G01X21018Y51570D01*
G01X21005Y51562D01*
G01X20990Y51556D01*
G01X20974Y51552D01*
G01X20959Y51551D01*
G01X20943Y51552D01*
G01X20927Y51556D01*
G01X20913Y51562D01*
G01X20899Y51570D01*
G01X20887Y51581D01*
G01X20877Y51593D01*
G01X20868Y51606D01*
G01X20843Y51653D01*
G01X20815Y51699D01*
G01X20786Y51744D01*
G01X20755Y51788D01*
G01X20722Y51830D01*
G01X20688Y51871D01*
G01X20651Y51911D01*
G01X20614Y51949D01*
G01X20575Y51986D01*
G01X20534Y52021D01*
G01X20492Y52054D01*
G01X20448Y52085D01*
G01X20404Y52115D01*
G01X20358Y52143D01*
G01X20311Y52169D01*
G01X20263Y52193D01*
G01X20215Y52216D01*
G01X20165Y52236D01*
G01X20165Y51472D01*
G01X20849Y51472D01*
G01X20863Y51471D01*
G01X20878Y51468D01*
G01X20891Y51463D01*
G01X20904Y51456D01*
G01X20916Y51448D01*
G01X20926Y51437D01*
G01X20934Y51426D01*
G01X20941Y51413D01*
G01X20946Y51399D01*
G01X20950Y51385D01*
G01X20951Y51371D01*
G01X20947Y51344D01*
G01X20933Y51287D01*
G01X20921Y51230D01*
G01X20912Y51172D01*
G01X20906Y51113D01*
G01X20902Y51055D01*
G01X20901Y50996D01*
G01X20902Y50938D01*
G01X20906Y50879D01*
G01X20912Y50821D01*
G01X20921Y50763D01*
G01X20933Y50705D01*
G01X20947Y50648D01*
G01X20951Y50622D01*
G01X20950Y50607D01*
G01X20946Y50593D01*
G01X20941Y50579D01*
G01X20934Y50567D01*
G01X20926Y50555D01*
G01X20916Y50545D01*
G01X20904Y50536D01*
G01X20891Y50529D01*
G01X20878Y50524D01*
G01X20863Y50521D01*
G01X20849Y50520D01*
G01X20165Y50520D01*
G01X20165Y49757D01*
G01X20215Y49777D01*
G01X20263Y49799D01*
G01X20311Y49823D01*
G01X20358Y49849D01*
G01X20404Y49877D01*
G01X20448Y49907D01*
G01X20492Y49939D01*
G01X20534Y49972D01*
G01X20575Y50007D01*
G01X20614Y50043D01*
G01X20688Y50121D01*
G01X20722Y50162D01*
G01X20755Y50205D01*
G01X20786Y50248D01*
G01X20815Y50293D01*
G01X20843Y50339D01*
G01X20868Y50386D01*
G01X20877Y50400D01*
G01X20887Y50412D01*
G01X20899Y50422D01*
G01X20913Y50430D01*
G01X20927Y50436D01*
G01X20943Y50440D01*
G01X20959Y50441D01*
G01X20974Y50440D01*
G01X20990Y50436D01*
G01X21005Y50430D01*
G01X21018Y50422D01*
G01X21030Y50412D01*
G01X21041Y50400D01*
G01X21049Y50386D01*
G01X21076Y50337D01*
G01X21105Y50289D01*
G01X21136Y50242D01*
G01X21168Y50196D01*
G01X21203Y50152D01*
G01X21240Y50110D01*
G01X21278Y50069D01*
G01X21318Y50029D01*
G01X21360Y49992D01*
G01X21403Y49956D01*
G01X21414Y49946D01*
G01X21424Y49934D01*
G01X21432Y49920D01*
G01X21437Y49906D01*
G01X21441Y49891D01*
G01X21442Y49876D01*
G01X21442Y48000D01*
G01X21443Y47960D01*
G01X21446Y47920D01*
G01X21451Y47881D01*
G01X21458Y47842D01*
G01X21467Y47803D01*
G01X21479Y47765D01*
G01X21492Y47728D01*
G01X21507Y47691D01*
G01X21524Y47656D01*
G01X21543Y47621D01*
G01X21564Y47587D01*
G01X21586Y47554D01*
G01X21610Y47523D01*
G01X21636Y47493D01*
G01X21664Y47464D01*
G01X23213Y45914D01*
G01X23242Y45887D01*
G01X23272Y45861D01*
G01X23304Y45837D01*
G01X23337Y45814D01*
G01X23370Y45794D01*
G01X23405Y45775D01*
G01X23441Y45758D01*
G01X23478Y45742D01*
G01X23515Y45729D01*
G01X23553Y45718D01*
G01X23592Y45709D01*
G01X23631Y45701D01*
G01X23670Y45696D01*
G01X23709Y45693D01*
G01X23749Y45692D01*
G01X26641Y45692D01*
G01X26656Y45691D01*
G01X26671Y45688D01*
G01X26685Y45682D01*
G01X26698Y45675D01*
G01X26710Y45665D01*
G01X26720Y45654D01*
G01X26729Y45642D01*
G01X26735Y45628D01*
G01X26749Y45598D01*
G01X26764Y45568D01*
G01X26781Y45540D01*
G01X26800Y45513D01*
G01X26821Y45487D01*
G01X26844Y45462D01*
G01X26868Y45439D01*
G01X26893Y45418D01*
G01X26920Y45399D01*
G01X26948Y45381D01*
G01X26978Y45365D01*
G01X27008Y45351D01*
G01X27039Y45339D01*
G01X27071Y45330D01*
G01X27103Y45322D01*
G01X27136Y45316D01*
G01X27169Y45313D01*
G01X27202Y45312D01*
G01X27676Y45312D01*
G01X27691Y45311D01*
G01X27705Y45308D01*
G01X27719Y45303D01*
G01X27731Y45296D01*
G01X27743Y45287D01*
G01X27753Y45277D01*
G01X27762Y45265D01*
G01X27769Y45253D01*
G01X27774Y45239D01*
G01X27777Y45225D01*
G01X27778Y45210D01*
G01X27778Y32924D01*
G01X27777Y32909D01*
G01X27774Y32895D01*
G01X27769Y32882D01*
G01X27762Y32869D01*
G01X27753Y32857D01*
G01X27743Y32847D01*
G01X27731Y32838D01*
G01X27719Y32831D01*
G01X27705Y32826D01*
G01X27691Y32823D01*
G01X27676Y32822D01*
G01X27607Y32822D01*
G01X27574Y32821D01*
G01X27542Y32818D01*
G01X27509Y32812D01*
G01X27477Y32805D01*
G01X27446Y32795D01*
G01X27415Y32784D01*
G01X27385Y32770D01*
G01X27356Y32755D01*
G01X27328Y32737D01*
G01X27301Y32718D01*
G01X27276Y32697D01*
G01X27252Y32675D01*
G01X27229Y32651D01*
G01X27208Y32626D01*
G01X27189Y32599D01*
G01X27172Y32571D01*
G01X27156Y32542D01*
G01X27143Y32512D01*
G01X27131Y32481D01*
G01X27122Y32450D01*
G01X27114Y32418D01*
G01X27109Y32385D01*
G01X27106Y32352D01*
G01X27105Y32320D01*
G01X27105Y31220D01*
G01X27106Y31184D01*
G01X27110Y31148D01*
G01X27116Y31113D01*
G01X27125Y31078D01*
G01X27136Y31044D01*
G01X27150Y31011D01*
G01X27166Y30978D01*
G01X27173Y30963D01*
G01X27177Y30946D01*
G01X27179Y30930D01*
G01X27178Y30915D01*
G01X27175Y30901D01*
G01X27170Y30887D01*
G01X27163Y30875D01*
G01X27154Y30863D01*
G01X27144Y30853D01*
G01X27132Y30844D01*
G01X27119Y30837D01*
G01X27106Y30832D01*
G01X27092Y30829D01*
G01X27077Y30828D01*
G01X25334Y30828D01*
G01X25320Y30829D01*
G01X25305Y30832D01*
G01X25292Y30837D01*
G01X25279Y30844D01*
G01X25267Y30853D01*
G01X25257Y30863D01*
G01X25248Y30875D01*
G01X25242Y30887D01*
G01X25236Y30901D01*
G01X25233Y30915D01*
G01X25232Y30930D01*
G01X25234Y30947D01*
G01X25238Y30963D01*
G01X25245Y30979D01*
G01X25262Y31011D01*
G01X25276Y31045D01*
G01X25287Y31079D01*
G01X25296Y31114D01*
G01X25303Y31150D01*
G01X25307Y31186D01*
G01X25308Y31222D01*
G01X25308Y31434D01*
G01X24569Y31434D01*
G01X24569Y31227D01*
G01X24568Y31213D01*
G01X24565Y31198D01*
G01X24560Y31185D01*
G01X24553Y31172D01*
G01X24544Y31160D01*
G01X24534Y31150D01*
G01X24523Y31142D01*
G01X24510Y31135D01*
G01X24496Y31130D01*
G01X24482Y31126D01*
G01X24468Y31125D01*
G01X23944Y31125D01*
G01X23930Y31126D01*
G01X23916Y31130D01*
G01X23902Y31135D01*
G01X23890Y31142D01*
G01X23878Y31150D01*
G01X23868Y31160D01*
G01X23859Y31172D01*
G01X23852Y31185D01*
G01X23847Y31198D01*
G01X23844Y31213D01*
G01X23843Y31227D01*
G01X23843Y31434D01*
G01X23104Y31434D01*
G01X23104Y31222D01*
G01X23105Y31190D01*
G01X23108Y31157D01*
G01X23114Y31125D01*
G01X23121Y31093D01*
G01X23130Y31062D01*
G01X23142Y31032D01*
G01X23155Y31002D01*
G01X23170Y30973D01*
G01X23178Y30957D01*
G01X23182Y30940D01*
G01X23184Y30923D01*
G01X23182Y30905D01*
G01X23178Y30888D01*
G01X23170Y30872D01*
G01X23155Y30843D01*
G01X23142Y30814D01*
G01X23130Y30783D01*
G01X23121Y30752D01*
G01X23114Y30720D01*
G01X23108Y30688D01*
G01X23105Y30655D01*
G01X23104Y30623D01*
G01X23104Y29523D01*
G01X23105Y29490D01*
G01X23108Y29457D01*
G01X23114Y29424D01*
G01X23122Y29391D01*
G01X23131Y29360D01*
G01X23143Y29328D01*
G01X23157Y29298D01*
G01X23173Y29269D01*
G01X23191Y29241D01*
G01X23210Y29214D01*
G01X23232Y29188D01*
G01X23255Y29164D01*
G01X23279Y29142D01*
G01X23305Y29121D01*
G01X23333Y29102D01*
G01X23361Y29085D01*
G01X23391Y29069D01*
G01X23405Y29061D01*
G01X23417Y29051D01*
G01X23428Y29039D01*
G01X23437Y29025D01*
G01X23443Y29010D01*
G01X23447Y28994D01*
G01X23449Y28978D01*
G01X23449Y21713D01*
G01X23450Y21673D01*
G01X23453Y21634D01*
G01X23458Y21595D01*
G01X23465Y21556D01*
G01X23474Y21517D01*
G01X23486Y21479D01*
G01X23499Y21442D01*
G01X23514Y21405D01*
G01X23531Y21369D01*
G01X23550Y21334D01*
G01X23571Y21301D01*
G01X23593Y21268D01*
G01X23617Y21236D01*
G01X23643Y21206D01*
G01X23670Y21177D01*
G01X23964Y20884D01*
G01X23993Y20857D01*
G01X24023Y20831D01*
G01X24054Y20807D01*
G01X24087Y20784D01*
G01X24121Y20764D01*
G01X24156Y20745D01*
G01X24191Y20728D01*
G01X24228Y20712D01*
G01X24265Y20699D01*
G01X24303Y20688D01*
G01X24342Y20679D01*
G01X24381Y20671D01*
G01X24420Y20666D01*
G01X24460Y20663D01*
G01X24500Y20662D01*
G01X28499Y20662D01*
G01X28540Y20663D01*
G01X28580Y20666D01*
G01X28620Y20672D01*
G01X28636Y20673D01*
G01X31039Y20673D01*
G01X31054Y20672D01*
G01X31069Y20668D01*
G01X31084Y20663D01*
G01X31097Y20655D01*
G01X31109Y20645D01*
G01X31119Y20633D01*
G01X31128Y20620D01*
G01X31134Y20606D01*
G01X31153Y20558D01*
G01X31173Y20511D01*
G01X31196Y20465D01*
G01X31220Y20419D01*
G01X31246Y20375D01*
G01X31274Y20331D01*
G01X31303Y20289D01*
G01X31335Y20248D01*
G01X31367Y20209D01*
G01X31402Y20170D01*
G01X31438Y20133D01*
G01X31475Y20098D01*
G01X31514Y20064D01*
G01X31554Y20031D01*
G01X31595Y20000D01*
G01X31638Y19971D01*
G01X31681Y19944D01*
G01X31726Y19918D01*
G01X31772Y19894D01*
G01X31818Y19872D01*
G01X31831Y19865D01*
G01X31843Y19857D01*
G01X31853Y19847D01*
G01X31862Y19835D01*
G01X31869Y19822D01*
G01X31874Y19808D01*
G01X31877Y19794D01*
G01X31878Y19780D01*
G01X31877Y19765D01*
G01X31874Y19751D01*
G01X31869Y19737D01*
G01X31862Y19724D01*
G01X31853Y19713D01*
G01X31843Y19702D01*
G01X31831Y19694D01*
G01X31818Y19687D01*
G01X31770Y19664D01*
G01X31723Y19640D01*
G01X31678Y19613D01*
G01X31633Y19585D01*
G01X31589Y19555D01*
G01X31547Y19523D01*
G01X31506Y19489D01*
G01X31467Y19454D01*
G01X31429Y19417D01*
G01X31392Y19379D01*
G01X31357Y19339D01*
G01X31324Y19297D01*
G01X31293Y19255D01*
G01X31263Y19211D01*
G01X31235Y19166D01*
G01X31209Y19120D01*
G01X31185Y19073D01*
G01X31163Y19025D01*
G01X31143Y18976D01*
G01X31125Y18926D01*
G01X31108Y18875D01*
G01X31094Y18824D01*
G01X31083Y18773D01*
G01X31073Y18721D01*
G01X31065Y18668D01*
G01X31060Y18615D01*
G01X31057Y18563D01*
G01X31056Y18510D01*
G01X31057Y18457D01*
G01X31060Y18404D01*
G01X31065Y18351D01*
G01X31073Y18299D01*
G01X31083Y18247D01*
G01X31094Y18195D01*
G01X31108Y18144D01*
G01X31125Y18093D01*
G01X31143Y18044D01*
G01X31163Y17995D01*
G01X31185Y17947D01*
G01X31209Y17899D01*
G01X31235Y17853D01*
G01X31263Y17808D01*
G01X31293Y17764D01*
G01X31324Y17722D01*
G01X31357Y17681D01*
G01X31392Y17641D01*
G01X31429Y17602D01*
G01X31467Y17565D01*
G01X31506Y17530D01*
G01X31547Y17496D01*
G01X31589Y17465D01*
G01X31633Y17434D01*
G01X31678Y17406D01*
G01X31723Y17380D01*
G01X31770Y17355D01*
G01X31818Y17332D01*
G01X31831Y17325D01*
G01X31843Y17317D01*
G01X31853Y17307D01*
G01X31862Y17295D01*
G01X31869Y17282D01*
G01X31874Y17268D01*
G01X31877Y17254D01*
G01X31878Y17240D01*
G01X31877Y17225D01*
G01X31874Y17211D01*
G01X31869Y17197D01*
G01X31862Y17184D01*
G01X31853Y17173D01*
G01X31843Y17162D01*
G01X31831Y17154D01*
G01X31818Y17147D01*
G01X31770Y17124D01*
G01X31723Y17100D01*
G01X31678Y17073D01*
G01X31633Y17045D01*
G01X31589Y17015D01*
G01X31547Y16983D01*
G01X31506Y16949D01*
G01X31467Y16914D01*
G01X31429Y16877D01*
G01X31392Y16839D01*
G01X31357Y16799D01*
G01X31324Y16757D01*
G01X31293Y16715D01*
G01X31263Y16671D01*
G01X31235Y16626D01*
G01X31209Y16580D01*
G01X31185Y16533D01*
G01X31163Y16485D01*
G01X31143Y16436D01*
G01X31125Y16386D01*
G01X31108Y16335D01*
G01X31094Y16284D01*
G01X31083Y16233D01*
G01X31073Y16181D01*
G01X31065Y16128D01*
G01X31060Y16075D01*
G01X31057Y16023D01*
G01X31056Y15970D01*
G01X31057Y15917D01*
G01X31060Y15864D01*
G01X31065Y15811D01*
G01X31073Y15759D01*
G01X31083Y15707D01*
G01X31094Y15655D01*
G01X31108Y15604D01*
G01X31125Y15553D01*
G01X31143Y15504D01*
G01X31163Y15455D01*
G01X31185Y15407D01*
G01X31209Y15359D01*
G01X31235Y15313D01*
G01X31263Y15268D01*
G01X31293Y15224D01*
G01X31324Y15182D01*
G01X31357Y15141D01*
G01X31392Y15101D01*
G01X31429Y15062D01*
G01X31467Y15025D01*
G01X31506Y14990D01*
G01X31547Y14956D01*
G01X31589Y14925D01*
G01X31633Y14894D01*
G01X31678Y14866D01*
G01X31723Y14840D01*
G01X31770Y14815D01*
G01X31818Y14792D01*
G01X31831Y14785D01*
G01X31843Y14777D01*
G01X31853Y14767D01*
G01X31862Y14755D01*
G01X31869Y14742D01*
G01X31874Y14728D01*
G01X31877Y14714D01*
G01X31878Y14700D01*
G01X31877Y14685D01*
G01X31874Y14671D01*
G01X31869Y14657D01*
G01X31862Y14644D01*
G01X31853Y14633D01*
G01X31843Y14622D01*
G01X31831Y14614D01*
G01X31818Y14607D01*
G01X31770Y14584D01*
G01X31723Y14560D01*
G01X31678Y14533D01*
G01X31633Y14505D01*
G01X31589Y14475D01*
G01X31547Y14443D01*
G01X31506Y14409D01*
G01X31467Y14374D01*
G01X31429Y14337D01*
G01X31392Y14299D01*
G01X31357Y14259D01*
G01X31324Y14217D01*
G01X31293Y14175D01*
G01X31263Y14131D01*
G01X31235Y14086D01*
G01X31209Y14040D01*
G01X31185Y13993D01*
G01X31163Y13945D01*
G01X31143Y13896D01*
G01X31125Y13846D01*
G01X31108Y13795D01*
G01X31094Y13744D01*
G01X31083Y13693D01*
G01X31073Y13641D01*
G01X31065Y13588D01*
G01X31060Y13535D01*
G01X31057Y13483D01*
G01X31056Y13430D01*
G01X31057Y13378D01*
G01X31060Y13326D01*
G01X31065Y13274D01*
G01X31072Y13223D01*
G01X31082Y13172D01*
G01X31093Y13121D01*
G01X31106Y13071D01*
G01X31122Y13021D01*
G01X31139Y12972D01*
G01X31159Y12924D01*
G01X31180Y12877D01*
G01X31203Y12830D01*
G01X31228Y12785D01*
G01X31255Y12740D01*
G01X31284Y12697D01*
G01X31314Y12655D01*
G01X31346Y12614D01*
G01X31380Y12574D01*
G01X31415Y12536D01*
G01X31452Y12499D01*
G01X31490Y12464D01*
G01X31530Y12430D01*
G01X31571Y12398D01*
G01X31613Y12368D01*
G01X31656Y12339D01*
G01X31746Y12287D01*
G01X31792Y12264D01*
G01X31840Y12243D01*
G01X31888Y12224D01*
G01X31937Y12206D01*
G01X31987Y12191D01*
G01X32037Y12177D01*
G01X32087Y12166D01*
G01X32139Y12156D01*
G01X32190Y12149D01*
G01X32242Y12144D01*
G01X32294Y12141D01*
G01X32345Y12140D01*
G01X32397Y12141D01*
G01X32449Y12144D01*
G01X32500Y12149D01*
G01X32552Y12156D01*
G01X32603Y12166D01*
G01X32653Y12177D01*
G01X32703Y12190D01*
G01X32752Y12206D01*
G01X32801Y12223D01*
G01X32849Y12242D01*
G01X32897Y12263D01*
G01X32943Y12286D01*
G01X32988Y12311D01*
G01X33033Y12338D01*
G01X33076Y12366D01*
G01X33118Y12397D01*
G01X33159Y12428D01*
G01X33198Y12462D01*
G01X33236Y12497D01*
G01X33273Y12533D01*
G01X33308Y12571D01*
G01X33342Y12610D01*
G01X33374Y12651D01*
G01X33404Y12693D01*
G01X33415Y12706D01*
G01X33427Y12716D01*
G01X33441Y12725D01*
G01X33456Y12731D01*
G01X33472Y12735D01*
G01X33488Y12737D01*
G01X34505Y12737D01*
G01X34521Y12735D01*
G01X34537Y12731D01*
G01X34552Y12725D01*
G01X34566Y12716D01*
G01X34578Y12706D01*
G01X34589Y12693D01*
G01X34621Y12649D01*
G01X34655Y12606D01*
G01X34691Y12564D01*
G01X34728Y12524D01*
G01X34768Y12486D01*
G01X34809Y12450D01*
G01X34851Y12415D01*
G01X34862Y12405D01*
G01X34872Y12393D01*
G01X34880Y12379D01*
G01X34885Y12365D01*
G01X34889Y12350D01*
G01X34890Y12335D01*
G01X34890Y11654D01*
G01X34889Y11639D01*
G01X34886Y11625D01*
G01X34881Y11612D01*
G01X34874Y11599D01*
G01X34865Y11587D01*
G01X34855Y11577D01*
G01X34843Y11568D01*
G01X34831Y11561D01*
G01X34817Y11556D01*
G01X34803Y11553D01*
G01X34788Y11552D01*
G01X34760Y11552D01*
G01X34727Y11551D01*
G01X34694Y11548D01*
G01X34662Y11543D01*
G01X34630Y11535D01*
G01X34598Y11526D01*
G01X34567Y11514D01*
G01X34537Y11500D01*
G01X34508Y11485D01*
G01X34481Y11467D01*
G01X34454Y11448D01*
G01X34428Y11427D01*
G01X34404Y11405D01*
G01X34382Y11381D01*
G01X34361Y11356D01*
G01X34342Y11329D01*
G01X34325Y11301D01*
G01X34309Y11272D01*
G01X34295Y11242D01*
G01X34284Y11211D01*
G01X34274Y11180D01*
G01X34267Y11148D01*
G01X34262Y11115D01*
G01X34258Y11083D01*
G01X34257Y11050D01*
G01X34257Y9950D01*
G01X34258Y9917D01*
G01X34261Y9885D01*
G01X34267Y9853D01*
G01X34274Y9821D01*
G01X34283Y9790D01*
G01X34295Y9759D01*
G01X34308Y9729D01*
G01X34323Y9701D01*
G01X34331Y9685D01*
G01X34335Y9668D01*
G01X34337Y9650D01*
G01X34335Y9633D01*
G01X34331Y9616D01*
G01X34323Y9600D01*
G01X34308Y9571D01*
G01X34295Y9541D01*
G01X34283Y9511D01*
G01X34274Y9479D01*
G01X34267Y9448D01*
G01X34261Y9415D01*
G01X34258Y9383D01*
G01X34257Y9350D01*
G01X34257Y8251D01*
G01X34258Y8218D01*
G01X34262Y8185D01*
G01X34267Y8153D01*
G01X34274Y8120D01*
G01X34284Y8089D01*
G01X34295Y8058D01*
G01X34309Y8028D01*
G01X34325Y7999D01*
G01X34342Y7971D01*
G01X34361Y7945D01*
G01X34382Y7919D01*
G01X34404Y7895D01*
G01X34428Y7873D01*
G01X34454Y7852D01*
G01X34481Y7833D01*
G01X34508Y7815D01*
G01X34537Y7800D01*
G01X34567Y7786D01*
G01X34598Y7775D01*
G01X34630Y7765D01*
G01X34662Y7758D01*
G01X34694Y7752D01*
G01X34727Y7749D01*
G01X34760Y7748D01*
G01X35298Y7748D01*
G01X35314Y7747D01*
G01X35330Y7743D01*
G01X35344Y7737D01*
G01X35358Y7729D01*
G01X35370Y7718D01*
G01X35942Y7146D01*
G01X35953Y7134D01*
G01X35961Y7120D01*
G01X35967Y7106D01*
G01X35971Y7090D01*
G01X35972Y7074D01*
G01X35972Y4554D01*
G01X35971Y4539D01*
G01X35968Y4525D01*
G01X35963Y4512D01*
G01X35956Y4499D01*
G01X35947Y4487D01*
G01X35937Y4477D01*
G01X35925Y4468D01*
G01X35913Y4461D01*
G01X35899Y4456D01*
G01X35885Y4453D01*
G01X35870Y4452D01*
G01X35779Y4452D01*
G01X35747Y4451D01*
G01X35714Y4448D01*
G01X35681Y4443D01*
G01X35649Y4435D01*
G01X35618Y4426D01*
G01X35587Y4414D01*
G01X35557Y4400D01*
G01X35528Y4385D01*
G01X35500Y4367D01*
G01X35474Y4348D01*
G01X35448Y4327D01*
G01X35424Y4305D01*
G01X35402Y4281D01*
G01X35381Y4256D01*
G01X35362Y4229D01*
G01X35344Y4201D01*
G01X35329Y4172D01*
G01X35315Y4142D01*
G01X35304Y4111D01*
G01X35294Y4080D01*
G01X35287Y4048D01*
G01X35281Y4015D01*
G01X35278Y3982D01*
G01X35277Y3950D01*
G01X35277Y2050D01*
G01X35278Y2017D01*
G01X35281Y1984D01*
G01X35287Y1952D01*
G01X35294Y1920D01*
G01X35304Y1888D01*
G01X35315Y1857D01*
G01X35329Y1827D01*
G01X35344Y1798D01*
G01X35362Y1770D01*
G01X35381Y1744D01*
G01X35402Y1718D01*
G01X35424Y1694D01*
G01X35448Y1672D01*
G01X35474Y1651D01*
G01X35500Y1632D01*
G01X35528Y1614D01*
G01X35557Y1599D01*
G01X35587Y1585D01*
G01X35618Y1574D01*
G01X35649Y1564D01*
G01X35681Y1557D01*
G01X35714Y1551D01*
G01X35747Y1548D01*
G01X35779Y1547D01*
G01X37679Y1547D01*
G01X37713Y1548D01*
G01X37746Y1552D01*
G01X37780Y1557D01*
G01X37812Y1565D01*
G01X37844Y1575D01*
G01X37876Y1587D01*
G01X37906Y1601D01*
G01X37936Y1617D01*
G01X37964Y1635D01*
G01X37991Y1655D01*
G01X38017Y1677D01*
G01X38041Y1700D01*
G01X38063Y1725D01*
G01X38084Y1752D01*
G01X38103Y1779D01*
G01X38120Y1808D01*
G01X38135Y1838D01*
G01X38148Y1869D01*
G01X38155Y1883D01*
G01X38164Y1895D01*
G01X38174Y1907D01*
G01X38186Y1916D01*
G01X38199Y1924D01*
G01X38213Y1930D01*
G01X38228Y1933D01*
G01X38243Y1934D01*
G01X38258Y1933D01*
G01X38272Y1930D01*
G01X38286Y1925D01*
G01X38299Y1918D01*
G01X38310Y1909D01*
G01X38352Y1873D01*
G01X38396Y1839D01*
G01X38440Y1807D01*
G01X38486Y1776D01*
G01X38533Y1748D01*
G01X38581Y1720D01*
G01X38630Y1695D01*
G01X38680Y1672D01*
G01X38731Y1651D01*
G01X38731Y2461D01*
G01X38284Y2461D01*
G01X38269Y2462D01*
G01X38255Y2465D01*
G01X38241Y2470D01*
G01X38229Y2477D01*
G01X38217Y2486D01*
G01X38207Y2496D01*
G01X38198Y2508D01*
G01X38191Y2521D01*
G01X38186Y2534D01*
G01X38183Y2548D01*
G01X38182Y2563D01*
G01X38182Y3437D01*
G01X38183Y3451D01*
G01X38186Y3465D01*
G01X38191Y3479D01*
G01X38198Y3491D01*
G01X38207Y3503D01*
G01X38217Y3513D01*
G01X38229Y3522D01*
G01X38241Y3529D01*
G01X38255Y3534D01*
G01X38269Y3537D01*
G01X38284Y3538D01*
G01X38731Y3538D01*
G01X38731Y4349D01*
G01X38680Y4327D01*
G01X38630Y4304D01*
G01X38581Y4279D01*
G01X38533Y4252D01*
G01X38486Y4223D01*
G01X38440Y4192D01*
G01X38396Y4160D01*
G01X38352Y4126D01*
G01X38310Y4090D01*
G01X38299Y4082D01*
G01X38286Y4075D01*
G01X38272Y4069D01*
G01X38258Y4066D01*
G01X38243Y4065D01*
G01X38228Y4066D01*
G01X38213Y4070D01*
G01X38199Y4075D01*
G01X38186Y4083D01*
G01X38174Y4093D01*
G01X38164Y4104D01*
G01X38155Y4116D01*
G01X38148Y4130D01*
G01X38135Y4161D01*
G01X38120Y4191D01*
G01X38103Y4220D01*
G01X38084Y4248D01*
G01X38063Y4274D01*
G01X38041Y4299D01*
G01X38017Y4322D01*
G01X37991Y4344D01*
G01X37964Y4364D01*
G01X37936Y4382D01*
G01X37906Y4398D01*
G01X37876Y4412D01*
G01X37844Y4424D01*
G01X37812Y4434D01*
G01X37780Y4442D01*
G01X37746Y4448D01*
G01X37713Y4451D01*
G01X37679Y4452D01*
G01X37589Y4452D01*
G01X37574Y4453D01*
G01X37560Y4456D01*
G01X37546Y4461D01*
G01X37534Y4468D01*
G01X37522Y4477D01*
G01X37512Y4487D01*
G01X37503Y4499D01*
G01X37496Y4512D01*
G01X37491Y4525D01*
G01X37488Y4539D01*
G01X37487Y4554D01*
G01X37487Y7430D01*
G01X37486Y7470D01*
G01X37483Y7509D01*
G01X37478Y7549D01*
G01X37470Y7588D01*
G01X37461Y7626D01*
G01X37450Y7664D01*
G01X37437Y7702D01*
G01X37422Y7738D01*
G01X37404Y7774D01*
G01X37386Y7809D01*
G01X37365Y7843D01*
G01X37342Y7875D01*
G01X37318Y7907D01*
G01X37292Y7937D01*
G01X37265Y7966D01*
G01X36491Y8740D01*
G01X36481Y8752D01*
G01X36472Y8766D01*
G01X36466Y8781D01*
G01X36462Y8796D01*
G01X36461Y8812D01*
G01X36461Y9350D01*
G01X36460Y9383D01*
G01X36457Y9415D01*
G01X36452Y9448D01*
G01X36444Y9479D01*
G01X36435Y9511D01*
G01X36424Y9541D01*
G01X36410Y9571D01*
G01X36395Y9600D01*
G01X36388Y9616D01*
G01X36383Y9633D01*
G01X36382Y9650D01*
G01X36383Y9668D01*
G01X36388Y9685D01*
G01X36395Y9701D01*
G01X36410Y9729D01*
G01X36424Y9759D01*
G01X36435Y9790D01*
G01X36444Y9821D01*
G01X36452Y9853D01*
G01X36457Y9885D01*
G01X36460Y9917D01*
G01X36461Y9950D01*
G01X36461Y11050D01*
G01X36460Y11086D01*
G01X36456Y11122D01*
G01X36449Y11158D01*
G01X36440Y11193D01*
G01X36429Y11228D01*
G01X36414Y11261D01*
G01X36409Y11275D01*
G01X36406Y11289D01*
G01X36405Y11304D01*
G01X36405Y12335D01*
G01X36406Y12350D01*
G01X36410Y12365D01*
G01X36415Y12379D01*
G01X36423Y12393D01*
G01X36433Y12405D01*
G01X36444Y12415D01*
G01X36485Y12449D01*
G01X36525Y12484D01*
G01X36564Y12522D01*
G01X36600Y12560D01*
G01X36636Y12600D01*
G01X36669Y12642D01*
G01X36680Y12654D01*
G01X36691Y12663D01*
G01X36705Y12671D01*
G01X36719Y12677D01*
G01X36734Y12681D01*
G01X36750Y12682D01*
G01X36765Y12681D01*
G01X36780Y12677D01*
G01X36794Y12671D01*
G01X36808Y12664D01*
G01X36819Y12654D01*
G01X36830Y12643D01*
G01X36838Y12630D01*
G01X36860Y12594D01*
G01X36883Y12559D01*
G01X36908Y12526D01*
G01X36935Y12494D01*
G01X36964Y12464D01*
G01X39464Y9964D01*
G01X39492Y9937D01*
G01X39523Y9911D01*
G01X39554Y9887D01*
G01X39587Y9864D01*
G01X39620Y9844D01*
G01X39655Y9825D01*
G01X39691Y9808D01*
G01X39728Y9793D01*
G01X39765Y9779D01*
G01X39803Y9768D01*
G01X39842Y9759D01*
G01X39881Y9752D01*
G01X39920Y9746D01*
G01X39960Y9743D01*
G01X39999Y9742D01*
G01X42527Y9742D01*
G01X42542Y9741D01*
G01X42556Y9738D01*
G01X42570Y9733D01*
G01X42582Y9726D01*
G01X42594Y9717D01*
G01X42604Y9707D01*
G01X42613Y9696D01*
G01X42620Y9683D01*
G01X42625Y9669D01*
G01X42628Y9655D01*
G01X42629Y9641D01*
G01X42628Y9624D01*
G01X42623Y9608D01*
G01X42617Y9593D01*
G01X42608Y9579D01*
G01X42597Y9566D01*
G01X42583Y9556D01*
G01X42557Y9537D01*
G01X42531Y9516D01*
G01X42507Y9493D01*
G01X42484Y9469D01*
G01X42463Y9444D01*
G01X42444Y9417D01*
G01X42426Y9389D01*
G01X42411Y9360D01*
G01X42397Y9330D01*
G01X42385Y9299D01*
G01X42376Y9268D01*
G01X42368Y9235D01*
G01X42363Y9203D01*
G01X42360Y9170D01*
G01X42359Y9137D01*
G01X42359Y7867D01*
G01X42360Y7834D01*
G01X42363Y7801D01*
G01X42368Y7769D01*
G01X42376Y7737D01*
G01X42385Y7705D01*
G01X42397Y7675D01*
G01X42410Y7645D01*
G01X42426Y7616D01*
G01X42443Y7588D01*
G01X42462Y7561D01*
G01X42483Y7536D01*
G01X42506Y7512D01*
G01X42530Y7489D01*
G01X42555Y7468D01*
G01X42582Y7449D01*
G01X42610Y7432D01*
G01X42639Y7416D01*
G01X42669Y7403D01*
G01X42700Y7391D01*
G01X42731Y7382D01*
G01X42763Y7374D01*
G01X42795Y7369D01*
G01X42828Y7366D01*
G01X42861Y7364D01*
G01X44131Y7364D01*
G01X44164Y7366D01*
G01X44197Y7369D01*
G01X44229Y7374D01*
G01X44261Y7382D01*
G01X44293Y7391D01*
G01X44323Y7403D01*
G01X44353Y7416D01*
G01X44382Y7432D01*
G01X44410Y7449D01*
G01X44437Y7468D01*
G01X44462Y7489D01*
G01X44486Y7512D01*
G01X44509Y7536D01*
G01X44530Y7561D01*
G01X44549Y7588D01*
G01X44566Y7616D01*
G01X44582Y7645D01*
G01X44595Y7675D01*
G01X44607Y7705D01*
G01X44617Y7737D01*
G01X44624Y7769D01*
G01X44629Y7801D01*
G01X44633Y7834D01*
G01X44634Y7867D01*
G01X44634Y9137D01*
G01X44633Y9169D01*
G01X44630Y9201D01*
G01X44624Y9233D01*
G01X44617Y9264D01*
G01X44608Y9295D01*
G01X44597Y9326D01*
G01X44584Y9355D01*
G01X44569Y9384D01*
G01X44552Y9411D01*
G01X44534Y9437D01*
G01X44514Y9463D01*
G01X44492Y9486D01*
G01X44469Y9509D01*
G01X44445Y9530D01*
G01X44419Y9549D01*
G01X44392Y9567D01*
G01X44364Y9582D01*
G01X44350Y9591D01*
G01X44338Y9601D01*
G01X44328Y9613D01*
G01X44320Y9627D01*
G01X44314Y9641D01*
G01X44310Y9657D01*
G01X44309Y9672D01*
G01X44310Y9688D01*
G01X44314Y9702D01*
G01X44319Y9716D01*
G01X44327Y9729D01*
G01X44336Y9741D01*
G01X44369Y9779D01*
G01X44400Y9817D01*
G01X44430Y9857D01*
G01X44457Y9899D01*
G01X44483Y9941D01*
G01X44507Y9985D01*
G01X44529Y10029D01*
G01X44549Y10075D01*
G01X44567Y10121D01*
G01X44583Y10168D01*
G01X44597Y10216D01*
G01X44609Y10264D01*
G01X44619Y10313D01*
G01X44626Y10362D01*
G01X44632Y10412D01*
G01X44635Y10461D01*
G01X44636Y10511D01*
G01X44635Y10561D01*
G01X44632Y10611D01*
G01X44626Y10661D01*
G01X44619Y10711D01*
G01X44609Y10760D01*
G01X44597Y10809D01*
G01X44582Y10857D01*
G01X44566Y10904D01*
G01X44548Y10951D01*
G01X44527Y10997D01*
G01X44505Y11042D01*
G01X44480Y11086D01*
G01X44454Y11128D01*
G01X44426Y11170D01*
G01X44396Y11210D01*
G01X44364Y11249D01*
G01X44331Y11286D01*
G01X44296Y11322D01*
G01X44259Y11357D01*
G01X44221Y11390D01*
G01X44182Y11421D01*
G01X44170Y11431D01*
G01X44160Y11443D01*
G01X44152Y11456D01*
G01X44146Y11471D01*
G01X44143Y11486D01*
G01X44141Y11502D01*
G01X44143Y11517D01*
G01X44146Y11533D01*
G01X44152Y11547D01*
G01X44160Y11561D01*
G01X44170Y11573D01*
G01X44182Y11583D01*
G01X44221Y11614D01*
G01X44259Y11647D01*
G01X44296Y11681D01*
G01X44331Y11717D01*
G01X44364Y11755D01*
G01X44396Y11793D01*
G01X44426Y11834D01*
G01X44454Y11875D01*
G01X44480Y11918D01*
G01X44505Y11962D01*
G01X44527Y12007D01*
G01X44548Y12053D01*
G01X44566Y12099D01*
G01X44582Y12147D01*
G01X44597Y12195D01*
G01X44609Y12243D01*
G01X44619Y12293D01*
G01X44626Y12342D01*
G01X44632Y12392D01*
G01X44635Y12442D01*
G01X44636Y12492D01*
G01X44635Y12541D01*
G01X44632Y12590D01*
G01X44627Y12638D01*
G01X44619Y12687D01*
G01X44610Y12734D01*
G01X44599Y12782D01*
G01X44585Y12829D01*
G01X44570Y12875D01*
G01X44552Y12921D01*
G01X44533Y12965D01*
G01X44512Y13009D01*
G01X44489Y13052D01*
G01X44464Y13094D01*
G01X44437Y13135D01*
G01X44409Y13175D01*
G01X44379Y13213D01*
G01X44347Y13250D01*
G01X44314Y13286D01*
G01X44279Y13320D01*
G01X44243Y13353D01*
G01X44205Y13384D01*
G01X44166Y13413D01*
G01X44154Y13424D01*
G01X44144Y13436D01*
G01X44135Y13449D01*
G01X44129Y13464D01*
G01X44126Y13480D01*
G01X44124Y13496D01*
G01X44126Y13512D01*
G01X44129Y13527D01*
G01X44135Y13542D01*
G01X44144Y13555D01*
G01X44154Y13568D01*
G01X44166Y13578D01*
G01X44205Y13607D01*
G01X44243Y13639D01*
G01X44279Y13671D01*
G01X44314Y13706D01*
G01X44347Y13742D01*
G01X44379Y13779D01*
G01X44409Y13817D01*
G01X44438Y13857D01*
G01X44464Y13898D01*
G01X44489Y13940D01*
G01X44513Y13983D01*
G01X44534Y14027D01*
G01X44553Y14072D01*
G01X44570Y14118D01*
G01X43880Y14118D01*
G01X43880Y13700D01*
G01X43879Y13685D01*
G01X43876Y13671D01*
G01X43870Y13657D01*
G01X43863Y13645D01*
G01X43855Y13633D01*
G01X43845Y13623D01*
G01X43833Y13614D01*
G01X43820Y13607D01*
G01X43807Y13602D01*
G01X43792Y13599D01*
G01X43778Y13598D01*
G01X43755Y13601D01*
G01X43704Y13611D01*
G01X43653Y13619D01*
G01X43602Y13625D01*
G01X43550Y13629D01*
G01X43499Y13630D01*
G01X43447Y13629D01*
G01X43395Y13625D01*
G01X43344Y13619D01*
G01X43293Y13611D01*
G01X43242Y13601D01*
G01X43219Y13598D01*
G01X43205Y13599D01*
G01X43191Y13602D01*
G01X43177Y13607D01*
G01X43164Y13614D01*
G01X43153Y13623D01*
G01X43142Y13633D01*
G01X43134Y13645D01*
G01X43127Y13657D01*
G01X43122Y13671D01*
G01X43119Y13685D01*
G01X43118Y13700D01*
G01X43118Y14118D01*
G01X42427Y14118D01*
G01X42444Y14072D01*
G01X42463Y14027D01*
G01X42485Y13983D01*
G01X42508Y13940D01*
G01X42533Y13898D01*
G01X42559Y13857D01*
G01X42588Y13817D01*
G01X42618Y13779D01*
G01X42650Y13742D01*
G01X42683Y13706D01*
G01X42718Y13671D01*
G01X42754Y13639D01*
G01X42792Y13607D01*
G01X42831Y13578D01*
G01X42843Y13568D01*
G01X42854Y13555D01*
G01X42862Y13542D01*
G01X42868Y13527D01*
G01X42872Y13512D01*
G01X42873Y13496D01*
G01X42872Y13480D01*
G01X42868Y13464D01*
G01X42862Y13449D01*
G01X42854Y13436D01*
G01X42843Y13424D01*
G01X42831Y13413D01*
G01X42792Y13384D01*
G01X42755Y13353D01*
G01X42718Y13320D01*
G01X42684Y13286D01*
G01X42650Y13250D01*
G01X42619Y13213D01*
G01X42589Y13175D01*
G01X42560Y13135D01*
G01X42533Y13094D01*
G01X42508Y13052D01*
G01X42485Y13009D01*
G01X42464Y12965D01*
G01X42445Y12921D01*
G01X42427Y12875D01*
G01X42412Y12829D01*
G01X42399Y12782D01*
G01X42387Y12734D01*
G01X42378Y12687D01*
G01X42370Y12638D01*
G01X42365Y12590D01*
G01X42362Y12541D01*
G01X42361Y12492D01*
G01X42362Y12442D01*
G01X42366Y12392D01*
G01X42371Y12342D01*
G01X42379Y12293D01*
G01X42389Y12243D01*
G01X42401Y12195D01*
G01X42415Y12147D01*
G01X42431Y12099D01*
G01X42450Y12053D01*
G01X42470Y12007D01*
G01X42492Y11962D01*
G01X42517Y11918D01*
G01X42543Y11875D01*
G01X42571Y11834D01*
G01X42601Y11793D01*
G01X42633Y11755D01*
G01X42666Y11717D01*
G01X42701Y11681D01*
G01X42738Y11647D01*
G01X42776Y11614D01*
G01X42815Y11583D01*
G01X42827Y11573D01*
G01X42837Y11561D01*
G01X42845Y11547D01*
G01X42851Y11533D01*
G01X42855Y11517D01*
G01X42856Y11502D01*
G01X42855Y11486D01*
G01X42851Y11471D01*
G01X42845Y11456D01*
G01X42837Y11443D01*
G01X42827Y11431D01*
G01X42815Y11421D01*
G01X42777Y11390D01*
G01X42739Y11358D01*
G01X42703Y11325D01*
G01X42669Y11289D01*
G01X42657Y11278D01*
G01X42643Y11269D01*
G01X42627Y11263D01*
G01X42611Y11259D01*
G01X42595Y11257D01*
G01X40355Y11257D01*
G01X40339Y11259D01*
G01X40324Y11262D01*
G01X40309Y11268D01*
G01X40295Y11277D01*
G01X40283Y11287D01*
G01X38287Y13284D01*
G01X38276Y13296D01*
G01X38268Y13309D01*
G01X38262Y13324D01*
G01X38258Y13340D01*
G01X38257Y13355D01*
G01X38257Y21426D01*
G01X38258Y21440D01*
G01X38261Y21454D01*
G01X38266Y21468D01*
G01X38273Y21480D01*
G01X38282Y21492D01*
G01X38292Y21502D01*
G01X38304Y21511D01*
G01X38316Y21518D01*
G01X38330Y21523D01*
G01X38344Y21526D01*
G01X38359Y21527D01*
G01X38374Y21526D01*
G01X38390Y21522D01*
G01X38405Y21516D01*
G01X38418Y21508D01*
G01X38430Y21497D01*
G01X38964Y20964D01*
G01X40964Y18964D01*
G01X40992Y18937D01*
G01X41023Y18911D01*
G01X41054Y18887D01*
G01X41087Y18864D01*
G01X41121Y18844D01*
G01X41155Y18825D01*
G01X41191Y18808D01*
G01X41228Y18792D01*
G01X41265Y18779D01*
G01X41303Y18768D01*
G01X41342Y18759D01*
G01X41381Y18752D01*
G01X41420Y18746D01*
G01X41460Y18743D01*
G01X41499Y18742D01*
G01X42295Y18742D01*
G01X42310Y18741D01*
G01X42324Y18738D01*
G01X42338Y18732D01*
G01X42351Y18725D01*
G01X42363Y18716D01*
G01X42373Y18705D01*
G01X42382Y18693D01*
G01X42389Y18679D01*
G01X42402Y18649D01*
G01X42418Y18620D01*
G01X42435Y18592D01*
G01X42454Y18565D01*
G01X42475Y18540D01*
G01X42497Y18516D01*
G01X42522Y18493D01*
G01X42547Y18472D01*
G01X42574Y18453D01*
G01X42602Y18435D01*
G01X42631Y18420D01*
G01X42661Y18406D01*
G01X42692Y18395D01*
G01X42723Y18385D01*
G01X42755Y18377D01*
G01X42788Y18372D01*
G01X42821Y18369D01*
G01X42853Y18368D01*
G01X44123Y18368D01*
G01X44156Y18369D01*
G01X44189Y18372D01*
G01X44222Y18377D01*
G01X44254Y18385D01*
G01X44285Y18394D01*
G01X44316Y18406D01*
G01X44346Y18420D01*
G01X44375Y18435D01*
G01X44403Y18452D01*
G01X44455Y18492D01*
G01X44479Y18515D01*
G01X44501Y18539D01*
G01X44522Y18564D01*
G01X44541Y18591D01*
G01X44559Y18619D01*
G01X44574Y18648D01*
G01X44588Y18678D01*
G01X44599Y18709D01*
G01X44609Y18740D01*
G01X44616Y18772D01*
G01X44622Y18805D01*
G01X44625Y18837D01*
G01X44626Y18870D01*
G01X44626Y20140D01*
G01X44625Y20174D01*
G01X44621Y20208D01*
G01X44616Y20241D01*
G01X44608Y20274D01*
G01X44598Y20306D01*
G01X44586Y20337D01*
G01X44572Y20368D01*
G01X44555Y20397D01*
G01X44537Y20426D01*
G01X44517Y20453D01*
G01X44495Y20479D01*
G01X44472Y20503D01*
G01X44447Y20525D01*
G01X44420Y20546D01*
G01X44392Y20565D01*
G01X44363Y20582D01*
G01X44350Y20591D01*
G01X44338Y20601D01*
G01X44328Y20613D01*
G01X44320Y20626D01*
G01X44315Y20641D01*
G01X44311Y20656D01*
G01X44310Y20671D01*
G01X44311Y20686D01*
G01X44314Y20701D01*
G01X44320Y20715D01*
G01X44327Y20728D01*
G01X44337Y20740D01*
G01X44369Y20777D01*
G01X44401Y20816D01*
G01X44430Y20856D01*
G01X44458Y20897D01*
G01X44483Y20940D01*
G01X44507Y20984D01*
G01X44529Y21028D01*
G01X44549Y21074D01*
G01X44567Y21120D01*
G01X44583Y21167D01*
G01X44597Y21215D01*
G01X44609Y21263D01*
G01X44619Y21312D01*
G01X44626Y21361D01*
G01X44632Y21410D01*
G01X44635Y21460D01*
G01X44636Y21509D01*
G01X44635Y21560D01*
G01X44632Y21610D01*
G01X44626Y21659D01*
G01X44619Y21709D01*
G01X44609Y21758D01*
G01X44597Y21807D01*
G01X44582Y21855D01*
G01X44566Y21903D01*
G01X44548Y21949D01*
G01X44527Y21995D01*
G01X44505Y22040D01*
G01X44480Y22084D01*
G01X44454Y22127D01*
G01X44426Y22168D01*
G01X44396Y22208D01*
G01X44364Y22247D01*
G01X44331Y22285D01*
G01X44296Y22321D01*
G01X44259Y22355D01*
G01X44221Y22388D01*
G01X44182Y22419D01*
G01X44170Y22429D01*
G01X44160Y22441D01*
G01X44152Y22455D01*
G01X44146Y22469D01*
G01X44143Y22484D01*
G01X44141Y22500D01*
G01X44143Y22516D01*
G01X44146Y22531D01*
G01X44152Y22545D01*
G01X44160Y22559D01*
G01X44170Y22571D01*
G01X44182Y22581D01*
G01X44221Y22612D01*
G01X44259Y22645D01*
G01X44296Y22679D01*
G01X44331Y22715D01*
G01X44364Y22753D01*
G01X44396Y22792D01*
G01X44426Y22832D01*
G01X44454Y22873D01*
G01X44480Y22916D01*
G01X44505Y22960D01*
G01X44527Y23005D01*
G01X44548Y23051D01*
G01X44566Y23097D01*
G01X44582Y23145D01*
G01X44597Y23193D01*
G01X44609Y23242D01*
G01X44619Y23291D01*
G01X44626Y23340D01*
G01X44632Y23390D01*
G01X44635Y23440D01*
G01X44636Y23491D01*
G01X44635Y23539D01*
G01X44632Y23588D01*
G01X44627Y23637D01*
G01X44619Y23685D01*
G01X44610Y23733D01*
G01X44599Y23780D01*
G01X44585Y23827D01*
G01X44570Y23873D01*
G01X44552Y23919D01*
G01X44533Y23964D01*
G01X44512Y24008D01*
G01X44489Y24051D01*
G01X44464Y24092D01*
G01X44437Y24133D01*
G01X44409Y24173D01*
G01X44379Y24211D01*
G01X44347Y24248D01*
G01X44314Y24284D01*
G01X44279Y24318D01*
G01X44243Y24351D01*
G01X44205Y24382D01*
G01X44166Y24412D01*
G01X44154Y24422D01*
G01X44144Y24434D01*
G01X44135Y24448D01*
G01X44129Y24462D01*
G01X44126Y24478D01*
G01X44124Y24494D01*
G01X44126Y24510D01*
G01X44129Y24525D01*
G01X44135Y24540D01*
G01X44144Y24554D01*
G01X44154Y24566D01*
G01X44166Y24576D01*
G01X44205Y24606D01*
G01X44243Y24637D01*
G01X44279Y24670D01*
G01X44314Y24704D01*
G01X44347Y24740D01*
G01X44379Y24777D01*
G01X44409Y24815D01*
G01X44438Y24855D01*
G01X44464Y24896D01*
G01X44489Y24938D01*
G01X44513Y24981D01*
G01X44534Y25025D01*
G01X44553Y25070D01*
G01X44570Y25116D01*
G01X43880Y25116D01*
G01X43880Y24698D01*
G01X43879Y24683D01*
G01X43876Y24669D01*
G01X43870Y24656D01*
G01X43863Y24643D01*
G01X43855Y24631D01*
G01X43845Y24621D01*
G01X43833Y24612D01*
G01X43820Y24605D01*
G01X43807Y24600D01*
G01X43792Y24597D01*
G01X43778Y24596D01*
G01X43755Y24599D01*
G01X43704Y24609D01*
G01X43653Y24618D01*
G01X43602Y24623D01*
G01X43550Y24627D01*
G01X43499Y24628D01*
G01X43447Y24627D01*
G01X43395Y24623D01*
G01X43344Y24618D01*
G01X43293Y24609D01*
G01X43242Y24599D01*
G01X43219Y24596D01*
G01X43205Y24597D01*
G01X43191Y24600D01*
G01X43177Y24605D01*
G01X43164Y24612D01*
G01X43153Y24621D01*
G01X43142Y24631D01*
G01X43134Y24643D01*
G01X43127Y24656D01*
G01X43122Y24669D01*
G01X43119Y24683D01*
G01X43118Y24698D01*
G01X43118Y25116D01*
G01X42427Y25116D01*
G01X42444Y25070D01*
G01X42463Y25025D01*
G01X42485Y24981D01*
G01X42508Y24938D01*
G01X42533Y24896D01*
G01X42559Y24855D01*
G01X42588Y24815D01*
G01X42618Y24777D01*
G01X42650Y24740D01*
G01X42683Y24704D01*
G01X42718Y24670D01*
G01X42754Y24637D01*
G01X42792Y24606D01*
G01X42831Y24576D01*
G01X42843Y24566D01*
G01X42854Y24554D01*
G01X42862Y24540D01*
G01X42868Y24525D01*
G01X42872Y24510D01*
G01X42873Y24494D01*
G01X42872Y24478D01*
G01X42868Y24462D01*
G01X42862Y24448D01*
G01X42854Y24434D01*
G01X42843Y24422D01*
G01X42831Y24412D01*
G01X42792Y24382D01*
G01X42755Y24351D01*
G01X42718Y24318D01*
G01X42684Y24284D01*
G01X42650Y24248D01*
G01X42619Y24211D01*
G01X42589Y24173D01*
G01X42560Y24133D01*
G01X42533Y24092D01*
G01X42508Y24051D01*
G01X42485Y24008D01*
G01X42464Y23964D01*
G01X42445Y23919D01*
G01X42427Y23873D01*
G01X42412Y23827D01*
G01X42399Y23780D01*
G01X42387Y23733D01*
G01X42378Y23685D01*
G01X42370Y23637D01*
G01X42365Y23588D01*
G01X42362Y23539D01*
G01X42361Y23491D01*
G01X42362Y23440D01*
G01X42366Y23390D01*
G01X42371Y23340D01*
G01X42379Y23291D01*
G01X42389Y23242D01*
G01X42401Y23193D01*
G01X42415Y23145D01*
G01X42431Y23097D01*
G01X42450Y23051D01*
G01X42470Y23005D01*
G01X42492Y22960D01*
G01X42517Y22916D01*
G01X42543Y22873D01*
G01X42571Y22832D01*
G01X42601Y22792D01*
G01X42633Y22753D01*
G01X42666Y22715D01*
G01X42701Y22679D01*
G01X42738Y22645D01*
G01X42776Y22612D01*
G01X42815Y22581D01*
G01X42827Y22571D01*
G01X42837Y22559D01*
G01X42845Y22545D01*
G01X42851Y22531D01*
G01X42855Y22516D01*
G01X42856Y22500D01*
G01X42855Y22484D01*
G01X42851Y22469D01*
G01X42845Y22455D01*
G01X42837Y22441D01*
G01X42827Y22429D01*
G01X42815Y22419D01*
G01X42777Y22389D01*
G01X42740Y22357D01*
G01X42705Y22324D01*
G01X42670Y22289D01*
G01X42658Y22278D01*
G01X42644Y22269D01*
G01X42629Y22263D01*
G01X42613Y22259D01*
G01X42596Y22257D01*
G01X41355Y22257D01*
G01X41339Y22258D01*
G01X41324Y22262D01*
G01X41309Y22268D01*
G01X41295Y22277D01*
G01X41283Y22287D01*
G01X40287Y23284D01*
G01X40276Y23296D01*
G01X40268Y23309D01*
G01X40262Y23324D01*
G01X40258Y23340D01*
G01X40257Y23355D01*
G01X40257Y30428D01*
G01X40258Y30442D01*
G01X40261Y30456D01*
G01X40266Y30470D01*
G01X40273Y30482D01*
G01X40282Y30494D01*
G01X40292Y30504D01*
G01X40304Y30513D01*
G01X40316Y30520D01*
G01X40330Y30525D01*
G01X40344Y30528D01*
G01X40359Y30529D01*
G01X40376Y30528D01*
G01X40392Y30523D01*
G01X40408Y30516D01*
G01X40422Y30507D01*
G01X40434Y30495D01*
G01X40464Y30464D01*
G01X40970Y29958D01*
G01X40999Y29930D01*
G01X41029Y29905D01*
G01X41060Y29880D01*
G01X41093Y29858D01*
G01X41127Y29837D01*
G01X41162Y29818D01*
G01X41198Y29801D01*
G01X41234Y29786D01*
G01X41272Y29773D01*
G01X41310Y29762D01*
G01X41348Y29752D01*
G01X41387Y29745D01*
G01X41427Y29740D01*
G01X41466Y29737D01*
G01X41506Y29736D01*
G01X42224Y29736D01*
G01X42240Y29735D01*
G01X42256Y29731D01*
G01X42270Y29725D01*
G01X42284Y29717D01*
G01X42296Y29706D01*
G01X42306Y29694D01*
G01X42338Y29652D01*
G01X42372Y29611D01*
G01X42407Y29572D01*
G01X42444Y29534D01*
G01X42482Y29498D01*
G01X42522Y29463D01*
G01X42563Y29429D01*
G01X42605Y29397D01*
G01X42649Y29367D01*
G01X42693Y29339D01*
G01X42739Y29312D01*
G01X42786Y29287D01*
G01X42833Y29264D01*
G01X42882Y29243D01*
G01X42931Y29224D01*
G01X42981Y29207D01*
G01X43031Y29192D01*
G01X43083Y29178D01*
G01X43134Y29167D01*
G01X43186Y29158D01*
G01X43239Y29150D01*
G01X43291Y29145D01*
G01X43344Y29142D01*
G01X43397Y29141D01*
G01X43450Y29142D01*
G01X43503Y29145D01*
G01X43556Y29151D01*
G01X43609Y29158D01*
G01X43661Y29167D01*
G01X43713Y29179D01*
G01X43764Y29192D01*
G01X43815Y29207D01*
G01X43865Y29225D01*
G01X43914Y29244D01*
G01X43963Y29265D01*
G01X44011Y29289D01*
G01X44058Y29314D01*
G01X44104Y29340D01*
G01X44148Y29369D01*
G01X44192Y29399D01*
G01X44234Y29431D01*
G01X44275Y29465D01*
G01X44315Y29500D01*
G01X44353Y29537D01*
G01X44390Y29575D01*
G01X44425Y29615D01*
G01X44459Y29656D01*
G01X44491Y29699D01*
G01X44521Y29742D01*
G01X44550Y29787D01*
G01X44577Y29833D01*
G01X44602Y29879D01*
G01X44625Y29927D01*
G01X44646Y29976D01*
G01X44666Y30025D01*
G01X44683Y30075D01*
G01X44698Y30126D01*
G01X44712Y30178D01*
G01X44723Y30230D01*
G01X44733Y30282D01*
G01X44740Y30334D01*
G01X44745Y30387D01*
G01X44748Y30440D01*
G01X44749Y30493D01*
G01X44748Y30546D01*
G01X44745Y30599D01*
G01X44740Y30652D01*
G01X44733Y30705D01*
G01X44723Y30757D01*
G01X44712Y30809D01*
G01X44698Y30860D01*
G01X44683Y30911D01*
G01X44666Y30961D01*
G01X44646Y31011D01*
G01X44625Y31059D01*
G01X44602Y31107D01*
G01X44577Y31154D01*
G01X44550Y31200D01*
G01X44521Y31245D01*
G01X44491Y31288D01*
G01X44459Y31330D01*
G01X44425Y31372D01*
G01X44390Y31411D01*
G01X44353Y31449D01*
G01X44315Y31486D01*
G01X44275Y31522D01*
G01X44234Y31555D01*
G01X44192Y31587D01*
G01X44148Y31618D01*
G01X44104Y31646D01*
G01X44058Y31673D01*
G01X44011Y31698D01*
G01X43963Y31721D01*
G01X43914Y31743D01*
G01X43865Y31762D01*
G01X43815Y31779D01*
G01X43764Y31795D01*
G01X43713Y31808D01*
G01X43661Y31820D01*
G01X43609Y31829D01*
G01X43556Y31836D01*
G01X43503Y31841D01*
G01X43450Y31844D01*
G01X43397Y31846D01*
G01X43344Y31844D01*
G01X43291Y31841D01*
G01X43239Y31836D01*
G01X43186Y31829D01*
G01X43134Y31820D01*
G01X43083Y31808D01*
G01X43031Y31795D01*
G01X42981Y31780D01*
G01X42931Y31763D01*
G01X42882Y31743D01*
G01X42833Y31722D01*
G01X42786Y31699D01*
G01X42739Y31675D01*
G01X42693Y31648D01*
G01X42649Y31619D01*
G01X42605Y31589D01*
G01X42563Y31558D01*
G01X42522Y31524D01*
G01X42482Y31489D01*
G01X42444Y31453D01*
G01X42407Y31415D01*
G01X42372Y31375D01*
G01X42338Y31334D01*
G01X42306Y31292D01*
G01X42296Y31280D01*
G01X42284Y31270D01*
G01X42270Y31262D01*
G01X42256Y31256D01*
G01X42240Y31252D01*
G01X42224Y31251D01*
G01X41862Y31251D01*
G01X41846Y31252D01*
G01X41830Y31256D01*
G01X41816Y31262D01*
G01X41802Y31270D01*
G01X41790Y31281D01*
G01X41787Y31284D01*
G01X41776Y31296D01*
G01X41768Y31309D01*
G01X41762Y31324D01*
G01X41758Y31340D01*
G01X41757Y31355D01*
G01X41757Y35000D01*
G01X41756Y35039D01*
G01X41753Y35079D01*
G01X41748Y35118D01*
G01X41740Y35157D01*
G01X41731Y35196D01*
G01X41720Y35234D01*
G01X41707Y35271D01*
G01X41692Y35308D01*
G01X41674Y35344D01*
G01X41656Y35378D01*
G01X41635Y35412D01*
G01X41612Y35445D01*
G01X41588Y35476D01*
G01X41562Y35507D01*
G01X41535Y35535D01*
G01X39287Y37784D01*
G01X39276Y37796D01*
G01X39268Y37809D01*
G01X39262Y37824D01*
G01X39258Y37840D01*
G01X39257Y37855D01*
G01X39257Y38055D01*
G01X39258Y38071D01*
G01X39262Y38087D01*
G01X39269Y38102D01*
G01X39277Y38116D01*
G01X39288Y38128D01*
G01X39301Y38138D01*
G01X39315Y38146D01*
G01X39345Y38162D01*
G01X39373Y38179D01*
G01X39400Y38198D01*
G01X39426Y38219D01*
G01X39451Y38241D01*
G01X39474Y38265D01*
G01X39495Y38291D01*
G01X39515Y38318D01*
G01X39533Y38346D01*
G01X39548Y38375D01*
G01X39562Y38406D01*
G01X39574Y38437D01*
G01X39584Y38468D01*
G01X39592Y38501D01*
G01X39597Y38534D01*
G01X39600Y38567D01*
G01X39601Y38600D01*
G01X39601Y39700D01*
G01X39600Y39732D01*
G01X39597Y39765D01*
G01X39592Y39797D01*
G01X39585Y39829D01*
G01X39575Y39860D01*
G01X39564Y39891D01*
G01X39551Y39920D01*
G01X39535Y39949D01*
G01X39528Y39965D01*
G01X39523Y39982D01*
G01X39522Y40000D01*
G01X39523Y40017D01*
G01X39528Y40034D01*
G01X39535Y40050D01*
G01X39551Y40079D01*
G01X39564Y40109D01*
G01X39575Y40139D01*
G01X39585Y40170D01*
G01X39592Y40202D01*
G01X39597Y40234D01*
G01X39600Y40267D01*
G01X39601Y40299D01*
G01X39601Y41399D01*
G01X39600Y41432D01*
G01X39597Y41465D01*
G01X39592Y41497D01*
G01X39584Y41529D01*
G01X39575Y41561D01*
G01X39563Y41591D01*
G01X39550Y41621D01*
G01X39534Y41650D01*
G01X39517Y41678D01*
G01X39498Y41705D01*
G01X39477Y41731D01*
G01X39454Y41755D01*
G01X39430Y41777D01*
G01X39405Y41798D01*
G01X39378Y41817D01*
G01X39350Y41834D01*
G01X39321Y41850D01*
G01X39291Y41863D01*
G01X39260Y41875D01*
G01X39229Y41885D01*
G01X39197Y41892D01*
G01X39165Y41897D01*
G01X39132Y41901D01*
G01X39099Y41902D01*
G01X37900Y41902D01*
G01X37868Y41901D01*
G01X37835Y41898D01*
G01X37803Y41892D01*
G01X37772Y41885D01*
G01X37741Y41876D01*
G01X37710Y41864D01*
G01X37681Y41851D01*
G01X37652Y41836D01*
G01X37624Y41819D01*
G01X37598Y41800D01*
G01X37572Y41780D01*
G01X37548Y41758D01*
G01X37526Y41735D01*
G01X37505Y41710D01*
G01X37486Y41684D01*
G01X37468Y41656D01*
G01X37460Y41644D01*
G01X37449Y41633D01*
G01X37438Y41624D01*
G01X37425Y41617D01*
G01X37411Y41611D01*
G01X37396Y41608D01*
G01X37381Y41607D01*
G01X36997Y41607D01*
G01X36982Y41608D01*
G01X36968Y41611D01*
G01X36954Y41617D01*
G01X36941Y41624D01*
G01X36929Y41633D01*
G01X36919Y41644D01*
G01X36910Y41656D01*
G01X36903Y41669D01*
G01X36899Y41684D01*
G01X36885Y41735D01*
G01X36869Y41785D01*
G01X36851Y41835D01*
G01X36830Y41884D01*
G01X36808Y41932D01*
G01X36784Y41979D01*
G01X36758Y42026D01*
G01X36730Y42071D01*
G01X36701Y42115D01*
G01X36669Y42157D01*
G01X36636Y42198D01*
G01X36601Y42238D01*
G01X36565Y42277D01*
G01X36526Y42314D01*
G01X36487Y42349D01*
G01X36446Y42383D01*
G01X36404Y42415D01*
G01X36360Y42445D01*
G01X36315Y42473D01*
G01X36270Y42500D01*
G01X36223Y42524D01*
G01X36175Y42547D01*
G01X36162Y42554D01*
G01X36150Y42562D01*
G01X36140Y42573D01*
G01X36131Y42584D01*
G01X36124Y42597D01*
G01X36119Y42611D01*
G01X36116Y42625D01*
G01X36115Y42640D01*
G01X36116Y42654D01*
G01X36119Y42668D01*
G01X36124Y42682D01*
G01X36131Y42695D01*
G01X36140Y42707D01*
G01X36150Y42717D01*
G01X36162Y42725D01*
G01X36175Y42732D01*
G01X36223Y42755D01*
G01X36270Y42780D01*
G01X36317Y42807D01*
G01X36362Y42835D01*
G01X36406Y42866D01*
G01X36448Y42898D01*
G01X36489Y42932D01*
G01X36529Y42968D01*
G01X36567Y43005D01*
G01X36604Y43044D01*
G01X36639Y43085D01*
G01X36672Y43126D01*
G01X36704Y43170D01*
G01X36734Y43214D01*
G01X36762Y43260D01*
G01X36788Y43306D01*
G01X36812Y43354D01*
G01X36834Y43403D01*
G01X36854Y43452D01*
G01X36105Y43452D01*
G01X36105Y42715D01*
G01X36104Y42701D01*
G01X36101Y42686D01*
G01X36096Y42673D01*
G01X36089Y42660D01*
G01X36080Y42648D01*
G01X36070Y42638D01*
G01X36058Y42629D01*
G01X36032Y42617D01*
G01X36018Y42614D01*
G01X36003Y42613D01*
G01X35977Y42617D01*
G01X35923Y42630D01*
G01X35869Y42640D01*
G01X35814Y42649D01*
G01X35758Y42655D01*
G01X35703Y42658D01*
G01X35647Y42660D01*
G01X35592Y42658D01*
G01X35537Y42655D01*
G01X35481Y42649D01*
G01X35426Y42640D01*
G01X35372Y42630D01*
G01X35318Y42617D01*
G01X35292Y42613D01*
G01X35277Y42614D01*
G01X35263Y42617D01*
G01X35237Y42629D01*
G01X35225Y42638D01*
G01X35215Y42648D01*
G01X35206Y42660D01*
G01X35199Y42673D01*
G01X35194Y42686D01*
G01X35191Y42701D01*
G01X35190Y42715D01*
G01X35190Y43452D01*
G01X34441Y43452D01*
G01X34461Y43403D01*
G01X34483Y43354D01*
G01X34507Y43306D01*
G01X34533Y43260D01*
G01X34561Y43214D01*
G01X34591Y43170D01*
G01X34622Y43126D01*
G01X34656Y43085D01*
G01X34691Y43044D01*
G01X34728Y43005D01*
G01X34766Y42968D01*
G01X34806Y42932D01*
G01X34847Y42898D01*
G01X34889Y42866D01*
G01X34933Y42835D01*
G01X34978Y42807D01*
G01X35025Y42780D01*
G01X35072Y42755D01*
G01X35120Y42732D01*
G01X35133Y42725D01*
G01X35145Y42717D01*
G01X35155Y42707D01*
G01X35164Y42695D01*
G01X35171Y42682D01*
G01X35176Y42668D01*
G01X35179Y42654D01*
G01X35180Y42640D01*
G01X35179Y42625D01*
G01X35176Y42611D01*
G01X35171Y42597D01*
G01X35164Y42584D01*
G01X35155Y42573D01*
G01X35145Y42562D01*
G01X35133Y42554D01*
G01X35120Y42547D01*
G01X35072Y42524D01*
G01X35024Y42499D01*
G01X34978Y42472D01*
G01X34932Y42443D01*
G01X34888Y42412D01*
G01X34845Y42380D01*
G01X34804Y42345D01*
G01X34764Y42309D01*
G01X34726Y42272D01*
G01X34689Y42233D01*
G01X34654Y42192D01*
G01X34620Y42150D01*
G01X34589Y42106D01*
G01X34578Y42094D01*
G01X34566Y42083D01*
G01X34552Y42074D01*
G01X34537Y42068D01*
G01X34521Y42064D01*
G01X34505Y42063D01*
G01X33488Y42063D01*
G01X33472Y42064D01*
G01X33456Y42068D01*
G01X33441Y42074D01*
G01X33427Y42083D01*
G01X33415Y42094D01*
G01X33404Y42106D01*
G01X33373Y42150D01*
G01X33339Y42192D01*
G01X33304Y42233D01*
G01X33267Y42272D01*
G01X33229Y42309D01*
G01X33189Y42345D01*
G01X33148Y42380D01*
G01X33105Y42412D01*
G01X33061Y42443D01*
G01X33015Y42472D01*
G01X32969Y42499D01*
G01X32921Y42524D01*
G01X32873Y42547D01*
G01X32860Y42554D01*
G01X32848Y42562D01*
G01X32838Y42573D01*
G01X32829Y42584D01*
G01X32822Y42597D01*
G01X32817Y42611D01*
G01X32814Y42625D01*
G01X32813Y42640D01*
G01X32814Y42654D01*
G01X32817Y42668D01*
G01X32822Y42682D01*
G01X32829Y42695D01*
G01X32838Y42707D01*
G01X32848Y42717D01*
G01X32860Y42725D01*
G01X32873Y42732D01*
G01X32921Y42755D01*
G01X32968Y42780D01*
G01X33015Y42807D01*
G01X33060Y42835D01*
G01X33104Y42866D01*
G01X33146Y42898D01*
G01X33187Y42932D01*
G01X33227Y42968D01*
G01X33265Y43005D01*
G01X33302Y43044D01*
G01X33337Y43085D01*
G01X33370Y43126D01*
G01X33402Y43170D01*
G01X33432Y43214D01*
G01X33460Y43260D01*
G01X33486Y43306D01*
G01X33510Y43354D01*
G01X33532Y43403D01*
G01X33552Y43452D01*
G01X32803Y43452D01*
G01X32803Y42715D01*
G01X32802Y42701D01*
G01X32799Y42686D01*
G01X32794Y42673D01*
G01X32787Y42660D01*
G01X32778Y42648D01*
G01X32768Y42638D01*
G01X32756Y42629D01*
G01X32730Y42617D01*
G01X32716Y42614D01*
G01X32701Y42613D01*
G01X32675Y42617D01*
G01X32610Y42632D01*
G01X32558Y42642D01*
G01X32505Y42650D01*
G01X32452Y42655D01*
G01X32399Y42658D01*
G01X32345Y42660D01*
G01X32292Y42658D01*
G01X32239Y42655D01*
G01X32186Y42650D01*
G01X32133Y42642D01*
G01X32081Y42632D01*
G01X32016Y42617D01*
G01X31990Y42613D01*
G01X31975Y42614D01*
G01X31961Y42617D01*
G01X31935Y42629D01*
G01X31923Y42638D01*
G01X31913Y42648D01*
G01X31904Y42660D01*
G01X31897Y42673D01*
G01X31892Y42686D01*
G01X31889Y42701D01*
G01X31888Y42715D01*
G01X31888Y43452D01*
G01X31139Y43452D01*
G01X31159Y43403D01*
G01X31181Y43354D01*
G01X31205Y43306D01*
G01X31231Y43260D01*
G01X31259Y43214D01*
G01X31289Y43170D01*
G01X31320Y43126D01*
G01X31354Y43085D01*
G01X31389Y43044D01*
G01X31426Y43005D01*
G01X31464Y42968D01*
G01X31504Y42932D01*
G01X31545Y42898D01*
G01X31587Y42866D01*
G01X31631Y42835D01*
G01X31676Y42807D01*
G01X31723Y42780D01*
G01X31770Y42755D01*
G01X31818Y42732D01*
G01X31831Y42725D01*
G01X31843Y42717D01*
G01X31853Y42707D01*
G01X31862Y42695D01*
G01X31869Y42682D01*
G01X31874Y42668D01*
G01X31877Y42654D01*
G01X31878Y42640D01*
G01X31877Y42625D01*
G01X31874Y42611D01*
G01X31869Y42597D01*
G01X31862Y42584D01*
G01X31853Y42573D01*
G01X31843Y42562D01*
G01X31831Y42554D01*
G01X31818Y42547D01*
G01X31770Y42524D01*
G01X31723Y42500D01*
G01X31678Y42473D01*
G01X31633Y42445D01*
G01X31589Y42415D01*
G01X31547Y42383D01*
G01X31506Y42349D01*
G01X31467Y42314D01*
G01X31429Y42277D01*
G01X31392Y42239D01*
G01X31357Y42199D01*
G01X31324Y42157D01*
G01X31293Y42115D01*
G01X31263Y42071D01*
G01X31235Y42026D01*
G01X31209Y41980D01*
G01X31185Y41933D01*
G01X31163Y41885D01*
G01X31143Y41836D01*
G01X31125Y41786D01*
G01X31108Y41735D01*
G01X31094Y41684D01*
G01X31083Y41633D01*
G01X31073Y41581D01*
G01X31065Y41528D01*
G01X31060Y41475D01*
G01X31057Y41423D01*
G01X31056Y41370D01*
G01X31057Y41317D01*
G01X31060Y41264D01*
G01X31065Y41211D01*
G01X31073Y41159D01*
G01X31083Y41107D01*
G01X31094Y41055D01*
G01X31108Y41004D01*
G01X31125Y40953D01*
G01X31143Y40904D01*
G01X31163Y40855D01*
G01X31185Y40807D01*
G01X31209Y40759D01*
G01X31235Y40713D01*
G01X31263Y40668D01*
G01X31293Y40624D01*
G01X31324Y40582D01*
G01X31357Y40541D01*
G01X31392Y40501D01*
G01X31429Y40462D01*
G01X31467Y40425D01*
G01X31506Y40390D01*
G01X31547Y40356D01*
G01X31589Y40325D01*
G01X31633Y40294D01*
G01X31678Y40266D01*
G01X31723Y40240D01*
G01X31770Y40215D01*
G01X31818Y40192D01*
G01X31831Y40185D01*
G01X31843Y40177D01*
G01X31853Y40167D01*
G01X31862Y40155D01*
G01X31869Y40142D01*
G01X31874Y40128D01*
G01X31877Y40114D01*
G01X31878Y40100D01*
G01X31877Y40085D01*
G01X31874Y40071D01*
G01X31869Y40057D01*
G01X31862Y40044D01*
G01X31853Y40033D01*
G01X31843Y40022D01*
G01X31831Y40014D01*
G01X31818Y40007D01*
G01X31770Y39984D01*
G01X31723Y39960D01*
G01X31678Y39933D01*
G01X31633Y39905D01*
G01X31589Y39875D01*
G01X31547Y39843D01*
G01X31506Y39809D01*
G01X31467Y39774D01*
G01X31429Y39737D01*
G01X31392Y39699D01*
G01X31357Y39659D01*
G01X31324Y39617D01*
G01X31293Y39575D01*
G01X31263Y39531D01*
G01X31235Y39486D01*
G01X31209Y39440D01*
G01X31185Y39393D01*
G01X31163Y39345D01*
G01X31143Y39296D01*
G01X31125Y39246D01*
G01X31108Y39195D01*
G01X31094Y39144D01*
G01X31083Y39093D01*
G01X31073Y39041D01*
G01X31065Y38988D01*
G01X31060Y38935D01*
G01X31057Y38883D01*
G01X31056Y38830D01*
G01X31057Y38777D01*
G01X31060Y38724D01*
G01X31065Y38671D01*
G01X31073Y38619D01*
G01X31083Y38567D01*
G01X31094Y38515D01*
G01X31108Y38464D01*
G01X31125Y38413D01*
G01X31143Y38364D01*
G01X31163Y38315D01*
G01X31185Y38267D01*
G01X31209Y38219D01*
G01X31235Y38173D01*
G01X31263Y38128D01*
G01X31293Y38084D01*
G01X31324Y38042D01*
G01X31357Y38001D01*
G01X31392Y37961D01*
G01X31429Y37922D01*
G01X31467Y37885D01*
G01X31506Y37850D01*
G01X31547Y37816D01*
G01X31589Y37785D01*
G01X31633Y37754D01*
G01X31678Y37726D01*
G01X31723Y37700D01*
G01X31770Y37675D01*
G01X31818Y37652D01*
G01X31831Y37645D01*
G01X31843Y37637D01*
G01X31853Y37627D01*
G01X31862Y37615D01*
G01X31869Y37602D01*
G01X31874Y37588D01*
G01X31877Y37574D01*
G01X31878Y37560D01*
G01X31877Y37545D01*
G01X31874Y37531D01*
G01X31869Y37517D01*
G01X31862Y37504D01*
G01X31853Y37493D01*
G01X31843Y37482D01*
G01X31831Y37474D01*
G01X31818Y37467D01*
G01X31770Y37444D01*
G01X31723Y37420D01*
G01X31678Y37393D01*
G01X31633Y37365D01*
G01X31589Y37335D01*
G01X31547Y37303D01*
G01X31506Y37269D01*
G01X31467Y37234D01*
G01X31429Y37197D01*
G01X31392Y37159D01*
G01X31357Y37119D01*
G01X31324Y37077D01*
G01X31293Y37035D01*
G01X31263Y36991D01*
G01X31235Y36946D01*
G01X31209Y36900D01*
G01X31185Y36853D01*
G01X31163Y36805D01*
G01X31143Y36756D01*
G01X31125Y36706D01*
G01X31108Y36655D01*
G01X31094Y36604D01*
G01X31083Y36553D01*
G01X31073Y36501D01*
G01X31065Y36448D01*
G01X31060Y36395D01*
G01X31057Y36343D01*
G01X31056Y36290D01*
G01X31057Y36237D01*
G01X31060Y36184D01*
G01X31065Y36131D01*
G01X31073Y36079D01*
G01X31083Y36027D01*
G01X31094Y35975D01*
G01X31108Y35924D01*
G01X31125Y35873D01*
G01X31143Y35824D01*
G01X31163Y35775D01*
G01X31185Y35727D01*
G01X31209Y35679D01*
G01X31235Y35633D01*
G01X31263Y35588D01*
G01X31293Y35544D01*
G01X31324Y35502D01*
G01X31357Y35461D01*
G01X31392Y35421D01*
G01X31429Y35382D01*
G01X31467Y35345D01*
G01X31506Y35310D01*
G01X31547Y35276D01*
G01X31589Y35245D01*
G01X31633Y35214D01*
G01X31678Y35186D01*
G01X31723Y35160D01*
G01X31770Y35135D01*
G01X31818Y35112D01*
G01X31831Y35105D01*
G01X31843Y35097D01*
G01X31853Y35087D01*
G01X31862Y35075D01*
G01X31869Y35062D01*
G01X31874Y35048D01*
G01X31877Y35034D01*
G01X31878Y35020D01*
G01X31877Y35005D01*
G01X31874Y34991D01*
G01X31869Y34977D01*
G01X31862Y34964D01*
G01X31853Y34953D01*
G01X31843Y34942D01*
G01X31831Y34934D01*
G01X31818Y34927D01*
G01X31770Y34904D01*
G01X31723Y34880D01*
G01X31678Y34853D01*
G01X31633Y34825D01*
G01X31589Y34795D01*
G01X31547Y34763D01*
G01X31506Y34729D01*
G01X31467Y34694D01*
G01X31429Y34657D01*
G01X31392Y34619D01*
G01X31357Y34579D01*
G01X31324Y34537D01*
G01X31293Y34495D01*
G01X31263Y34451D01*
G01X31235Y34406D01*
G01X31209Y34360D01*
G01X31185Y34313D01*
G01X31163Y34265D01*
G01X31143Y34216D01*
G01X31125Y34166D01*
G01X31108Y34115D01*
G01X31094Y34064D01*
G01X31083Y34013D01*
G01X31073Y33961D01*
G01X31065Y33908D01*
G01X31060Y33855D01*
G01X31057Y33803D01*
G01X31056Y33750D01*
G01X31057Y33697D01*
G01X31060Y33644D01*
G01X31065Y33591D01*
G01X31073Y33539D01*
G01X31083Y33487D01*
G01X31094Y33435D01*
G01X31108Y33384D01*
G01X31125Y33333D01*
G01X31143Y33284D01*
G01X31163Y33235D01*
G01X31185Y33187D01*
G01X31209Y33139D01*
G01X31235Y33093D01*
G01X31263Y33048D01*
G01X31293Y33004D01*
G01X31324Y32962D01*
G01X31357Y32921D01*
G01X31392Y32881D01*
G01X31429Y32842D01*
G01X31467Y32805D01*
G01X31506Y32770D01*
G01X31547Y32736D01*
G01X31589Y32705D01*
G01X31633Y32674D01*
G01X31678Y32646D01*
G01X31723Y32620D01*
G01X31770Y32595D01*
G01X31818Y32572D01*
G01X31831Y32565D01*
G01X31843Y32557D01*
G01X31853Y32547D01*
G01X31862Y32535D01*
G01X31869Y32522D01*
G01X31874Y32508D01*
G01X31877Y32494D01*
G01X31878Y32480D01*
G01X31877Y32465D01*
G01X31874Y32451D01*
G01X31869Y32437D01*
G01X31862Y32424D01*
G01X31853Y32413D01*
G01X31843Y32402D01*
G01X31831Y32394D01*
G01X31818Y32387D01*
G01X31770Y32364D01*
G01X31723Y32340D01*
G01X31678Y32313D01*
G01X31633Y32285D01*
G01X31589Y32255D01*
G01X31547Y32223D01*
G01X31506Y32189D01*
G01X31467Y32154D01*
G01X31429Y32117D01*
G01X31392Y32079D01*
G01X31357Y32039D01*
G01X31324Y31997D01*
G01X31293Y31955D01*
G01X31263Y31911D01*
G01X31235Y31866D01*
G01X31209Y31820D01*
G01X31185Y31773D01*
G01X31163Y31725D01*
G01X31143Y31676D01*
G01X31125Y31626D01*
G01X31108Y31575D01*
G01X31094Y31524D01*
G01X31083Y31473D01*
G01X31073Y31421D01*
G01X31065Y31368D01*
G01X31060Y31315D01*
G01X31057Y31263D01*
G01X31056Y31210D01*
G01X31057Y31157D01*
G01X31060Y31104D01*
G01X31065Y31051D01*
G01X31073Y30999D01*
G01X31083Y30947D01*
G01X31094Y30895D01*
G01X31108Y30844D01*
G01X31125Y30793D01*
G01X31143Y30744D01*
G01X31163Y30695D01*
G01X31185Y30647D01*
G01X31209Y30599D01*
G01X31235Y30553D01*
G01X31263Y30508D01*
G01X31293Y30464D01*
G01X31324Y30422D01*
G01X31357Y30381D01*
G01X31392Y30341D01*
G01X31429Y30302D01*
G01X31467Y30265D01*
G01X31506Y30230D01*
G01X31547Y30196D01*
G01X31589Y30165D01*
G01X31633Y30134D01*
G01X31678Y30106D01*
G01X31723Y30080D01*
G01X31770Y30055D01*
G01X31818Y30032D01*
G01X31831Y30025D01*
G01X31843Y30017D01*
G01X31853Y30007D01*
G01X31862Y29995D01*
G01X31869Y29982D01*
G01X31874Y29968D01*
G01X31877Y29954D01*
G01X31878Y29940D01*
G01X31877Y29925D01*
G01X31874Y29911D01*
G01X31869Y29897D01*
G01X31862Y29884D01*
G01X31853Y29873D01*
G01X31843Y29862D01*
G01X31831Y29854D01*
G01X31818Y29847D01*
G01X31770Y29824D01*
G01X31723Y29800D01*
G01X31678Y29773D01*
G01X31633Y29745D01*
G01X31589Y29715D01*
G01X31547Y29683D01*
G01X31506Y29649D01*
G01X31467Y29614D01*
G01X31429Y29577D01*
G01X31392Y29539D01*
G01X31357Y29499D01*
G01X31324Y29457D01*
G01X31293Y29415D01*
G01X31263Y29371D01*
G01X31235Y29326D01*
G01X31209Y29280D01*
G01X31185Y29233D01*
G01X31163Y29185D01*
G01X31143Y29136D01*
G01X31125Y29086D01*
G01X31108Y29035D01*
G01X31094Y28984D01*
G01X31083Y28933D01*
G01X31073Y28881D01*
G01X31065Y28828D01*
G01X31060Y28775D01*
G01X31057Y28723D01*
G01X31056Y28670D01*
G01X31057Y28617D01*
G01X31060Y28564D01*
G01X31065Y28511D01*
G01X31073Y28459D01*
G01X31083Y28407D01*
G01X31094Y28355D01*
G01X31108Y28304D01*
G01X31125Y28253D01*
G01X31143Y28204D01*
G01X31163Y28155D01*
G01X31185Y28107D01*
G01X31209Y28059D01*
G01X31235Y28013D01*
G01X31263Y27968D01*
G01X31293Y27924D01*
G01X31324Y27882D01*
G01X31357Y27841D01*
G01X31392Y27801D01*
G01X31429Y27762D01*
G01X31467Y27725D01*
G01X31506Y27690D01*
G01X31547Y27656D01*
G01X31589Y27625D01*
G01X31633Y27594D01*
G01X31678Y27566D01*
G01X31723Y27540D01*
G01X31770Y27515D01*
G01X31818Y27492D01*
G01X31831Y27485D01*
G01X31843Y27477D01*
G01X31853Y27467D01*
G01X31862Y27455D01*
G01X31869Y27442D01*
G01X31874Y27428D01*
G01X31877Y27414D01*
G01X31878Y27400D01*
G01X31877Y27385D01*
G01X31874Y27371D01*
G01X31869Y27357D01*
G01X31862Y27344D01*
G01X31853Y27333D01*
G01X31843Y27322D01*
G01X31831Y27314D01*
G01X31818Y27307D01*
G01X31770Y27284D01*
G01X31723Y27260D01*
G01X31678Y27233D01*
G01X31633Y27205D01*
G01X31589Y27175D01*
G01X31547Y27143D01*
G01X31506Y27109D01*
G01X31467Y27074D01*
G01X31429Y27037D01*
G01X31392Y26999D01*
G01X31357Y26959D01*
G01X31324Y26917D01*
G01X31293Y26875D01*
G01X31263Y26831D01*
G01X31235Y26786D01*
G01X31209Y26740D01*
G01X31185Y26693D01*
G01X31163Y26645D01*
G01X31143Y26596D01*
G01X31125Y26546D01*
G01X31108Y26495D01*
G01X31094Y26444D01*
G01X31083Y26393D01*
G01X31073Y26341D01*
G01X31065Y26288D01*
G01X31060Y26235D01*
G01X31057Y26183D01*
G01X31056Y26130D01*
G01X31057Y26077D01*
G01X31060Y26024D01*
G01X31065Y25971D01*
G01X31073Y25919D01*
G01X31083Y25867D01*
G01X31094Y25815D01*
G01X31108Y25764D01*
G01X31125Y25713D01*
G01X31143Y25664D01*
G01X31163Y25615D01*
G01X31185Y25567D01*
G01X31209Y25519D01*
G01X31235Y25473D01*
G01X31263Y25428D01*
G01X31293Y25384D01*
G01X31324Y25342D01*
G01X31357Y25301D01*
G01X31392Y25261D01*
G01X31429Y25222D01*
G01X31467Y25185D01*
G01X31506Y25150D01*
G01X31547Y25116D01*
G01X31589Y25085D01*
G01X31633Y25054D01*
G01X31678Y25026D01*
G01X31723Y25000D01*
G01X31770Y24975D01*
G01X31818Y24952D01*
G01X31831Y24945D01*
G01X31843Y24937D01*
G01X31853Y24927D01*
G01X31862Y24915D01*
G01X31869Y24902D01*
G01X31874Y24888D01*
G01X31877Y24874D01*
G01X31878Y24860D01*
G01X31877Y24845D01*
G01X31874Y24831D01*
G01X31869Y24817D01*
G01X31862Y24804D01*
G01X31853Y24793D01*
G01X31843Y24782D01*
G01X31831Y24774D01*
G01X31818Y24767D01*
G01X31770Y24744D01*
G01X31723Y24720D01*
G01X31678Y24693D01*
G01X31633Y24665D01*
G01X31589Y24635D01*
G01X31547Y24603D01*
G01X31506Y24569D01*
G01X31467Y24534D01*
G01X31429Y24497D01*
G01X31392Y24459D01*
G01X31357Y24419D01*
G01X31324Y24377D01*
G01X31293Y24335D01*
G01X31263Y24291D01*
G01X31235Y24246D01*
G01X31209Y24200D01*
G01X31185Y24153D01*
G01X31163Y24105D01*
G01X31143Y24056D01*
G01X31125Y24006D01*
G01X31108Y23955D01*
G01X31094Y23904D01*
G01X31083Y23853D01*
G01X31073Y23801D01*
G01X31065Y23748D01*
G01X31060Y23695D01*
G01X31057Y23643D01*
G01X31056Y23590D01*
G01X31057Y23537D01*
G01X31060Y23484D01*
G01X31065Y23431D01*
G01X31073Y23379D01*
G01X31083Y23327D01*
G01X31094Y23275D01*
G01X31108Y23224D01*
G01X31125Y23173D01*
G01X31143Y23124D01*
G01X31163Y23075D01*
G01X31185Y23027D01*
G01X31209Y22979D01*
G01X31235Y22933D01*
G01X31263Y22888D01*
G01X31293Y22844D01*
G01X31324Y22802D01*
G01X31357Y22761D01*
G01X31392Y22721D01*
G01X31429Y22682D01*
G01X31467Y22645D01*
G01X31506Y22610D01*
G01X31547Y22576D01*
G01X31589Y22545D01*
G01X31633Y22514D01*
G01X31678Y22486D01*
G01X31723Y22460D01*
G01X31770Y22435D01*
G01X31818Y22412D01*
G01X31831Y22405D01*
G01X31843Y22397D01*
G01X31853Y22387D01*
G01X31862Y22375D01*
G01X31869Y22362D01*
G01X31874Y22348D01*
G01X31877Y22334D01*
G01X31878Y22320D01*
G01X31877Y22305D01*
G01X31874Y22291D01*
G01X31869Y22277D01*
G01X31862Y22264D01*
G01X31853Y22253D01*
G01X31843Y22242D01*
G01X31831Y22234D01*
G01X31818Y22227D01*
G01X31760Y22199D01*
G01X31746Y22193D01*
G01X31730Y22189D01*
G01X31714Y22188D01*
G01X28500Y22188D01*
G01X28460Y22187D01*
G01X28419Y22184D01*
G01X28379Y22178D01*
G01X28363Y22177D01*
G01X25065Y22177D01*
G01X25051Y22178D01*
G01X25037Y22181D01*
G01X25023Y22186D01*
G01X25010Y22193D01*
G01X24999Y22202D01*
G01X24988Y22212D01*
G01X24980Y22224D01*
G01X24973Y22237D01*
G01X24968Y22250D01*
G01X24965Y22264D01*
G01X24964Y22279D01*
G01X24964Y28978D01*
G01X24965Y28994D01*
G01X24969Y29010D01*
G01X24975Y29025D01*
G01X24984Y29039D01*
G01X24995Y29051D01*
G01X25007Y29061D01*
G01X25022Y29069D01*
G01X25050Y29084D01*
G01X25078Y29101D01*
G01X25105Y29120D01*
G01X25131Y29140D01*
G01X25155Y29162D01*
G01X25178Y29185D01*
G01X25199Y29210D01*
G01X25218Y29236D01*
G01X25236Y29264D01*
G01X25245Y29276D01*
G01X25255Y29287D01*
G01X25267Y29296D01*
G01X25280Y29303D01*
G01X25294Y29309D01*
G01X25308Y29312D01*
G01X25323Y29313D01*
G01X27088Y29313D01*
G01X27103Y29312D01*
G01X27118Y29308D01*
G01X27132Y29303D01*
G01X27145Y29296D01*
G01X27167Y29276D01*
G01X27175Y29263D01*
G01X27193Y29236D01*
G01X27212Y29210D01*
G01X27233Y29185D01*
G01X27255Y29162D01*
G01X27279Y29140D01*
G01X27305Y29119D01*
G01X27331Y29101D01*
G01X27359Y29084D01*
G01X27388Y29068D01*
G01X27417Y29055D01*
G01X27448Y29044D01*
G01X27479Y29035D01*
G01X27510Y29027D01*
G01X27542Y29022D01*
G01X27575Y29019D01*
G01X27607Y29018D01*
G01X28806Y29018D01*
G01X28839Y29019D01*
G01X28872Y29022D01*
G01X28904Y29028D01*
G01X28936Y29035D01*
G01X28968Y29045D01*
G01X28998Y29056D01*
G01X29028Y29070D01*
G01X29057Y29085D01*
G01X29085Y29103D01*
G01X29112Y29122D01*
G01X29137Y29143D01*
G01X29161Y29165D01*
G01X29184Y29189D01*
G01X29205Y29215D01*
G01X29224Y29241D01*
G01X29241Y29269D01*
G01X29257Y29298D01*
G01X29270Y29328D01*
G01X29282Y29359D01*
G01X29291Y29390D01*
G01X29299Y29422D01*
G01X29304Y29455D01*
G01X29307Y29488D01*
G01X29309Y29521D01*
G01X29309Y30620D01*
G01X29307Y30653D01*
G01X29304Y30685D01*
G01X29299Y30718D01*
G01X29292Y30749D01*
G01X29282Y30781D01*
G01X29271Y30811D01*
G01X29258Y30841D01*
G01X29242Y30870D01*
G01X29235Y30886D01*
G01X29230Y30903D01*
G01X29229Y30920D01*
G01X29230Y30938D01*
G01X29235Y30955D01*
G01X29242Y30970D01*
G01X29258Y30999D01*
G01X29271Y31029D01*
G01X29282Y31060D01*
G01X29292Y31091D01*
G01X29299Y31123D01*
G01X29304Y31155D01*
G01X29307Y31187D01*
G01X29309Y31220D01*
G01X29309Y32320D01*
G01X29307Y32358D01*
G01X29303Y32395D01*
G01X29296Y32433D01*
G01X29293Y32456D01*
G01X29293Y45547D01*
G01X29294Y45562D01*
G01X29298Y45578D01*
G01X29304Y45592D01*
G01X29320Y45629D01*
G01X29327Y45643D01*
G01X29335Y45655D01*
G01X29346Y45666D01*
G01X29357Y45676D01*
G01X29370Y45683D01*
G01X29385Y45689D01*
G01X29399Y45692D01*
G01X29414Y45693D01*
G01X30958Y45693D01*
G01X30973Y45692D01*
G01X30987Y45689D01*
G01X31001Y45684D01*
G01X31014Y45676D01*
G01X31026Y45667D01*
G01X31036Y45657D01*
G01X31045Y45645D01*
G01X31051Y45632D01*
G01X31056Y45618D01*
G01X31059Y45603D01*
G01X31064Y45571D01*
G01X31071Y45538D01*
G01X31080Y45506D01*
G01X31092Y45475D01*
G01X31105Y45445D01*
G01X31120Y45415D01*
G01X31138Y45387D01*
G01X31157Y45360D01*
G01X31178Y45334D01*
G01X31200Y45310D01*
G01X31224Y45287D01*
G01X31250Y45265D01*
G01X31277Y45246D01*
G01X31305Y45228D01*
G01X31334Y45212D01*
G01X31364Y45199D01*
G01X31395Y45187D01*
G01X31427Y45177D01*
G01X31459Y45170D01*
G01X31492Y45164D01*
G01X31525Y45161D01*
G01X31558Y45160D01*
G01X31560Y45160D01*
G01X31574Y45159D01*
G01X31588Y45156D01*
G01X31602Y45151D01*
G01X31615Y45144D01*
G01X31626Y45135D01*
G01X31637Y45125D01*
G01X31645Y45113D01*
G01X31652Y45100D01*
G01X31657Y45087D01*
G01X31660Y45073D01*
G01X31661Y45058D01*
G01X31660Y45042D01*
G01X31656Y45026D01*
G01X31650Y45011D01*
G01X31641Y44997D01*
G01X31630Y44985D01*
G01X31617Y44974D01*
G01X31575Y44944D01*
G01X31533Y44912D01*
G01X31493Y44878D01*
G01X31455Y44843D01*
G01X31418Y44806D01*
G01X31382Y44767D01*
G01X31348Y44728D01*
G01X31316Y44686D01*
G01X31285Y44644D01*
G01X31256Y44600D01*
G01X31229Y44556D01*
G01X31204Y44510D01*
G01X31180Y44463D01*
G01X31159Y44415D01*
G01X31139Y44367D01*
G01X31888Y44367D01*
G01X31888Y45058D01*
G01X31889Y45073D01*
G01X31892Y45087D01*
G01X31897Y45100D01*
G01X31904Y45113D01*
G01X31913Y45125D01*
G01X31923Y45135D01*
G01X31935Y45144D01*
G01X31948Y45151D01*
G01X31961Y45156D01*
G01X31975Y45159D01*
G01X31990Y45160D01*
G01X32701Y45160D01*
G01X32716Y45159D01*
G01X32730Y45156D01*
G01X32743Y45151D01*
G01X32756Y45144D01*
G01X32768Y45135D01*
G01X32778Y45125D01*
G01X32787Y45113D01*
G01X32794Y45100D01*
G01X32799Y45087D01*
G01X32802Y45073D01*
G01X32803Y45058D01*
G01X32803Y44367D01*
G01X33552Y44367D01*
G01X33532Y44415D01*
G01X33511Y44463D01*
G01X33487Y44510D01*
G01X33462Y44556D01*
G01X33435Y44600D01*
G01X33406Y44644D01*
G01X33375Y44686D01*
G01X33343Y44728D01*
G01X33309Y44767D01*
G01X33273Y44806D01*
G01X33236Y44843D01*
G01X33198Y44878D01*
G01X33158Y44912D01*
G01X33116Y44944D01*
G01X33074Y44974D01*
G01X33061Y44985D01*
G01X33050Y44997D01*
G01X33041Y45011D01*
G01X33035Y45026D01*
G01X33031Y45042D01*
G01X33030Y45058D01*
G01X33031Y45073D01*
G01X33034Y45087D01*
G01X33039Y45100D01*
G01X33046Y45113D01*
G01X33054Y45125D01*
G01X33065Y45135D01*
G01X33076Y45144D01*
G01X33089Y45151D01*
G01X33103Y45156D01*
G01X33117Y45159D01*
G01X33131Y45160D01*
G01X33133Y45160D01*
G01X33166Y45161D01*
G01X33199Y45164D01*
G01X33232Y45170D01*
G01X33264Y45177D01*
G01X33296Y45187D01*
G01X33327Y45199D01*
G01X33357Y45212D01*
G01X33386Y45228D01*
G01X33414Y45246D01*
G01X33441Y45265D01*
G01X33467Y45287D01*
G01X33491Y45310D01*
G01X33513Y45334D01*
G01X33534Y45360D01*
G01X33553Y45387D01*
G01X33571Y45415D01*
G01X33586Y45445D01*
G01X33599Y45475D01*
G01X33611Y45506D01*
G01X33620Y45538D01*
G01X33627Y45571D01*
G01X33632Y45603D01*
G01X33635Y45618D01*
G01X33640Y45632D01*
G01X33646Y45645D01*
G01X33655Y45657D01*
G01X33665Y45667D01*
G01X33677Y45676D01*
G01X33690Y45684D01*
G01X33704Y45689D01*
G01X33718Y45692D01*
G01X33733Y45693D01*
G01X34260Y45693D01*
G01X34275Y45692D01*
G01X34289Y45689D01*
G01X34303Y45684D01*
G01X34316Y45676D01*
G01X34328Y45667D01*
G01X34338Y45657D01*
G01X34347Y45645D01*
G01X34353Y45632D01*
G01X34358Y45618D01*
G01X34361Y45603D01*
G01X34366Y45571D01*
G01X34373Y45538D01*
G01X34382Y45506D01*
G01X34394Y45475D01*
G01X34407Y45445D01*
G01X34422Y45415D01*
G01X34440Y45387D01*
G01X34459Y45360D01*
G01X34480Y45334D01*
G01X34502Y45310D01*
G01X34526Y45287D01*
G01X34552Y45265D01*
G01X34579Y45246D01*
G01X34607Y45228D01*
G01X34636Y45212D01*
G01X34666Y45199D01*
G01X34697Y45187D01*
G01X34729Y45177D01*
G01X34761Y45170D01*
G01X34794Y45164D01*
G01X34827Y45161D01*
G01X34860Y45160D01*
G01X34862Y45160D01*
G01X34876Y45159D01*
G01X34890Y45156D01*
G01X34904Y45151D01*
G01X34917Y45144D01*
G01X34928Y45135D01*
G01X34939Y45125D01*
G01X34947Y45113D01*
G01X34954Y45100D01*
G01X34959Y45087D01*
G01X34962Y45073D01*
G01X34963Y45058D01*
G01X34962Y45042D01*
G01X34958Y45026D01*
G01X34952Y45011D01*
G01X34943Y44997D01*
G01X34932Y44985D01*
G01X34919Y44974D01*
G01X34877Y44944D01*
G01X34835Y44912D01*
G01X34795Y44878D01*
G01X34757Y44843D01*
G01X34720Y44806D01*
G01X34684Y44767D01*
G01X34650Y44728D01*
G01X34618Y44686D01*
G01X34587Y44644D01*
G01X34558Y44600D01*
G01X34531Y44556D01*
G01X34506Y44510D01*
G01X34482Y44463D01*
G01X34461Y44415D01*
G01X34441Y44367D01*
G01X35190Y44367D01*
G01X35190Y45058D01*
G01X35191Y45073D01*
G01X35194Y45087D01*
G01X35199Y45100D01*
G01X35206Y45113D01*
G01X35215Y45125D01*
G01X35225Y45135D01*
G01X35237Y45144D01*
G01X35250Y45151D01*
G01X35263Y45156D01*
G01X35277Y45159D01*
G01X35292Y45160D01*
G01X36003Y45160D01*
G01X36018Y45159D01*
G01X36032Y45156D01*
G01X36045Y45151D01*
G01X36058Y45144D01*
G01X36070Y45135D01*
G01X36080Y45125D01*
G01X36089Y45113D01*
G01X36096Y45100D01*
G01X36101Y45087D01*
G01X36104Y45073D01*
G01X36105Y45058D01*
G01X36105Y44367D01*
G01X36854Y44367D01*
G01X36834Y44415D01*
G01X36813Y44463D01*
G01X36789Y44510D01*
G01X36764Y44556D01*
G01X36737Y44600D01*
G01X36708Y44644D01*
G01X36677Y44686D01*
G01X36645Y44728D01*
G01X36611Y44767D01*
G01X36575Y44806D01*
G01X36538Y44843D01*
G01X36500Y44878D01*
G01X36460Y44912D01*
G01X36418Y44944D01*
G01X36376Y44974D01*
G01X36363Y44985D01*
G01X36352Y44997D01*
G01X36343Y45011D01*
G01X36337Y45026D01*
G01X36333Y45042D01*
G01X36332Y45058D01*
G01X36333Y45073D01*
G01X36336Y45087D01*
G01X36341Y45100D01*
G01X36348Y45113D01*
G01X36356Y45125D01*
G01X36367Y45135D01*
G01X36378Y45144D01*
G01X36391Y45151D01*
G01X36405Y45156D01*
G01X36419Y45159D01*
G01X36433Y45160D01*
G01X36435Y45160D01*
G01X36467Y45161D01*
G01X36500Y45164D01*
G01X36532Y45169D01*
G01X36563Y45176D01*
G01X36594Y45186D01*
G01X36625Y45197D01*
G01X36654Y45210D01*
G01X36683Y45225D01*
G01X36711Y45242D01*
G01X36737Y45261D01*
G01X36763Y45281D01*
G01X36787Y45303D01*
G01X36809Y45327D01*
G01X36830Y45352D01*
G01X36849Y45378D01*
G01X36867Y45405D01*
G01X36882Y45433D01*
G01X36896Y45463D01*
G01X36908Y45493D01*
G01X36918Y45524D01*
G01X36926Y45555D01*
G01X36932Y45587D01*
G01X36936Y45620D01*
G01X36937Y45652D01*
G01X36939Y45668D01*
G01X36943Y45683D01*
G01X36949Y45697D01*
G01X36957Y45711D01*
G01X36968Y45722D01*
G01X36980Y45733D01*
G01X36993Y45741D01*
G01X37008Y45747D01*
G01X37023Y45750D01*
G01X37039Y45752D01*
G01X41004Y45752D01*
G01X41018Y45750D01*
G01X41032Y45747D01*
G01X41046Y45742D01*
G01X41059Y45735D01*
G01X41070Y45727D01*
G01X41080Y45716D01*
G01X41115Y45678D01*
G01X41152Y45640D01*
G01X41190Y45605D01*
G01X41230Y45571D01*
G01X41271Y45539D01*
G01X41313Y45508D01*
G01X41356Y45480D01*
G01X41401Y45453D01*
G01X41447Y45428D01*
G01X41494Y45406D01*
G01X41542Y45385D01*
G01X41591Y45366D01*
G01X41640Y45350D01*
G01X41690Y45335D01*
G01X41741Y45323D01*
G01X41792Y45313D01*
G01X41844Y45305D01*
G01X41895Y45300D01*
G01X41947Y45296D01*
G01X42000Y45295D01*
G01X42050Y45296D01*
G01X42100Y45299D01*
G01X42150Y45305D01*
G01X42199Y45312D01*
G01X42249Y45321D01*
G01X42297Y45332D01*
G01X42346Y45346D01*
G01X42394Y45361D01*
G01X42441Y45378D01*
G01X42487Y45398D01*
G01X42533Y45419D01*
G01X42577Y45442D01*
G01X42621Y45466D01*
G01X42663Y45493D01*
G01X42705Y45521D01*
G01X42745Y45551D01*
G01X42784Y45583D01*
G01X42822Y45616D01*
G01X42858Y45651D01*
G01X42892Y45687D01*
G01X42926Y45725D01*
G01X42957Y45764D01*
G01X42987Y45804D01*
G01X43016Y45845D01*
G01X43042Y45888D01*
G01X43067Y45931D01*
G01X43090Y45976D01*
G01X43111Y46022D01*
G01X43130Y46068D01*
G01X43147Y46115D01*
G01X43163Y46163D01*
G01X43176Y46211D01*
G01X43187Y46260D01*
G01X43197Y46309D01*
G01X43204Y46359D01*
G01X43209Y46409D01*
G01X43212Y46459D01*
G01X43213Y46509D01*
G01X43212Y46561D01*
G01X43209Y46612D01*
G01X43203Y46664D01*
G01X43196Y46715D01*
G01X43186Y46766D01*
G01X43174Y46816D01*
G01X43160Y46866D01*
G01X43143Y46915D01*
G01X43125Y46963D01*
G01X43105Y47011D01*
G01X43082Y47058D01*
G01X43058Y47103D01*
G01X43032Y47148D01*
G01X43003Y47191D01*
G01X42973Y47233D01*
G01X42942Y47274D01*
G01X42908Y47314D01*
G01X42873Y47352D01*
G01X42836Y47388D01*
G01X42798Y47423D01*
G01X42788Y47433D01*
G01X42779Y47445D01*
G01X42772Y47458D01*
G01X42767Y47471D01*
G01X42764Y47485D01*
G01X42763Y47500D01*
G01X42764Y47514D01*
G01X42767Y47528D01*
G01X42772Y47542D01*
G01X42779Y47554D01*
G01X42788Y47566D01*
G01X42798Y47576D01*
G01X42835Y47610D01*
G01X42871Y47646D01*
G01X42906Y47683D01*
G01X42939Y47721D01*
G01X42970Y47761D01*
G01X42999Y47802D01*
G01X43027Y47845D01*
G01X43053Y47888D01*
G01X43077Y47932D01*
G01X43100Y47978D01*
G01X43120Y48024D01*
G01X43139Y48071D01*
G01X42419Y48071D01*
G01X42419Y47786D01*
G01X42418Y47771D01*
G01X42415Y47757D01*
G01X42409Y47743D01*
G01X42402Y47731D01*
G01X42394Y47719D01*
G01X42384Y47709D01*
G01X42372Y47700D01*
G01X42359Y47693D01*
G01X42346Y47688D01*
G01X42331Y47685D01*
G01X42317Y47684D01*
G01X42292Y47687D01*
G01X42235Y47700D01*
G01X42176Y47710D01*
G01X42118Y47717D01*
G01X42059Y47721D01*
G01X42000Y47723D01*
G01X41940Y47721D01*
G01X41881Y47717D01*
G01X41823Y47710D01*
G01X41764Y47700D01*
G01X41707Y47687D01*
G01X41682Y47684D01*
G01X41668Y47685D01*
G01X41653Y47688D01*
G01X41640Y47693D01*
G01X41627Y47700D01*
G01X41615Y47709D01*
G01X41605Y47719D01*
G01X41597Y47731D01*
G01X41590Y47743D01*
G01X41585Y47757D01*
G01X41581Y47771D01*
G01X41580Y47786D01*
G01X41580Y48071D01*
G01X40860Y48071D01*
G01X40879Y48024D01*
G01X40899Y47978D01*
G01X40922Y47932D01*
G01X40946Y47888D01*
G01X40972Y47845D01*
G01X41000Y47802D01*
G01X41029Y47761D01*
G01X41060Y47721D01*
G01X41093Y47683D01*
G01X41128Y47646D01*
G01X41164Y47610D01*
G01X41201Y47576D01*
G01X41211Y47566D01*
G01X41220Y47554D01*
G01X41227Y47542D01*
G01X41232Y47528D01*
G01X41235Y47514D01*
G01X41236Y47500D01*
G01X41235Y47485D01*
G01X41232Y47471D01*
G01X41227Y47458D01*
G01X41220Y47445D01*
G01X41211Y47433D01*
G01X41201Y47423D01*
G01X41159Y47385D01*
G01X41119Y47344D01*
G01X41080Y47302D01*
G01X41070Y47292D01*
G01X41059Y47283D01*
G01X41046Y47276D01*
G01X41032Y47271D01*
G01X41018Y47268D01*
G01X41004Y47267D01*
G01X37025Y47267D01*
G01X37009Y47268D01*
G01X36995Y47271D01*
G01X36980Y47277D01*
G01X36967Y47284D01*
G01X36955Y47294D01*
G01X36945Y47305D01*
G01X36936Y47318D01*
G01X36930Y47332D01*
G01X36925Y47346D01*
G01X36917Y47377D01*
G01X36907Y47408D01*
G01X36895Y47438D01*
G01X36881Y47467D01*
G01X36866Y47496D01*
G01X36848Y47523D01*
G01X36829Y47549D01*
G01X36808Y47574D01*
G01X36786Y47597D01*
G01X36762Y47619D01*
G01X36737Y47639D01*
G01X36710Y47658D01*
G01X36682Y47674D01*
G01X36654Y47689D01*
G01X36624Y47703D01*
G01X36594Y47714D01*
G01X36563Y47723D01*
G01X36531Y47730D01*
G01X36499Y47735D01*
G01X36467Y47739D01*
G01X36435Y47740D01*
G01X34860Y47740D01*
G01X34827Y47738D01*
G01X34794Y47735D01*
G01X34761Y47730D01*
G01X34729Y47722D01*
G01X34697Y47712D01*
G01X34666Y47701D01*
G01X34636Y47687D01*
G01X34607Y47671D01*
G01X34579Y47653D01*
G01X34552Y47634D01*
G01X34526Y47613D01*
G01X34502Y47590D01*
G01X34480Y47565D01*
G01X34459Y47540D01*
G01X34440Y47512D01*
G01X34422Y47484D01*
G01X34407Y47455D01*
G01X34394Y47424D01*
G01X34382Y47393D01*
G01X34373Y47361D01*
G01X34366Y47329D01*
G01X34361Y47296D01*
G01X34358Y47281D01*
G01X34353Y47267D01*
G01X34347Y47254D01*
G01X34338Y47242D01*
G01X34328Y47232D01*
G01X34316Y47223D01*
G01X34303Y47216D01*
G01X34289Y47210D01*
G01X34275Y47207D01*
G01X34260Y47206D01*
G01X33733Y47206D01*
G01X33718Y47207D01*
G01X33704Y47210D01*
G01X33690Y47216D01*
G01X33677Y47223D01*
G01X33665Y47232D01*
G01X33655Y47242D01*
G01X33646Y47254D01*
G01X33640Y47267D01*
G01X33635Y47281D01*
G01X33632Y47296D01*
G01X33627Y47329D01*
G01X33620Y47361D01*
G01X33611Y47393D01*
G01X33599Y47424D01*
G01X33586Y47455D01*
G01X33571Y47484D01*
G01X33553Y47512D01*
G01X33534Y47540D01*
G01X33513Y47565D01*
G01X33491Y47590D01*
G01X33467Y47613D01*
G01X33441Y47634D01*
G01X33414Y47653D01*
G01X33386Y47671D01*
G01X33357Y47687D01*
G01X33327Y47701D01*
G01X33296Y47712D01*
G01X33264Y47722D01*
G01X33232Y47730D01*
G01X33199Y47735D01*
G01X33166Y47738D01*
G01X33133Y47740D01*
G01X31558Y47740D01*
G01X31525Y47738D01*
G01X31492Y47735D01*
G01X31459Y47730D01*
G01X31427Y47722D01*
G01X31395Y47712D01*
G01X31364Y47701D01*
G01X31334Y47687D01*
G01X31305Y47671D01*
G01X31277Y47653D01*
G01X31250Y47634D01*
G01X31224Y47613D01*
G01X31200Y47590D01*
G01X31178Y47565D01*
G01X31157Y47540D01*
G01X31138Y47512D01*
G01X31120Y47484D01*
G01X31105Y47455D01*
G01X31092Y47424D01*
G01X31080Y47393D01*
G01X31071Y47361D01*
G01X31064Y47329D01*
G01X31059Y47296D01*
G01X31056Y47281D01*
G01X31051Y47267D01*
G01X31045Y47254D01*
G01X31036Y47242D01*
G01X31026Y47232D01*
G01X31014Y47223D01*
G01X31001Y47216D01*
G01X30987Y47210D01*
G01X30973Y47207D01*
G01X30958Y47206D01*
G01X29414Y47206D01*
G01X29399Y47207D01*
G01X29385Y47211D01*
G01X29370Y47216D01*
G01X29357Y47224D01*
G01X29346Y47233D01*
G01X29335Y47244D01*
G01X29327Y47257D01*
G01X29320Y47270D01*
G01X29307Y47301D01*
G01X29291Y47330D01*
G01X29274Y47359D01*
G01X29255Y47386D01*
G01X29234Y47412D01*
G01X29212Y47437D01*
G01X29188Y47460D01*
G01X29162Y47481D01*
G01X29135Y47500D01*
G01X29107Y47518D01*
G01X29078Y47534D01*
G01X29048Y47548D01*
G01X29016Y47560D01*
G01X28985Y47570D01*
G01X28952Y47577D01*
G01X28919Y47583D01*
G01X28886Y47586D01*
G01X28853Y47587D01*
G01X28218Y47587D01*
G01X28186Y47586D01*
G01X28154Y47583D01*
G01X28122Y47578D01*
G01X28090Y47571D01*
G01X28060Y47562D01*
G01X28044Y47558D01*
G01X28027Y47556D01*
G01X28011Y47558D01*
G01X27995Y47562D01*
G01X27965Y47571D01*
G01X27933Y47578D01*
G01X27901Y47583D01*
G01X27869Y47586D01*
G01X27837Y47587D01*
G01X27202Y47587D01*
G01X27169Y47586D01*
G01X27136Y47583D01*
G01X27103Y47577D01*
G01X27071Y47570D01*
G01X27039Y47560D01*
G01X27008Y47548D01*
G01X26978Y47534D01*
G01X26948Y47518D01*
G01X26920Y47501D01*
G01X26893Y47481D01*
G01X26868Y47460D01*
G01X26844Y47437D01*
G01X26821Y47413D01*
G01X26800Y47387D01*
G01X26781Y47359D01*
G01X26764Y47331D01*
G01X26749Y47302D01*
G01X26735Y47271D01*
G01X26729Y47257D01*
G01X26720Y47245D01*
G01X26710Y47234D01*
G01X26698Y47225D01*
G01X26685Y47217D01*
G01X26671Y47212D01*
G01X26656Y47208D01*
G01X26641Y47207D01*
G01X24105Y47207D01*
G01X24089Y47208D01*
G01X24074Y47212D01*
G01X24059Y47218D01*
G01X24045Y47227D01*
G01X24033Y47237D01*
G01X22986Y48284D01*
G01X22976Y48296D01*
G01X22968Y48309D01*
G01X22962Y48324D01*
G01X22958Y48340D01*
G01X22957Y48355D01*
G01X22957Y49832D01*
G01X22958Y49848D01*
G01X22962Y49864D01*
G01X22968Y49879D01*
G01X22977Y49892D01*
G01X22987Y49904D01*
G01X22999Y49915D01*
G01X23042Y49946D01*
G01X23082Y49979D01*
G01X23122Y50014D01*
G01X23160Y50050D01*
G01X23197Y50087D01*
G01X23232Y50126D01*
G01X23266Y50167D01*
G01X23298Y50208D01*
G01X23328Y50251D01*
G01X23357Y50295D01*
G01X23383Y50340D01*
G01X23408Y50386D01*
G01X23417Y50400D01*
G01X23427Y50412D01*
G01X23439Y50422D01*
G01X23453Y50430D01*
G01X23467Y50436D01*
G01X23483Y50440D01*
G01X23499Y50441D01*
G01X23514Y50440D01*
G01X23530Y50436D01*
G01X23545Y50430D01*
G01X23558Y50422D01*
G01X23570Y50412D01*
G01X23581Y50400D01*
G01X23589Y50386D01*
G01X23615Y50339D01*
G01X23642Y50293D01*
G01X23672Y50248D01*
G01X23703Y50204D01*
G01X23736Y50162D01*
G01X23770Y50120D01*
G01X23807Y50081D01*
G01X23845Y50042D01*
G01X23884Y50006D01*
G01X23925Y49971D01*
G01X23967Y49937D01*
G01X24010Y49906D01*
G01X24055Y49876D01*
G01X24101Y49848D01*
G01X24148Y49822D01*
G01X24196Y49798D01*
G01X24245Y49776D01*
G01X24295Y49755D01*
G01X24346Y49737D01*
G01X24397Y49721D01*
G01X24449Y49707D01*
G01X24502Y49695D01*
G01X24554Y49686D01*
G01X24608Y49678D01*
G01X24661Y49673D01*
G01X24715Y49669D01*
G01X24769Y49668D01*
G01X24822Y49669D01*
G01X24876Y49673D01*
G01X24930Y49678D01*
G01X24983Y49686D01*
G01X25036Y49695D01*
G01X25088Y49707D01*
G01X25140Y49721D01*
G01X25192Y49737D01*
G01X25242Y49755D01*
G01X25292Y49776D01*
G01X25341Y49798D01*
G01X25389Y49822D01*
G01X25436Y49848D01*
G01X25482Y49876D01*
G01X25527Y49906D01*
G01X25570Y49937D01*
G01X25613Y49971D01*
G01X25653Y50006D01*
G01X25693Y50042D01*
G01X25731Y50081D01*
G01X25767Y50120D01*
G01X25802Y50162D01*
G01X25835Y50204D01*
G01X25866Y50248D01*
G01X25895Y50293D01*
G01X25923Y50339D01*
G01X25948Y50386D01*
G01X25957Y50400D01*
G01X25967Y50412D01*
G01X25979Y50422D01*
G01X25993Y50430D01*
G01X26007Y50436D01*
G01X26023Y50440D01*
G01X26039Y50441D01*
G01X26054Y50440D01*
G01X26070Y50436D01*
G01X26085Y50430D01*
G01X26098Y50422D01*
G01X26110Y50412D01*
G01X26121Y50400D01*
G01X26129Y50386D01*
G01X26155Y50339D01*
G01X26182Y50293D01*
G01X26212Y50248D01*
G01X26243Y50204D01*
G01X26276Y50162D01*
G01X26310Y50120D01*
G01X26347Y50081D01*
G01X26385Y50042D01*
G01X26424Y50006D01*
G01X26465Y49971D01*
G01X26507Y49937D01*
G01X26550Y49906D01*
G01X26595Y49876D01*
G01X26641Y49848D01*
G01X26688Y49822D01*
G01X26736Y49798D01*
G01X26785Y49776D01*
G01X26835Y49755D01*
G01X26886Y49737D01*
G01X26937Y49721D01*
G01X26989Y49707D01*
G01X27042Y49695D01*
G01X27094Y49686D01*
G01X27148Y49678D01*
G01X27201Y49673D01*
G01X27255Y49669D01*
G01X27309Y49668D01*
G01X27363Y49669D01*
G01X27416Y49673D01*
G01X27470Y49678D01*
G01X27524Y49686D01*
G01X27577Y49695D01*
G01X27629Y49707D01*
G01X27681Y49722D01*
G01X27733Y49738D01*
G01X27784Y49756D01*
G01X27834Y49776D01*
G01X27883Y49799D01*
G01X27931Y49823D01*
G01X27978Y49849D01*
G01X28024Y49877D01*
G01X28069Y49907D01*
G01X28112Y49939D01*
G01X28155Y49973D01*
G01X28196Y50008D01*
G01X28235Y50045D01*
G01X28273Y50083D01*
G01X28309Y50123D01*
G01X28344Y50164D01*
G01X28354Y50175D01*
G01X28366Y50185D01*
G01X28379Y50192D01*
G01X28393Y50198D01*
G01X28408Y50201D01*
G01X28423Y50202D01*
G01X28438Y50201D01*
G01X28452Y50198D01*
G01X28466Y50193D01*
G01X28479Y50186D01*
G01X28491Y50177D01*
G01X28501Y50166D01*
G01X28510Y50154D01*
G01X28516Y50141D01*
G01X28521Y50127D01*
G01X28524Y50112D01*
G01X28529Y50080D01*
G01X28536Y50047D01*
G01X28545Y50015D01*
G01X28557Y49984D01*
G01X28570Y49954D01*
G01X28585Y49924D01*
G01X28603Y49896D01*
G01X28622Y49869D01*
G01X28642Y49843D01*
G01X28665Y49818D01*
G01X28689Y49795D01*
G01X28715Y49774D01*
G01X28741Y49755D01*
G01X28770Y49737D01*
G01X28799Y49721D01*
G01X28829Y49707D01*
G01X28860Y49695D01*
G01X28892Y49686D01*
G01X28924Y49678D01*
G01X28957Y49673D01*
G01X28990Y49669D01*
G01X29023Y49668D01*
G01X30674Y49668D01*
G01X30707Y49669D01*
G01X30740Y49672D01*
G01X30772Y49678D01*
G01X30804Y49685D01*
G01X30836Y49695D01*
G01X30866Y49706D01*
G01X30896Y49720D01*
G01X30925Y49736D01*
G01X30953Y49753D01*
G01X30980Y49772D01*
G01X31006Y49793D01*
G01X31030Y49815D01*
G01X31052Y49839D01*
G01X31073Y49865D01*
G01X31092Y49892D01*
G01X31109Y49919D01*
G01X31125Y49948D01*
G01X31138Y49978D01*
G01X31150Y50009D01*
G01X31160Y50041D01*
G01X31167Y50073D01*
G01X31172Y50105D01*
G01X31176Y50138D01*
G01X31177Y50171D01*
G01X31177Y51822D01*
G01X31176Y51855D01*
G01X31172Y51887D01*
G01X31167Y51920D01*
G01X31160Y51952D01*
G01X31150Y51983D01*
G01X31138Y52014D01*
G01X31125Y52044D01*
G01X31109Y52073D01*
G01X31092Y52101D01*
G01X31073Y52128D01*
G01X31052Y52153D01*
G01X31030Y52177D01*
G01X31006Y52200D01*
G01X30980Y52220D01*
G01X30953Y52240D01*
G01X30925Y52257D01*
G01X30896Y52272D01*
G01X30866Y52286D01*
G01X30836Y52298D01*
G01X30804Y52307D01*
G01X30772Y52315D01*
G01X30740Y52320D01*
G01X30707Y52323D01*
G01X30674Y52324D01*
G01X29023Y52324D01*
G01X28990Y52323D01*
G01X28957Y52320D01*
G01X28924Y52314D01*
G01X28892Y52307D01*
G01X28860Y52297D01*
G01X28829Y52285D01*
G01X28799Y52271D01*
G01X28770Y52256D01*
G01X28741Y52238D01*
G01X28715Y52218D01*
G01X28689Y52197D01*
G01X28665Y52174D01*
G01X28642Y52150D01*
G01X28622Y52124D01*
G01X28603Y52097D01*
G01X28585Y52068D01*
G01X28570Y52039D01*
G01X28557Y52008D01*
G01X28545Y51977D01*
G01X28536Y51945D01*
G01X28529Y51913D01*
G01X28524Y51880D01*
G01X28521Y51865D01*
G01X28516Y51851D01*
G01X28510Y51838D01*
G01X28501Y51826D01*
G01X28491Y51816D01*
G01X28479Y51807D01*
G01X28466Y51800D01*
G01X28452Y51794D01*
G01X28438Y51791D01*
G01X28423Y51790D01*
G01X28408Y51791D01*
G01X28393Y51795D01*
G01X28379Y51800D01*
G01X28366Y51808D01*
G01X28354Y51817D01*
G01X28344Y51828D01*
G01X28309Y51869D01*
G01X28273Y51909D01*
G01X28235Y51948D01*
G01X28196Y51985D01*
G01X28155Y52020D01*
G01X28112Y52053D01*
G01X28069Y52085D01*
G01X28024Y52115D01*
G01X27978Y52143D01*
G01X27931Y52170D01*
G01X27883Y52194D01*
G01X27834Y52216D01*
G01X27784Y52236D01*
G01X27733Y52255D01*
G01X27681Y52271D01*
G01X27629Y52285D01*
G01X27577Y52297D01*
G01X27524Y52307D01*
G01X27470Y52314D01*
G01X27416Y52320D01*
G01X27363Y52323D01*
G01X27309Y52324D01*
G01X27255Y52323D01*
G01X27201Y52320D01*
G01X27148Y52314D01*
G01X27094Y52307D01*
G01X27042Y52297D01*
G01X26989Y52285D01*
G01X26937Y52271D01*
G01X26886Y52255D01*
G01X26835Y52237D01*
G01X26785Y52217D01*
G01X26736Y52195D01*
G01X26688Y52170D01*
G01X26641Y52144D01*
G01X26595Y52116D01*
G01X26550Y52087D01*
G01X26507Y52055D01*
G01X26465Y52022D01*
G01X26424Y51987D01*
G01X26385Y51950D01*
G01X26347Y51912D01*
G01X26310Y51872D01*
G01X26276Y51831D01*
G01X26243Y51788D01*
G01X26212Y51745D01*
G01X26182Y51700D01*
G01X26155Y51653D01*
G01X26129Y51606D01*
G01X26121Y51593D01*
G01X26110Y51581D01*
G01X26098Y51570D01*
G01X26085Y51562D01*
G01X26070Y51556D01*
G01X26054Y51552D01*
G01X26039Y51551D01*
G01X26023Y51552D01*
G01X26007Y51556D01*
G01X25993Y51562D01*
G01X25979Y51570D01*
G01X25967Y51581D01*
G01X25957Y51593D01*
G01X25948Y51606D01*
G01X25923Y51653D01*
G01X25895Y51700D01*
G01X25866Y51745D01*
G01X25835Y51788D01*
G01X25802Y51831D01*
G01X25767Y51872D01*
G01X25731Y51912D01*
G01X25693Y51950D01*
G01X25653Y51987D01*
G01X25613Y52022D01*
G01X25570Y52055D01*
G01X25527Y52087D01*
G01X25482Y52116D01*
G01X25436Y52144D01*
G01X25389Y52170D01*
G01X25341Y52195D01*
G01X25292Y52217D01*
G01X25242Y52237D01*
G01X25192Y52255D01*
G01X25140Y52271D01*
G01X25088Y52285D01*
G01X25036Y52297D01*
G01X24983Y52307D01*
G01X24930Y52314D01*
G01X24876Y52320D01*
G01X24822Y52323D01*
G01X24769Y52324D01*
G01X24715Y52323D01*
G01X24661Y52320D01*
G01X24608Y52314D01*
G01X24554Y52307D01*
G01X24502Y52297D01*
G01X24449Y52285D01*
G01X24397Y52271D01*
G01X24346Y52255D01*
G01X24295Y52237D01*
G01X24245Y52217D01*
G01X24196Y52195D01*
G01X24148Y52170D01*
G01X24101Y52144D01*
G01X24055Y52116D01*
G01X24010Y52087D01*
G01X23967Y52055D01*
G01X23925Y52022D01*
G01X23884Y51987D01*
G01X23845Y51950D01*
G01X23807Y51912D01*
G01X23770Y51872D01*
G01X23736Y51831D01*
G01X23703Y51788D01*
G01X23672Y51745D01*
G01X23642Y51700D01*
G01X23615Y51653D01*
G01X23589Y51606D01*
G01X23581Y51593D01*
G01X23570Y51581D01*
G01X23558Y51570D01*
G01X23545Y51562D01*
G01X23530Y51556D01*
G01X23514Y51552D01*
G01X23499Y51551D01*
G01X23483Y51552D01*
G01X23467Y51556D01*
G01X23453Y51562D01*
G01X23439Y51570D01*
G01X23427Y51581D01*
G01X23417Y51593D01*
G01X23408Y51606D01*
G01X23383Y51653D01*
G01X23355Y51700D01*
G01X23326Y51745D01*
G01X23295Y51788D01*
G01X23262Y51831D01*
G01X23227Y51872D01*
G01X23191Y51912D01*
G01X23153Y51950D01*
G01X23113Y51987D01*
G01X23073Y52022D01*
G01X23030Y52055D01*
G01X22987Y52087D01*
G01X22942Y52116D01*
G01X22896Y52144D01*
G01X22849Y52170D01*
G01X22801Y52195D01*
G01X22752Y52217D01*
G01X22702Y52237D01*
G01X22652Y52255D01*
G01X22600Y52271D01*
G01X22548Y52285D01*
G01X22496Y52297D01*
G01X22443Y52307D01*
G01X22390Y52314D01*
G01X22336Y52320D01*
G01X22282Y52323D01*
G37*
G36*
G01X46068Y5251D02*
G01X46000Y5252D01*
G01X45931Y5251D01*
G01X45864Y5248D01*
G01X45796Y5243D01*
G01X45728Y5236D01*
G01X45661Y5227D01*
G01X45593Y5215D01*
G01X45527Y5202D01*
G01X45460Y5187D01*
G01X45395Y5169D01*
G01X45329Y5150D01*
G01X45265Y5129D01*
G01X45201Y5106D01*
G01X45137Y5081D01*
G01X45075Y5054D01*
G01X45013Y5025D01*
G01X44953Y4994D01*
G01X44893Y4962D01*
G01X44834Y4927D01*
G01X44776Y4891D01*
G01X44720Y4853D01*
G01X44665Y4814D01*
G01X44610Y4773D01*
G01X44557Y4730D01*
G01X44506Y4686D01*
G01X44456Y4640D01*
G01X44407Y4592D01*
G01X44359Y4544D01*
G01X44313Y4493D01*
G01X44269Y4442D01*
G01X44226Y4389D01*
G01X44185Y4335D01*
G01X44146Y4279D01*
G01X44108Y4223D01*
G01X44072Y4165D01*
G01X44038Y4106D01*
G01X44005Y4046D01*
G01X43974Y3986D01*
G01X43945Y3924D01*
G01X43918Y3862D01*
G01X43893Y3798D01*
G01X43870Y3734D01*
G01X43849Y3670D01*
G01X43830Y3605D01*
G01X43812Y3539D01*
G01X43797Y3472D01*
G01X43784Y3406D01*
G01X43773Y3339D01*
G01X43763Y3271D01*
G01X43756Y3203D01*
G01X43751Y3136D01*
G01X43748Y3068D01*
G01X43747Y3000D01*
G01X43748Y2932D01*
G01X43751Y2864D01*
G01X43756Y2796D01*
G01X43763Y2728D01*
G01X43773Y2661D01*
G01X43784Y2594D01*
G01X43797Y2527D01*
G01X43812Y2461D01*
G01X43830Y2395D01*
G01X43849Y2329D01*
G01X43870Y2265D01*
G01X43893Y2201D01*
G01X43918Y2138D01*
G01X43945Y2075D01*
G01X43974Y2014D01*
G01X44005Y1953D01*
G01X44038Y1893D01*
G01X44072Y1834D01*
G01X44108Y1777D01*
G01X44146Y1720D01*
G01X44185Y1665D01*
G01X44226Y1610D01*
G01X44269Y1558D01*
G01X44313Y1506D01*
G01X44359Y1456D01*
G01X44407Y1407D01*
G01X44456Y1359D01*
G01X44506Y1314D01*
G01X44557Y1269D01*
G01X44610Y1226D01*
G01X44665Y1185D01*
G01X44720Y1146D01*
G01X44776Y1108D01*
G01X44834Y1072D01*
G01X44893Y1038D01*
G01X44953Y1005D01*
G01X45013Y974D01*
G01X45075Y946D01*
G01X45137Y919D01*
G01X45201Y893D01*
G01X45265Y870D01*
G01X45329Y849D01*
G01X45395Y830D01*
G01X45460Y813D01*
G01X45527Y797D01*
G01X45593Y784D01*
G01X45661Y773D01*
G01X45728Y763D01*
G01X45796Y756D01*
G01X45864Y751D01*
G01X45931Y748D01*
G01X46000Y747D01*
G01X46068Y748D01*
G01X46136Y751D01*
G01X46203Y756D01*
G01X46271Y763D01*
G01X46338Y773D01*
G01X46406Y784D01*
G01X46472Y797D01*
G01X46539Y813D01*
G01X46604Y830D01*
G01X46670Y849D01*
G01X46734Y870D01*
G01X46798Y893D01*
G01X46862Y919D01*
G01X46924Y946D01*
G01X46986Y974D01*
G01X47046Y1005D01*
G01X47106Y1038D01*
G01X47165Y1072D01*
G01X47223Y1108D01*
G01X47279Y1146D01*
G01X47335Y1185D01*
G01X47389Y1226D01*
G01X47442Y1269D01*
G01X47493Y1314D01*
G01X47543Y1359D01*
G01X47592Y1407D01*
G01X47640Y1456D01*
G01X47686Y1506D01*
G01X47730Y1558D01*
G01X47773Y1610D01*
G01X47814Y1665D01*
G01X47853Y1720D01*
G01X47891Y1777D01*
G01X47927Y1834D01*
G01X47962Y1893D01*
G01X47994Y1953D01*
G01X48025Y2014D01*
G01X48054Y2075D01*
G01X48081Y2138D01*
G01X48106Y2201D01*
G01X48129Y2265D01*
G01X48150Y2329D01*
G01X48169Y2395D01*
G01X48187Y2461D01*
G01X48202Y2527D01*
G01X48215Y2594D01*
G01X48226Y2661D01*
G01X48236Y2728D01*
G01X48243Y2796D01*
G01X48248Y2864D01*
G01X48251Y2932D01*
G01X48252Y3000D01*
G01X48251Y3068D01*
G01X48248Y3136D01*
G01X48243Y3203D01*
G01X48236Y3271D01*
G01X48226Y3339D01*
G01X48215Y3406D01*
G01X48202Y3472D01*
G01X48187Y3539D01*
G01X48169Y3605D01*
G01X48150Y3670D01*
G01X48129Y3734D01*
G01X48106Y3798D01*
G01X48081Y3862D01*
G01X48054Y3924D01*
G01X48025Y3986D01*
G01X47994Y4046D01*
G01X47962Y4106D01*
G01X47927Y4165D01*
G01X47891Y4223D01*
G01X47853Y4279D01*
G01X47814Y4335D01*
G01X47773Y4389D01*
G01X47730Y4442D01*
G01X47686Y4493D01*
G01X47640Y4544D01*
G01X47592Y4592D01*
G01X47543Y4640D01*
G01X47493Y4686D01*
G01X47442Y4730D01*
G01X47389Y4773D01*
G01X47335Y4814D01*
G01X47279Y4853D01*
G01X47223Y4891D01*
G01X47165Y4927D01*
G01X47106Y4962D01*
G01X47046Y4994D01*
G01X46986Y5025D01*
G01X46924Y5054D01*
G01X46862Y5081D01*
G01X46798Y5106D01*
G01X46734Y5129D01*
G01X46670Y5150D01*
G01X46604Y5169D01*
G01X46539Y5187D01*
G01X46472Y5202D01*
G01X46406Y5215D01*
G01X46338Y5227D01*
G01X46271Y5236D01*
G01X46203Y5243D01*
G01X46136Y5248D01*
G01X46068Y5251D01*
G37*
G36*
G01X3568Y5251D02*
G01X3499Y5252D01*
G01X3431Y5251D01*
G01X3363Y5248D01*
G01X3296Y5243D01*
G01X3228Y5236D01*
G01X3161Y5227D01*
G01X3093Y5215D01*
G01X3027Y5202D01*
G01X2960Y5187D01*
G01X2895Y5169D01*
G01X2829Y5150D01*
G01X2765Y5129D01*
G01X2701Y5106D01*
G01X2637Y5081D01*
G01X2575Y5054D01*
G01X2513Y5025D01*
G01X2453Y4994D01*
G01X2393Y4962D01*
G01X2334Y4927D01*
G01X2276Y4891D01*
G01X2220Y4853D01*
G01X2164Y4814D01*
G01X2110Y4773D01*
G01X2057Y4730D01*
G01X2006Y4686D01*
G01X1956Y4640D01*
G01X1907Y4592D01*
G01X1859Y4544D01*
G01X1813Y4493D01*
G01X1769Y4442D01*
G01X1726Y4389D01*
G01X1685Y4335D01*
G01X1646Y4279D01*
G01X1608Y4223D01*
G01X1572Y4165D01*
G01X1537Y4106D01*
G01X1505Y4046D01*
G01X1474Y3986D01*
G01X1445Y3924D01*
G01X1418Y3862D01*
G01X1393Y3798D01*
G01X1370Y3734D01*
G01X1349Y3670D01*
G01X1330Y3605D01*
G01X1312Y3539D01*
G01X1297Y3472D01*
G01X1284Y3406D01*
G01X1273Y3339D01*
G01X1263Y3271D01*
G01X1256Y3203D01*
G01X1251Y3136D01*
G01X1248Y3068D01*
G01X1247Y3000D01*
G01X1248Y2932D01*
G01X1251Y2864D01*
G01X1256Y2796D01*
G01X1263Y2728D01*
G01X1273Y2661D01*
G01X1284Y2594D01*
G01X1297Y2527D01*
G01X1312Y2461D01*
G01X1330Y2395D01*
G01X1349Y2329D01*
G01X1370Y2265D01*
G01X1393Y2201D01*
G01X1418Y2138D01*
G01X1445Y2075D01*
G01X1474Y2014D01*
G01X1505Y1953D01*
G01X1537Y1893D01*
G01X1572Y1834D01*
G01X1608Y1777D01*
G01X1646Y1720D01*
G01X1685Y1665D01*
G01X1726Y1610D01*
G01X1769Y1558D01*
G01X1813Y1506D01*
G01X1859Y1456D01*
G01X1907Y1407D01*
G01X1956Y1359D01*
G01X2006Y1314D01*
G01X2057Y1269D01*
G01X2110Y1226D01*
G01X2164Y1185D01*
G01X2220Y1146D01*
G01X2276Y1108D01*
G01X2334Y1072D01*
G01X2393Y1038D01*
G01X2453Y1005D01*
G01X2513Y974D01*
G01X2575Y946D01*
G01X2637Y919D01*
G01X2701Y893D01*
G01X2765Y870D01*
G01X2829Y849D01*
G01X2895Y830D01*
G01X2960Y813D01*
G01X3027Y797D01*
G01X3093Y784D01*
G01X3161Y773D01*
G01X3228Y763D01*
G01X3296Y756D01*
G01X3363Y751D01*
G01X3431Y748D01*
G01X3499Y747D01*
G01X3568Y748D01*
G01X3635Y751D01*
G01X3703Y756D01*
G01X3771Y763D01*
G01X3838Y773D01*
G01X3906Y784D01*
G01X3972Y797D01*
G01X4039Y813D01*
G01X4104Y830D01*
G01X4170Y849D01*
G01X4234Y870D01*
G01X4298Y893D01*
G01X4361Y919D01*
G01X4424Y946D01*
G01X4486Y974D01*
G01X4546Y1005D01*
G01X4606Y1038D01*
G01X4665Y1072D01*
G01X4722Y1108D01*
G01X4779Y1146D01*
G01X4834Y1185D01*
G01X4889Y1226D01*
G01X4942Y1269D01*
G01X4993Y1314D01*
G01X5043Y1359D01*
G01X5092Y1407D01*
G01X5140Y1456D01*
G01X5186Y1506D01*
G01X5230Y1558D01*
G01X5273Y1610D01*
G01X5314Y1665D01*
G01X5353Y1720D01*
G01X5391Y1777D01*
G01X5427Y1834D01*
G01X5461Y1893D01*
G01X5494Y1953D01*
G01X5525Y2014D01*
G01X5554Y2075D01*
G01X5581Y2138D01*
G01X5606Y2201D01*
G01X5629Y2265D01*
G01X5650Y2329D01*
G01X5669Y2395D01*
G01X5687Y2461D01*
G01X5702Y2527D01*
G01X5715Y2594D01*
G01X5726Y2661D01*
G01X5736Y2728D01*
G01X5743Y2796D01*
G01X5748Y2864D01*
G01X5751Y2932D01*
G01X5752Y3000D01*
G01X5751Y3068D01*
G01X5748Y3136D01*
G01X5743Y3203D01*
G01X5736Y3271D01*
G01X5726Y3339D01*
G01X5715Y3406D01*
G01X5702Y3472D01*
G01X5687Y3539D01*
G01X5669Y3605D01*
G01X5650Y3670D01*
G01X5629Y3734D01*
G01X5606Y3798D01*
G01X5581Y3862D01*
G01X5554Y3924D01*
G01X5525Y3986D01*
G01X5494Y4046D01*
G01X5461Y4106D01*
G01X5427Y4165D01*
G01X5391Y4223D01*
G01X5353Y4279D01*
G01X5314Y4335D01*
G01X5273Y4389D01*
G01X5230Y4442D01*
G01X5186Y4493D01*
G01X5140Y4544D01*
G01X5092Y4592D01*
G01X5043Y4640D01*
G01X4993Y4686D01*
G01X4942Y4730D01*
G01X4889Y4773D01*
G01X4834Y4814D01*
G01X4779Y4853D01*
G01X4722Y4891D01*
G01X4665Y4927D01*
G01X4606Y4962D01*
G01X4546Y4994D01*
G01X4486Y5025D01*
G01X4424Y5054D01*
G01X4361Y5081D01*
G01X4298Y5106D01*
G01X4234Y5129D01*
G01X4170Y5150D01*
G01X4104Y5169D01*
G01X4039Y5187D01*
G01X3972Y5202D01*
G01X3906Y5215D01*
G01X3838Y5227D01*
G01X3771Y5236D01*
G01X3703Y5243D01*
G01X3635Y5248D01*
G01X3568Y5251D01*
G37*
G36*
G01X3568Y57751D02*
G01X3499Y57752D01*
G01X3431Y57751D01*
G01X3363Y57748D01*
G01X3296Y57743D01*
G01X3228Y57736D01*
G01X3161Y57727D01*
G01X3093Y57715D01*
G01X3027Y57702D01*
G01X2960Y57687D01*
G01X2895Y57669D01*
G01X2829Y57650D01*
G01X2765Y57629D01*
G01X2701Y57606D01*
G01X2637Y57581D01*
G01X2575Y57554D01*
G01X2513Y57525D01*
G01X2453Y57494D01*
G01X2393Y57462D01*
G01X2334Y57427D01*
G01X2276Y57391D01*
G01X2220Y57353D01*
G01X2164Y57314D01*
G01X2110Y57273D01*
G01X2057Y57230D01*
G01X2006Y57186D01*
G01X1956Y57140D01*
G01X1907Y57092D01*
G01X1859Y57044D01*
G01X1813Y56993D01*
G01X1769Y56942D01*
G01X1726Y56889D01*
G01X1685Y56835D01*
G01X1646Y56779D01*
G01X1608Y56723D01*
G01X1572Y56665D01*
G01X1537Y56606D01*
G01X1505Y56546D01*
G01X1474Y56486D01*
G01X1445Y56424D01*
G01X1418Y56362D01*
G01X1393Y56298D01*
G01X1370Y56234D01*
G01X1349Y56170D01*
G01X1330Y56105D01*
G01X1312Y56039D01*
G01X1297Y55972D01*
G01X1284Y55906D01*
G01X1273Y55839D01*
G01X1263Y55771D01*
G01X1256Y55703D01*
G01X1251Y55636D01*
G01X1248Y55568D01*
G01X1247Y55500D01*
G01X1248Y55432D01*
G01X1251Y55364D01*
G01X1256Y55296D01*
G01X1263Y55228D01*
G01X1273Y55161D01*
G01X1284Y55094D01*
G01X1297Y55027D01*
G01X1312Y54961D01*
G01X1330Y54895D01*
G01X1349Y54830D01*
G01X1370Y54765D01*
G01X1393Y54701D01*
G01X1418Y54638D01*
G01X1445Y54575D01*
G01X1474Y54514D01*
G01X1505Y54453D01*
G01X1537Y54393D01*
G01X1572Y54334D01*
G01X1608Y54277D01*
G01X1646Y54220D01*
G01X1685Y54165D01*
G01X1726Y54110D01*
G01X1769Y54058D01*
G01X1813Y54006D01*
G01X1859Y53956D01*
G01X1907Y53907D01*
G01X1956Y53859D01*
G01X2006Y53814D01*
G01X2057Y53769D01*
G01X2110Y53726D01*
G01X2164Y53685D01*
G01X2220Y53646D01*
G01X2276Y53608D01*
G01X2334Y53572D01*
G01X2393Y53538D01*
G01X2453Y53505D01*
G01X2513Y53474D01*
G01X2575Y53446D01*
G01X2637Y53419D01*
G01X2701Y53393D01*
G01X2765Y53370D01*
G01X2829Y53349D01*
G01X2895Y53330D01*
G01X2960Y53313D01*
G01X3027Y53297D01*
G01X3093Y53284D01*
G01X3161Y53273D01*
G01X3228Y53264D01*
G01X3296Y53256D01*
G01X3363Y53251D01*
G01X3431Y53248D01*
G01X3499Y53247D01*
G01X3568Y53248D01*
G01X3635Y53251D01*
G01X3703Y53256D01*
G01X3771Y53264D01*
G01X3838Y53273D01*
G01X3906Y53284D01*
G01X3972Y53297D01*
G01X4039Y53313D01*
G01X4104Y53330D01*
G01X4170Y53349D01*
G01X4234Y53370D01*
G01X4298Y53393D01*
G01X4361Y53419D01*
G01X4424Y53446D01*
G01X4486Y53474D01*
G01X4546Y53505D01*
G01X4606Y53538D01*
G01X4665Y53572D01*
G01X4722Y53608D01*
G01X4779Y53646D01*
G01X4834Y53685D01*
G01X4889Y53726D01*
G01X4942Y53769D01*
G01X4993Y53814D01*
G01X5043Y53859D01*
G01X5092Y53907D01*
G01X5140Y53956D01*
G01X5186Y54006D01*
G01X5230Y54058D01*
G01X5273Y54110D01*
G01X5314Y54165D01*
G01X5353Y54220D01*
G01X5391Y54277D01*
G01X5427Y54334D01*
G01X5461Y54393D01*
G01X5494Y54453D01*
G01X5525Y54514D01*
G01X5554Y54575D01*
G01X5581Y54638D01*
G01X5606Y54701D01*
G01X5629Y54765D01*
G01X5650Y54830D01*
G01X5669Y54895D01*
G01X5687Y54961D01*
G01X5702Y55027D01*
G01X5715Y55094D01*
G01X5726Y55161D01*
G01X5736Y55228D01*
G01X5743Y55296D01*
G01X5748Y55364D01*
G01X5751Y55432D01*
G01X5752Y55500D01*
G01X5751Y55568D01*
G01X5748Y55636D01*
G01X5743Y55703D01*
G01X5736Y55771D01*
G01X5726Y55839D01*
G01X5715Y55906D01*
G01X5702Y55972D01*
G01X5687Y56039D01*
G01X5669Y56105D01*
G01X5650Y56170D01*
G01X5629Y56234D01*
G01X5606Y56298D01*
G01X5581Y56362D01*
G01X5554Y56424D01*
G01X5525Y56486D01*
G01X5494Y56546D01*
G01X5461Y56606D01*
G01X5427Y56665D01*
G01X5391Y56723D01*
G01X5353Y56779D01*
G01X5314Y56835D01*
G01X5273Y56889D01*
G01X5230Y56942D01*
G01X5186Y56993D01*
G01X5140Y57044D01*
G01X5092Y57092D01*
G01X5043Y57140D01*
G01X4993Y57186D01*
G01X4942Y57230D01*
G01X4889Y57273D01*
G01X4834Y57314D01*
G01X4779Y57353D01*
G01X4722Y57391D01*
G01X4665Y57427D01*
G01X4606Y57462D01*
G01X4546Y57494D01*
G01X4486Y57525D01*
G01X4424Y57554D01*
G01X4361Y57581D01*
G01X4298Y57606D01*
G01X4234Y57629D01*
G01X4170Y57650D01*
G01X4104Y57669D01*
G01X4039Y57687D01*
G01X3972Y57702D01*
G01X3906Y57715D01*
G01X3838Y57727D01*
G01X3771Y57736D01*
G01X3703Y57743D01*
G01X3635Y57748D01*
G01X3568Y57751D01*
G37*
G36*
G01X46068Y57751D02*
G01X46000Y57752D01*
G01X45931Y57751D01*
G01X45864Y57748D01*
G01X45796Y57743D01*
G01X45728Y57736D01*
G01X45661Y57727D01*
G01X45593Y57715D01*
G01X45527Y57702D01*
G01X45460Y57687D01*
G01X45395Y57669D01*
G01X45329Y57650D01*
G01X45265Y57629D01*
G01X45201Y57606D01*
G01X45137Y57581D01*
G01X45075Y57554D01*
G01X45013Y57525D01*
G01X44953Y57494D01*
G01X44893Y57462D01*
G01X44834Y57427D01*
G01X44776Y57391D01*
G01X44720Y57353D01*
G01X44665Y57314D01*
G01X44610Y57273D01*
G01X44557Y57230D01*
G01X44506Y57186D01*
G01X44456Y57140D01*
G01X44407Y57092D01*
G01X44359Y57044D01*
G01X44313Y56993D01*
G01X44269Y56942D01*
G01X44226Y56889D01*
G01X44185Y56835D01*
G01X44146Y56779D01*
G01X44108Y56723D01*
G01X44072Y56665D01*
G01X44038Y56606D01*
G01X44005Y56546D01*
G01X43974Y56486D01*
G01X43945Y56424D01*
G01X43918Y56362D01*
G01X43893Y56298D01*
G01X43870Y56234D01*
G01X43849Y56170D01*
G01X43830Y56105D01*
G01X43812Y56039D01*
G01X43797Y55972D01*
G01X43784Y55906D01*
G01X43773Y55839D01*
G01X43763Y55771D01*
G01X43756Y55703D01*
G01X43751Y55636D01*
G01X43748Y55568D01*
G01X43747Y55500D01*
G01X43748Y55432D01*
G01X43751Y55364D01*
G01X43756Y55296D01*
G01X43763Y55228D01*
G01X43773Y55161D01*
G01X43784Y55094D01*
G01X43797Y55027D01*
G01X43812Y54961D01*
G01X43830Y54895D01*
G01X43849Y54830D01*
G01X43870Y54765D01*
G01X43893Y54701D01*
G01X43918Y54638D01*
G01X43945Y54575D01*
G01X43974Y54514D01*
G01X44005Y54453D01*
G01X44038Y54393D01*
G01X44072Y54334D01*
G01X44108Y54277D01*
G01X44146Y54220D01*
G01X44185Y54165D01*
G01X44226Y54110D01*
G01X44269Y54058D01*
G01X44313Y54006D01*
G01X44359Y53956D01*
G01X44407Y53907D01*
G01X44456Y53859D01*
G01X44506Y53814D01*
G01X44557Y53769D01*
G01X44610Y53726D01*
G01X44665Y53685D01*
G01X44720Y53646D01*
G01X44776Y53608D01*
G01X44834Y53572D01*
G01X44893Y53538D01*
G01X44953Y53505D01*
G01X45013Y53474D01*
G01X45075Y53446D01*
G01X45137Y53419D01*
G01X45201Y53393D01*
G01X45265Y53370D01*
G01X45329Y53349D01*
G01X45395Y53330D01*
G01X45460Y53313D01*
G01X45527Y53297D01*
G01X45593Y53284D01*
G01X45661Y53273D01*
G01X45728Y53264D01*
G01X45796Y53256D01*
G01X45864Y53251D01*
G01X45931Y53248D01*
G01X46000Y53247D01*
G01X46068Y53248D01*
G01X46136Y53251D01*
G01X46203Y53256D01*
G01X46271Y53264D01*
G01X46338Y53273D01*
G01X46406Y53284D01*
G01X46472Y53297D01*
G01X46539Y53313D01*
G01X46604Y53330D01*
G01X46670Y53349D01*
G01X46734Y53370D01*
G01X46798Y53393D01*
G01X46862Y53419D01*
G01X46924Y53446D01*
G01X46986Y53474D01*
G01X47046Y53505D01*
G01X47106Y53538D01*
G01X47165Y53572D01*
G01X47223Y53608D01*
G01X47279Y53646D01*
G01X47335Y53685D01*
G01X47389Y53726D01*
G01X47442Y53769D01*
G01X47493Y53814D01*
G01X47543Y53859D01*
G01X47592Y53907D01*
G01X47640Y53956D01*
G01X47686Y54006D01*
G01X47730Y54058D01*
G01X47773Y54110D01*
G01X47814Y54165D01*
G01X47853Y54220D01*
G01X47891Y54277D01*
G01X47927Y54334D01*
G01X47962Y54393D01*
G01X47994Y54453D01*
G01X48025Y54514D01*
G01X48054Y54575D01*
G01X48081Y54638D01*
G01X48106Y54701D01*
G01X48129Y54765D01*
G01X48150Y54830D01*
G01X48169Y54895D01*
G01X48187Y54961D01*
G01X48202Y55027D01*
G01X48215Y55094D01*
G01X48226Y55161D01*
G01X48236Y55228D01*
G01X48243Y55296D01*
G01X48248Y55364D01*
G01X48251Y55432D01*
G01X48252Y55500D01*
G01X48251Y55568D01*
G01X48248Y55636D01*
G01X48243Y55703D01*
G01X48236Y55771D01*
G01X48226Y55839D01*
G01X48215Y55906D01*
G01X48202Y55972D01*
G01X48187Y56039D01*
G01X48169Y56105D01*
G01X48150Y56170D01*
G01X48129Y56234D01*
G01X48106Y56298D01*
G01X48081Y56362D01*
G01X48054Y56424D01*
G01X48025Y56486D01*
G01X47994Y56546D01*
G01X47962Y56606D01*
G01X47927Y56665D01*
G01X47891Y56723D01*
G01X47853Y56779D01*
G01X47814Y56835D01*
G01X47773Y56889D01*
G01X47730Y56942D01*
G01X47686Y56993D01*
G01X47640Y57044D01*
G01X47592Y57092D01*
G01X47543Y57140D01*
G01X47493Y57186D01*
G01X47442Y57230D01*
G01X47389Y57273D01*
G01X47335Y57314D01*
G01X47279Y57353D01*
G01X47223Y57391D01*
G01X47165Y57427D01*
G01X47106Y57462D01*
G01X47046Y57494D01*
G01X46986Y57525D01*
G01X46924Y57554D01*
G01X46862Y57581D01*
G01X46798Y57606D01*
G01X46734Y57629D01*
G01X46670Y57650D01*
G01X46604Y57669D01*
G01X46539Y57687D01*
G01X46472Y57702D01*
G01X46406Y57715D01*
G01X46338Y57727D01*
G01X46271Y57736D01*
G01X46203Y57743D01*
G01X46136Y57748D01*
G01X46068Y57751D01*
G37*
G36*
G01X8500Y51642D02*
G01X6000Y51642D01*
G01X5967Y51641D01*
G01X5934Y51638D01*
G01X5901Y51633D01*
G01X5869Y51625D01*
G01X5838Y51616D01*
G01X5807Y51604D01*
G01X5777Y51590D01*
G01X5748Y51575D01*
G01X5720Y51557D01*
G01X5694Y51538D01*
G01X5668Y51517D01*
G01X5644Y51495D01*
G01X5622Y51471D01*
G01X5601Y51446D01*
G01X5582Y51419D01*
G01X5564Y51391D01*
G01X5549Y51362D01*
G01X5535Y51332D01*
G01X5524Y51301D01*
G01X5514Y51270D01*
G01X5507Y51238D01*
G01X5501Y51205D01*
G01X5498Y51172D01*
G01X5497Y51140D01*
G01X5497Y49940D01*
G01X5498Y49907D01*
G01X5501Y49874D01*
G01X5507Y49842D01*
G01X5514Y49810D01*
G01X5524Y49778D01*
G01X5535Y49747D01*
G01X5549Y49717D01*
G01X5564Y49688D01*
G01X5582Y49660D01*
G01X5601Y49634D01*
G01X5622Y49608D01*
G01X5644Y49584D01*
G01X5668Y49562D01*
G01X5694Y49541D01*
G01X5720Y49522D01*
G01X5748Y49504D01*
G01X5777Y49489D01*
G01X5807Y49475D01*
G01X5838Y49464D01*
G01X5869Y49454D01*
G01X5901Y49447D01*
G01X5934Y49441D01*
G01X5967Y49438D01*
G01X6000Y49437D01*
G01X8500Y49437D01*
G01X8532Y49438D01*
G01X8565Y49441D01*
G01X8598Y49447D01*
G01X8630Y49454D01*
G01X8661Y49464D01*
G01X8692Y49475D01*
G01X8722Y49489D01*
G01X8751Y49504D01*
G01X8779Y49522D01*
G01X8805Y49541D01*
G01X8831Y49562D01*
G01X8855Y49584D01*
G01X8877Y49608D01*
G01X8898Y49634D01*
G01X8917Y49660D01*
G01X8935Y49688D01*
G01X8950Y49717D01*
G01X8964Y49747D01*
G01X8975Y49778D01*
G01X8985Y49810D01*
G01X8992Y49842D01*
G01X8998Y49874D01*
G01X9001Y49907D01*
G01X9002Y49940D01*
G01X9002Y51140D01*
G01X9001Y51172D01*
G01X8998Y51205D01*
G01X8992Y51238D01*
G01X8985Y51270D01*
G01X8975Y51301D01*
G01X8964Y51332D01*
G01X8950Y51362D01*
G01X8935Y51391D01*
G01X8917Y51419D01*
G01X8898Y51446D01*
G01X8877Y51471D01*
G01X8855Y51495D01*
G01X8831Y51517D01*
G01X8805Y51538D01*
G01X8779Y51557D01*
G01X8751Y51575D01*
G01X8722Y51590D01*
G01X8692Y51604D01*
G01X8661Y51616D01*
G01X8630Y51625D01*
G01X8598Y51633D01*
G01X8565Y51638D01*
G01X8532Y51641D01*
G01X8500Y51642D01*
G37*
G36*
G01X43450Y35350D02*
G01X43397Y35351D01*
G01X43344Y35350D01*
G01X43291Y35347D01*
G01X43238Y35341D01*
G01X43185Y35334D01*
G01X43133Y35325D01*
G01X43081Y35313D01*
G01X43030Y35300D01*
G01X42979Y35285D01*
G01X42929Y35267D01*
G01X42880Y35248D01*
G01X42831Y35227D01*
G01X42783Y35203D01*
G01X42736Y35178D01*
G01X42691Y35151D01*
G01X42646Y35123D01*
G01X42602Y35092D01*
G01X42560Y35060D01*
G01X42519Y35027D01*
G01X42479Y34991D01*
G01X42441Y34955D01*
G01X42404Y34916D01*
G01X42369Y34877D01*
G01X42335Y34836D01*
G01X42303Y34793D01*
G01X42273Y34750D01*
G01X42244Y34705D01*
G01X42217Y34659D01*
G01X42192Y34612D01*
G01X42169Y34565D01*
G01X42148Y34516D01*
G01X42128Y34467D01*
G01X42111Y34416D01*
G01X42096Y34366D01*
G01X42082Y34314D01*
G01X42071Y34262D01*
G01X42062Y34210D01*
G01X42054Y34157D01*
G01X42049Y34105D01*
G01X42046Y34052D01*
G01X42045Y33999D01*
G01X42046Y33945D01*
G01X42049Y33892D01*
G01X42054Y33840D01*
G01X42062Y33787D01*
G01X42071Y33735D01*
G01X42082Y33683D01*
G01X42096Y33632D01*
G01X42111Y33581D01*
G01X42128Y33531D01*
G01X42148Y33481D01*
G01X42169Y33432D01*
G01X42192Y33385D01*
G01X42217Y33338D01*
G01X42244Y33292D01*
G01X42273Y33247D01*
G01X42303Y33204D01*
G01X42335Y33161D01*
G01X42369Y33120D01*
G01X42404Y33081D01*
G01X42441Y33042D01*
G01X42479Y33006D01*
G01X42519Y32970D01*
G01X42560Y32937D01*
G01X42602Y32905D01*
G01X42646Y32874D01*
G01X42691Y32846D01*
G01X42736Y32819D01*
G01X42783Y32794D01*
G01X42831Y32771D01*
G01X42880Y32749D01*
G01X42929Y32730D01*
G01X42979Y32713D01*
G01X43030Y32697D01*
G01X43081Y32684D01*
G01X43133Y32672D01*
G01X43185Y32663D01*
G01X43238Y32656D01*
G01X43291Y32651D01*
G01X43344Y32647D01*
G01X43397Y32646D01*
G01X43450Y32647D01*
G01X43503Y32651D01*
G01X43556Y32656D01*
G01X43609Y32663D01*
G01X43661Y32672D01*
G01X43713Y32684D01*
G01X43764Y32697D01*
G01X43815Y32713D01*
G01X43865Y32730D01*
G01X43914Y32749D01*
G01X43963Y32771D01*
G01X44011Y32794D01*
G01X44058Y32819D01*
G01X44104Y32846D01*
G01X44148Y32874D01*
G01X44192Y32905D01*
G01X44234Y32937D01*
G01X44275Y32970D01*
G01X44315Y33006D01*
G01X44353Y33042D01*
G01X44390Y33081D01*
G01X44425Y33120D01*
G01X44459Y33161D01*
G01X44491Y33204D01*
G01X44521Y33247D01*
G01X44550Y33292D01*
G01X44577Y33338D01*
G01X44602Y33385D01*
G01X44625Y33432D01*
G01X44646Y33481D01*
G01X44666Y33531D01*
G01X44683Y33581D01*
G01X44698Y33632D01*
G01X44712Y33683D01*
G01X44723Y33735D01*
G01X44733Y33787D01*
G01X44740Y33840D01*
G01X44745Y33892D01*
G01X44748Y33945D01*
G01X44749Y33999D01*
G01X44748Y34052D01*
G01X44745Y34105D01*
G01X44740Y34157D01*
G01X44733Y34210D01*
G01X44723Y34262D01*
G01X44712Y34314D01*
G01X44698Y34366D01*
G01X44683Y34416D01*
G01X44666Y34467D01*
G01X44646Y34516D01*
G01X44625Y34565D01*
G01X44602Y34612D01*
G01X44577Y34659D01*
G01X44550Y34705D01*
G01X44521Y34750D01*
G01X44491Y34793D01*
G01X44459Y34836D01*
G01X44425Y34877D01*
G01X44390Y34916D01*
G01X44353Y34955D01*
G01X44315Y34991D01*
G01X44275Y35027D01*
G01X44234Y35060D01*
G01X44192Y35092D01*
G01X44148Y35123D01*
G01X44104Y35151D01*
G01X44058Y35178D01*
G01X44011Y35203D01*
G01X43963Y35227D01*
G01X43914Y35248D01*
G01X43865Y35267D01*
G01X43815Y35285D01*
G01X43764Y35300D01*
G01X43713Y35313D01*
G01X43661Y35325D01*
G01X43609Y35334D01*
G01X43556Y35341D01*
G01X43503Y35347D01*
G01X43450Y35350D01*
G37*
G36*
G01X19212Y50520D02*
G01X17625Y50520D01*
G01X17625Y49757D01*
G01X17675Y49777D01*
G01X17723Y49799D01*
G01X17771Y49823D01*
G01X17818Y49849D01*
G01X17864Y49877D01*
G01X17908Y49907D01*
G01X17952Y49939D01*
G01X17994Y49972D01*
G01X18035Y50007D01*
G01X18074Y50043D01*
G01X18148Y50121D01*
G01X18182Y50162D01*
G01X18215Y50205D01*
G01X18246Y50248D01*
G01X18275Y50293D01*
G01X18303Y50339D01*
G01X18328Y50386D01*
G01X18337Y50400D01*
G01X18347Y50412D01*
G01X18359Y50422D01*
G01X18373Y50430D01*
G01X18387Y50436D01*
G01X18403Y50440D01*
G01X18419Y50441D01*
G01X18434Y50440D01*
G01X18450Y50436D01*
G01X18465Y50430D01*
G01X18478Y50422D01*
G01X18490Y50412D01*
G01X18501Y50400D01*
G01X18509Y50386D01*
G01X18535Y50339D01*
G01X18562Y50293D01*
G01X18591Y50248D01*
G01X18622Y50205D01*
G01X18655Y50162D01*
G01X18690Y50121D01*
G01X18726Y50082D01*
G01X18764Y50043D01*
G01X18803Y50007D01*
G01X18843Y49972D01*
G01X18886Y49939D01*
G01X18929Y49907D01*
G01X18973Y49877D01*
G01X19019Y49849D01*
G01X19066Y49823D01*
G01X19114Y49799D01*
G01X19163Y49777D01*
G01X19212Y49757D01*
G01X19212Y50520D01*
G37*
G36*
G01X17675Y52216D02*
G01X17625Y52236D01*
G01X17625Y51472D01*
G01X19212Y51472D01*
G01X19212Y52236D01*
G01X19163Y52216D01*
G01X19114Y52193D01*
G01X19066Y52169D01*
G01X19019Y52143D01*
G01X18973Y52115D01*
G01X18929Y52085D01*
G01X18886Y52054D01*
G01X18843Y52021D01*
G01X18803Y51986D01*
G01X18764Y51949D01*
G01X18726Y51911D01*
G01X18690Y51871D01*
G01X18655Y51830D01*
G01X18622Y51788D01*
G01X18591Y51744D01*
G01X18562Y51699D01*
G01X18535Y51653D01*
G01X18509Y51606D01*
G01X18501Y51593D01*
G01X18490Y51581D01*
G01X18478Y51570D01*
G01X18465Y51562D01*
G01X18450Y51556D01*
G01X18434Y51552D01*
G01X18419Y51551D01*
G01X18403Y51552D01*
G01X18387Y51556D01*
G01X18373Y51562D01*
G01X18359Y51570D01*
G01X18347Y51581D01*
G01X18337Y51593D01*
G01X18328Y51606D01*
G01X18303Y51653D01*
G01X18275Y51699D01*
G01X18246Y51744D01*
G01X18215Y51788D01*
G01X18182Y51830D01*
G01X18148Y51871D01*
G01X18111Y51911D01*
G01X18074Y51949D01*
G01X18035Y51986D01*
G01X17994Y52021D01*
G01X17952Y52054D01*
G01X17908Y52085D01*
G01X17864Y52115D01*
G01X17818Y52143D01*
G01X17771Y52169D01*
G01X17723Y52193D01*
G01X17675Y52216D01*
G37*
G36*
G01X3502Y47636D02*
G01X2438Y47636D01*
G01X2438Y46897D01*
G01X2999Y46897D01*
G01X3032Y46898D01*
G01X3065Y46901D01*
G01X3098Y46907D01*
G01X3130Y46914D01*
G01X3161Y46924D01*
G01X3192Y46935D01*
G01X3222Y46949D01*
G01X3251Y46964D01*
G01X3279Y46982D01*
G01X3305Y47001D01*
G01X3331Y47022D01*
G01X3355Y47044D01*
G01X3377Y47068D01*
G01X3398Y47094D01*
G01X3417Y47120D01*
G01X3435Y47148D01*
G01X3450Y47177D01*
G01X3464Y47207D01*
G01X3475Y47238D01*
G01X3485Y47270D01*
G01X3492Y47302D01*
G01X3498Y47334D01*
G01X3501Y47367D01*
G01X3502Y47400D01*
G01X3502Y47636D01*
G37*
G36*
G01X2999Y49102D02*
G01X2438Y49102D01*
G01X2438Y48363D01*
G01X3502Y48363D01*
G01X3502Y48600D01*
G01X3501Y48632D01*
G01X3498Y48665D01*
G01X3492Y48698D01*
G01X3485Y48730D01*
G01X3475Y48761D01*
G01X3464Y48792D01*
G01X3450Y48822D01*
G01X3435Y48851D01*
G01X3417Y48879D01*
G01X3398Y48906D01*
G01X3377Y48931D01*
G01X3355Y48955D01*
G01X3331Y48977D01*
G01X3305Y48998D01*
G01X3279Y49017D01*
G01X3251Y49035D01*
G01X3222Y49050D01*
G01X3192Y49064D01*
G01X3161Y49076D01*
G01X3130Y49085D01*
G01X3098Y49093D01*
G01X3065Y49098D01*
G01X3032Y49101D01*
G01X2999Y49102D01*
G37*
G36*
G01X6561Y47636D02*
G01X5497Y47636D01*
G01X5497Y47400D01*
G01X5498Y47367D01*
G01X5501Y47334D01*
G01X5507Y47302D01*
G01X5514Y47270D01*
G01X5524Y47238D01*
G01X5535Y47207D01*
G01X5549Y47177D01*
G01X5564Y47148D01*
G01X5582Y47120D01*
G01X5601Y47094D01*
G01X5622Y47068D01*
G01X5644Y47044D01*
G01X5668Y47022D01*
G01X5694Y47001D01*
G01X5720Y46982D01*
G01X5748Y46964D01*
G01X5777Y46949D01*
G01X5807Y46935D01*
G01X5838Y46924D01*
G01X5869Y46914D01*
G01X5901Y46907D01*
G01X5934Y46901D01*
G01X5967Y46898D01*
G01X6000Y46897D01*
G01X6561Y46897D01*
G01X6561Y47636D01*
G37*
G36*
G01X6561Y49102D02*
G01X6000Y49102D01*
G01X5967Y49101D01*
G01X5934Y49098D01*
G01X5901Y49093D01*
G01X5869Y49085D01*
G01X5838Y49076D01*
G01X5807Y49064D01*
G01X5777Y49050D01*
G01X5748Y49035D01*
G01X5720Y49017D01*
G01X5694Y48998D01*
G01X5668Y48977D01*
G01X5644Y48955D01*
G01X5622Y48931D01*
G01X5601Y48906D01*
G01X5582Y48879D01*
G01X5564Y48851D01*
G01X5549Y48822D01*
G01X5535Y48792D01*
G01X5524Y48761D01*
G01X5514Y48730D01*
G01X5507Y48698D01*
G01X5501Y48665D01*
G01X5498Y48632D01*
G01X5497Y48600D01*
G01X5497Y48363D01*
G01X6561Y48363D01*
G01X6561Y49102D01*
G37*
G36*
G01X9002Y47636D02*
G01X7938Y47636D01*
G01X7938Y46897D01*
G01X8500Y46897D01*
G01X8532Y46898D01*
G01X8565Y46901D01*
G01X8598Y46907D01*
G01X8630Y46914D01*
G01X8661Y46924D01*
G01X8692Y46935D01*
G01X8722Y46949D01*
G01X8751Y46964D01*
G01X8779Y46982D01*
G01X8805Y47001D01*
G01X8831Y47022D01*
G01X8855Y47044D01*
G01X8877Y47068D01*
G01X8898Y47094D01*
G01X8917Y47120D01*
G01X8935Y47148D01*
G01X8950Y47177D01*
G01X8964Y47207D01*
G01X8975Y47238D01*
G01X8985Y47270D01*
G01X8992Y47302D01*
G01X8998Y47334D01*
G01X9001Y47367D01*
G01X9002Y47400D01*
G01X9002Y47636D01*
G37*
G36*
G01X8500Y49102D02*
G01X7938Y49102D01*
G01X7938Y48363D01*
G01X9002Y48363D01*
G01X9002Y48600D01*
G01X9001Y48632D01*
G01X8998Y48665D01*
G01X8992Y48698D01*
G01X8985Y48730D01*
G01X8975Y48761D01*
G01X8964Y48792D01*
G01X8950Y48822D01*
G01X8935Y48851D01*
G01X8917Y48879D01*
G01X8898Y48906D01*
G01X8877Y48931D01*
G01X8855Y48955D01*
G01X8831Y48977D01*
G01X8805Y48998D01*
G01X8779Y49017D01*
G01X8751Y49035D01*
G01X8722Y49050D01*
G01X8692Y49064D01*
G01X8661Y49076D01*
G01X8630Y49085D01*
G01X8598Y49093D01*
G01X8565Y49098D01*
G01X8532Y49101D01*
G01X8500Y49102D01*
G37*
G36*
G01X40619Y2461D02*
G01X39808Y2461D01*
G01X39808Y1651D01*
G01X39860Y1672D01*
G01X39911Y1696D01*
G01X39960Y1722D01*
G01X40009Y1750D01*
G01X40057Y1779D01*
G01X40103Y1810D01*
G01X40149Y1843D01*
G01X40193Y1878D01*
G01X40235Y1915D01*
G01X40277Y1953D01*
G01X40316Y1993D01*
G01X40354Y2034D01*
G01X40391Y2076D01*
G01X40426Y2120D01*
G01X40459Y2166D01*
G01X40490Y2212D01*
G01X40520Y2260D01*
G01X40547Y2309D01*
G01X40573Y2359D01*
G01X40597Y2409D01*
G01X40619Y2461D01*
G37*
G36*
G01X39860Y4327D02*
G01X39808Y4349D01*
G01X39808Y3538D01*
G01X40619Y3538D01*
G01X40597Y3590D01*
G01X40573Y3641D01*
G01X40547Y3690D01*
G01X40520Y3739D01*
G01X40490Y3787D01*
G01X40459Y3834D01*
G01X40426Y3879D01*
G01X40391Y3923D01*
G01X40354Y3966D01*
G01X40316Y4007D01*
G01X40277Y4046D01*
G01X40235Y4084D01*
G01X40193Y4121D01*
G01X40149Y4156D01*
G01X40103Y4189D01*
G01X40057Y4220D01*
G01X40009Y4250D01*
G01X39960Y4277D01*
G01X39911Y4303D01*
G01X39860Y4327D01*
G37*
G36*
G01X44658Y37015D02*
G01X43885Y37015D01*
G01X43885Y36243D01*
G01X43935Y36263D01*
G01X43984Y36285D01*
G01X44031Y36310D01*
G01X44078Y36336D01*
G01X44124Y36364D01*
G01X44168Y36393D01*
G01X44212Y36425D01*
G01X44254Y36458D01*
G01X44295Y36493D01*
G01X44334Y36529D01*
G01X44372Y36567D01*
G01X44408Y36606D01*
G01X44443Y36647D01*
G01X44476Y36689D01*
G01X44508Y36732D01*
G01X44537Y36777D01*
G01X44565Y36823D01*
G01X44591Y36869D01*
G01X44615Y36917D01*
G01X44638Y36966D01*
G01X44658Y37015D01*
G37*
G36*
G01X42909Y37015D02*
G01X42136Y37015D01*
G01X42156Y36966D01*
G01X42179Y36917D01*
G01X42203Y36869D01*
G01X42229Y36823D01*
G01X42257Y36777D01*
G01X42287Y36732D01*
G01X42318Y36689D01*
G01X42351Y36647D01*
G01X42386Y36606D01*
G01X42422Y36567D01*
G01X42460Y36529D01*
G01X42499Y36493D01*
G01X42540Y36458D01*
G01X42582Y36425D01*
G01X42626Y36393D01*
G01X42670Y36364D01*
G01X42716Y36336D01*
G01X42763Y36310D01*
G01X42810Y36285D01*
G01X42859Y36263D01*
G01X42909Y36243D01*
G01X42909Y37015D01*
G37*
G36*
G01X43935Y38744D02*
G01X43885Y38765D01*
G01X43885Y37992D01*
G01X44658Y37992D01*
G01X44638Y38042D01*
G01X44615Y38090D01*
G01X44591Y38138D01*
G01X44565Y38185D01*
G01X44537Y38231D01*
G01X44508Y38275D01*
G01X44476Y38319D01*
G01X44443Y38361D01*
G01X44408Y38401D01*
G01X44372Y38441D01*
G01X44334Y38479D01*
G01X44295Y38515D01*
G01X44254Y38550D01*
G01X44212Y38583D01*
G01X44168Y38614D01*
G01X44124Y38644D01*
G01X44078Y38672D01*
G01X44031Y38698D01*
G01X43984Y38722D01*
G01X43935Y38744D01*
G37*
G36*
G01X42909Y37992D02*
G01X42909Y38765D01*
G01X42859Y38744D01*
G01X42810Y38722D01*
G01X42763Y38698D01*
G01X42716Y38672D01*
G01X42670Y38644D01*
G01X42626Y38614D01*
G01X42582Y38583D01*
G01X42540Y38550D01*
G01X42499Y38515D01*
G01X42460Y38479D01*
G01X42422Y38441D01*
G01X42386Y38401D01*
G01X42351Y38361D01*
G01X42318Y38319D01*
G01X42287Y38275D01*
G01X42257Y38231D01*
G01X42229Y38185D01*
G01X42203Y38138D01*
G01X42179Y38090D01*
G01X42156Y38042D01*
G01X42136Y37992D01*
G01X42909Y37992D01*
G37*
G36*
G01X16672Y51472D02*
G01X16672Y52236D01*
G01X16623Y52216D01*
G01X16575Y52194D01*
G01X16528Y52170D01*
G01X16482Y52145D01*
G01X16436Y52117D01*
G01X16392Y52088D01*
G01X16349Y52057D01*
G01X16308Y52024D01*
G01X16267Y51990D01*
G01X16229Y51954D01*
G01X16191Y51916D01*
G01X16155Y51877D01*
G01X16121Y51837D01*
G01X16088Y51796D01*
G01X16057Y51753D01*
G01X16028Y51709D01*
G01X16000Y51663D01*
G01X15975Y51617D01*
G01X15951Y51570D01*
G01X15929Y51522D01*
G01X15909Y51472D01*
G01X16672Y51472D01*
G37*
G36*
G01X16672Y50520D02*
G01X15909Y50520D01*
G01X15929Y50471D01*
G01X15951Y50423D01*
G01X15975Y50375D01*
G01X16000Y50329D01*
G01X16028Y50284D01*
G01X16057Y50240D01*
G01X16088Y50197D01*
G01X16121Y50155D01*
G01X16155Y50115D01*
G01X16191Y50076D01*
G01X16229Y50039D01*
G01X16267Y50003D01*
G01X16308Y49968D01*
G01X16349Y49936D01*
G01X16392Y49905D01*
G01X16436Y49875D01*
G01X16482Y49848D01*
G01X16528Y49822D01*
G01X16575Y49798D01*
G01X16623Y49776D01*
G01X16672Y49757D01*
G01X16672Y50520D01*
G37*
G36*
G01X23843Y32825D02*
G01X23607Y32825D01*
G01X23574Y32824D01*
G01X23541Y32820D01*
G01X23509Y32815D01*
G01X23477Y32808D01*
G01X23445Y32798D01*
G01X23414Y32786D01*
G01X23384Y32773D01*
G01X23355Y32757D01*
G01X23327Y32740D01*
G01X23301Y32721D01*
G01X23275Y32700D01*
G01X23251Y32677D01*
G01X23229Y32653D01*
G01X23208Y32628D01*
G01X23189Y32601D01*
G01X23171Y32573D01*
G01X23156Y32544D01*
G01X23142Y32514D01*
G01X23131Y32484D01*
G01X23121Y32452D01*
G01X23114Y32420D01*
G01X23108Y32388D01*
G01X23105Y32355D01*
G01X23104Y32322D01*
G01X23104Y32111D01*
G01X23843Y32111D01*
G01X23843Y32825D01*
G37*
G36*
G01X24805Y32825D02*
G01X24569Y32825D01*
G01X24569Y32111D01*
G01X25308Y32111D01*
G01X25308Y32322D01*
G01X25307Y32355D01*
G01X25304Y32388D01*
G01X25298Y32420D01*
G01X25291Y32452D01*
G01X25281Y32484D01*
G01X25270Y32514D01*
G01X25256Y32544D01*
G01X25241Y32573D01*
G01X25223Y32601D01*
G01X25204Y32628D01*
G01X25183Y32653D01*
G01X25161Y32677D01*
G01X25137Y32700D01*
G01X25111Y32721D01*
G01X25085Y32740D01*
G01X25057Y32757D01*
G01X25028Y32773D01*
G01X24998Y32786D01*
G01X24967Y32798D01*
G01X24936Y32808D01*
G01X24904Y32815D01*
G01X24871Y32820D01*
G01X24838Y32824D01*
G01X24805Y32825D01*
G37*
G36*
G01X42465Y49611D02*
G01X42419Y49629D01*
G01X42419Y48909D01*
G01X43139Y48909D01*
G01X43120Y48956D01*
G01X43100Y49002D01*
G01X43078Y49047D01*
G01X43054Y49091D01*
G01X43029Y49134D01*
G01X43001Y49175D01*
G01X42972Y49216D01*
G01X42941Y49256D01*
G01X42909Y49294D01*
G01X42875Y49331D01*
G01X42840Y49366D01*
G01X42803Y49400D01*
G01X42765Y49432D01*
G01X42725Y49463D01*
G01X42685Y49492D01*
G01X42643Y49519D01*
G01X42600Y49545D01*
G01X42556Y49569D01*
G01X42511Y49591D01*
G01X42465Y49611D01*
G37*
G36*
G01X41580Y48909D02*
G01X41580Y49629D01*
G01X41534Y49611D01*
G01X41488Y49591D01*
G01X41443Y49569D01*
G01X41399Y49545D01*
G01X41356Y49519D01*
G01X41314Y49492D01*
G01X41274Y49463D01*
G01X41234Y49432D01*
G01X41196Y49400D01*
G01X41159Y49366D01*
G01X41124Y49331D01*
G01X41090Y49294D01*
G01X41058Y49256D01*
G01X41027Y49216D01*
G01X40998Y49175D01*
G01X40970Y49134D01*
G01X40945Y49091D01*
G01X40921Y49047D01*
G01X40899Y49002D01*
G01X40879Y48956D01*
G01X40860Y48909D01*
G01X41580Y48909D01*
G37*
G36*
G01X5925Y28552D02*
G01X5880Y28569D01*
G01X5880Y27878D01*
G01X6571Y27878D01*
G01X6554Y27923D01*
G01X6535Y27967D01*
G01X6515Y28010D01*
G01X6492Y28053D01*
G01X6468Y28094D01*
G01X6441Y28135D01*
G01X6414Y28174D01*
G01X6384Y28212D01*
G01X6353Y28249D01*
G01X6321Y28284D01*
G01X6287Y28318D01*
G01X6251Y28351D01*
G01X6214Y28382D01*
G01X6176Y28411D01*
G01X6137Y28439D01*
G01X6097Y28465D01*
G01X6055Y28489D01*
G01X6013Y28512D01*
G01X5970Y28533D01*
G01X5925Y28552D01*
G37*
G36*
G01X6572Y10123D02*
G01X5881Y10123D01*
G01X5881Y9432D01*
G01X5926Y9449D01*
G01X5970Y9468D01*
G01X6014Y9489D01*
G01X6056Y9511D01*
G01X6098Y9535D01*
G01X6138Y9562D01*
G01X6177Y9589D01*
G01X6215Y9619D01*
G01X6252Y9650D01*
G01X6287Y9682D01*
G01X6321Y9716D01*
G01X6354Y9752D01*
G01X6385Y9789D01*
G01X6414Y9827D01*
G01X6442Y9866D01*
G01X6468Y9906D01*
G01X6493Y9948D01*
G01X6515Y9990D01*
G01X6536Y10033D01*
G01X6555Y10078D01*
G01X6572Y10123D01*
G37*
G36*
G01X5118Y27878D02*
G01X5118Y28569D01*
G01X5074Y28552D01*
G01X5029Y28533D01*
G01X4986Y28512D01*
G01X4944Y28489D01*
G01X4902Y28465D01*
G01X4862Y28439D01*
G01X4822Y28411D01*
G01X4784Y28382D01*
G01X4748Y28351D01*
G01X4712Y28318D01*
G01X4678Y28284D01*
G01X4646Y28249D01*
G01X4615Y28212D01*
G01X4585Y28174D01*
G01X4558Y28135D01*
G01X4531Y28094D01*
G01X4507Y28053D01*
G01X4484Y28010D01*
G01X4464Y27967D01*
G01X4445Y27923D01*
G01X4428Y27878D01*
G01X5118Y27878D01*
G37*
G36*
G01X7071Y32621D02*
G01X6381Y32621D01*
G01X6381Y31931D01*
G01X6426Y31948D01*
G01X6470Y31967D01*
G01X6513Y31987D01*
G01X6556Y32010D01*
G01X6597Y32034D01*
G01X6637Y32060D01*
G01X6677Y32088D01*
G01X6715Y32118D01*
G01X6751Y32149D01*
G01X6787Y32181D01*
G01X6821Y32215D01*
G01X6853Y32251D01*
G01X6884Y32287D01*
G01X6914Y32325D01*
G01X6942Y32365D01*
G01X6968Y32405D01*
G01X6992Y32446D01*
G01X7015Y32489D01*
G01X7035Y32532D01*
G01X7054Y32576D01*
G01X7071Y32621D01*
G37*
G36*
G01X43118Y14880D02*
G01X43118Y15571D01*
G01X43073Y15554D01*
G01X43028Y15535D01*
G01X42985Y15514D01*
G01X42943Y15491D01*
G01X42901Y15467D01*
G01X42861Y15441D01*
G01X42822Y15413D01*
G01X42784Y15384D01*
G01X42747Y15353D01*
G01X42711Y15320D01*
G01X42677Y15286D01*
G01X42645Y15251D01*
G01X42614Y15214D01*
G01X42584Y15176D01*
G01X42557Y15137D01*
G01X42531Y15096D01*
G01X42506Y15055D01*
G01X42484Y15012D01*
G01X42463Y14969D01*
G01X42444Y14925D01*
G01X42427Y14880D01*
G01X43118Y14880D01*
G37*
G36*
G01X5619Y32621D02*
G01X4928Y32621D01*
G01X4945Y32576D01*
G01X4964Y32532D01*
G01X4985Y32489D01*
G01X5007Y32446D01*
G01X5032Y32405D01*
G01X5058Y32365D01*
G01X5085Y32325D01*
G01X5115Y32287D01*
G01X5146Y32251D01*
G01X5178Y32215D01*
G01X5212Y32181D01*
G01X5248Y32149D01*
G01X5285Y32118D01*
G01X5323Y32088D01*
G01X5362Y32060D01*
G01X5402Y32034D01*
G01X5444Y32010D01*
G01X5486Y31987D01*
G01X5529Y31967D01*
G01X5574Y31948D01*
G01X5619Y31931D01*
G01X5619Y32621D01*
G37*
G36*
G01X43118Y25878D02*
G01X43118Y26569D01*
G01X43073Y26552D01*
G01X43028Y26533D01*
G01X42985Y26512D01*
G01X42943Y26490D01*
G01X42901Y26465D01*
G01X42861Y26439D01*
G01X42822Y26411D01*
G01X42784Y26382D01*
G01X42747Y26351D01*
G01X42711Y26318D01*
G01X42677Y26284D01*
G01X42645Y26249D01*
G01X42614Y26212D01*
G01X42584Y26174D01*
G01X42557Y26135D01*
G01X42531Y26095D01*
G01X42506Y26053D01*
G01X42484Y26011D01*
G01X42463Y25967D01*
G01X42444Y25923D01*
G01X42427Y25878D01*
G01X43118Y25878D01*
G37*
G36*
G01X43925Y26552D02*
G01X43880Y26569D01*
G01X43880Y25878D01*
G01X44570Y25878D01*
G01X44553Y25923D01*
G01X44534Y25967D01*
G01X44514Y26011D01*
G01X44491Y26053D01*
G01X44467Y26095D01*
G01X44441Y26135D01*
G01X44413Y26174D01*
G01X44383Y26212D01*
G01X44352Y26249D01*
G01X44320Y26284D01*
G01X44286Y26318D01*
G01X44250Y26351D01*
G01X44214Y26382D01*
G01X44176Y26411D01*
G01X44136Y26439D01*
G01X44096Y26465D01*
G01X44055Y26490D01*
G01X44012Y26512D01*
G01X43969Y26533D01*
G01X43925Y26552D01*
G37*
G36*
G01X43925Y15554D02*
G01X43880Y15571D01*
G01X43880Y14880D01*
G01X44570Y14880D01*
G01X44553Y14925D01*
G01X44534Y14969D01*
G01X44514Y15012D01*
G01X44491Y15055D01*
G01X44467Y15096D01*
G01X44441Y15137D01*
G01X44413Y15176D01*
G01X44383Y15214D01*
G01X44352Y15251D01*
G01X44320Y15286D01*
G01X44286Y15320D01*
G01X44250Y15353D01*
G01X44214Y15384D01*
G01X44176Y15413D01*
G01X44136Y15441D01*
G01X44096Y15467D01*
G01X44055Y15491D01*
G01X44012Y15514D01*
G01X43969Y15535D01*
G01X43925Y15554D01*
G37*
G36*
G01X5119Y10123D02*
G01X4428Y10123D01*
G01X4445Y10078D01*
G01X4464Y10033D01*
G01X4485Y9990D01*
G01X4508Y9948D01*
G01X4532Y9906D01*
G01X4558Y9866D01*
G01X4586Y9827D01*
G01X4616Y9789D01*
G01X4647Y9752D01*
G01X4679Y9716D01*
G01X4713Y9682D01*
G01X4748Y9650D01*
G01X4785Y9619D01*
G01X4823Y9589D01*
G01X4862Y9562D01*
G01X4903Y9535D01*
G01X4944Y9511D01*
G01X4987Y9489D01*
G01X5030Y9468D01*
G01X5074Y9449D01*
G01X5119Y9432D01*
G01X5119Y10123D01*
G37*

%LPD*%
G54D11*
G01X35647Y33750D02*
G01X37749Y33750D01*
G01X38499Y33000D01*
G01X38499Y22500D01*
G01X39499Y21500D01*
G01X41499Y19500D01*
G01X43496Y19500D01*
G01X43499Y19503D01*
G01X27519Y46450D02*
G01X23749Y46450D01*
G01X22199Y48000D01*
G01X22199Y50967D01*
G01X22229Y50996D01*
G54D12*
G01X32345Y13430D02*
G01X35647Y13430D01*
G01X32345Y15970D02*
G01X35647Y15970D01*
G01X32345Y41370D02*
G01X35647Y41370D01*
G54D13*
G01X10755Y41370D02*
G01X14565Y41370D01*
G01X10755Y43910D02*
G01X14565Y43910D01*
G01X10755Y36290D02*
G01X14565Y36290D01*
G01X10755Y33750D02*
G01X14565Y33750D01*
G01X10755Y13430D02*
G01X14565Y13430D01*
G01X28535Y46450D02*
G01X32345Y46450D01*
G01X32345Y46450D02*
G01X35647Y46450D01*
G01X32345Y36290D02*
G01X35647Y36290D01*
G01X32345Y33750D02*
G01X35647Y33750D01*
G01X32345Y31210D02*
G01X35647Y31210D01*
G01X32345Y28670D02*
G01X35647Y28670D01*
G01X32345Y26130D02*
G01X35647Y26130D01*
G01X32345Y23590D02*
G01X35647Y23590D01*
G54D11*
G01X10755Y15970D02*
G01X14565Y15970D01*
G01X10755Y18510D02*
G01X14565Y18510D01*
G01X10755Y21050D02*
G01X14565Y21050D01*
G01X10755Y23590D02*
G01X14565Y23590D01*
G01X10755Y26130D02*
G01X14565Y26130D01*
G01X10755Y28670D02*
G01X14565Y28670D01*
G01X10755Y31210D02*
G01X14565Y31210D01*
G01X10755Y46450D02*
G01X14565Y46450D01*
G01X28535Y46450D02*
G01X28535Y31626D01*
G01X28500Y31591D01*
G01X28500Y21431D02*
G01X31964Y21431D01*
G01X32345Y21050D01*
G01X28499Y21420D02*
G01X28499Y21430D01*
G01X28500Y21431D01*
G01X42000Y46509D02*
G01X35707Y46509D01*
G01X35647Y46450D01*
G01X35647Y36290D02*
G01X37709Y36290D01*
G01X39499Y34500D01*
G01X39499Y23000D01*
G01X40999Y21500D01*
G01X43489Y21500D01*
G01X43499Y21509D01*
G01X35647Y31210D02*
G01X36789Y31210D01*
G01X37499Y30500D01*
G01X37499Y13000D01*
G01X39999Y10500D01*
G01X43487Y10500D01*
G01X43499Y10511D01*
G01X10755Y36290D02*
G01X8712Y36290D01*
G01X5996Y39005D01*
G01X10755Y33750D02*
G01X9240Y33750D01*
G01X6000Y36990D01*
G01X5500Y16498D02*
G01X10227Y16498D01*
G01X10755Y15970D01*
G01X5500Y14491D02*
G01X8508Y14491D01*
G01X9499Y13500D01*
G01X10685Y13500D01*
G01X10755Y13430D01*
G01X5500Y21499D02*
G01X6001Y21499D01*
G01X9000Y18499D01*
G01X10745Y18499D01*
G01X10755Y18510D01*
G01X5499Y23509D02*
G01X6490Y23509D01*
G01X8999Y21000D01*
G01X10705Y21000D01*
G01X10755Y21050D01*
G01X35647Y13430D02*
G01X35647Y10458D01*
G01X35499Y10310D01*
G01X24206Y30073D02*
G01X24209Y30070D01*
G01X28207Y30070D01*
G01X28499Y21420D02*
G01X24500Y21420D01*
G01X24206Y21713D01*
G01X24206Y30073D01*
G01X35647Y41370D02*
G01X36168Y40849D01*
G01X38499Y40849D01*
G01X35359Y8800D02*
G01X36730Y7430D01*
G01X36730Y3000D01*
G01X32345Y21050D02*
G01X35647Y21050D01*
G01X32345Y18510D02*
G01X35647Y18510D01*
G01X1749Y45460D02*
G01X1749Y43250D01*
G01X2499Y42500D01*
G01X7499Y42500D01*
G01X8999Y41000D01*
G01X8999Y39500D01*
G01X9499Y39000D01*
G01X10585Y39000D01*
G01X10755Y38830D01*
G01X7250Y45460D02*
G01X7250Y42500D01*
G01X10755Y38830D02*
G01X14565Y38830D01*
G01X32345Y38830D02*
G01X35647Y38830D01*
G01X35647Y38830D02*
G01X35968Y39150D01*
G01X38499Y39150D01*
G01X43397Y30493D02*
G01X41506Y30493D01*
G01X40999Y31000D01*
G01X40999Y35000D01*
G01X38499Y37500D01*
G01X38499Y39150D01*
G54D10*
G01X28408Y46450D02*
G01X27646Y46450D01*
G36*
G01X28853Y45815D02*
G01X28218Y45815D01*
G01X28218Y47085D01*
G01X28853Y47085D01*
G01X28853Y45815D01*
G37*
G36*
G01X27837Y45815D02*
G01X27202Y45815D01*
G01X27202Y47085D01*
G01X27837Y47085D01*
G01X27837Y45815D01*
G37*
G36*
G01X37900Y38600D02*
G01X37900Y39700D01*
G01X39099Y39700D01*
G01X39099Y38600D01*
G01X37900Y38600D01*
G37*
G36*
G01X37900Y40299D02*
G01X37900Y41399D01*
G01X39099Y41399D01*
G01X39099Y40299D01*
G01X37900Y40299D01*
G37*
G36*
G01X27607Y29521D02*
G01X27607Y30620D01*
G01X28806Y30620D01*
G01X28806Y29521D01*
G01X27607Y29521D01*
G37*
G36*
G01X27607Y31220D02*
G01X27607Y32320D01*
G01X28806Y32320D01*
G01X28806Y31220D01*
G01X27607Y31220D01*
G37*
G36*
G01X24805Y32322D02*
G01X24805Y31222D01*
G01X23607Y31222D01*
G01X23607Y32322D01*
G01X24805Y32322D01*
G37*
G36*
G01X24805Y30623D02*
G01X24805Y29523D01*
G01X23607Y29523D01*
G01X23607Y30623D01*
G01X24805Y30623D01*
G37*
G36*
G01X35959Y11050D02*
G01X35959Y9950D01*
G01X34760Y9950D01*
G01X34760Y11050D01*
G01X35959Y11050D01*
G37*
G36*
G01X35959Y9350D02*
G01X35959Y8251D01*
G01X34760Y8251D01*
G01X34760Y9350D01*
G01X35959Y9350D01*
G37*
G36*
G01X2999Y51140D02*
G01X2999Y49940D01*
G01X499Y49940D01*
G01X499Y51140D01*
G01X2999Y51140D01*
G37*
G36*
G01X2999Y48600D02*
G01X2999Y47400D01*
G01X499Y47400D01*
G01X499Y48600D01*
G01X2999Y48600D01*
G37*
G36*
G01X2999Y46060D02*
G01X2999Y44860D01*
G01X499Y44860D01*
G01X499Y46060D01*
G01X2999Y46060D01*
G37*
G36*
G01X8500Y51140D02*
G01X8500Y49940D01*
G01X6000Y49940D01*
G01X6000Y51140D01*
G01X8500Y51140D01*
G37*
G36*
G01X8500Y48600D02*
G01X8500Y47400D01*
G01X6000Y47400D01*
G01X6000Y48600D01*
G01X8500Y48600D01*
G37*
G36*
G01X8499Y46060D02*
G01X8499Y44860D01*
G01X5999Y44860D01*
G01X5999Y46060D01*
G01X8499Y46060D01*
G37*
G36*
G01X42853Y18870D02*
G01X42853Y20140D01*
G01X44123Y20140D01*
G01X44123Y18870D01*
G01X42853Y18870D01*
G37*
G54D18*
G01X43499Y21509D03*
G01X43499Y23491D03*
G01X43499Y25497D03*
G36*
G01X6632Y39639D02*
G01X6632Y38369D01*
G01X5362Y38369D01*
G01X5362Y39639D01*
G01X6632Y39639D01*
G37*
G01X6000Y36990D03*
G01X6000Y35009D03*
G01X6000Y33002D03*
G36*
G01X42861Y7867D02*
G01X42861Y9137D01*
G01X44131Y9137D01*
G01X44131Y7867D01*
G01X42861Y7867D01*
G37*
G01X43499Y10511D03*
G01X43499Y12492D03*
G01X43499Y14499D03*
G36*
G01X6130Y17146D02*
G01X6130Y15876D01*
G01X4860Y15876D01*
G01X4860Y17146D01*
G01X6130Y17146D01*
G37*
G01X5500Y14491D03*
G01X5500Y12510D03*
G01X5500Y10504D03*
G36*
G01X36435Y47237D02*
G01X36435Y45662D01*
G01X34860Y45662D01*
G01X34860Y47237D01*
G01X36435Y47237D01*
G37*
G54D20*
G01X35647Y43910D03*
G01X35647Y41370D03*
G01X35647Y38830D03*
G01X35647Y36290D03*
G01X35647Y33750D03*
G01X35647Y31210D03*
G01X35647Y28670D03*
G01X35647Y26130D03*
G01X35647Y23590D03*
G01X35647Y21050D03*
G01X35647Y18510D03*
G01X35647Y15970D03*
G01X35647Y13430D03*
G36*
G01X15353Y47237D02*
G01X15353Y45662D01*
G01X13778Y45662D01*
G01X13778Y47237D01*
G01X15353Y47237D01*
G37*
G01X14565Y43910D03*
G01X14565Y41370D03*
G01X14565Y38830D03*
G01X14565Y36290D03*
G01X14565Y33750D03*
G01X14565Y31210D03*
G01X14565Y28670D03*
G01X14565Y26130D03*
G01X14565Y23590D03*
G01X14565Y21050D03*
G01X14565Y18510D03*
G01X14565Y15970D03*
G01X14565Y13430D03*
G36*
G01X33133Y47237D02*
G01X33133Y45662D01*
G01X31558Y45662D01*
G01X31558Y47237D01*
G01X33133Y47237D01*
G37*
G01X32345Y43910D03*
G01X32345Y41370D03*
G01X32345Y38830D03*
G01X32345Y36290D03*
G01X32345Y33750D03*
G01X32345Y31210D03*
G01X32345Y28670D03*
G01X32345Y26130D03*
G01X32345Y23590D03*
G01X32345Y21050D03*
G01X32345Y18510D03*
G01X32345Y15970D03*
G01X32345Y13430D03*
G36*
G01X11543Y47237D02*
G01X11543Y45662D01*
G01X9968Y45662D01*
G01X9968Y47237D01*
G01X11543Y47237D01*
G37*
G01X10755Y43910D03*
G01X10755Y41370D03*
G01X10755Y38830D03*
G01X10755Y36290D03*
G01X10755Y33750D03*
G01X10755Y31210D03*
G01X10755Y28670D03*
G01X10755Y26130D03*
G01X10755Y23590D03*
G01X10755Y21050D03*
G01X10755Y18510D03*
G01X10755Y15970D03*
G01X10755Y13430D03*
G36*
G01X30674Y51822D02*
G01X30674Y50171D01*
G01X29023Y50171D01*
G01X29023Y51822D01*
G01X30674Y51822D01*
G37*
G54D22*
G01X27309Y50996D03*
G01X24769Y50996D03*
G01X22229Y50996D03*
G01X19689Y50996D03*
G01X17149Y50996D03*
G54D23*
G01X43397Y37504D03*
G01X43397Y33999D03*
G01X43397Y30493D03*
G54D24*
G01X42000Y46509D03*
G01X42000Y48490D03*
G36*
G01X4864Y20867D02*
G01X4864Y22137D01*
G01X6134Y22137D01*
G01X6134Y20867D01*
G01X4864Y20867D01*
G37*
G54D18*
G01X5499Y23509D03*
G01X5499Y25490D03*
G01X5499Y27497D03*
G54D25*
G01X14565Y15970D03*
G01X14565Y13430D03*
G01X32345Y13430D03*
G01X32345Y15970D03*
G01X32345Y18510D03*
G01X32345Y21050D03*
G01X32345Y23590D03*
G01X32345Y26130D03*
G01X32345Y28670D03*
G01X32345Y31210D03*
G01X32345Y33750D03*
G01X32345Y36290D03*
G01X14565Y18510D03*
G01X14565Y21050D03*
G01X14565Y23590D03*
G01X14565Y26130D03*
G01X14565Y28670D03*
G01X14565Y31210D03*
G01X14565Y33750D03*
G01X14565Y36290D03*
G01X14565Y38830D03*
G01X14565Y41370D03*
G01X14565Y43910D03*
G54D26*
G01X14565Y46450D03*
G54D25*
G01X32345Y38830D03*
G01X32345Y41370D03*
G01X32345Y43910D03*
G01X32345Y46450D03*
G54D27*
G01X36730Y3000D03*
G54D28*
G01X39270Y3000D03*
M00*
M02*
