;Layer: Drill PTH
;EasyEDA v6.1.49, Tue, 11 Jun 2019 08:39:05 GMT
;95c1c70a206543ea8c01bf924e9efc33,195b170a8e6c43a181dcefc3e1346bee,10
;Gerber Generator version 0.2
M48
METRIC,LZ,000.000
;Holesize 1 = 0.798 METRIC
T01C0.798
;Holesize 2 = 0.889 METRIC
T02C0.889
;Holesize 3 = 0.910 METRIC
T03C0.910
;Holesize 4 = 1.103 METRIC
T04C1.103
;Holesize 5 = 1.301 METRIC
T05C1.301
%
G05
G90
T01
X+043488Y+019505
X+043499Y+021509
X+043499Y+023491
X+043499Y+025497
X+005997Y+039004
X+006000Y+036990
X+006000Y+035009
X+006000Y+033002
X+043496Y+008502
X+043499Y+010511
X+043499Y+012492
X+043499Y+014499
X+005495Y+016511
X+005500Y+014491
X+005500Y+012510
X+005500Y+010504
X+042000Y+046509
X+042000Y+048490
X+005499Y+021503
X+005499Y+023509
X+005499Y+025490
X+005499Y+027497
T02
X+035647Y+046450
X+035647Y+043910
X+035647Y+041370
X+035647Y+038830
X+035647Y+036290
X+035647Y+033750
X+035647Y+031210
X+035647Y+028670
X+035647Y+026130
X+035647Y+023590
X+035647Y+021050
X+035647Y+018510
X+035647Y+015970
X+035647Y+013430
X+014565Y+046450
X+014565Y+043910
X+014565Y+041370
X+014565Y+038830
X+014565Y+036290
X+014565Y+033750
X+014565Y+031210
X+014565Y+028670
X+014565Y+026130
X+014565Y+023590
X+014565Y+021050
X+014565Y+018510
X+014565Y+015970
X+014565Y+013430
X+032345Y+046450
X+032345Y+043910
X+032345Y+041370
X+032345Y+038830
X+032345Y+036290
X+032345Y+033750
X+032345Y+031210
X+032345Y+028670
X+032345Y+026130
X+032345Y+023590
X+032345Y+021050
X+032345Y+018510
X+032345Y+015970
X+032345Y+013430
X+010755Y+046450
X+010755Y+043910
X+010755Y+041370
X+010755Y+038830
X+010755Y+036290
X+010755Y+033750
X+010755Y+031210
X+010755Y+028670
X+010755Y+026130
X+010755Y+023590
X+010755Y+021050
X+010755Y+018510
X+010755Y+015970
X+010755Y+013430
X+029849Y+050996
X+027309Y+050996
X+024769Y+050996
X+022229Y+050996
X+019689Y+050996
X+017149Y+050996
T03
X+014565Y+015970
X+014565Y+013430
X+032345Y+013430
X+032345Y+015970
X+032345Y+018510
X+032345Y+021050
X+032345Y+023590
X+032345Y+026130
X+032345Y+028670
X+032345Y+031210
X+032345Y+033750
X+032345Y+036290
X+014565Y+018510
X+014565Y+021050
X+014565Y+023590
X+014565Y+026130
X+014565Y+028670
X+014565Y+031210
X+014565Y+033750
X+014565Y+036290
X+014565Y+038830
X+014565Y+041370
X+014565Y+043910
X+014565Y+046450
X+032345Y+038830
X+032345Y+041370
X+032345Y+043910
X+032345Y+046450
T04
X+043397Y+037504
X+043397Y+033999
X+043397Y+030493
T05
X+036730Y+003000
X+039270Y+003000
M30
