G04 Layer: TopSilkLayer*
G04 EasyEDA v6.1.49, Tue, 11 Jun 2019 08:39:05 GMT*
G04 95c1c70a206543ea8c01bf924e9efc33,195b170a8e6c43a181dcefc3e1346bee,10*
G04 Gerber Generator version 0.2*
G04 Scale: 100 percent, Rotated: No, Reflected: No *
G04 Dimensions in millimeters *
G04 leading zeros omitted , absolute positions ,3 integer and 3 decimal *
%FSLAX33Y33*%
%MOMM*%
G90*
G71D02*

%ADD10C,0.254000*%
%ADD29C,0.203200*%
%ADD30C,0.202999*%
%ADD31C,0.228600*%
%ADD32C,0.177800*%
%ADD33C,0.152400*%
%ADD34C,0.100000*%

%LPD*%
G54D10*
G01X42498Y17498D02*
G01X44479Y17498D01*
G01X41990Y27506D02*
G01X44987Y27506D01*
G01X45698Y27506D02*
G01X45698Y25702D01*
G01X46282Y25702D01*
G01X46282Y27506D01*
G01X45698Y27506D01*
G01X41278Y27506D01*
G01X41278Y17498D01*
G01X45698Y17498D01*
G01X45698Y19302D01*
G01X46282Y19302D01*
G01X46282Y17498D01*
G01X45698Y17498D01*
G01X45698Y19302D02*
G01X45698Y25702D01*
G01X6987Y41012D02*
G01X5006Y41012D01*
G01X7495Y31004D02*
G01X4498Y31004D01*
G01X3786Y31004D02*
G01X3786Y32808D01*
G01X3202Y32808D01*
G01X3202Y31004D01*
G01X3786Y31004D01*
G01X8206Y31004D01*
G01X8206Y41012D01*
G01X3786Y41012D01*
G01X3786Y39208D01*
G01X3202Y39208D01*
G01X3202Y41012D01*
G01X3786Y41012D01*
G01X3786Y39208D02*
G01X3786Y32808D01*
G01X42506Y6496D02*
G01X44487Y6496D01*
G01X41998Y16503D02*
G01X44995Y16503D01*
G01X45706Y16503D02*
G01X45706Y14700D01*
G01X46290Y14700D01*
G01X46290Y16503D01*
G01X45706Y16503D01*
G01X41287Y16503D01*
G01X41287Y6496D01*
G01X45706Y6496D01*
G01X45706Y8299D01*
G01X46290Y8299D01*
G01X46290Y6496D01*
G01X45706Y6496D01*
G01X45706Y8299D02*
G01X45706Y14700D01*
G01X6485Y18518D02*
G01X4504Y18518D01*
G01X6993Y8510D02*
G01X3996Y8510D01*
G01X3285Y8510D02*
G01X3285Y10314D01*
G01X2701Y10314D01*
G01X2701Y8510D01*
G01X3285Y8510D01*
G01X7704Y8510D01*
G01X7704Y18518D01*
G01X3285Y18518D01*
G01X3285Y16715D01*
G01X2701Y16715D01*
G01X2701Y18518D01*
G01X3285Y18518D01*
G01X3285Y16715D02*
G01X3285Y10314D01*
G54D29*
G01X36917Y12160D02*
G01X34377Y12160D01*
G01X34377Y47720D01*
G01X36917Y47720D01*
G01X36917Y45815D01*
G54D30*
G01X36917Y12160D02*
G01X36917Y45815D01*
G54D29*
G01X15835Y12160D02*
G01X13295Y12160D01*
G01X13295Y47720D01*
G01X15835Y47720D01*
G01X15835Y45815D01*
G54D30*
G01X15835Y12160D02*
G01X15835Y45815D01*
G54D29*
G01X33615Y12160D02*
G01X31075Y12160D01*
G01X31075Y47720D01*
G01X33615Y47720D01*
G01X33615Y45815D01*
G54D30*
G01X33615Y12160D02*
G01X33615Y45815D01*
G54D29*
G01X12025Y12160D02*
G01X9485Y12160D01*
G01X9485Y47720D01*
G01X12025Y47720D01*
G01X12025Y45815D01*
G54D30*
G01X12025Y12160D02*
G01X12025Y45815D01*
G54D10*
G01X31118Y52267D02*
G01X31118Y49727D01*
G01X15878Y49727D01*
G01X15878Y52267D01*
G01X31118Y52267D01*
G01X27215Y47466D02*
G01X28840Y47466D01*
G01X28840Y45434D02*
G01X27215Y45434D01*
G01X45410Y28491D02*
G01X44953Y28491D01*
G01X41879Y28491D01*
G01X41879Y39515D01*
G01X44953Y39515D01*
G01X45410Y39515D01*
G01X47162Y39515D01*
G01X47162Y28491D01*
G01X45410Y28491D01*
G01X45410Y39515D01*
G01X40584Y28491D02*
G01X40152Y28491D01*
G01X40152Y39515D01*
G01X40584Y39515D01*
G01X40584Y28491D01*
G01X41397Y28491D01*
G01X41397Y39515D01*
G01X41879Y39515D01*
G01X41879Y28491D02*
G01X41397Y28491D01*
G01X44953Y28491D02*
G01X44953Y39515D01*
G01X41397Y39515D02*
G01X40584Y39515D01*
G01X40152Y39515D02*
G01X39847Y39515D01*
G01X39847Y28491D01*
G01X40152Y28491D01*
G01X44114Y36289D02*
G01X44114Y36315D01*
G01X44114Y32809D02*
G01X44114Y32809D01*
G01X44114Y29304D02*
G01X44114Y29304D01*
G01X40298Y44502D02*
G01X40298Y46992D01*
G01X40298Y46992D02*
G01X39790Y46992D01*
G01X39790Y46992D02*
G01X39790Y48008D01*
G01X39790Y48008D02*
G01X40298Y48008D01*
G01X40298Y48008D02*
G01X40298Y50497D01*
G01X40298Y50497D02*
G01X44793Y50497D01*
G01X44793Y50497D02*
G01X44793Y44502D01*
G01X44793Y44502D02*
G01X40298Y44502D01*
G01X4509Y19496D02*
G01X6490Y19496D01*
G01X4001Y29503D02*
G01X6998Y29503D01*
G01X7709Y29503D02*
G01X7709Y27700D01*
G01X8293Y27700D01*
G01X8293Y29503D01*
G01X7709Y29503D01*
G01X3290Y29503D01*
G01X3290Y19496D01*
G01X7709Y19496D01*
G01X7709Y21299D01*
G01X8293Y21299D01*
G01X8293Y19496D01*
G01X7709Y19496D01*
G01X7709Y21299D02*
G01X7709Y27700D01*
G01X23455Y55340D02*
G01X23455Y50260D01*
G01X28535Y50260D01*
G01X28535Y55340D01*
G01X23455Y55340D01*
G01X13295Y54070D02*
G01X13295Y2000D01*
G01X14565Y730D02*
G01X32345Y730D01*
G01X33615Y2000D02*
G01X33615Y54070D01*
G01X32345Y55340D02*
G01X14565Y55340D01*
G54D31*
G01X37600Y38300D02*
G01X37600Y41700D01*
G01X39399Y41700D01*
G01X39399Y38300D01*
G01X37600Y38300D01*
G01X27307Y29220D02*
G01X27307Y32620D01*
G01X29107Y32620D01*
G01X29107Y29220D01*
G01X27307Y29220D01*
G01X25106Y32622D02*
G01X25106Y29222D01*
G01X23306Y29222D01*
G01X23306Y32622D01*
G01X25106Y32622D01*
G54D29*
G01X40540Y4270D02*
G01X40540Y1730D01*
G01X35460Y1730D01*
G01X35460Y4270D01*
G01X37365Y4270D01*
G54D30*
G01X40540Y4270D02*
G01X37365Y4270D01*
G54D31*
G01X36259Y11350D02*
G01X36259Y7950D01*
G01X34459Y7950D01*
G01X34459Y11350D01*
G01X36259Y11350D01*
G54D10*
G01X5399Y47700D02*
G01X5399Y46200D01*
G01X3599Y46200D01*
G01X3599Y47700D01*
G01X5399Y47700D01*
G01X5515Y48762D02*
G01X3483Y48762D01*
G01X5515Y50540D02*
G01X5515Y45460D01*
G01X3483Y45460D01*
G01X3483Y50540D01*
G01X5515Y50540D01*
G01X2699Y43500D02*
G01X2699Y52500D01*
G01X2699Y52500D02*
G01X6299Y52500D01*
G01X6300Y43500D02*
G01X2699Y43500D01*
G01X6300Y52500D02*
G01X6299Y43500D01*
G54D32*
G01X39499Y24930D02*
G01X40330Y24930D01*
G01X40485Y24877D01*
G01X40538Y24826D01*
G01X40589Y24722D01*
G01X40589Y24618D01*
G01X40538Y24514D01*
G01X40485Y24460D01*
G01X40330Y24410D01*
G01X40226Y24410D01*
G01X39499Y25532D02*
G01X39550Y25375D01*
G01X39654Y25324D01*
G01X39758Y25324D01*
G01X39863Y25375D01*
G01X39913Y25479D01*
G01X39967Y25687D01*
G01X40018Y25845D01*
G01X40122Y25946D01*
G01X40226Y26000D01*
G01X40381Y26000D01*
G01X40485Y25946D01*
G01X40538Y25895D01*
G01X40589Y25740D01*
G01X40589Y25532D01*
G01X40538Y25375D01*
G01X40485Y25324D01*
G01X40381Y25273D01*
G01X40226Y25273D01*
G01X40122Y25324D01*
G01X40018Y25428D01*
G01X39967Y25583D01*
G01X39913Y25791D01*
G01X39863Y25895D01*
G01X39758Y25946D01*
G01X39654Y25946D01*
G01X39550Y25895D01*
G01X39499Y25740D01*
G01X39499Y25532D01*
G01X999Y30879D02*
G01X1830Y30879D01*
G01X1985Y30826D01*
G01X2038Y30775D01*
G01X2089Y30671D01*
G01X2089Y30567D01*
G01X2038Y30463D01*
G01X1985Y30410D01*
G01X1830Y30359D01*
G01X1726Y30359D01*
G01X999Y31741D02*
G01X1726Y31222D01*
G01X1726Y32000D01*
G01X999Y31741D02*
G01X2089Y31741D01*
G01X39499Y13430D02*
G01X40330Y13430D01*
G01X40485Y13377D01*
G01X40538Y13326D01*
G01X40589Y13222D01*
G01X40589Y13118D01*
G01X40538Y13014D01*
G01X40485Y12960D01*
G01X40330Y12910D01*
G01X40226Y12910D01*
G01X39499Y14396D02*
G01X39499Y13875D01*
G01X39967Y13824D01*
G01X39913Y13875D01*
G01X39863Y14032D01*
G01X39863Y14187D01*
G01X39913Y14345D01*
G01X40018Y14446D01*
G01X40173Y14500D01*
G01X40277Y14500D01*
G01X40434Y14446D01*
G01X40538Y14345D01*
G01X40589Y14187D01*
G01X40589Y14032D01*
G01X40538Y13875D01*
G01X40485Y13824D01*
G01X40381Y13773D01*
G01X8000Y9984D02*
G01X8830Y9984D01*
G01X8985Y9930D01*
G01X9038Y9879D01*
G01X9089Y9775D01*
G01X9089Y9671D01*
G01X9038Y9567D01*
G01X8985Y9514D01*
G01X8830Y9463D01*
G01X8726Y9463D01*
G01X8363Y11000D02*
G01X8518Y10949D01*
G01X8622Y10845D01*
G01X8673Y10690D01*
G01X8673Y10637D01*
G01X8622Y10481D01*
G01X8518Y10377D01*
G01X8363Y10327D01*
G01X8309Y10327D01*
G01X8154Y10377D01*
G01X8050Y10481D01*
G01X8000Y10637D01*
G01X8000Y10690D01*
G01X8050Y10845D01*
G01X8154Y10949D01*
G01X8363Y11000D01*
G01X8622Y11000D01*
G01X8881Y10949D01*
G01X9038Y10845D01*
G01X9089Y10690D01*
G01X9089Y10586D01*
G01X9038Y10428D01*
G01X8934Y10377D01*
G01X34999Y49500D02*
G01X34999Y48410D01*
G01X34999Y49500D02*
G01X35467Y49500D01*
G01X35622Y49449D01*
G01X35675Y49398D01*
G01X35726Y49294D01*
G01X35726Y49136D01*
G01X35675Y49032D01*
G01X35622Y48981D01*
G01X35467Y48928D01*
G01X34999Y48928D01*
G01X36069Y49294D02*
G01X36173Y49345D01*
G01X36330Y49500D01*
G01X36330Y48410D01*
G01X14000Y49500D02*
G01X14000Y48410D01*
G01X14000Y49500D02*
G01X14467Y49500D01*
G01X14622Y49449D01*
G01X14675Y49398D01*
G01X14726Y49294D01*
G01X14726Y49136D01*
G01X14675Y49032D01*
G01X14622Y48981D01*
G01X14467Y48928D01*
G01X14000Y48928D01*
G01X15122Y49241D02*
G01X15122Y49294D01*
G01X15173Y49398D01*
G01X15226Y49449D01*
G01X15331Y49500D01*
G01X15536Y49500D01*
G01X15640Y49449D01*
G01X15694Y49398D01*
G01X15745Y49294D01*
G01X15745Y49190D01*
G01X15694Y49086D01*
G01X15590Y48928D01*
G01X15069Y48410D01*
G01X15798Y48410D01*
G01X31499Y49500D02*
G01X31499Y48410D01*
G01X31499Y49500D02*
G01X31967Y49500D01*
G01X32122Y49449D01*
G01X32175Y49398D01*
G01X32226Y49294D01*
G01X32226Y49136D01*
G01X32175Y49032D01*
G01X32122Y48981D01*
G01X31967Y48928D01*
G01X31499Y48928D01*
G01X32673Y49500D02*
G01X33244Y49500D01*
G01X32935Y49086D01*
G01X33090Y49086D01*
G01X33194Y49032D01*
G01X33244Y48981D01*
G01X33298Y48827D01*
G01X33298Y48722D01*
G01X33244Y48565D01*
G01X33140Y48461D01*
G01X32985Y48410D01*
G01X32830Y48410D01*
G01X32673Y48461D01*
G01X32622Y48514D01*
G01X32569Y48618D01*
G01X9999Y49500D02*
G01X9999Y48410D01*
G01X9999Y49500D02*
G01X10467Y49500D01*
G01X10622Y49449D01*
G01X10675Y49398D01*
G01X10726Y49294D01*
G01X10726Y49136D01*
G01X10675Y49032D01*
G01X10622Y48981D01*
G01X10467Y48928D01*
G01X9999Y48928D01*
G01X11590Y49500D02*
G01X11069Y48773D01*
G01X11849Y48773D01*
G01X11590Y49500D02*
G01X11590Y48410D01*
G01X31766Y51516D02*
G01X32596Y51516D01*
G01X32751Y51462D01*
G01X32804Y51412D01*
G01X32855Y51307D01*
G01X32855Y51203D01*
G01X32804Y51099D01*
G01X32751Y51046D01*
G01X32596Y50995D01*
G01X32492Y50995D01*
G01X31766Y52585D02*
G01X32855Y52064D01*
G01X31766Y51859D02*
G01X31766Y52585D01*
G01X28754Y44631D02*
G01X28650Y44735D01*
G01X28495Y44786D01*
G01X28287Y44786D01*
G01X28132Y44735D01*
G01X28027Y44631D01*
G01X28027Y44527D01*
G01X28078Y44423D01*
G01X28132Y44372D01*
G01X28236Y44319D01*
G01X28548Y44214D01*
G01X28650Y44164D01*
G01X28703Y44113D01*
G01X28754Y44009D01*
G01X28754Y43851D01*
G01X28650Y43747D01*
G01X28495Y43696D01*
G01X28287Y43696D01*
G01X28132Y43747D01*
G01X28027Y43851D01*
G01X29618Y44786D02*
G01X29618Y43955D01*
G01X29564Y43800D01*
G01X29513Y43747D01*
G01X29409Y43696D01*
G01X29305Y43696D01*
G01X29201Y43747D01*
G01X29150Y43800D01*
G01X29097Y43955D01*
G01X29097Y44059D01*
G01X29960Y44580D02*
G01X30065Y44631D01*
G01X30220Y44786D01*
G01X30220Y43696D01*
G01X38499Y27984D02*
G01X39330Y27984D01*
G01X39485Y27930D01*
G01X39538Y27880D01*
G01X39589Y27775D01*
G01X39589Y27671D01*
G01X39538Y27567D01*
G01X39485Y27514D01*
G01X39330Y27463D01*
G01X39226Y27463D01*
G01X38654Y28949D02*
G01X38550Y28898D01*
G01X38499Y28741D01*
G01X38499Y28636D01*
G01X38550Y28481D01*
G01X38705Y28377D01*
G01X38967Y28327D01*
G01X39226Y28327D01*
G01X39434Y28377D01*
G01X39538Y28481D01*
G01X39589Y28636D01*
G01X39589Y28690D01*
G01X39538Y28845D01*
G01X39434Y28949D01*
G01X39277Y29000D01*
G01X39226Y29000D01*
G01X39071Y28949D01*
G01X38967Y28845D01*
G01X38913Y28690D01*
G01X38913Y28636D01*
G01X38967Y28481D01*
G01X39071Y28377D01*
G01X39226Y28327D01*
G54D33*
G01X45991Y37966D02*
G01X46027Y37897D01*
G01X46131Y37793D01*
G01X45402Y37793D01*
G01X45956Y34425D02*
G01X45991Y34425D01*
G01X46060Y34392D01*
G01X46096Y34356D01*
G01X46131Y34288D01*
G01X46131Y34148D01*
G01X46096Y34079D01*
G01X46060Y34044D01*
G01X45991Y34011D01*
G01X45923Y34011D01*
G01X45854Y34044D01*
G01X45750Y34115D01*
G01X45402Y34460D01*
G01X45402Y33975D01*
G01X46131Y30912D02*
G01X46131Y30531D01*
G01X45854Y30739D01*
G01X45854Y30635D01*
G01X45819Y30564D01*
G01X45783Y30531D01*
G01X45679Y30495D01*
G01X45610Y30495D01*
G01X45506Y30531D01*
G01X45438Y30600D01*
G01X45402Y30704D01*
G01X45402Y30808D01*
G01X45438Y30912D01*
G01X45473Y30945D01*
G01X45542Y30981D01*
G01X44893Y46992D02*
G01X45670Y46992D01*
G01X45827Y47042D01*
G01X45931Y47147D01*
G01X45982Y47304D01*
G01X45982Y47408D01*
G01X45931Y47563D01*
G01X45827Y47667D01*
G01X45670Y47718D01*
G01X44893Y47718D01*
G01X44893Y48686D02*
G01X44893Y48165D01*
G01X45360Y48114D01*
G01X45307Y48165D01*
G01X45256Y48323D01*
G01X45256Y48478D01*
G01X45307Y48632D01*
G01X45411Y48737D01*
G01X45566Y48790D01*
G01X45670Y48790D01*
G01X45827Y48737D01*
G01X45931Y48632D01*
G01X45982Y48478D01*
G01X45982Y48323D01*
G01X45931Y48165D01*
G01X45878Y48114D01*
G01X45774Y48061D01*
G01X43124Y43687D02*
G01X42500Y43687D01*
G01X42812Y44000D02*
G01X42812Y43377D01*
G01X42761Y50802D02*
G01X42761Y50179D01*
G01X8000Y24898D02*
G01X8830Y24898D01*
G01X8985Y24844D01*
G01X9038Y24794D01*
G01X9089Y24689D01*
G01X9089Y24585D01*
G01X9038Y24481D01*
G01X8985Y24428D01*
G01X8830Y24377D01*
G01X8726Y24377D01*
G01X8205Y25241D02*
G01X8154Y25342D01*
G01X8000Y25500D01*
G01X9089Y25500D01*
G54D32*
G01X33999Y54500D02*
G01X33999Y53722D01*
G01X34050Y53565D01*
G01X34154Y53461D01*
G01X34312Y53410D01*
G01X34416Y53410D01*
G01X34571Y53461D01*
G01X34675Y53565D01*
G01X34726Y53722D01*
G01X34726Y54500D01*
G01X35069Y54294D02*
G01X35173Y54345D01*
G01X35330Y54500D01*
G01X35330Y53410D01*
G54D29*
G01X18538Y37560D02*
G01X20476Y37560D01*
G01X20476Y37560D02*
G01X20476Y38667D01*
G01X19183Y39739D02*
G01X19277Y39554D01*
G01X19460Y39371D01*
G01X19737Y39277D01*
G01X19922Y39277D01*
G01X20199Y39371D01*
G01X20385Y39554D01*
G01X20476Y39739D01*
G01X20476Y40016D01*
G01X20385Y40201D01*
G01X20199Y40387D01*
G01X19922Y40478D01*
G01X19737Y40478D01*
G01X19460Y40387D01*
G01X19277Y40201D01*
G01X19183Y40016D01*
G01X19183Y39739D01*
G01X18538Y41088D02*
G01X20476Y41088D01*
G01X18538Y41088D02*
G01X18538Y41918D01*
G01X18629Y42195D01*
G01X18721Y42289D01*
G01X18906Y42381D01*
G01X19183Y42381D01*
G01X19369Y42289D01*
G01X19460Y42195D01*
G01X19554Y41918D01*
G01X19554Y41088D01*
G01X19183Y43084D02*
G01X20476Y43638D01*
G01X19183Y44192D02*
G01X20476Y43638D01*
G01X20847Y43452D01*
G01X21030Y43267D01*
G01X21124Y43084D01*
G01X21124Y42990D01*
G54D33*
G01X38000Y42150D02*
G01X39092Y42150D01*
G01X38000Y42150D02*
G01X38000Y42618D01*
G01X38053Y42773D01*
G01X38104Y42826D01*
G01X38208Y42877D01*
G01X38312Y42877D01*
G01X38416Y42826D01*
G01X38467Y42773D01*
G01X38520Y42618D01*
G01X38520Y42150D01*
G01X38520Y42514D02*
G01X39092Y42877D01*
G01X38000Y43741D02*
G01X38729Y43220D01*
G01X38729Y44000D01*
G01X38000Y43741D02*
G01X39092Y43741D01*
G01X40668Y41680D02*
G01X40223Y42000D01*
G01X40223Y41522D01*
G01X40668Y41680D02*
G01X40000Y41680D01*
G01X40668Y41311D02*
G01X40000Y41311D01*
G01X40447Y40994D02*
G01X40127Y41311D01*
G01X40256Y41184D02*
G01X40000Y40961D01*
G01X40668Y40305D02*
G01X40000Y40623D01*
G01X40668Y40750D02*
G01X40668Y40305D01*
G01X25999Y29201D02*
G01X27092Y29201D01*
G01X25999Y29201D02*
G01X25999Y29669D01*
G01X26053Y29824D01*
G01X26104Y29877D01*
G01X26208Y29928D01*
G01X26312Y29928D01*
G01X26416Y29877D01*
G01X26467Y29824D01*
G01X26520Y29669D01*
G01X26520Y29201D01*
G01X26520Y29565D02*
G01X27092Y29928D01*
G01X25999Y30895D02*
G01X25999Y30375D01*
G01X26467Y30324D01*
G01X26416Y30375D01*
G01X26363Y30532D01*
G01X26363Y30687D01*
G01X26416Y30842D01*
G01X26520Y30946D01*
G01X26675Y31000D01*
G01X26779Y31000D01*
G01X26934Y30946D01*
G01X27038Y30842D01*
G01X27092Y30687D01*
G01X27092Y30532D01*
G01X27038Y30375D01*
G01X26988Y30324D01*
G01X26883Y30271D01*
G01X26126Y31257D02*
G01X26096Y31321D01*
G01X25999Y31417D01*
G01X26668Y31417D01*
G01X26126Y31625D02*
G01X26096Y31689D01*
G01X25999Y31786D01*
G01X26668Y31786D01*
G01X25999Y32377D02*
G01X25999Y32060D01*
G01X26287Y32027D01*
G01X26253Y32060D01*
G01X26223Y32154D01*
G01X26223Y32250D01*
G01X26253Y32344D01*
G01X26320Y32408D01*
G01X26414Y32441D01*
G01X26477Y32441D01*
G01X26574Y32408D01*
G01X26637Y32344D01*
G01X26668Y32250D01*
G01X26668Y32154D01*
G01X26637Y32060D01*
G01X26604Y32027D01*
G01X26541Y31996D01*
G01X25999Y32652D02*
G01X26668Y32652D01*
G01X26223Y32969D02*
G01X26541Y32652D01*
G01X26414Y32779D02*
G01X26668Y33000D01*
G01X21499Y29255D02*
G01X22592Y29255D01*
G01X21499Y29255D02*
G01X21499Y29722D01*
G01X21553Y29877D01*
G01X21604Y29930D01*
G01X21708Y29981D01*
G01X21812Y29981D01*
G01X21916Y29930D01*
G01X21967Y29877D01*
G01X22020Y29722D01*
G01X22020Y29255D01*
G01X22020Y29618D02*
G01X22592Y29981D01*
G01X21657Y30949D02*
G01X21553Y30895D01*
G01X21499Y30741D01*
G01X21499Y30636D01*
G01X21553Y30481D01*
G01X21708Y30377D01*
G01X21967Y30324D01*
G01X22228Y30324D01*
G01X22434Y30377D01*
G01X22538Y30481D01*
G01X22592Y30636D01*
G01X22592Y30690D01*
G01X22538Y30845D01*
G01X22434Y30949D01*
G01X22279Y31000D01*
G01X22228Y31000D01*
G01X22071Y30949D01*
G01X21967Y30845D01*
G01X21916Y30690D01*
G01X21916Y30636D01*
G01X21967Y30481D01*
G01X22071Y30377D01*
G01X22228Y30324D01*
G01X21999Y31752D02*
G01X21999Y31432D01*
G01X22287Y31402D01*
G01X22253Y31432D01*
G01X22223Y31529D01*
G01X22223Y31623D01*
G01X22253Y31719D01*
G01X22320Y31783D01*
G01X22414Y31816D01*
G01X22477Y31816D01*
G01X22574Y31783D01*
G01X22637Y31719D01*
G01X22668Y31623D01*
G01X22668Y31529D01*
G01X22637Y31432D01*
G01X22604Y31402D01*
G01X22541Y31369D01*
G01X22096Y32408D02*
G01X22033Y32375D01*
G01X21999Y32278D01*
G01X21999Y32215D01*
G01X22033Y32121D01*
G01X22126Y32057D01*
G01X22287Y32024D01*
G01X22447Y32024D01*
G01X22574Y32057D01*
G01X22637Y32121D01*
G01X22668Y32215D01*
G01X22668Y32248D01*
G01X22637Y32344D01*
G01X22574Y32408D01*
G01X22477Y32438D01*
G01X22447Y32438D01*
G01X22350Y32408D01*
G01X22287Y32344D01*
G01X22253Y32248D01*
G01X22253Y32215D01*
G01X22287Y32121D01*
G01X22350Y32057D01*
G01X22447Y32024D01*
G01X21999Y32649D02*
G01X22668Y32649D01*
G01X22223Y32967D02*
G01X22541Y32649D01*
G01X22414Y32776D02*
G01X22668Y33000D01*
G01X34116Y2873D02*
G01X35206Y2873D01*
G01X34116Y3599D02*
G01X35206Y3599D01*
G01X34634Y2873D02*
G01X34634Y3599D01*
G01X34322Y3942D02*
G01X34271Y4046D01*
G01X34116Y4204D01*
G01X35206Y4204D01*
G01X38592Y10000D02*
G01X37500Y10000D01*
G01X38592Y10000D02*
G01X38592Y9532D01*
G01X38538Y9377D01*
G01X38488Y9324D01*
G01X38383Y9273D01*
G01X38279Y9273D01*
G01X38175Y9324D01*
G01X38124Y9377D01*
G01X38071Y9532D01*
G01X38071Y10000D01*
G01X38071Y9636D02*
G01X37500Y9273D01*
G01X38383Y8930D02*
G01X38434Y8826D01*
G01X38592Y8669D01*
G01X37500Y8669D01*
G01X37167Y10182D02*
G01X36720Y10500D01*
G01X36720Y10022D01*
G01X37167Y10182D02*
G01X36499Y10182D01*
G01X37167Y9814D02*
G01X36499Y9814D01*
G01X36944Y9494D02*
G01X36626Y9814D01*
G01X36753Y9687D02*
G01X36499Y9463D01*
G01X37167Y8808D02*
G01X36499Y9126D01*
G01X37167Y9253D02*
G01X37167Y8808D01*
G01X7726Y52345D02*
G01X7622Y52449D01*
G01X7467Y52500D01*
G01X7259Y52500D01*
G01X7104Y52449D01*
G01X6999Y52345D01*
G01X6999Y52241D01*
G01X7050Y52136D01*
G01X7104Y52086D01*
G01X7208Y52032D01*
G01X7520Y51928D01*
G01X7622Y51877D01*
G01X7675Y51824D01*
G01X7726Y51720D01*
G01X7726Y51565D01*
G01X7622Y51461D01*
G01X7467Y51410D01*
G01X7259Y51410D01*
G01X7104Y51461D01*
G01X6999Y51565D01*
G01X8069Y52500D02*
G01X8330Y51410D01*
G01X8590Y52500D02*
G01X8330Y51410D01*
G01X8590Y52500D02*
G01X8849Y51410D01*
G01X9108Y52500D02*
G01X8849Y51410D01*
G01X9451Y52291D02*
G01X9555Y52345D01*
G01X9712Y52500D01*
G01X9712Y51410D01*
G54D34*
G01X4571Y44728D02*
G01X4617Y44771D01*
G01X4639Y44817D01*
G01X4639Y44885D01*
G01X4617Y44931D01*
G01X4571Y44977D01*
G01X4502Y45000D01*
G01X4459Y45000D01*
G01X4391Y44977D01*
G01X4345Y44931D01*
G01X4322Y44885D01*
G01X4322Y44817D01*
G01X4345Y44771D01*
G01X4391Y44728D01*
G01X4594Y44123D02*
G01X4617Y44123D01*
G01X4639Y44144D01*
G01X4639Y44167D01*
G01X4617Y44189D01*
G01X4571Y44212D01*
G01X4459Y44258D01*
G01X4391Y44304D01*
G01X4345Y44349D01*
G01X4322Y44395D01*
G01X4322Y44487D01*
G01X4345Y44532D01*
G01X4368Y44555D01*
G01X4413Y44575D01*
G01X4459Y44575D01*
G01X4502Y44555D01*
G01X4525Y44532D01*
G01X4617Y44372D01*
G01X4639Y44349D01*
G01X4685Y44327D01*
G01X4731Y44327D01*
G01X4777Y44349D01*
G01X4800Y44395D01*
G01X4777Y44441D01*
G01X4731Y44464D01*
G01X4685Y44464D01*
G01X4617Y44441D01*
G01X4548Y44395D01*
G01X4391Y44281D01*
G01X4345Y44235D01*
G01X4322Y44189D01*
G01X4322Y44144D01*
G01X4345Y44123D01*
G01X4368Y44123D01*
G01X4800Y43971D02*
G01X4322Y43971D01*
G01X4639Y43745D02*
G01X4413Y43971D01*
G01X4502Y43882D02*
G01X4322Y43722D01*
G54D29*
G01X21000Y12000D02*
G01X21000Y11045D01*
G01X21000Y12000D02*
G01X21591Y12000D01*
G01X21000Y11545D02*
G01X21363Y11545D01*
G01X21000Y11045D02*
G01X21591Y11045D01*
G01X22209Y12000D02*
G01X22209Y11045D01*
G01X21891Y12000D02*
G01X22526Y12000D01*
G01X22826Y12000D02*
G01X23054Y11045D01*
G01X23280Y12000D02*
G01X23054Y11045D01*
G01X23280Y12000D02*
G01X23509Y11045D01*
G01X23735Y12000D02*
G01X23509Y11045D01*
G01X24581Y11682D02*
G01X24581Y11045D01*
G01X24581Y11545D02*
G01X24489Y11636D01*
G01X24401Y11682D01*
G01X24263Y11682D01*
G01X24172Y11636D01*
G01X24081Y11545D01*
G01X24035Y11408D01*
G01X24035Y11316D01*
G01X24081Y11182D01*
G01X24172Y11090D01*
G01X24263Y11045D01*
G01X24401Y11045D01*
G01X24489Y11090D01*
G01X24581Y11182D01*
G01X25018Y12000D02*
G01X25018Y11227D01*
G01X25064Y11090D01*
G01X25155Y11045D01*
G01X25244Y11045D01*
G01X24881Y11682D02*
G01X25198Y11682D01*
G01X26090Y11545D02*
G01X25998Y11636D01*
G01X25909Y11682D01*
G01X25772Y11682D01*
G01X25681Y11636D01*
G01X25589Y11545D01*
G01X25544Y11408D01*
G01X25544Y11316D01*
G01X25589Y11182D01*
G01X25681Y11090D01*
G01X25772Y11045D01*
G01X25909Y11045D01*
G01X25998Y11090D01*
G01X26090Y11182D01*
G01X26389Y12000D02*
G01X26389Y11045D01*
G01X26389Y11499D02*
G01X26527Y11636D01*
G01X26618Y11682D01*
G01X26753Y11682D01*
G01X26844Y11636D01*
G01X26890Y11499D01*
G01X26890Y11045D01*
G01X21000Y9983D02*
G01X21000Y9028D01*
G01X21000Y9983D02*
G01X21408Y9983D01*
G01X21546Y9937D01*
G01X21591Y9891D01*
G01X21635Y9803D01*
G01X21635Y9711D01*
G01X21591Y9620D01*
G01X21546Y9574D01*
G01X21408Y9528D01*
G01X21000Y9528D02*
G01X21408Y9528D01*
G01X21546Y9483D01*
G01X21591Y9437D01*
G01X21635Y9348D01*
G01X21635Y9211D01*
G01X21591Y9119D01*
G01X21546Y9074D01*
G01X21408Y9028D01*
G01X21000Y9028D01*
G01X22163Y9665D02*
G01X22071Y9620D01*
G01X21980Y9528D01*
G01X21937Y9391D01*
G01X21937Y9302D01*
G01X21980Y9165D01*
G01X22071Y9074D01*
G01X22163Y9028D01*
G01X22300Y9028D01*
G01X22391Y9074D01*
G01X22480Y9165D01*
G01X22526Y9302D01*
G01X22526Y9391D01*
G01X22480Y9528D01*
G01X22391Y9620D01*
G01X22300Y9665D01*
G01X22163Y9665D01*
G01X23372Y9665D02*
G01X23372Y9028D01*
G01X23372Y9528D02*
G01X23280Y9620D01*
G01X23189Y9665D01*
G01X23054Y9665D01*
G01X22963Y9620D01*
G01X22871Y9528D01*
G01X22826Y9391D01*
G01X22826Y9302D01*
G01X22871Y9165D01*
G01X22963Y9074D01*
G01X23054Y9028D01*
G01X23189Y9028D01*
G01X23280Y9074D01*
G01X23372Y9165D01*
G01X23672Y9665D02*
G01X23672Y9028D01*
G01X23672Y9391D02*
G01X23717Y9528D01*
G01X23809Y9620D01*
G01X23900Y9665D01*
G01X24035Y9665D01*
G01X24881Y9983D02*
G01X24881Y9028D01*
G01X24881Y9528D02*
G01X24789Y9620D01*
G01X24700Y9665D01*
G01X24563Y9665D01*
G01X24472Y9620D01*
G01X24380Y9528D01*
G01X24335Y9391D01*
G01X24335Y9302D01*
G01X24380Y9165D01*
G01X24472Y9074D01*
G01X24563Y9028D01*
G01X24700Y9028D01*
G01X24789Y9074D01*
G01X24881Y9165D01*
G01X25881Y9665D02*
G01X26153Y9028D01*
G01X26427Y9665D02*
G01X26153Y9028D01*
G01X26727Y9803D02*
G01X26819Y9846D01*
G01X26953Y9983D01*
G01X26953Y9028D01*
G01X27299Y9256D02*
G01X27253Y9211D01*
G01X27299Y9165D01*
G01X27344Y9211D01*
G01X27299Y9256D01*
G01X27690Y9757D02*
G01X27690Y9803D01*
G01X27736Y9891D01*
G01X27781Y9937D01*
G01X27873Y9983D01*
G01X28053Y9983D01*
G01X28145Y9937D01*
G01X28190Y9891D01*
G01X28236Y9803D01*
G01X28236Y9711D01*
G01X28190Y9620D01*
G01X28099Y9483D01*
G01X27644Y9028D01*
G01X28282Y9028D01*
G01X47570Y31062D02*
G01X47639Y30922D01*
G01X47779Y30785D01*
G01X47916Y30714D01*
G01X48124Y30645D01*
G01X48470Y30645D01*
G01X48678Y30714D01*
G01X48818Y30785D01*
G01X48955Y30922D01*
G01X49023Y31062D01*
G01X49023Y31339D01*
G01X48955Y31476D01*
G01X48818Y31616D01*
G01X48678Y31684D01*
G01X48470Y31753D01*
G01X48124Y31753D01*
G01X47916Y31684D01*
G01X47779Y31616D01*
G01X47639Y31476D01*
G01X47570Y31339D01*
G01X47570Y31062D01*
G01X48056Y32210D02*
G01X49023Y32210D01*
G01X48332Y32210D02*
G01X48124Y32418D01*
G01X48056Y32558D01*
G01X48056Y32766D01*
G01X48124Y32904D01*
G01X48332Y32972D01*
G01X49023Y32972D01*
G01X48470Y33429D02*
G01X48470Y34262D01*
G01X48332Y34262D01*
G01X48193Y34191D01*
G01X48124Y34123D01*
G01X48056Y33986D01*
G01X48056Y33777D01*
G01X48124Y33638D01*
G01X48261Y33500D01*
G01X48470Y33429D01*
G01X48609Y33429D01*
G01X48818Y33500D01*
G01X48955Y33638D01*
G01X49023Y33777D01*
G01X49023Y33986D01*
G01X48955Y34123D01*
G01X48818Y34262D01*
G01X47570Y34720D02*
G01X49023Y35065D01*
G01X47570Y35411D02*
G01X49023Y35065D01*
G01X47570Y35411D02*
G01X49023Y35759D01*
G01X47570Y36104D02*
G01X49023Y35759D01*
G01X47570Y36561D02*
G01X47639Y36630D01*
G01X47570Y36701D01*
G01X47499Y36630D01*
G01X47570Y36561D01*
G01X48056Y36630D02*
G01X49023Y36630D01*
G01X48056Y37158D02*
G01X49023Y37158D01*
G01X48470Y37158D02*
G01X48261Y37227D01*
G01X48124Y37364D01*
G01X48056Y37503D01*
G01X48056Y37712D01*
G01X48470Y38169D02*
G01X48470Y39000D01*
G01X48332Y39000D01*
G01X48193Y38931D01*
G01X48124Y38862D01*
G01X48056Y38723D01*
G01X48056Y38514D01*
G01X48124Y38377D01*
G01X48261Y38238D01*
G01X48470Y38169D01*
G01X48609Y38169D01*
G01X48818Y38238D01*
G01X48955Y38377D01*
G01X49023Y38514D01*
G01X49023Y38723D01*
G01X48955Y38862D01*
G01X48818Y39000D01*
G01X11193Y51268D02*
G01X11147Y51362D01*
G01X11053Y51454D01*
G01X10962Y51500D01*
G01X10776Y51500D01*
G01X10685Y51454D01*
G01X10591Y51362D01*
G01X10545Y51268D01*
G01X10499Y51131D01*
G01X10499Y50900D01*
G01X10545Y50760D01*
G01X10591Y50669D01*
G01X10685Y50578D01*
G01X10776Y50529D01*
G01X10962Y50529D01*
G01X11053Y50578D01*
G01X11147Y50669D01*
G01X11193Y50760D01*
G01X11193Y50900D01*
G01X10962Y50900D02*
G01X11193Y50900D01*
G01X11498Y51500D02*
G01X11498Y50529D01*
G01X11498Y51500D02*
G01X12143Y50529D01*
G01X12143Y51500D02*
G01X12143Y50529D01*
G01X12448Y51500D02*
G01X12448Y50529D01*
G01X12448Y51500D02*
G01X12773Y51500D01*
G01X12910Y51454D01*
G01X13001Y51362D01*
G01X13050Y51268D01*
G01X13095Y51131D01*
G01X13095Y50900D01*
G01X13050Y50760D01*
G01X13001Y50669D01*
G01X12910Y50578D01*
G01X12773Y50529D01*
G01X12448Y50529D01*
G01X1739Y10306D02*
G01X1833Y10352D01*
G01X1924Y10446D01*
G01X1970Y10537D01*
G01X1970Y10723D01*
G01X1924Y10814D01*
G01X1833Y10908D01*
G01X1739Y10954D01*
G01X1601Y11000D01*
G01X1370Y11000D01*
G01X1231Y10954D01*
G01X1139Y10908D01*
G01X1048Y10814D01*
G01X999Y10723D01*
G01X999Y10537D01*
G01X1048Y10446D01*
G01X1139Y10352D01*
G01X1231Y10306D01*
G01X1370Y10306D01*
G01X1370Y10537D02*
G01X1370Y10306D01*
G01X1970Y10001D02*
G01X999Y10001D01*
G01X1970Y10001D02*
G01X999Y9356D01*
G01X1970Y9356D02*
G01X999Y9356D01*
G01X1970Y9051D02*
G01X999Y9051D01*
G01X1970Y9051D02*
G01X1970Y8726D01*
G01X1924Y8589D01*
G01X1833Y8498D01*
G01X1739Y8449D01*
G01X1601Y8404D01*
G01X1370Y8404D01*
G01X1231Y8449D01*
G01X1139Y8498D01*
G01X1048Y8589D01*
G01X999Y8726D01*
G01X999Y9051D01*
G01X1040Y33204D02*
G01X1004Y33277D01*
G01X931Y33348D01*
G01X860Y33384D01*
G01X712Y33384D01*
G01X641Y33348D01*
G01X568Y33277D01*
G01X532Y33204D01*
G01X496Y33094D01*
G01X496Y32911D01*
G01X532Y32802D01*
G01X568Y32731D01*
G01X641Y32657D01*
G01X712Y32622D01*
G01X860Y32622D01*
G01X931Y32657D01*
G01X1004Y32731D01*
G01X1040Y32802D01*
G01X1040Y32911D01*
G01X860Y32911D02*
G01X1040Y32911D01*
G01X1281Y33384D02*
G01X1281Y32622D01*
G01X1281Y33384D02*
G01X1789Y32622D01*
G01X1789Y33384D02*
G01X1789Y32622D01*
G01X2031Y33384D02*
G01X2031Y32622D01*
G01X2031Y33384D02*
G01X2285Y33384D01*
G01X2394Y33348D01*
G01X2465Y33277D01*
G01X2503Y33204D01*
G01X2539Y33094D01*
G01X2539Y32911D01*
G01X2503Y32802D01*
G01X2465Y32731D01*
G01X2394Y32657D01*
G01X2285Y32622D01*
G01X2031Y32622D01*
G01X47193Y25768D02*
G01X47147Y25862D01*
G01X47053Y25954D01*
G01X46962Y26000D01*
G01X46776Y26000D01*
G01X46685Y25954D01*
G01X46591Y25862D01*
G01X46545Y25768D01*
G01X46499Y25631D01*
G01X46499Y25400D01*
G01X46545Y25260D01*
G01X46591Y25169D01*
G01X46685Y25078D01*
G01X46776Y25029D01*
G01X46962Y25029D01*
G01X47053Y25078D01*
G01X47147Y25169D01*
G01X47193Y25260D01*
G01X47193Y25400D01*
G01X46962Y25400D02*
G01X47193Y25400D01*
G01X47498Y26000D02*
G01X47498Y25029D01*
G01X47498Y26000D02*
G01X48143Y25029D01*
G01X48143Y26000D02*
G01X48143Y25029D01*
G01X48448Y26000D02*
G01X48448Y25029D01*
G01X48448Y26000D02*
G01X48773Y26000D01*
G01X48910Y25954D01*
G01X49001Y25862D01*
G01X49050Y25768D01*
G01X49095Y25631D01*
G01X49095Y25400D01*
G01X49050Y25260D01*
G01X49001Y25169D01*
G01X48910Y25078D01*
G01X48773Y25029D01*
G01X48448Y25029D01*
G01X46693Y14269D02*
G01X46647Y14363D01*
G01X46553Y14454D01*
G01X46462Y14500D01*
G01X46276Y14500D01*
G01X46185Y14454D01*
G01X46091Y14363D01*
G01X46045Y14269D01*
G01X45999Y14131D01*
G01X45999Y13900D01*
G01X46045Y13761D01*
G01X46091Y13669D01*
G01X46185Y13578D01*
G01X46276Y13529D01*
G01X46462Y13529D01*
G01X46553Y13578D01*
G01X46647Y13669D01*
G01X46693Y13761D01*
G01X46693Y13900D01*
G01X46462Y13900D02*
G01X46693Y13900D01*
G01X46997Y14500D02*
G01X46997Y13529D01*
G01X46997Y14500D02*
G01X47643Y13529D01*
G01X47643Y14500D02*
G01X47643Y13529D01*
G01X47947Y14500D02*
G01X47947Y13529D01*
G01X47947Y14500D02*
G01X48273Y14500D01*
G01X48410Y14454D01*
G01X48501Y14363D01*
G01X48549Y14269D01*
G01X48595Y14131D01*
G01X48595Y13900D01*
G01X48549Y13761D01*
G01X48501Y13669D01*
G01X48410Y13578D01*
G01X48273Y13529D01*
G01X47947Y13529D01*
G01X563Y13000D02*
G01X914Y13000D01*
G01X723Y12746D01*
G01X817Y12746D01*
G01X880Y12715D01*
G01X914Y12682D01*
G01X944Y12586D01*
G01X944Y12522D01*
G01X914Y12428D01*
G01X850Y12365D01*
G01X753Y12332D01*
G01X660Y12332D01*
G01X563Y12365D01*
G01X533Y12395D01*
G01X499Y12459D01*
G01X1188Y12492D02*
G01X1155Y12459D01*
G01X1188Y12428D01*
G01X1218Y12459D01*
G01X1188Y12492D01*
G01X1493Y13000D02*
G01X1843Y13000D01*
G01X1650Y12746D01*
G01X1747Y12746D01*
G01X1810Y12715D01*
G01X1843Y12682D01*
G01X1874Y12586D01*
G01X1874Y12522D01*
G01X1843Y12428D01*
G01X1780Y12365D01*
G01X1683Y12332D01*
G01X1587Y12332D01*
G01X1493Y12365D01*
G01X1460Y12395D01*
G01X1429Y12459D01*
G01X2084Y13000D02*
G01X2338Y12332D01*
G01X2592Y13000D02*
G01X2338Y12332D01*
G01X1073Y35000D02*
G01X1472Y35000D01*
G01X1253Y34708D01*
G01X1363Y34708D01*
G01X1436Y34672D01*
G01X1472Y34636D01*
G01X1510Y34527D01*
G01X1510Y34454D01*
G01X1472Y34344D01*
G01X1401Y34271D01*
G01X1292Y34235D01*
G01X1182Y34235D01*
G01X1073Y34271D01*
G01X1038Y34309D01*
G01X999Y34380D01*
G01X1784Y34418D02*
G01X1749Y34380D01*
G01X1784Y34344D01*
G01X1822Y34380D01*
G01X1784Y34418D01*
G01X2135Y35000D02*
G01X2534Y35000D01*
G01X2315Y34708D01*
G01X2424Y34708D01*
G01X2498Y34672D01*
G01X2534Y34636D01*
G01X2572Y34527D01*
G01X2572Y34454D01*
G01X2534Y34344D01*
G01X2463Y34271D01*
G01X2353Y34235D01*
G01X2244Y34235D01*
G01X2135Y34271D01*
G01X2099Y34309D01*
G01X2061Y34380D01*
G01X2811Y35000D02*
G01X3103Y34235D01*
G01X3392Y35000D02*
G01X3103Y34235D01*
G01X46091Y24000D02*
G01X46599Y24000D01*
G01X46322Y23631D01*
G01X46462Y23631D01*
G01X46553Y23586D01*
G01X46599Y23537D01*
G01X46647Y23400D01*
G01X46647Y23306D01*
G01X46599Y23169D01*
G01X46507Y23078D01*
G01X46368Y23029D01*
G01X46230Y23029D01*
G01X46091Y23078D01*
G01X46045Y23123D01*
G01X45999Y23215D01*
G01X46998Y23260D02*
G01X46952Y23215D01*
G01X46998Y23169D01*
G01X47043Y23215D01*
G01X46998Y23260D01*
G01X47439Y24000D02*
G01X47947Y24000D01*
G01X47671Y23631D01*
G01X47810Y23631D01*
G01X47902Y23586D01*
G01X47947Y23537D01*
G01X47993Y23400D01*
G01X47993Y23306D01*
G01X47947Y23169D01*
G01X47856Y23078D01*
G01X47716Y23029D01*
G01X47579Y23029D01*
G01X47439Y23078D01*
G01X47394Y23123D01*
G01X47348Y23215D01*
G01X48298Y24000D02*
G01X48669Y23029D01*
G01X49037Y24000D02*
G01X48669Y23029D01*
G01X46091Y13000D02*
G01X46599Y13000D01*
G01X46322Y12631D01*
G01X46462Y12631D01*
G01X46553Y12586D01*
G01X46599Y12537D01*
G01X46647Y12400D01*
G01X46647Y12306D01*
G01X46599Y12169D01*
G01X46507Y12078D01*
G01X46368Y12029D01*
G01X46230Y12029D01*
G01X46091Y12078D01*
G01X46045Y12123D01*
G01X45999Y12215D01*
G01X46997Y12260D02*
G01X46952Y12215D01*
G01X46997Y12169D01*
G01X47043Y12215D01*
G01X46997Y12260D01*
G01X47439Y13000D02*
G01X47947Y13000D01*
G01X47671Y12631D01*
G01X47810Y12631D01*
G01X47902Y12586D01*
G01X47947Y12537D01*
G01X47993Y12400D01*
G01X47993Y12306D01*
G01X47947Y12169D01*
G01X47856Y12078D01*
G01X47716Y12029D01*
G01X47579Y12029D01*
G01X47439Y12078D01*
G01X47394Y12123D01*
G01X47348Y12215D01*
G01X48298Y13000D02*
G01X48669Y12029D01*
G01X49037Y13000D02*
G01X48669Y12029D01*
G01X1000Y17000D02*
G01X1000Y16332D01*
G01X1000Y17000D02*
G01X1287Y17000D01*
G01X1381Y16969D01*
G01X1414Y16936D01*
G01X1444Y16873D01*
G01X1444Y16779D01*
G01X1414Y16715D01*
G01X1381Y16682D01*
G01X1287Y16652D01*
G01X1000Y16652D01*
G01X1655Y16873D02*
G01X1718Y16906D01*
G01X1815Y17000D01*
G01X1815Y16332D01*
G01X2023Y16873D02*
G01X2087Y16906D01*
G01X2183Y17000D01*
G01X2183Y16332D01*
G01X1000Y15000D02*
G01X1000Y14332D01*
G01X1000Y15000D02*
G01X1287Y15000D01*
G01X1381Y14969D01*
G01X1414Y14936D01*
G01X1444Y14873D01*
G01X1444Y14779D01*
G01X1414Y14715D01*
G01X1381Y14682D01*
G01X1287Y14652D01*
G01X1000Y14652D01*
G01X1655Y14873D02*
G01X1718Y14906D01*
G01X1815Y15000D01*
G01X1815Y14332D01*
G01X2056Y14842D02*
G01X2056Y14873D01*
G01X2087Y14936D01*
G01X2120Y14969D01*
G01X2183Y15000D01*
G01X2310Y15000D01*
G01X2374Y14969D01*
G01X2407Y14936D01*
G01X2437Y14873D01*
G01X2437Y14809D01*
G01X2407Y14746D01*
G01X2343Y14652D01*
G01X2023Y14332D01*
G01X2470Y14332D01*
G01X47147Y21862D02*
G01X47053Y21954D01*
G01X46916Y22000D01*
G01X46731Y22000D01*
G01X46591Y21954D01*
G01X46499Y21862D01*
G01X46499Y21768D01*
G01X46545Y21677D01*
G01X46591Y21631D01*
G01X46685Y21586D01*
G01X46962Y21492D01*
G01X47053Y21446D01*
G01X47099Y21400D01*
G01X47147Y21306D01*
G01X47147Y21169D01*
G01X47053Y21078D01*
G01X46916Y21029D01*
G01X46731Y21029D01*
G01X46591Y21078D01*
G01X46499Y21169D01*
G01X47452Y22000D02*
G01X47452Y21029D01*
G01X47452Y22000D02*
G01X47774Y22000D01*
G01X47912Y21954D01*
G01X48006Y21862D01*
G01X48051Y21768D01*
G01X48097Y21631D01*
G01X48097Y21400D01*
G01X48051Y21260D01*
G01X48006Y21169D01*
G01X47912Y21078D01*
G01X47774Y21029D01*
G01X47452Y21029D01*
G01X48773Y22000D02*
G01X48402Y21029D01*
G01X48773Y22000D02*
G01X49141Y21029D01*
G01X48542Y21354D02*
G01X49001Y21354D01*
G01X47147Y19862D02*
G01X47053Y19954D01*
G01X46916Y20000D01*
G01X46731Y20000D01*
G01X46591Y19954D01*
G01X46499Y19862D01*
G01X46499Y19768D01*
G01X46545Y19677D01*
G01X46591Y19631D01*
G01X46685Y19586D01*
G01X46962Y19492D01*
G01X47053Y19446D01*
G01X47099Y19400D01*
G01X47147Y19306D01*
G01X47147Y19169D01*
G01X47053Y19078D01*
G01X46916Y19029D01*
G01X46731Y19029D01*
G01X46591Y19078D01*
G01X46499Y19169D01*
G01X48143Y19768D02*
G01X48097Y19862D01*
G01X48006Y19954D01*
G01X47912Y20000D01*
G01X47729Y20000D01*
G01X47635Y19954D01*
G01X47543Y19862D01*
G01X47498Y19768D01*
G01X47452Y19631D01*
G01X47452Y19400D01*
G01X47498Y19260D01*
G01X47543Y19169D01*
G01X47635Y19078D01*
G01X47729Y19029D01*
G01X47912Y19029D01*
G01X48006Y19078D01*
G01X48097Y19169D01*
G01X48143Y19260D01*
G01X48448Y20000D02*
G01X48448Y19029D01*
G01X48448Y19029D02*
G01X49001Y19029D01*
G01X1322Y39500D02*
G01X1322Y38529D01*
G01X1000Y39500D02*
G01X1647Y39500D01*
G01X1952Y39500D02*
G01X2597Y38529D01*
G01X2597Y39500D02*
G01X1952Y38529D01*
G01X999Y37500D02*
G01X999Y36529D01*
G01X999Y37500D02*
G01X1416Y37500D01*
G01X1553Y37454D01*
G01X1599Y37408D01*
G01X1647Y37314D01*
G01X1647Y37223D01*
G01X1599Y37131D01*
G01X1553Y37086D01*
G01X1416Y37037D01*
G01X999Y37037D01*
G01X1322Y37037D02*
G01X1647Y36529D01*
G01X1952Y37500D02*
G01X2597Y36529D01*
G01X2597Y37500D02*
G01X1952Y36529D01*
G01X42693Y41268D02*
G01X42647Y41362D01*
G01X42553Y41454D01*
G01X42462Y41500D01*
G01X42276Y41500D01*
G01X42185Y41454D01*
G01X42091Y41362D01*
G01X42045Y41268D01*
G01X41999Y41131D01*
G01X41999Y40900D01*
G01X42045Y40760D01*
G01X42091Y40669D01*
G01X42185Y40578D01*
G01X42276Y40529D01*
G01X42462Y40529D01*
G01X42553Y40578D01*
G01X42647Y40669D01*
G01X42693Y40760D01*
G01X42693Y40900D01*
G01X42462Y40900D02*
G01X42693Y40900D01*
G01X42998Y41500D02*
G01X42998Y40529D01*
G01X42998Y41500D02*
G01X43643Y40529D01*
G01X43643Y41500D02*
G01X43643Y40529D01*
G01X43948Y41500D02*
G01X43948Y40529D01*
G01X43948Y41500D02*
G01X44273Y41500D01*
G01X44410Y41454D01*
G01X44501Y41362D01*
G01X44550Y41268D01*
G01X44595Y41131D01*
G01X44595Y40900D01*
G01X44550Y40760D01*
G01X44501Y40669D01*
G01X44410Y40578D01*
G01X44273Y40529D01*
G01X43948Y40529D01*
G01X9999Y56954D02*
G01X9999Y55984D01*
G01X9999Y56954D02*
G01X10322Y56954D01*
G01X10462Y56908D01*
G01X10553Y56817D01*
G01X10599Y56723D01*
G01X10647Y56586D01*
G01X10647Y56354D01*
G01X10599Y56215D01*
G01X10553Y56123D01*
G01X10462Y56032D01*
G01X10322Y55984D01*
G01X9999Y55984D01*
G01X10952Y56954D02*
G01X10998Y56908D01*
G01X11043Y56954D01*
G01X10998Y57000D01*
G01X10952Y56954D01*
G01X10998Y56631D02*
G01X10998Y55984D01*
G01X11856Y56492D02*
G01X11810Y56586D01*
G01X11671Y56631D01*
G01X11534Y56631D01*
G01X11394Y56586D01*
G01X11348Y56492D01*
G01X11394Y56400D01*
G01X11485Y56354D01*
G01X11716Y56309D01*
G01X11810Y56260D01*
G01X11856Y56169D01*
G01X11856Y56123D01*
G01X11810Y56032D01*
G01X11671Y55984D01*
G01X11534Y55984D01*
G01X11394Y56032D01*
G01X11348Y56123D01*
G01X12715Y56492D02*
G01X12623Y56586D01*
G01X12529Y56631D01*
G01X12392Y56631D01*
G01X12298Y56586D01*
G01X12207Y56492D01*
G01X12161Y56354D01*
G01X12161Y56260D01*
G01X12207Y56123D01*
G01X12298Y56032D01*
G01X12392Y55984D01*
G01X12529Y55984D01*
G01X12623Y56032D01*
G01X12715Y56123D01*
G01X13251Y56631D02*
G01X13159Y56586D01*
G01X13065Y56492D01*
G01X13020Y56354D01*
G01X13020Y56260D01*
G01X13065Y56123D01*
G01X13159Y56032D01*
G01X13251Y55984D01*
G01X13390Y55984D01*
G01X13482Y56032D01*
G01X13573Y56123D01*
G01X13619Y56260D01*
G01X13619Y56354D01*
G01X13573Y56492D01*
G01X13482Y56586D01*
G01X13390Y56631D01*
G01X13251Y56631D01*
G01X13924Y56631D02*
G01X13924Y55984D01*
G01X13924Y56446D02*
G01X14063Y56586D01*
G01X14155Y56631D01*
G01X14295Y56631D01*
G01X14386Y56586D01*
G01X14432Y56446D01*
G01X14432Y55984D01*
G01X14737Y56631D02*
G01X14737Y55984D01*
G01X14737Y56446D02*
G01X14876Y56586D01*
G01X14968Y56631D01*
G01X15107Y56631D01*
G01X15199Y56586D01*
G01X15245Y56446D01*
G01X15245Y55984D01*
G01X15549Y56354D02*
G01X16106Y56354D01*
G01X16106Y56446D01*
G01X16057Y56540D01*
G01X16012Y56586D01*
G01X15920Y56631D01*
G01X15780Y56631D01*
G01X15689Y56586D01*
G01X15598Y56492D01*
G01X15549Y56354D01*
G01X15549Y56260D01*
G01X15598Y56123D01*
G01X15689Y56032D01*
G01X15780Y55984D01*
G01X15920Y55984D01*
G01X16012Y56032D01*
G01X16106Y56123D01*
G01X16964Y56492D02*
G01X16870Y56586D01*
G01X16779Y56631D01*
G01X16642Y56631D01*
G01X16548Y56586D01*
G01X16456Y56492D01*
G01X16410Y56354D01*
G01X16410Y56260D01*
G01X16456Y56123D01*
G01X16548Y56032D01*
G01X16642Y55984D01*
G01X16779Y55984D01*
G01X16870Y56032D01*
G01X16964Y56123D01*
G01X17406Y56954D02*
G01X17406Y56169D01*
G01X17454Y56032D01*
G01X17546Y55984D01*
G01X17637Y55984D01*
G01X17269Y56631D02*
G01X17592Y56631D01*
G01X18653Y56954D02*
G01X18653Y55984D01*
G01X18653Y56492D02*
G01X18747Y56586D01*
G01X18839Y56631D01*
G01X18978Y56631D01*
G01X19070Y56586D01*
G01X19161Y56492D01*
G01X19207Y56354D01*
G01X19207Y56260D01*
G01X19161Y56123D01*
G01X19070Y56032D01*
G01X18978Y55984D01*
G01X18839Y55984D01*
G01X18747Y56032D01*
G01X18653Y56123D01*
G01X20068Y56631D02*
G01X20068Y55984D01*
G01X20068Y56492D02*
G01X19974Y56586D01*
G01X19883Y56631D01*
G01X19743Y56631D01*
G01X19651Y56586D01*
G01X19560Y56492D01*
G01X19512Y56354D01*
G01X19512Y56260D01*
G01X19560Y56123D01*
G01X19651Y56032D01*
G01X19743Y55984D01*
G01X19883Y55984D01*
G01X19974Y56032D01*
G01X20068Y56123D01*
G01X20510Y56954D02*
G01X20510Y56169D01*
G01X20556Y56032D01*
G01X20650Y55984D01*
G01X20741Y55984D01*
G01X20373Y56631D02*
G01X20695Y56631D01*
G01X21186Y56954D02*
G01X21186Y56169D01*
G01X21231Y56032D01*
G01X21323Y55984D01*
G01X21417Y55984D01*
G01X21046Y56631D02*
G01X21368Y56631D01*
G01X22433Y56631D02*
G01X22616Y55984D01*
G01X22801Y56631D02*
G01X22616Y55984D01*
G01X22801Y56631D02*
G01X22986Y55984D01*
G01X23169Y56631D02*
G01X22986Y55984D01*
G01X23474Y56954D02*
G01X23474Y55984D01*
G01X23474Y56446D02*
G01X23614Y56586D01*
G01X23705Y56631D01*
G01X23845Y56631D01*
G01X23936Y56586D01*
G01X23982Y56446D01*
G01X23982Y55984D01*
G01X24287Y56354D02*
G01X24843Y56354D01*
G01X24843Y56446D01*
G01X24795Y56540D01*
G01X24749Y56586D01*
G01X24658Y56631D01*
G01X24518Y56631D01*
G01X24427Y56586D01*
G01X24335Y56492D01*
G01X24287Y56354D01*
G01X24287Y56260D01*
G01X24335Y56123D01*
G01X24427Y56032D01*
G01X24518Y55984D01*
G01X24658Y55984D01*
G01X24749Y56032D01*
G01X24843Y56123D01*
G01X25148Y56631D02*
G01X25148Y55984D01*
G01X25148Y56446D02*
G01X25285Y56586D01*
G01X25379Y56631D01*
G01X25516Y56631D01*
G01X25608Y56586D01*
G01X25656Y56446D01*
G01X25656Y55984D01*
G01X26672Y56631D02*
G01X26672Y55661D01*
G01X26672Y56492D02*
G01X26763Y56586D01*
G01X26855Y56631D01*
G01X26995Y56631D01*
G01X27086Y56586D01*
G01X27180Y56492D01*
G01X27226Y56354D01*
G01X27226Y56260D01*
G01X27180Y56123D01*
G01X27086Y56032D01*
G01X26995Y55984D01*
G01X26855Y55984D01*
G01X26763Y56032D01*
G01X26672Y56123D01*
G01X27531Y56631D02*
G01X27531Y55984D01*
G01X27531Y56354D02*
G01X27576Y56492D01*
G01X27668Y56586D01*
G01X27762Y56631D01*
G01X27899Y56631D01*
G01X28435Y56631D02*
G01X28343Y56586D01*
G01X28249Y56492D01*
G01X28204Y56354D01*
G01X28204Y56260D01*
G01X28249Y56123D01*
G01X28343Y56032D01*
G01X28435Y55984D01*
G01X28574Y55984D01*
G01X28666Y56032D01*
G01X28757Y56123D01*
G01X28806Y56260D01*
G01X28806Y56354D01*
G01X28757Y56492D01*
G01X28666Y56586D01*
G01X28574Y56631D01*
G01X28435Y56631D01*
G01X29664Y56631D02*
G01X29664Y55892D01*
G01X29618Y55752D01*
G01X29570Y55707D01*
G01X29479Y55661D01*
G01X29342Y55661D01*
G01X29248Y55707D01*
G01X29664Y56492D02*
G01X29570Y56586D01*
G01X29479Y56631D01*
G01X29342Y56631D01*
G01X29248Y56586D01*
G01X29156Y56492D01*
G01X29110Y56354D01*
G01X29110Y56260D01*
G01X29156Y56123D01*
G01X29248Y56032D01*
G01X29342Y55984D01*
G01X29479Y55984D01*
G01X29570Y56032D01*
G01X29664Y56123D01*
G01X29969Y56631D02*
G01X29969Y55984D01*
G01X29969Y56354D02*
G01X30015Y56492D01*
G01X30106Y56586D01*
G01X30200Y56631D01*
G01X30337Y56631D01*
G01X31196Y56631D02*
G01X31196Y55984D01*
G01X31196Y56492D02*
G01X31104Y56586D01*
G01X31013Y56631D01*
G01X30873Y56631D01*
G01X30782Y56586D01*
G01X30688Y56492D01*
G01X30642Y56354D01*
G01X30642Y56260D01*
G01X30688Y56123D01*
G01X30782Y56032D01*
G01X30873Y55984D01*
G01X31013Y55984D01*
G01X31104Y56032D01*
G01X31196Y56123D01*
G01X31501Y56631D02*
G01X31501Y55984D01*
G01X31501Y56446D02*
G01X31640Y56586D01*
G01X31732Y56631D01*
G01X31871Y56631D01*
G01X31963Y56586D01*
G01X32009Y56446D01*
G01X32009Y55984D01*
G01X32009Y56446D02*
G01X32148Y56586D01*
G01X32240Y56631D01*
G01X32379Y56631D01*
G01X32471Y56586D01*
G01X32517Y56446D01*
G01X32517Y55984D01*
G01X32821Y56631D02*
G01X32821Y55984D01*
G01X32821Y56446D02*
G01X32961Y56586D01*
G01X33052Y56631D01*
G01X33192Y56631D01*
G01X33284Y56586D01*
G01X33329Y56446D01*
G01X33329Y55984D01*
G01X33329Y56446D02*
G01X33469Y56586D01*
G01X33560Y56631D01*
G01X33700Y56631D01*
G01X33792Y56586D01*
G01X33837Y56446D01*
G01X33837Y55984D01*
G01X34142Y56954D02*
G01X34190Y56908D01*
G01X34236Y56954D01*
G01X34190Y57000D01*
G01X34142Y56954D01*
G01X34190Y56631D02*
G01X34190Y55984D01*
G01X34541Y56631D02*
G01X34541Y55984D01*
G01X34541Y56446D02*
G01X34678Y56586D01*
G01X34772Y56631D01*
G01X34909Y56631D01*
G01X35003Y56586D01*
G01X35049Y56446D01*
G01X35049Y55984D01*
G01X35907Y56631D02*
G01X35907Y55892D01*
G01X35862Y55752D01*
G01X35816Y55707D01*
G01X35722Y55661D01*
G01X35585Y55661D01*
G01X35491Y55707D01*
G01X35907Y56492D02*
G01X35816Y56586D01*
G01X35722Y56631D01*
G01X35585Y56631D01*
G01X35491Y56586D01*
G01X35399Y56492D01*
G01X35354Y56354D01*
G01X35354Y56260D01*
G01X35399Y56123D01*
G01X35491Y56032D01*
G01X35585Y55984D01*
G01X35722Y55984D01*
G01X35816Y56032D01*
G01X35907Y56123D01*
G01X20999Y7000D02*
G01X20999Y6332D01*
G01X20999Y7000D02*
G01X21286Y7000D01*
G01X21380Y6967D01*
G01X21413Y6936D01*
G01X21444Y6873D01*
G01X21444Y6809D01*
G01X21413Y6743D01*
G01X21380Y6713D01*
G01X21286Y6680D01*
G01X20999Y6680D02*
G01X21286Y6680D01*
G01X21380Y6649D01*
G01X21413Y6616D01*
G01X21444Y6553D01*
G01X21444Y6459D01*
G01X21413Y6395D01*
G01X21380Y6362D01*
G01X21286Y6332D01*
G01X20999Y6332D01*
G01X21685Y6776D02*
G01X21878Y6332D01*
G01X22069Y6776D02*
G01X21878Y6332D01*
G01X21815Y6205D01*
G01X21751Y6139D01*
G01X21685Y6108D01*
G01X21655Y6108D01*
G01X23087Y7000D02*
G01X23087Y6489D01*
G01X23054Y6395D01*
G01X23024Y6362D01*
G01X22960Y6332D01*
G01X22897Y6332D01*
G01X22831Y6362D01*
G01X22800Y6395D01*
G01X22767Y6489D01*
G01X22767Y6553D01*
G01X23456Y6776D02*
G01X23392Y6743D01*
G01X23329Y6680D01*
G01X23296Y6586D01*
G01X23296Y6522D01*
G01X23329Y6426D01*
G01X23392Y6362D01*
G01X23456Y6332D01*
G01X23552Y6332D01*
G01X23616Y6362D01*
G01X23679Y6426D01*
G01X23710Y6522D01*
G01X23710Y6586D01*
G01X23679Y6680D01*
G01X23616Y6743D01*
G01X23552Y6776D01*
G01X23456Y6776D01*
G01X24271Y6680D02*
G01X24238Y6743D01*
G01X24144Y6776D01*
G01X24047Y6776D01*
G01X23951Y6743D01*
G01X23920Y6680D01*
G01X23951Y6616D01*
G01X24014Y6586D01*
G01X24174Y6553D01*
G01X24238Y6522D01*
G01X24271Y6459D01*
G01X24271Y6426D01*
G01X24238Y6362D01*
G01X24144Y6332D01*
G01X24047Y6332D01*
G01X23951Y6362D01*
G01X23920Y6426D01*
G01X24479Y6586D02*
G01X24863Y6586D01*
G01X24863Y6649D01*
G01X24830Y6713D01*
G01X24799Y6743D01*
G01X24736Y6776D01*
G01X24639Y6776D01*
G01X24576Y6743D01*
G01X24512Y6680D01*
G01X24479Y6586D01*
G01X24479Y6522D01*
G01X24512Y6426D01*
G01X24576Y6362D01*
G01X24639Y6332D01*
G01X24736Y6332D01*
G01X24799Y6362D01*
G01X24863Y6426D01*
G01X21317Y5283D02*
G01X21317Y4775D01*
G01X21286Y4678D01*
G01X21253Y4648D01*
G01X21190Y4615D01*
G01X21126Y4615D01*
G01X21063Y4648D01*
G01X21030Y4678D01*
G01X20999Y4775D01*
G01X20999Y4838D01*
G01X21528Y5283D02*
G01X21558Y5252D01*
G01X21591Y5283D01*
G01X21558Y5316D01*
G01X21528Y5283D01*
G01X21558Y5059D02*
G01X21558Y4615D01*
G01X21802Y5059D02*
G01X21802Y4615D01*
G01X21802Y4932D02*
G01X21896Y5029D01*
G01X21960Y5059D01*
G01X22056Y5059D01*
G01X22120Y5029D01*
G01X22150Y4932D01*
G01X22150Y4615D01*
G01X22150Y4932D02*
G01X22247Y5029D01*
G01X22310Y5059D01*
G01X22407Y5059D01*
G01X22470Y5029D01*
G01X22501Y4932D01*
G01X22501Y4615D01*
G01X22711Y4869D02*
G01X23092Y4869D01*
G01X23092Y4932D01*
G01X23062Y4996D01*
G01X23029Y5029D01*
G01X22965Y5059D01*
G01X22871Y5059D01*
G01X22805Y5029D01*
G01X22742Y4965D01*
G01X22711Y4869D01*
G01X22711Y4805D01*
G01X22742Y4711D01*
G01X22805Y4648D01*
G01X22871Y4615D01*
G01X22965Y4615D01*
G01X23029Y4648D01*
G01X23092Y4711D01*
G01X23303Y5059D02*
G01X23303Y4615D01*
G01X23303Y4932D02*
G01X23397Y5029D01*
G01X23463Y5059D01*
G01X23557Y5059D01*
G01X23621Y5029D01*
G01X23654Y4932D01*
G01X23654Y4615D01*
G01X23862Y4869D02*
G01X24246Y4869D01*
G01X24246Y4932D01*
G01X24213Y4996D01*
G01X24182Y5029D01*
G01X24119Y5059D01*
G01X24022Y5059D01*
G01X23959Y5029D01*
G01X23895Y4965D01*
G01X23862Y4869D01*
G01X23862Y4805D01*
G01X23895Y4711D01*
G01X23959Y4648D01*
G01X24022Y4615D01*
G01X24119Y4615D01*
G01X24182Y4648D01*
G01X24246Y4711D01*
G01X24804Y5059D02*
G01X24454Y4615D01*
G01X24454Y5059D02*
G01X24804Y5059D01*
G01X24454Y4615D02*
G01X24804Y4615D01*
G01X25015Y4902D02*
G01X25587Y4902D01*
G01X25798Y5283D02*
G01X25798Y4615D01*
G01X25798Y5283D02*
G01X26085Y5283D01*
G01X26179Y5252D01*
G01X26212Y5219D01*
G01X26242Y5156D01*
G01X26242Y5092D01*
G01X26212Y5029D01*
G01X26179Y4996D01*
G01X26085Y4965D01*
G01X25798Y4965D02*
G01X26085Y4965D01*
G01X26179Y4932D01*
G01X26212Y4902D01*
G01X26242Y4838D01*
G01X26242Y4742D01*
G01X26212Y4678D01*
G01X26179Y4648D01*
G01X26085Y4615D01*
G01X25798Y4615D01*
G01X26453Y4869D02*
G01X26834Y4869D01*
G01X26834Y4932D01*
G01X26803Y4996D01*
G01X26770Y5029D01*
G01X26707Y5059D01*
G01X26613Y5059D01*
G01X26549Y5029D01*
G01X26486Y4965D01*
G01X26453Y4869D01*
G01X26453Y4805D01*
G01X26486Y4711D01*
G01X26549Y4648D01*
G01X26613Y4615D01*
G01X26707Y4615D01*
G01X26770Y4648D01*
G01X26834Y4711D01*
G01X27045Y5059D02*
G01X27045Y4615D01*
G01X27045Y4869D02*
G01X27078Y4965D01*
G01X27141Y5029D01*
G01X27205Y5059D01*
G01X27299Y5059D01*
G01X27509Y5059D02*
G01X27509Y4615D01*
G01X27509Y4932D02*
G01X27606Y5029D01*
G01X27669Y5059D01*
G01X27763Y5059D01*
G01X27827Y5029D01*
G01X27860Y4932D01*
G01X27860Y4615D01*
G01X28068Y5283D02*
G01X28101Y5252D01*
G01X28134Y5283D01*
G01X28101Y5316D01*
G01X28068Y5283D01*
G01X28101Y5059D02*
G01X28101Y4615D01*
G01X21030Y3408D02*
G01X21030Y3439D01*
G01X21063Y3502D01*
G01X21093Y3535D01*
G01X21159Y3568D01*
G01X21286Y3568D01*
G01X21350Y3535D01*
G01X21380Y3502D01*
G01X21413Y3439D01*
G01X21413Y3375D01*
G01X21380Y3312D01*
G01X21317Y3218D01*
G01X20999Y2898D01*
G01X21444Y2898D01*
G01X21845Y3568D02*
G01X21751Y3535D01*
G01X21685Y3439D01*
G01X21655Y3281D01*
G01X21655Y3185D01*
G01X21685Y3027D01*
G01X21751Y2931D01*
G01X21845Y2898D01*
G01X21909Y2898D01*
G01X22005Y2931D01*
G01X22069Y3027D01*
G01X22099Y3185D01*
G01X22099Y3281D01*
G01X22069Y3439D01*
G01X22005Y3535D01*
G01X21909Y3568D01*
G01X21845Y3568D01*
G01X22310Y3439D02*
G01X22374Y3472D01*
G01X22470Y3568D01*
G01X22470Y2898D01*
G01X23092Y3345D02*
G01X23062Y3248D01*
G01X22998Y3185D01*
G01X22902Y3154D01*
G01X22871Y3154D01*
G01X22775Y3185D01*
G01X22711Y3248D01*
G01X22678Y3345D01*
G01X22678Y3375D01*
G01X22711Y3472D01*
G01X22775Y3535D01*
G01X22871Y3568D01*
G01X22902Y3568D01*
G01X22998Y3535D01*
G01X23062Y3472D01*
G01X23092Y3345D01*
G01X23092Y3185D01*
G01X23062Y3027D01*
G01X22998Y2931D01*
G01X22902Y2898D01*
G01X22838Y2898D01*
G01X22742Y2931D01*
G01X22711Y2994D01*
G01X45999Y11000D02*
G01X45999Y10029D01*
G01X45999Y11000D02*
G01X46416Y11000D01*
G01X46553Y10954D01*
G01X46599Y10908D01*
G01X46647Y10814D01*
G01X46647Y10677D01*
G01X46599Y10586D01*
G01X46553Y10537D01*
G01X46416Y10492D01*
G01X45999Y10492D01*
G01X46997Y10768D02*
G01X46997Y10814D01*
G01X47043Y10908D01*
G01X47089Y10954D01*
G01X47180Y11000D01*
G01X47366Y11000D01*
G01X47460Y10954D01*
G01X47505Y10908D01*
G01X47551Y10814D01*
G01X47551Y10723D01*
G01X47505Y10631D01*
G01X47411Y10492D01*
G01X46952Y10029D01*
G01X47597Y10029D01*
G01X48179Y11000D02*
G01X48041Y10954D01*
G01X47947Y10814D01*
G01X47902Y10586D01*
G01X47902Y10446D01*
G01X47947Y10215D01*
G01X48041Y10078D01*
G01X48179Y10029D01*
G01X48273Y10029D01*
G01X48410Y10078D01*
G01X48501Y10215D01*
G01X48549Y10446D01*
G01X48549Y10586D01*
G01X48501Y10814D01*
G01X48410Y10954D01*
G01X48273Y11000D01*
G01X48179Y11000D01*
G01X46499Y9000D02*
G01X46499Y8029D01*
G01X46499Y9000D02*
G01X46916Y9000D01*
G01X47053Y8954D01*
G01X47099Y8908D01*
G01X47147Y8814D01*
G01X47147Y8677D01*
G01X47099Y8586D01*
G01X47053Y8537D01*
G01X46916Y8492D01*
G01X46499Y8492D01*
G01X47452Y8814D02*
G01X47543Y8862D01*
G01X47681Y9000D01*
G01X47681Y8029D01*
G01X48587Y8677D02*
G01X48542Y8537D01*
G01X48448Y8446D01*
G01X48310Y8400D01*
G01X48265Y8400D01*
G01X48125Y8446D01*
G01X48034Y8537D01*
G01X47985Y8677D01*
G01X47985Y8723D01*
G01X48034Y8862D01*
G01X48125Y8954D01*
G01X48265Y9000D01*
G01X48310Y9000D01*
G01X48448Y8954D01*
G01X48542Y8862D01*
G01X48587Y8677D01*
G01X48587Y8446D01*
G01X48542Y8215D01*
G01X48448Y8078D01*
G01X48310Y8029D01*
G01X48216Y8029D01*
G01X48079Y8078D01*
G01X48034Y8169D01*
G01X20499Y49000D02*
G01X20499Y47059D01*
G01X20499Y47059D02*
G01X21607Y47059D01*
G01X22216Y49000D02*
G01X22216Y47059D01*
G01X22216Y49000D02*
G01X23418Y49000D01*
G01X22216Y48075D02*
G01X22956Y48075D01*
G01X22216Y47059D02*
G01X23418Y47059D01*
G01X24027Y49000D02*
G01X24027Y47059D01*
G01X24027Y49000D02*
G01X24673Y49000D01*
G01X24950Y48906D01*
G01X25135Y48723D01*
G01X25226Y48537D01*
G01X25320Y48260D01*
G01X25320Y47798D01*
G01X25226Y47521D01*
G01X25135Y47336D01*
G01X24950Y47151D01*
G01X24673Y47059D01*
G01X24027Y47059D01*
G01X37945Y32591D02*
G01X37945Y33099D01*
G01X38314Y32823D01*
G01X38314Y32962D01*
G01X38362Y33054D01*
G01X38408Y33099D01*
G01X38545Y33145D01*
G01X38639Y33145D01*
G01X38776Y33099D01*
G01X38870Y33008D01*
G01X38916Y32868D01*
G01X38916Y32731D01*
G01X38870Y32591D01*
G01X38822Y32546D01*
G01X38730Y32500D01*
G01X38685Y33498D02*
G01X38730Y33450D01*
G01X38776Y33498D01*
G01X38730Y33544D01*
G01X38685Y33498D01*
G01X37945Y33940D02*
G01X37945Y34448D01*
G01X38314Y34171D01*
G01X38314Y34311D01*
G01X38362Y34403D01*
G01X38408Y34448D01*
G01X38545Y34494D01*
G01X38639Y34494D01*
G01X38776Y34448D01*
G01X38870Y34357D01*
G01X38916Y34217D01*
G01X38916Y34080D01*
G01X38870Y33940D01*
G01X38822Y33895D01*
G01X38730Y33849D01*
G01X37945Y34799D02*
G01X38916Y35170D01*
G01X37945Y35538D02*
G01X38916Y35170D01*
G01X37945Y29777D02*
G01X37991Y29685D01*
G01X38085Y29591D01*
G01X38176Y29546D01*
G01X38314Y29500D01*
G01X38545Y29500D01*
G01X38684Y29546D01*
G01X38776Y29591D01*
G01X38870Y29685D01*
G01X38916Y29777D01*
G01X38916Y29962D01*
G01X38870Y30054D01*
G01X38776Y30145D01*
G01X38684Y30193D01*
G01X38545Y30239D01*
G01X38314Y30239D01*
G01X38176Y30193D01*
G01X38085Y30145D01*
G01X37991Y30054D01*
G01X37945Y29962D01*
G01X37945Y29777D01*
G01X37945Y30544D02*
G01X38916Y30775D01*
G01X37945Y31006D02*
G01X38916Y30775D01*
G01X37945Y31006D02*
G01X38916Y31235D01*
G01X37945Y31466D02*
G01X38916Y31235D01*
G01X1010Y23826D02*
G01X936Y23900D01*
G01X827Y23935D01*
G01X682Y23935D01*
G01X573Y23900D01*
G01X499Y23826D01*
G01X499Y23755D01*
G01X537Y23681D01*
G01X573Y23646D01*
G01X644Y23610D01*
G01X862Y23536D01*
G01X936Y23501D01*
G01X971Y23463D01*
G01X1010Y23392D01*
G01X1010Y23282D01*
G01X936Y23209D01*
G01X827Y23173D01*
G01X682Y23173D01*
G01X573Y23209D01*
G01X499Y23282D01*
G01X1248Y23935D02*
G01X1248Y23173D01*
G01X1248Y23935D02*
G01X1502Y23935D01*
G01X1611Y23900D01*
G01X1685Y23826D01*
G01X1721Y23755D01*
G01X1759Y23646D01*
G01X1759Y23463D01*
G01X1721Y23353D01*
G01X1685Y23282D01*
G01X1611Y23209D01*
G01X1502Y23173D01*
G01X1248Y23173D01*
G01X2290Y23935D02*
G01X1998Y23173D01*
G01X2290Y23935D02*
G01X2579Y23173D01*
G01X2107Y23427D02*
G01X2470Y23427D01*
G01X1017Y21827D02*
G01X943Y21901D01*
G01X834Y21936D01*
G01X689Y21936D01*
G01X580Y21901D01*
G01X507Y21827D01*
G01X507Y21756D01*
G01X545Y21682D01*
G01X580Y21647D01*
G01X651Y21611D01*
G01X870Y21537D01*
G01X943Y21502D01*
G01X979Y21464D01*
G01X1017Y21393D01*
G01X1017Y21283D01*
G01X943Y21210D01*
G01X834Y21174D01*
G01X689Y21174D01*
G01X580Y21210D01*
G01X507Y21283D01*
G01X1802Y21756D02*
G01X1766Y21827D01*
G01X1693Y21901D01*
G01X1619Y21936D01*
G01X1474Y21936D01*
G01X1401Y21901D01*
G01X1330Y21827D01*
G01X1291Y21756D01*
G01X1256Y21647D01*
G01X1256Y21464D01*
G01X1291Y21354D01*
G01X1330Y21283D01*
G01X1401Y21210D01*
G01X1474Y21174D01*
G01X1619Y21174D01*
G01X1693Y21210D01*
G01X1766Y21283D01*
G01X1802Y21354D01*
G01X2041Y21936D02*
G01X2041Y21174D01*
G01X2041Y21174D02*
G01X2478Y21174D01*
G01X573Y25936D02*
G01X971Y25936D01*
G01X753Y25644D01*
G01X862Y25644D01*
G01X936Y25609D01*
G01X971Y25573D01*
G01X1010Y25464D01*
G01X1010Y25390D01*
G01X971Y25281D01*
G01X900Y25208D01*
G01X791Y25172D01*
G01X682Y25172D01*
G01X573Y25208D01*
G01X537Y25246D01*
G01X499Y25317D01*
G01X1284Y25355D02*
G01X1248Y25317D01*
G01X1284Y25281D01*
G01X1322Y25317D01*
G01X1284Y25355D01*
G01X1634Y25936D02*
G01X2033Y25936D01*
G01X1815Y25644D01*
G01X1924Y25644D01*
G01X1998Y25609D01*
G01X2033Y25573D01*
G01X2071Y25464D01*
G01X2071Y25390D01*
G01X2033Y25281D01*
G01X1962Y25208D01*
G01X1853Y25172D01*
G01X1744Y25172D01*
G01X1634Y25208D01*
G01X1599Y25246D01*
G01X1561Y25317D01*
G01X2310Y25936D02*
G01X2602Y25172D01*
G01X2892Y25936D02*
G01X2602Y25172D01*
G01X1045Y27755D02*
G01X1010Y27826D01*
G01X936Y27900D01*
G01X862Y27936D01*
G01X717Y27936D01*
G01X644Y27900D01*
G01X573Y27826D01*
G01X537Y27755D01*
G01X499Y27646D01*
G01X499Y27463D01*
G01X537Y27354D01*
G01X573Y27280D01*
G01X644Y27209D01*
G01X717Y27174D01*
G01X862Y27174D01*
G01X936Y27209D01*
G01X1010Y27280D01*
G01X1045Y27354D01*
G01X1045Y27463D01*
G01X862Y27463D02*
G01X1045Y27463D01*
G01X1284Y27936D02*
G01X1284Y27174D01*
G01X1284Y27936D02*
G01X1794Y27174D01*
G01X1794Y27936D02*
G01X1794Y27174D01*
G01X2033Y27936D02*
G01X2033Y27174D01*
G01X2033Y27936D02*
G01X2290Y27936D01*
G01X2399Y27900D01*
G01X2470Y27826D01*
G01X2506Y27755D01*
G01X2544Y27646D01*
G01X2544Y27463D01*
G01X2506Y27354D01*
G01X2470Y27280D01*
G01X2399Y27209D01*
G01X2290Y27174D01*
G01X2033Y27174D01*
G01X2500Y43000D02*
G01X2500Y42030D01*
G01X2500Y43000D02*
G01X2917Y43000D01*
G01X3054Y42955D01*
G01X3100Y42906D01*
G01X3146Y42815D01*
G01X3146Y42678D01*
G01X3100Y42584D01*
G01X3054Y42538D01*
G01X2917Y42492D01*
G01X2500Y42492D01*
G01X3450Y43000D02*
G01X3450Y42030D01*
G01X3450Y43000D02*
G01X3867Y43000D01*
G01X4007Y42955D01*
G01X4052Y42906D01*
G01X4098Y42815D01*
G01X4098Y42723D01*
G01X4052Y42629D01*
G01X4007Y42584D01*
G01X3867Y42538D01*
G01X3450Y42538D01*
G01X3776Y42538D02*
G01X4098Y42030D01*
G01X4680Y43000D02*
G01X4588Y42955D01*
G01X4494Y42861D01*
G01X4449Y42769D01*
G01X4403Y42629D01*
G01X4403Y42398D01*
G01X4449Y42261D01*
G01X4494Y42170D01*
G01X4588Y42076D01*
G01X4680Y42030D01*
G01X4865Y42030D01*
G01X4957Y42076D01*
G01X5051Y42170D01*
G01X5096Y42261D01*
G01X5142Y42398D01*
G01X5142Y42629D01*
G01X5096Y42769D01*
G01X5051Y42861D01*
G01X4957Y42955D01*
G01X4865Y43000D01*
G01X4680Y43000D01*
G01X6140Y42769D02*
G01X6092Y42861D01*
G01X6001Y42955D01*
G01X5909Y43000D01*
G01X5724Y43000D01*
G01X5632Y42955D01*
G01X5538Y42861D01*
G01X5493Y42769D01*
G01X5447Y42629D01*
G01X5447Y42398D01*
G01X5493Y42261D01*
G01X5538Y42170D01*
G01X5632Y42076D01*
G01X5724Y42030D01*
G01X5909Y42030D01*
G01X6001Y42076D01*
G01X6092Y42170D01*
G01X6140Y42261D01*
G01X6140Y42398D01*
G01X5909Y42398D02*
G01X6140Y42398D01*
G54D10*
G75*
G01X27202Y45434D02*
G02X26948Y45688I0J254D01*
G01*
G75*
G01X29107Y45688D02*
G02X28853Y45434I-254J0D01*
G01*
G75*
G01X29107Y47212D02*
G03X28853Y47466I-254J0D01*
G01*
G75*
G01X27202Y47466D02*
G03X26948Y47212I0J-254D01*
G01*
G75*
G01X14566Y55340D02*
G03X13296Y54070I0J-1270D01*
G01*
G75*
G01X13296Y2000D02*
G03X14566Y730I1270J0D01*
G01*
G75*
G01X32346Y730D02*
G03X33616Y2000I0J1270D01*
G01*
G75*
G01X33616Y54070D02*
G03X32346Y55340I-1270J0D01*
G01*
G75*
G01X44851Y37509D02*
G03X44851Y37509I-1448J0D01*
G01*
G75*
G01X44851Y34004D02*
G03X44851Y34004I-1448J0D01*
G01*
G75*
G01X44851Y30498D02*
G03X44851Y30498I-1448J0D01*
G01*
G75*
G01X17106Y52800D02*
G03X17106Y52800I-1270J0D01*
G01*
G75*
G01X27901Y52800D02*
G03X27901Y52800I-1905J0D01*
G01*
G75*
G01X17106Y3270D02*
G03X17106Y3270I-1270J0D01*
G01*
M00*
M02*
