G04 Layer: BottomSolderMaskLayer*
G04 EasyEDA v6.1.49, Tue, 11 Jun 2019 08:39:05 GMT*
G04 95c1c70a206543ea8c01bf924e9efc33,195b170a8e6c43a181dcefc3e1346bee,10*
G04 Gerber Generator version 0.2*
G04 Scale: 100 percent, Rotated: No, Reflected: No *
G04 Dimensions in millimeters *
G04 leading zeros omitted , absolute positions ,3 integer and 3 decimal *
%FSLAX33Y33*%
%MOMM*%
G90*
G71D02*

%ADD36C,1.473200*%
%ADD38C,1.778000*%
%ADD40C,1.854200*%
%ADD42C,1.902460*%
%ADD43C,1.625600*%
%ADD44C,1.723187*%
%ADD45R,1.723187X1.723187*%
%ADD47R,2.103196X2.103196*%
%ADD48C,2.103196*%

%LPD*%
G36*
G01X42752Y18769D02*
G01X42752Y20242D01*
G01X44225Y20242D01*
G01X44225Y18769D01*
G01X42752Y18769D01*
G37*
G54D36*
G01X43499Y21509D03*
G01X43499Y23491D03*
G01X43499Y25497D03*
G36*
G01X5261Y38268D02*
G01X5261Y39741D01*
G01X6735Y39741D01*
G01X6735Y38268D01*
G01X5261Y38268D01*
G37*
G01X6000Y36990D03*
G01X6000Y35009D03*
G01X6000Y33002D03*
G36*
G01X42759Y7765D02*
G01X42759Y9239D01*
G01X44233Y9239D01*
G01X44233Y7765D01*
G01X42759Y7765D01*
G37*
G01X43499Y10511D03*
G01X43499Y12492D03*
G01X43499Y14499D03*
G36*
G01X4759Y15774D02*
G01X4759Y17247D01*
G01X6232Y17247D01*
G01X6232Y15774D01*
G01X4759Y15774D01*
G37*
G01X5500Y14491D03*
G01X5500Y12510D03*
G01X5500Y10504D03*
G36*
G01X34758Y45561D02*
G01X34758Y47339D01*
G01X36536Y47339D01*
G01X36536Y45561D01*
G01X34758Y45561D01*
G37*
G54D38*
G01X35647Y43910D03*
G01X35647Y41370D03*
G01X35647Y38830D03*
G01X35647Y36290D03*
G01X35647Y33750D03*
G01X35647Y31210D03*
G01X35647Y28670D03*
G01X35647Y26130D03*
G01X35647Y23590D03*
G01X35647Y21050D03*
G01X35647Y18510D03*
G01X35647Y15970D03*
G01X35647Y13430D03*
G36*
G01X13676Y45561D02*
G01X13676Y47339D01*
G01X15454Y47339D01*
G01X15454Y45561D01*
G01X13676Y45561D01*
G37*
G01X14565Y43910D03*
G01X14565Y41370D03*
G01X14565Y38830D03*
G01X14565Y36290D03*
G01X14565Y33750D03*
G01X14565Y31210D03*
G01X14565Y28670D03*
G01X14565Y26130D03*
G01X14565Y23590D03*
G01X14565Y21050D03*
G01X14565Y18510D03*
G01X14565Y15970D03*
G01X14565Y13430D03*
G36*
G01X31456Y45561D02*
G01X31456Y47339D01*
G01X33234Y47339D01*
G01X33234Y45561D01*
G01X31456Y45561D01*
G37*
G01X32345Y43910D03*
G01X32345Y41370D03*
G01X32345Y38830D03*
G01X32345Y36290D03*
G01X32345Y33750D03*
G01X32345Y31210D03*
G01X32345Y28670D03*
G01X32345Y26130D03*
G01X32345Y23590D03*
G01X32345Y21050D03*
G01X32345Y18510D03*
G01X32345Y15970D03*
G01X32345Y13430D03*
G36*
G01X9866Y45561D02*
G01X9866Y47339D01*
G01X11644Y47339D01*
G01X11644Y45561D01*
G01X9866Y45561D01*
G37*
G01X10755Y43910D03*
G01X10755Y41370D03*
G01X10755Y38830D03*
G01X10755Y36290D03*
G01X10755Y33750D03*
G01X10755Y31210D03*
G01X10755Y28670D03*
G01X10755Y26130D03*
G01X10755Y23590D03*
G01X10755Y21050D03*
G01X10755Y18510D03*
G01X10755Y15970D03*
G01X10755Y13430D03*
G36*
G01X28922Y50069D02*
G01X28922Y51923D01*
G01X30776Y51923D01*
G01X30776Y50069D01*
G01X28922Y50069D01*
G37*
G54D40*
G01X27309Y50996D03*
G01X24769Y50996D03*
G01X22229Y50996D03*
G01X19689Y50996D03*
G01X17149Y50996D03*
G54D42*
G01X43397Y37504D03*
G01X43397Y33999D03*
G01X43397Y30493D03*
G54D43*
G01X42000Y46509D03*
G01X42000Y48490D03*
G36*
G01X4764Y20765D02*
G01X4764Y22238D01*
G01X6237Y22238D01*
G01X6237Y20765D01*
G01X4764Y20765D01*
G37*
G54D36*
G01X5499Y23509D03*
G01X5499Y25490D03*
G01X5499Y27497D03*
G54D44*
G01X14565Y15970D03*
G01X14565Y13430D03*
G01X32345Y13430D03*
G01X32345Y15970D03*
G01X32345Y18510D03*
G01X32345Y21050D03*
G01X32345Y23590D03*
G01X32345Y26130D03*
G01X32345Y28670D03*
G01X32345Y31210D03*
G01X32345Y33750D03*
G01X32345Y36290D03*
G01X14565Y18510D03*
G01X14565Y21050D03*
G01X14565Y23590D03*
G01X14565Y26130D03*
G01X14565Y28670D03*
G01X14565Y31210D03*
G01X14565Y33750D03*
G01X14565Y36290D03*
G01X14565Y38830D03*
G01X14565Y41370D03*
G01X14565Y43910D03*
G54D45*
G01X14565Y46450D03*
G54D44*
G01X32345Y38830D03*
G01X32345Y41370D03*
G01X32345Y43910D03*
G01X32345Y46450D03*
G54D47*
G01X36730Y3000D03*
G54D48*
G01X39270Y3000D03*
M00*
M02*
