G04 Layer: TopSolderMaskLayer*
G04 EasyEDA v6.1.49, Tue, 04 Jun 2019 06:49:07 GMT*
G04 9f8e81427d8b462fa1083d36fee6df15,195b170a8e6c43a181dcefc3e1346bee,10*
G04 Gerber Generator version 0.2*
G04 Scale: 100 percent, Rotated: No, Reflected: No *
G04 Dimensions in millimeters *
G04 leading zeros omitted , absolute positions ,3 integer and 3 decimal *
%FSLAX33Y33*%
%MOMM*%
G90*
G71D02*

%ADD25C,1.803400*%
%ADD29C,1.473200*%
%ADD30R,1.219200X1.346200*%
%ADD31R,0.838200X1.473200*%

%LPD*%
G54D25*
G01X12552Y13952D03*
G01X12552Y17051D03*
G01X9453Y13952D03*
G01X9504Y17051D03*
G36*
G01X1767Y14993D02*
G01X1767Y16466D01*
G01X3241Y16466D01*
G01X3241Y14993D01*
G01X1767Y14993D01*
G37*
G36*
G01X1767Y17533D02*
G01X1767Y19006D01*
G01X3241Y19006D01*
G01X3241Y17533D01*
G01X1767Y17533D01*
G37*
G36*
G01X5300Y9847D02*
G01X5300Y11150D01*
G01X6703Y11150D01*
G01X6703Y9847D01*
G01X5300Y9847D01*
G37*
G36*
G01X5300Y8148D02*
G01X5300Y9451D01*
G01X6703Y9451D01*
G01X6703Y8148D01*
G01X5300Y8148D01*
G37*
G36*
G01X4302Y15847D02*
G01X4302Y17150D01*
G01X5704Y17150D01*
G01X5704Y15847D01*
G01X4302Y15847D01*
G37*
G36*
G01X4302Y17546D02*
G01X4302Y18849D01*
G01X5704Y18849D01*
G01X5704Y17546D01*
G01X4302Y17546D01*
G37*
G36*
G01X18348Y10802D02*
G01X18348Y12204D01*
G01X19651Y12204D01*
G01X19651Y10802D01*
G01X18348Y10802D01*
G37*
G36*
G01X16649Y10802D02*
G01X16649Y12204D01*
G01X17952Y12204D01*
G01X17952Y10802D01*
G01X16649Y10802D01*
G37*
G36*
G01X18351Y14798D02*
G01X18351Y16200D01*
G01X19654Y16200D01*
G01X19654Y14798D01*
G01X18351Y14798D01*
G37*
G36*
G01X16652Y14798D02*
G01X16652Y16200D01*
G01X17955Y16200D01*
G01X17955Y14798D01*
G01X16652Y14798D01*
G37*
G36*
G01X13263Y3764D02*
G01X13263Y5237D01*
G01X14737Y5237D01*
G01X14737Y3764D01*
G01X13263Y3764D01*
G37*
G54D29*
G01X11993Y4500D03*
G01X10012Y4500D03*
G01X8006Y4500D03*
G36*
G01X2395Y9812D02*
G01X2395Y11158D01*
G01X3614Y11158D01*
G01X3614Y9812D01*
G01X2395Y9812D01*
G37*
G36*
G01X1506Y11844D02*
G01X1506Y13190D01*
G01X2725Y13190D01*
G01X2725Y11844D01*
G01X1506Y11844D01*
G37*
G54D30*
G01X3893Y12517D03*
G54D31*
G01X17997Y19498D03*
G01X19013Y19498D03*
M00*
M02*
