G04 Layer: BottomLayer*
G04 EasyEDA v6.1.49, Tue, 04 Jun 2019 06:49:07 GMT*
G04 9f8e81427d8b462fa1083d36fee6df15,195b170a8e6c43a181dcefc3e1346bee,10*
G04 Gerber Generator version 0.2*
G04 Scale: 100 percent, Rotated: No, Reflected: No *
G04 Dimensions in millimeters *
G04 leading zeros omitted , absolute positions ,3 integer and 3 decimal *
%FSLAX33Y33*%
%MOMM*%
G90*
G71D02*

%ADD12C,0.508000*%
%ADD13C,0.619760*%
%ADD19C,1.600200*%
%ADD20C,1.270000*%

%LPD*%
G36*
G01X9707Y23604D02*
G01X2502Y23604D01*
G01X2437Y23603D01*
G01X2371Y23600D01*
G01X2306Y23595D01*
G01X2241Y23587D01*
G01X2176Y23578D01*
G01X2111Y23567D01*
G01X2047Y23554D01*
G01X1983Y23539D01*
G01X1920Y23521D01*
G01X1857Y23502D01*
G01X1795Y23481D01*
G01X1733Y23458D01*
G01X1673Y23433D01*
G01X1613Y23407D01*
G01X1554Y23378D01*
G01X1496Y23347D01*
G01X1439Y23315D01*
G01X1383Y23281D01*
G01X1328Y23245D01*
G01X1274Y23208D01*
G01X1221Y23169D01*
G01X1170Y23128D01*
G01X1120Y23086D01*
G01X1071Y23042D01*
G01X1024Y22997D01*
G01X978Y22950D01*
G01X933Y22902D01*
G01X890Y22852D01*
G01X849Y22801D01*
G01X809Y22749D01*
G01X771Y22696D01*
G01X735Y22641D01*
G01X700Y22585D01*
G01X667Y22529D01*
G01X636Y22471D01*
G01X607Y22412D01*
G01X579Y22353D01*
G01X553Y22293D01*
G01X530Y22231D01*
G01X508Y22170D01*
G01X488Y22107D01*
G01X470Y22044D01*
G01X454Y21980D01*
G01X440Y21916D01*
G01X428Y21852D01*
G01X418Y21787D01*
G01X410Y21722D01*
G01X404Y21657D01*
G01X400Y21591D01*
G01X398Y21526D01*
G01X398Y21524D01*
G01X399Y21519D01*
G01X399Y21500D01*
G01X398Y5296D01*
G01X399Y5282D01*
G01X403Y5268D01*
G01X408Y5254D01*
G01X415Y5241D01*
G01X423Y5230D01*
G01X433Y5219D01*
G01X445Y5211D01*
G01X458Y5204D01*
G01X471Y5199D01*
G01X486Y5196D01*
G01X500Y5195D01*
G01X514Y5196D01*
G01X529Y5199D01*
G01X542Y5204D01*
G01X555Y5211D01*
G01X567Y5220D01*
G01X577Y5230D01*
G01X618Y5276D01*
G01X661Y5321D01*
G01X706Y5365D01*
G01X752Y5407D01*
G01X799Y5448D01*
G01X847Y5487D01*
G01X897Y5524D01*
G01X948Y5560D01*
G01X1000Y5594D01*
G01X1053Y5626D01*
G01X1108Y5657D01*
G01X1163Y5685D01*
G01X1219Y5712D01*
G01X1276Y5737D01*
G01X1334Y5760D01*
G01X1392Y5782D01*
G01X1452Y5801D01*
G01X1511Y5818D01*
G01X1572Y5833D01*
G01X1632Y5847D01*
G01X1694Y5858D01*
G01X1755Y5867D01*
G01X1817Y5874D01*
G01X1879Y5879D01*
G01X1941Y5883D01*
G01X2004Y5884D01*
G01X2066Y5882D01*
G01X2129Y5879D01*
G01X2192Y5874D01*
G01X2255Y5867D01*
G01X2317Y5857D01*
G01X2379Y5846D01*
G01X2440Y5832D01*
G01X2501Y5817D01*
G01X2562Y5799D01*
G01X2621Y5779D01*
G01X2681Y5758D01*
G01X2739Y5734D01*
G01X2796Y5709D01*
G01X2853Y5681D01*
G01X2909Y5652D01*
G01X2963Y5621D01*
G01X3017Y5588D01*
G01X3070Y5553D01*
G01X3121Y5516D01*
G01X3171Y5478D01*
G01X3220Y5438D01*
G01X3267Y5397D01*
G01X3313Y5354D01*
G01X3357Y5309D01*
G01X3400Y5263D01*
G01X3442Y5216D01*
G01X3482Y5167D01*
G01X3520Y5117D01*
G01X3556Y5066D01*
G01X3591Y5013D01*
G01X3624Y4960D01*
G01X3655Y4905D01*
G01X3685Y4849D01*
G01X3712Y4793D01*
G01X3738Y4735D01*
G01X3761Y4677D01*
G01X3783Y4618D01*
G01X3803Y4558D01*
G01X3820Y4498D01*
G01X3836Y4437D01*
G01X3849Y4375D01*
G01X3861Y4313D01*
G01X3870Y4251D01*
G01X3878Y4189D01*
G01X3883Y4126D01*
G01X3886Y4063D01*
G01X3887Y4000D01*
G01X3886Y3937D01*
G01X3883Y3874D01*
G01X3878Y3811D01*
G01X3870Y3749D01*
G01X3861Y3687D01*
G01X3849Y3625D01*
G01X3836Y3563D01*
G01X3820Y3502D01*
G01X3803Y3442D01*
G01X3783Y3382D01*
G01X3761Y3323D01*
G01X3738Y3265D01*
G01X3712Y3207D01*
G01X3685Y3151D01*
G01X3655Y3095D01*
G01X3624Y3040D01*
G01X3591Y2987D01*
G01X3556Y2934D01*
G01X3520Y2883D01*
G01X3482Y2833D01*
G01X3442Y2784D01*
G01X3400Y2737D01*
G01X3357Y2691D01*
G01X3313Y2646D01*
G01X3267Y2603D01*
G01X3220Y2562D01*
G01X3171Y2522D01*
G01X3121Y2484D01*
G01X3070Y2447D01*
G01X3017Y2412D01*
G01X2963Y2379D01*
G01X2909Y2348D01*
G01X2853Y2319D01*
G01X2796Y2291D01*
G01X2739Y2266D01*
G01X2681Y2242D01*
G01X2621Y2221D01*
G01X2562Y2201D01*
G01X2501Y2183D01*
G01X2440Y2168D01*
G01X2379Y2154D01*
G01X2317Y2143D01*
G01X2255Y2133D01*
G01X2192Y2126D01*
G01X2129Y2121D01*
G01X2066Y2118D01*
G01X2004Y2116D01*
G01X1941Y2117D01*
G01X1879Y2121D01*
G01X1817Y2126D01*
G01X1755Y2133D01*
G01X1694Y2142D01*
G01X1632Y2153D01*
G01X1572Y2167D01*
G01X1511Y2182D01*
G01X1451Y2199D01*
G01X1392Y2218D01*
G01X1334Y2240D01*
G01X1276Y2263D01*
G01X1219Y2288D01*
G01X1163Y2315D01*
G01X1107Y2343D01*
G01X1053Y2374D01*
G01X1000Y2406D01*
G01X948Y2440D01*
G01X897Y2476D01*
G01X847Y2513D01*
G01X799Y2552D01*
G01X751Y2593D01*
G01X706Y2635D01*
G01X661Y2679D01*
G01X618Y2724D01*
G01X577Y2770D01*
G01X567Y2781D01*
G01X555Y2789D01*
G01X542Y2796D01*
G01X529Y2801D01*
G01X514Y2805D01*
G01X500Y2806D01*
G01X485Y2805D01*
G01X471Y2801D01*
G01X458Y2796D01*
G01X445Y2789D01*
G01X433Y2781D01*
G01X423Y2770D01*
G01X414Y2759D01*
G01X407Y2746D01*
G01X402Y2733D01*
G01X399Y2718D01*
G01X398Y2704D01*
G01X398Y2499D01*
G01X397Y2463D01*
G01X396Y2454D01*
G01X396Y2452D01*
G01X399Y2385D01*
G01X404Y2319D01*
G01X410Y2253D01*
G01X419Y2187D01*
G01X430Y2121D01*
G01X443Y2056D01*
G01X458Y1992D01*
G01X475Y1927D01*
G01X494Y1864D01*
G01X515Y1801D01*
G01X538Y1738D01*
G01X563Y1677D01*
G01X590Y1616D01*
G01X619Y1556D01*
G01X650Y1497D01*
G01X683Y1439D01*
G01X717Y1382D01*
G01X753Y1327D01*
G01X791Y1272D01*
G01X831Y1219D01*
G01X872Y1167D01*
G01X915Y1116D01*
G01X959Y1066D01*
G01X1005Y1019D01*
G01X1053Y972D01*
G01X1102Y927D01*
G01X1152Y884D01*
G01X1204Y842D01*
G01X1257Y802D01*
G01X1311Y764D01*
G01X1367Y727D01*
G01X1423Y692D01*
G01X1481Y659D01*
G01X1540Y628D01*
G01X1599Y598D01*
G01X1660Y571D01*
G01X1721Y545D01*
G01X1783Y522D01*
G01X1846Y500D01*
G01X1909Y480D01*
G01X1974Y463D01*
G01X2038Y447D01*
G01X2103Y433D01*
G01X2169Y422D01*
G01X2234Y413D01*
G01X2301Y405D01*
G01X2367Y400D01*
G01X2433Y397D01*
G01X2500Y396D01*
G01X19025Y396D01*
G01X19098Y397D01*
G01X19171Y401D01*
G01X19244Y407D01*
G01X19317Y414D01*
G01X19390Y424D01*
G01X19462Y436D01*
G01X19534Y450D01*
G01X19606Y466D01*
G01X19677Y484D01*
G01X19748Y504D01*
G01X19818Y526D01*
G01X19887Y549D01*
G01X19956Y575D01*
G01X20024Y603D01*
G01X20091Y633D01*
G01X20157Y664D01*
G01X20223Y697D01*
G01X20287Y733D01*
G01X20350Y770D01*
G01X20413Y808D01*
G01X20474Y849D01*
G01X20534Y891D01*
G01X20593Y935D01*
G01X20650Y981D01*
G01X20707Y1028D01*
G01X20761Y1076D01*
G01X20815Y1127D01*
G01X20867Y1178D01*
G01X20918Y1231D01*
G01X20967Y1286D01*
G01X21014Y1342D01*
G01X21060Y1399D01*
G01X21104Y1458D01*
G01X21147Y1517D01*
G01X21188Y1578D01*
G01X21227Y1640D01*
G01X21264Y1704D01*
G01X21300Y1768D01*
G01X21334Y1833D01*
G01X21366Y1899D01*
G01X21396Y1966D01*
G01X21424Y2034D01*
G01X21450Y2102D01*
G01X21475Y2171D01*
G01X21497Y2241D01*
G01X21517Y2312D01*
G01X21536Y2383D01*
G01X21552Y2454D01*
G01X21566Y2526D01*
G01X21579Y2599D01*
G01X21589Y2671D01*
G01X21590Y2684D01*
G01X21589Y2698D01*
G01X21586Y2713D01*
G01X21581Y2726D01*
G01X21574Y2739D01*
G01X21565Y2751D01*
G01X21555Y2761D01*
G01X21543Y2769D01*
G01X21530Y2776D01*
G01X21517Y2781D01*
G01X21503Y2785D01*
G01X21488Y2786D01*
G01X21471Y2784D01*
G01X21455Y2780D01*
G01X21439Y2773D01*
G01X21425Y2763D01*
G01X21412Y2751D01*
G01X21369Y2704D01*
G01X21325Y2659D01*
G01X21278Y2615D01*
G01X21231Y2572D01*
G01X21182Y2532D01*
G01X21131Y2493D01*
G01X21080Y2455D01*
G01X21027Y2420D01*
G01X20973Y2386D01*
G01X20918Y2354D01*
G01X20861Y2324D01*
G01X20804Y2296D01*
G01X20746Y2270D01*
G01X20687Y2245D01*
G01X20627Y2223D01*
G01X20567Y2203D01*
G01X20506Y2185D01*
G01X20444Y2169D01*
G01X20382Y2155D01*
G01X20319Y2143D01*
G01X20256Y2134D01*
G01X20193Y2126D01*
G01X20129Y2121D01*
G01X20066Y2118D01*
G01X20002Y2116D01*
G01X19939Y2118D01*
G01X19876Y2121D01*
G01X19813Y2126D01*
G01X19751Y2133D01*
G01X19689Y2143D01*
G01X19627Y2154D01*
G01X19565Y2168D01*
G01X19504Y2183D01*
G01X19444Y2201D01*
G01X19384Y2221D01*
G01X19325Y2242D01*
G01X19267Y2266D01*
G01X19209Y2291D01*
G01X19153Y2319D01*
G01X19097Y2348D01*
G01X19042Y2379D01*
G01X18989Y2412D01*
G01X18936Y2447D01*
G01X18885Y2484D01*
G01X18835Y2522D01*
G01X18786Y2562D01*
G01X18739Y2603D01*
G01X18693Y2646D01*
G01X18648Y2691D01*
G01X18605Y2737D01*
G01X18564Y2784D01*
G01X18524Y2833D01*
G01X18486Y2883D01*
G01X18449Y2934D01*
G01X18414Y2987D01*
G01X18381Y3040D01*
G01X18350Y3095D01*
G01X18321Y3151D01*
G01X18293Y3207D01*
G01X18268Y3265D01*
G01X18244Y3323D01*
G01X18223Y3382D01*
G01X18203Y3442D01*
G01X18185Y3502D01*
G01X18170Y3563D01*
G01X18156Y3625D01*
G01X18145Y3687D01*
G01X18135Y3749D01*
G01X18128Y3811D01*
G01X18123Y3874D01*
G01X18120Y3937D01*
G01X18118Y4000D01*
G01X18120Y4063D01*
G01X18123Y4126D01*
G01X18128Y4189D01*
G01X18135Y4251D01*
G01X18145Y4313D01*
G01X18156Y4375D01*
G01X18170Y4437D01*
G01X18185Y4498D01*
G01X18203Y4558D01*
G01X18223Y4618D01*
G01X18244Y4677D01*
G01X18268Y4735D01*
G01X18293Y4793D01*
G01X18321Y4849D01*
G01X18350Y4905D01*
G01X18381Y4960D01*
G01X18414Y5013D01*
G01X18449Y5066D01*
G01X18486Y5117D01*
G01X18524Y5167D01*
G01X18564Y5216D01*
G01X18605Y5263D01*
G01X18648Y5309D01*
G01X18693Y5354D01*
G01X18739Y5397D01*
G01X18786Y5438D01*
G01X18835Y5478D01*
G01X18885Y5516D01*
G01X18936Y5553D01*
G01X18989Y5588D01*
G01X19042Y5621D01*
G01X19097Y5652D01*
G01X19153Y5681D01*
G01X19209Y5709D01*
G01X19267Y5734D01*
G01X19325Y5758D01*
G01X19384Y5779D01*
G01X19444Y5799D01*
G01X19504Y5817D01*
G01X19565Y5832D01*
G01X19627Y5846D01*
G01X19689Y5857D01*
G01X19751Y5867D01*
G01X19813Y5874D01*
G01X19876Y5879D01*
G01X19939Y5882D01*
G01X20002Y5884D01*
G01X20064Y5883D01*
G01X20126Y5879D01*
G01X20188Y5874D01*
G01X20250Y5867D01*
G01X20312Y5858D01*
G01X20373Y5847D01*
G01X20434Y5833D01*
G01X20494Y5818D01*
G01X20554Y5801D01*
G01X20613Y5782D01*
G01X20672Y5760D01*
G01X20730Y5737D01*
G01X20787Y5712D01*
G01X20843Y5685D01*
G01X20898Y5657D01*
G01X20952Y5626D01*
G01X21006Y5594D01*
G01X21058Y5560D01*
G01X21109Y5524D01*
G01X21158Y5487D01*
G01X21207Y5448D01*
G01X21254Y5407D01*
G01X21300Y5365D01*
G01X21344Y5321D01*
G01X21387Y5276D01*
G01X21429Y5230D01*
G01X21439Y5220D01*
G01X21451Y5211D01*
G01X21463Y5204D01*
G01X21477Y5199D01*
G01X21491Y5196D01*
G01X21506Y5195D01*
G01X21520Y5196D01*
G01X21534Y5199D01*
G01X21548Y5204D01*
G01X21561Y5211D01*
G01X21572Y5219D01*
G01X21582Y5230D01*
G01X21591Y5241D01*
G01X21598Y5254D01*
G01X21603Y5268D01*
G01X21606Y5282D01*
G01X21607Y5296D01*
G01X21607Y21459D01*
G01X21606Y21467D01*
G01X21605Y21501D01*
G01X21604Y21567D01*
G01X21601Y21633D01*
G01X21595Y21698D01*
G01X21588Y21764D01*
G01X21579Y21830D01*
G01X21567Y21895D01*
G01X21554Y21959D01*
G01X21539Y22024D01*
G01X21521Y22087D01*
G01X21502Y22150D01*
G01X21480Y22213D01*
G01X21457Y22275D01*
G01X21432Y22336D01*
G01X21404Y22396D01*
G01X21375Y22455D01*
G01X21344Y22514D01*
G01X21312Y22571D01*
G01X21277Y22627D01*
G01X21241Y22683D01*
G01X21203Y22737D01*
G01X21163Y22789D01*
G01X21122Y22841D01*
G01X21079Y22891D01*
G01X21035Y22940D01*
G01X20989Y22988D01*
G01X20941Y23034D01*
G01X20892Y23078D01*
G01X20842Y23121D01*
G01X20791Y23162D01*
G01X20738Y23202D01*
G01X20684Y23240D01*
G01X20628Y23276D01*
G01X20572Y23311D01*
G01X20515Y23343D01*
G01X20456Y23374D01*
G01X20397Y23403D01*
G01X20337Y23431D01*
G01X20276Y23456D01*
G01X20214Y23479D01*
G01X20151Y23501D01*
G01X20088Y23520D01*
G01X20025Y23538D01*
G01X19960Y23553D01*
G01X19896Y23566D01*
G01X19831Y23578D01*
G01X19765Y23587D01*
G01X19700Y23594D01*
G01X19634Y23600D01*
G01X19568Y23603D01*
G01X19502Y23604D01*
G01X12299Y23604D01*
G01X12284Y23603D01*
G01X12270Y23600D01*
G01X12257Y23595D01*
G01X12244Y23588D01*
G01X12232Y23579D01*
G01X12222Y23569D01*
G01X12213Y23557D01*
G01X12206Y23544D01*
G01X12201Y23531D01*
G01X12198Y23517D01*
G01X12197Y23502D01*
G01X12198Y23488D01*
G01X12201Y23473D01*
G01X12206Y23460D01*
G01X12213Y23447D01*
G01X12222Y23435D01*
G01X12232Y23425D01*
G01X12279Y23384D01*
G01X12324Y23341D01*
G01X12368Y23296D01*
G01X12410Y23251D01*
G01X12450Y23203D01*
G01X12489Y23155D01*
G01X12527Y23105D01*
G01X12563Y23054D01*
G01X12597Y23002D01*
G01X12629Y22949D01*
G01X12659Y22895D01*
G01X12688Y22839D01*
G01X12715Y22783D01*
G01X12740Y22726D01*
G01X12763Y22668D01*
G01X12784Y22610D01*
G01X12804Y22551D01*
G01X12821Y22491D01*
G01X12836Y22430D01*
G01X12849Y22370D01*
G01X12861Y22308D01*
G01X12870Y22247D01*
G01X12877Y22185D01*
G01X12882Y22123D01*
G01X12885Y22061D01*
G01X12886Y21998D01*
G01X12885Y21936D01*
G01X12882Y21873D01*
G01X12877Y21810D01*
G01X12870Y21747D01*
G01X12860Y21685D01*
G01X12849Y21623D01*
G01X12835Y21562D01*
G01X12819Y21501D01*
G01X12802Y21440D01*
G01X12782Y21381D01*
G01X12760Y21321D01*
G01X12737Y21263D01*
G01X12711Y21206D01*
G01X12684Y21149D01*
G01X12655Y21093D01*
G01X12623Y21039D01*
G01X12590Y20985D01*
G01X12556Y20932D01*
G01X12519Y20881D01*
G01X12481Y20831D01*
G01X12441Y20782D01*
G01X12400Y20735D01*
G01X12357Y20689D01*
G01X12312Y20645D01*
G01X12266Y20602D01*
G01X12219Y20560D01*
G01X12170Y20520D01*
G01X12120Y20482D01*
G01X12069Y20446D01*
G01X12016Y20411D01*
G01X11963Y20378D01*
G01X11908Y20347D01*
G01X11852Y20317D01*
G01X11796Y20290D01*
G01X11738Y20264D01*
G01X11680Y20241D01*
G01X11621Y20219D01*
G01X11561Y20199D01*
G01X11500Y20182D01*
G01X11439Y20166D01*
G01X11378Y20153D01*
G01X11316Y20141D01*
G01X11254Y20132D01*
G01X11191Y20124D01*
G01X11129Y20119D01*
G01X11066Y20116D01*
G01X11003Y20115D01*
G01X10940Y20116D01*
G01X10877Y20119D01*
G01X10814Y20124D01*
G01X10752Y20132D01*
G01X10689Y20141D01*
G01X10628Y20153D01*
G01X10566Y20166D01*
G01X10505Y20182D01*
G01X10445Y20199D01*
G01X10385Y20219D01*
G01X10326Y20241D01*
G01X10267Y20264D01*
G01X10210Y20290D01*
G01X10153Y20317D01*
G01X10098Y20347D01*
G01X10043Y20378D01*
G01X9989Y20411D01*
G01X9937Y20446D01*
G01X9886Y20482D01*
G01X9835Y20520D01*
G01X9787Y20560D01*
G01X9739Y20602D01*
G01X9693Y20645D01*
G01X9649Y20689D01*
G01X9606Y20735D01*
G01X9564Y20782D01*
G01X9525Y20831D01*
G01X9486Y20881D01*
G01X9450Y20932D01*
G01X9415Y20985D01*
G01X9382Y21039D01*
G01X9351Y21093D01*
G01X9322Y21149D01*
G01X9294Y21206D01*
G01X9269Y21263D01*
G01X9245Y21321D01*
G01X9223Y21381D01*
G01X9204Y21440D01*
G01X9186Y21501D01*
G01X9171Y21562D01*
G01X9157Y21623D01*
G01X9145Y21685D01*
G01X9136Y21747D01*
G01X9129Y21810D01*
G01X9123Y21873D01*
G01X9120Y21936D01*
G01X9119Y21998D01*
G01X9120Y22061D01*
G01X9123Y22123D01*
G01X9128Y22185D01*
G01X9136Y22247D01*
G01X9145Y22308D01*
G01X9156Y22370D01*
G01X9169Y22430D01*
G01X9185Y22491D01*
G01X9202Y22551D01*
G01X9221Y22610D01*
G01X9242Y22668D01*
G01X9265Y22726D01*
G01X9290Y22783D01*
G01X9317Y22839D01*
G01X9346Y22895D01*
G01X9377Y22949D01*
G01X9409Y23002D01*
G01X9443Y23054D01*
G01X9479Y23105D01*
G01X9516Y23155D01*
G01X9555Y23203D01*
G01X9596Y23251D01*
G01X9638Y23296D01*
G01X9682Y23341D01*
G01X9727Y23384D01*
G01X9773Y23425D01*
G01X9783Y23435D01*
G01X9792Y23447D01*
G01X9799Y23460D01*
G01X9804Y23473D01*
G01X9807Y23488D01*
G01X9808Y23502D01*
G01X9807Y23517D01*
G01X9804Y23531D01*
G01X9799Y23544D01*
G01X9792Y23557D01*
G01X9784Y23569D01*
G01X9773Y23579D01*
G01X9762Y23588D01*
G01X9749Y23595D01*
G01X9735Y23600D01*
G01X9721Y23603D01*
G01X9707Y23604D01*
G37*

%LPC*%
G36*
G01X9504Y15134D02*
G01X9453Y15135D01*
G01X9403Y15134D01*
G01X9353Y15131D01*
G01X9303Y15126D01*
G01X9253Y15118D01*
G01X9204Y15109D01*
G01X9155Y15097D01*
G01X9107Y15083D01*
G01X9059Y15068D01*
G01X9012Y15050D01*
G01X8966Y15030D01*
G01X8921Y15009D01*
G01X8876Y14985D01*
G01X8833Y14960D01*
G01X8791Y14932D01*
G01X8750Y14903D01*
G01X8710Y14873D01*
G01X8671Y14840D01*
G01X8634Y14806D01*
G01X8599Y14771D01*
G01X8565Y14734D01*
G01X8532Y14695D01*
G01X8502Y14656D01*
G01X8473Y14615D01*
G01X8445Y14572D01*
G01X8420Y14529D01*
G01X8396Y14485D01*
G01X8375Y14439D01*
G01X8355Y14393D01*
G01X8337Y14346D01*
G01X8322Y14298D01*
G01X8308Y14250D01*
G01X8296Y14201D01*
G01X8287Y14152D01*
G01X8279Y14102D01*
G01X8274Y14052D01*
G01X8271Y14002D01*
G01X8270Y13952D01*
G01X8271Y13902D01*
G01X8274Y13853D01*
G01X8279Y13803D01*
G01X8286Y13754D01*
G01X8296Y13706D01*
G01X8307Y13658D01*
G01X8320Y13610D01*
G01X8335Y13563D01*
G01X8353Y13516D01*
G01X8372Y13471D01*
G01X8393Y13426D01*
G01X8416Y13382D01*
G01X8441Y13339D01*
G01X8467Y13297D01*
G01X8495Y13257D01*
G01X8525Y13217D01*
G01X8557Y13179D01*
G01X8590Y13142D01*
G01X8625Y13107D01*
G01X8661Y13073D01*
G01X8698Y13040D01*
G01X8737Y13009D01*
G01X8777Y12980D01*
G01X8818Y12953D01*
G01X8830Y12944D01*
G01X8840Y12934D01*
G01X8849Y12922D01*
G01X8856Y12910D01*
G01X8861Y12896D01*
G01X8864Y12882D01*
G01X8865Y12867D01*
G01X8865Y12500D01*
G01X8867Y12461D01*
G01X8870Y12423D01*
G01X8876Y12385D01*
G01X8884Y12347D01*
G01X8894Y12310D01*
G01X8907Y12274D01*
G01X8922Y12238D01*
G01X8938Y12204D01*
G01X8957Y12170D01*
G01X8978Y12138D01*
G01X9001Y12107D01*
G01X9026Y12077D01*
G01X9052Y12049D01*
G01X10052Y11049D01*
G01X10080Y11023D01*
G01X10110Y10998D01*
G01X10141Y10975D01*
G01X10173Y10954D01*
G01X10207Y10935D01*
G01X10241Y10918D01*
G01X10277Y10904D01*
G01X10313Y10891D01*
G01X10350Y10881D01*
G01X10388Y10873D01*
G01X10426Y10867D01*
G01X10464Y10863D01*
G01X10503Y10862D01*
G01X15213Y10862D01*
G01X15232Y10861D01*
G01X15250Y10855D01*
G01X15291Y10841D01*
G01X15332Y10829D01*
G01X15375Y10819D01*
G01X15417Y10813D01*
G01X15460Y10809D01*
G01X15504Y10807D01*
G01X15541Y10808D01*
G01X15579Y10811D01*
G01X15616Y10816D01*
G01X15653Y10823D01*
G01X15689Y10832D01*
G01X15725Y10843D01*
G01X15760Y10856D01*
G01X15795Y10871D01*
G01X15828Y10888D01*
G01X15861Y10906D01*
G01X15893Y10927D01*
G01X15923Y10949D01*
G01X15953Y10972D01*
G01X15981Y10997D01*
G01X16007Y11024D01*
G01X16032Y11052D01*
G01X16056Y11081D01*
G01X16078Y11111D01*
G01X16098Y11143D01*
G01X16116Y11176D01*
G01X16133Y11209D01*
G01X16148Y11244D01*
G01X16161Y11279D01*
G01X16172Y11315D01*
G01X16181Y11352D01*
G01X16188Y11388D01*
G01X16193Y11426D01*
G01X16196Y11463D01*
G01X16197Y11501D01*
G01X16196Y11538D01*
G01X16193Y11576D01*
G01X16188Y11613D01*
G01X16181Y11650D01*
G01X16172Y11686D01*
G01X16161Y11722D01*
G01X16148Y11757D01*
G01X16133Y11792D01*
G01X16116Y11825D01*
G01X16098Y11858D01*
G01X16078Y11890D01*
G01X16056Y11920D01*
G01X16032Y11950D01*
G01X16007Y11977D01*
G01X15981Y12004D01*
G01X15953Y12029D01*
G01X15923Y12053D01*
G01X15893Y12075D01*
G01X15861Y12095D01*
G01X15828Y12113D01*
G01X15795Y12130D01*
G01X15760Y12145D01*
G01X15725Y12158D01*
G01X15689Y12169D01*
G01X15653Y12178D01*
G01X15616Y12185D01*
G01X15579Y12190D01*
G01X15541Y12193D01*
G01X15504Y12194D01*
G01X15466Y12193D01*
G01X15429Y12190D01*
G01X15391Y12185D01*
G01X15354Y12178D01*
G01X15318Y12169D01*
G01X15282Y12158D01*
G01X15247Y12145D01*
G01X15228Y12139D01*
G01X15209Y12137D01*
G01X10809Y12137D01*
G01X10793Y12139D01*
G01X10778Y12142D01*
G01X10763Y12148D01*
G01X10749Y12157D01*
G01X10737Y12167D01*
G01X10170Y12734D01*
G01X10160Y12746D01*
G01X10152Y12760D01*
G01X10145Y12775D01*
G01X10142Y12790D01*
G01X10140Y12806D01*
G01X10140Y12937D01*
G01X10142Y12952D01*
G01X10145Y12967D01*
G01X10151Y12982D01*
G01X10159Y12995D01*
G01X10168Y13007D01*
G01X10180Y13017D01*
G01X10220Y13049D01*
G01X10258Y13084D01*
G01X10295Y13119D01*
G01X10330Y13156D01*
G01X10364Y13195D01*
G01X10396Y13235D01*
G01X10426Y13277D01*
G01X10454Y13320D01*
G01X10481Y13364D01*
G01X10505Y13409D01*
G01X10528Y13455D01*
G01X10548Y13502D01*
G01X10567Y13550D01*
G01X10583Y13598D01*
G01X10597Y13647D01*
G01X10609Y13697D01*
G01X10619Y13748D01*
G01X10627Y13798D01*
G01X10633Y13849D01*
G01X10636Y13900D01*
G01X10637Y13952D01*
G01X10636Y14002D01*
G01X10633Y14052D01*
G01X10627Y14102D01*
G01X10620Y14152D01*
G01X10610Y14201D01*
G01X10599Y14250D01*
G01X10585Y14298D01*
G01X10569Y14346D01*
G01X10552Y14393D01*
G01X10532Y14439D01*
G01X10510Y14485D01*
G01X10487Y14529D01*
G01X10461Y14572D01*
G01X10434Y14615D01*
G01X10405Y14656D01*
G01X10374Y14695D01*
G01X10342Y14734D01*
G01X10308Y14771D01*
G01X10272Y14806D01*
G01X10235Y14840D01*
G01X10197Y14873D01*
G01X10157Y14903D01*
G01X10116Y14932D01*
G01X10074Y14960D01*
G01X10031Y14985D01*
G01X9986Y15009D01*
G01X9941Y15030D01*
G01X9895Y15050D01*
G01X9848Y15068D01*
G01X9800Y15083D01*
G01X9752Y15097D01*
G01X9703Y15109D01*
G01X9653Y15118D01*
G01X9604Y15126D01*
G01X9554Y15131D01*
G01X9504Y15134D01*
G37*
G36*
G01X14635Y5519D02*
G01X13365Y5519D01*
G01X13337Y5517D01*
G01X13309Y5514D01*
G01X13281Y5509D01*
G01X13254Y5502D01*
G01X13227Y5493D01*
G01X13201Y5482D01*
G01X13176Y5469D01*
G01X13152Y5454D01*
G01X13129Y5437D01*
G01X13107Y5419D01*
G01X13087Y5399D01*
G01X13068Y5378D01*
G01X13051Y5355D01*
G01X13036Y5332D01*
G01X13022Y5307D01*
G01X13010Y5281D01*
G01X13001Y5255D01*
G01X12993Y5228D01*
G01X12987Y5200D01*
G01X12983Y5172D01*
G01X12981Y5157D01*
G01X12976Y5143D01*
G01X12969Y5130D01*
G01X12961Y5117D01*
G01X12950Y5106D01*
G01X12939Y5097D01*
G01X12926Y5090D01*
G01X12912Y5084D01*
G01X12897Y5081D01*
G01X12882Y5080D01*
G01X12867Y5081D01*
G01X12852Y5085D01*
G01X12837Y5091D01*
G01X12824Y5098D01*
G01X12812Y5108D01*
G01X12801Y5120D01*
G01X12772Y5156D01*
G01X12741Y5191D01*
G01X12709Y5225D01*
G01X12675Y5257D01*
G01X12640Y5287D01*
G01X12603Y5316D01*
G01X12565Y5343D01*
G01X12526Y5368D01*
G01X12485Y5392D01*
G01X12444Y5413D01*
G01X12402Y5433D01*
G01X12358Y5451D01*
G01X12314Y5466D01*
G01X12270Y5480D01*
G01X12225Y5492D01*
G01X12179Y5501D01*
G01X12133Y5509D01*
G01X12087Y5514D01*
G01X12040Y5517D01*
G01X11993Y5518D01*
G01X11947Y5517D01*
G01X11901Y5514D01*
G01X11856Y5509D01*
G01X11810Y5502D01*
G01X11765Y5492D01*
G01X11720Y5481D01*
G01X11676Y5468D01*
G01X11633Y5453D01*
G01X11590Y5435D01*
G01X11548Y5416D01*
G01X11507Y5395D01*
G01X11467Y5372D01*
G01X11429Y5347D01*
G01X11391Y5321D01*
G01X11354Y5293D01*
G01X11319Y5263D01*
G01X11285Y5232D01*
G01X11253Y5199D01*
G01X11222Y5165D01*
G01X11193Y5130D01*
G01X11165Y5093D01*
G01X11139Y5055D01*
G01X11115Y5016D01*
G01X11093Y4975D01*
G01X11084Y4962D01*
G01X11074Y4950D01*
G01X11062Y4940D01*
G01X11048Y4932D01*
G01X11034Y4926D01*
G01X11018Y4922D01*
G01X11003Y4921D01*
G01X10987Y4922D01*
G01X10972Y4926D01*
G01X10957Y4932D01*
G01X10944Y4940D01*
G01X10932Y4950D01*
G01X10921Y4962D01*
G01X10913Y4975D01*
G01X10891Y5016D01*
G01X10866Y5055D01*
G01X10840Y5093D01*
G01X10813Y5130D01*
G01X10783Y5165D01*
G01X10753Y5199D01*
G01X10720Y5232D01*
G01X10686Y5263D01*
G01X10651Y5293D01*
G01X10615Y5321D01*
G01X10577Y5347D01*
G01X10538Y5372D01*
G01X10498Y5395D01*
G01X10457Y5416D01*
G01X10415Y5435D01*
G01X10373Y5453D01*
G01X10329Y5468D01*
G01X10285Y5481D01*
G01X10240Y5492D01*
G01X10195Y5502D01*
G01X10150Y5509D01*
G01X10104Y5514D01*
G01X10058Y5517D01*
G01X10012Y5518D01*
G01X9965Y5517D01*
G01X9918Y5514D01*
G01X9871Y5509D01*
G01X9825Y5501D01*
G01X9779Y5491D01*
G01X9733Y5479D01*
G01X9688Y5465D01*
G01X9644Y5449D01*
G01X9600Y5431D01*
G01X9558Y5411D01*
G01X9516Y5389D01*
G01X9475Y5366D01*
G01X9436Y5340D01*
G01X9398Y5312D01*
G01X9361Y5283D01*
G01X9325Y5252D01*
G01X9291Y5219D01*
G01X9259Y5185D01*
G01X9228Y5150D01*
G01X9199Y5113D01*
G01X9171Y5075D01*
G01X9146Y5035D01*
G01X9122Y4994D01*
G01X9100Y4953D01*
G01X9092Y4939D01*
G01X9081Y4927D01*
G01X9069Y4916D01*
G01X9055Y4908D01*
G01X9041Y4901D01*
G01X9025Y4898D01*
G01X9009Y4896D01*
G01X8993Y4898D01*
G01X8977Y4901D01*
G01X8962Y4908D01*
G01X8949Y4916D01*
G01X8937Y4927D01*
G01X8926Y4939D01*
G01X8918Y4953D01*
G01X8896Y4994D01*
G01X8873Y5034D01*
G01X8848Y5073D01*
G01X8821Y5110D01*
G01X8793Y5147D01*
G01X8762Y5182D01*
G01X8731Y5215D01*
G01X8697Y5247D01*
G01X8663Y5278D01*
G01X8627Y5307D01*
G01X8589Y5334D01*
G01X8551Y5360D01*
G01X8511Y5384D01*
G01X8471Y5406D01*
G01X8429Y5426D01*
G01X8387Y5444D01*
G01X8387Y4881D01*
G01X8927Y4881D01*
G01X8942Y4880D01*
G01X8956Y4877D01*
G01X8970Y4872D01*
G01X8982Y4865D01*
G01X8994Y4856D01*
G01X9004Y4846D01*
G01X9013Y4834D01*
G01X9020Y4821D01*
G01X9025Y4808D01*
G01X9028Y4794D01*
G01X9029Y4779D01*
G01X9026Y4754D01*
G01X9014Y4704D01*
G01X9005Y4653D01*
G01X8999Y4602D01*
G01X8995Y4551D01*
G01X8994Y4500D01*
G01X8995Y4449D01*
G01X8999Y4397D01*
G01X9005Y4346D01*
G01X9014Y4296D01*
G01X9026Y4246D01*
G01X9029Y4220D01*
G01X9028Y4206D01*
G01X9025Y4192D01*
G01X9020Y4178D01*
G01X9013Y4166D01*
G01X9004Y4154D01*
G01X8994Y4144D01*
G01X8982Y4135D01*
G01X8970Y4128D01*
G01X8956Y4123D01*
G01X8942Y4120D01*
G01X8927Y4119D01*
G01X8387Y4119D01*
G01X8387Y3555D01*
G01X8429Y3574D01*
G01X8471Y3594D01*
G01X8511Y3616D01*
G01X8551Y3640D01*
G01X8589Y3665D01*
G01X8627Y3693D01*
G01X8663Y3722D01*
G01X8697Y3752D01*
G01X8731Y3784D01*
G01X8762Y3818D01*
G01X8793Y3853D01*
G01X8821Y3890D01*
G01X8848Y3927D01*
G01X8873Y3966D01*
G01X8896Y4006D01*
G01X8918Y4047D01*
G01X8926Y4061D01*
G01X8937Y4073D01*
G01X8949Y4084D01*
G01X8962Y4092D01*
G01X8977Y4098D01*
G01X8993Y4102D01*
G01X9009Y4103D01*
G01X9025Y4102D01*
G01X9041Y4098D01*
G01X9055Y4092D01*
G01X9069Y4084D01*
G01X9081Y4073D01*
G01X9092Y4061D01*
G01X9100Y4047D01*
G01X9122Y4005D01*
G01X9146Y3965D01*
G01X9171Y3925D01*
G01X9199Y3887D01*
G01X9228Y3850D01*
G01X9259Y3814D01*
G01X9291Y3780D01*
G01X9325Y3748D01*
G01X9361Y3717D01*
G01X9398Y3687D01*
G01X9436Y3660D01*
G01X9475Y3634D01*
G01X9516Y3610D01*
G01X9558Y3588D01*
G01X9600Y3568D01*
G01X9644Y3550D01*
G01X9688Y3534D01*
G01X9733Y3520D01*
G01X9779Y3508D01*
G01X9825Y3499D01*
G01X9871Y3491D01*
G01X9918Y3486D01*
G01X9965Y3482D01*
G01X10012Y3481D01*
G01X10058Y3482D01*
G01X10104Y3485D01*
G01X10150Y3491D01*
G01X10195Y3498D01*
G01X10240Y3507D01*
G01X10285Y3519D01*
G01X10329Y3532D01*
G01X10373Y3547D01*
G01X10415Y3565D01*
G01X10457Y3584D01*
G01X10498Y3605D01*
G01X10538Y3628D01*
G01X10577Y3652D01*
G01X10615Y3679D01*
G01X10651Y3707D01*
G01X10686Y3736D01*
G01X10720Y3768D01*
G01X10753Y3800D01*
G01X10813Y3870D01*
G01X10840Y3907D01*
G01X10866Y3945D01*
G01X10891Y3984D01*
G01X10913Y4024D01*
G01X10921Y4038D01*
G01X10932Y4050D01*
G01X10944Y4060D01*
G01X10957Y4068D01*
G01X10972Y4074D01*
G01X10987Y4077D01*
G01X11003Y4079D01*
G01X11018Y4077D01*
G01X11034Y4074D01*
G01X11048Y4068D01*
G01X11062Y4060D01*
G01X11074Y4050D01*
G01X11084Y4038D01*
G01X11093Y4024D01*
G01X11115Y3984D01*
G01X11139Y3945D01*
G01X11165Y3907D01*
G01X11193Y3870D01*
G01X11222Y3835D01*
G01X11253Y3800D01*
G01X11285Y3768D01*
G01X11319Y3736D01*
G01X11354Y3707D01*
G01X11391Y3679D01*
G01X11429Y3652D01*
G01X11467Y3628D01*
G01X11507Y3605D01*
G01X11548Y3584D01*
G01X11590Y3565D01*
G01X11633Y3547D01*
G01X11676Y3532D01*
G01X11720Y3519D01*
G01X11765Y3507D01*
G01X11810Y3498D01*
G01X11856Y3491D01*
G01X11901Y3485D01*
G01X11947Y3482D01*
G01X11993Y3481D01*
G01X12040Y3482D01*
G01X12087Y3486D01*
G01X12133Y3491D01*
G01X12179Y3498D01*
G01X12225Y3508D01*
G01X12270Y3520D01*
G01X12314Y3533D01*
G01X12358Y3549D01*
G01X12402Y3567D01*
G01X12444Y3586D01*
G01X12485Y3608D01*
G01X12526Y3631D01*
G01X12565Y3657D01*
G01X12603Y3684D01*
G01X12640Y3713D01*
G01X12675Y3743D01*
G01X12709Y3775D01*
G01X12741Y3809D01*
G01X12772Y3844D01*
G01X12802Y3880D01*
G01X12812Y3891D01*
G01X12824Y3901D01*
G01X12837Y3909D01*
G01X12852Y3915D01*
G01X12867Y3918D01*
G01X12882Y3920D01*
G01X12897Y3919D01*
G01X12912Y3915D01*
G01X12926Y3910D01*
G01X12939Y3903D01*
G01X12950Y3893D01*
G01X12961Y3882D01*
G01X12969Y3870D01*
G01X12976Y3857D01*
G01X12981Y3843D01*
G01X12983Y3828D01*
G01X12987Y3800D01*
G01X12993Y3772D01*
G01X13001Y3745D01*
G01X13010Y3719D01*
G01X13022Y3693D01*
G01X13036Y3668D01*
G01X13051Y3644D01*
G01X13068Y3622D01*
G01X13087Y3601D01*
G01X13107Y3581D01*
G01X13129Y3563D01*
G01X13152Y3546D01*
G01X13176Y3531D01*
G01X13201Y3518D01*
G01X13227Y3507D01*
G01X13254Y3498D01*
G01X13281Y3491D01*
G01X13309Y3486D01*
G01X13337Y3483D01*
G01X13365Y3481D01*
G01X14635Y3481D01*
G01X14664Y3483D01*
G01X14692Y3486D01*
G01X14720Y3491D01*
G01X14748Y3498D01*
G01X14775Y3508D01*
G01X14801Y3519D01*
G01X14827Y3533D01*
G01X14851Y3548D01*
G01X14874Y3565D01*
G01X14896Y3584D01*
G01X14916Y3604D01*
G01X14935Y3626D01*
G01X14952Y3649D01*
G01X14967Y3673D01*
G01X14981Y3699D01*
G01X14992Y3725D01*
G01X15001Y3752D01*
G01X15009Y3780D01*
G01X15014Y3808D01*
G01X15017Y3836D01*
G01X15019Y3865D01*
G01X15019Y5135D01*
G01X15017Y5164D01*
G01X15014Y5192D01*
G01X15009Y5220D01*
G01X15001Y5248D01*
G01X14992Y5275D01*
G01X14981Y5301D01*
G01X14967Y5327D01*
G01X14952Y5351D01*
G01X14935Y5374D01*
G01X14916Y5396D01*
G01X14896Y5416D01*
G01X14874Y5435D01*
G01X14851Y5452D01*
G01X14827Y5467D01*
G01X14801Y5481D01*
G01X14775Y5492D01*
G01X14748Y5502D01*
G01X14720Y5509D01*
G01X14692Y5514D01*
G01X14664Y5517D01*
G01X14635Y5519D01*
G37*
G36*
G01X9554Y18233D02*
G01X9504Y18234D01*
G01X9454Y18233D01*
G01X9404Y18230D01*
G01X9354Y18225D01*
G01X9304Y18217D01*
G01X9255Y18208D01*
G01X9206Y18196D01*
G01X9158Y18182D01*
G01X9110Y18167D01*
G01X9063Y18149D01*
G01X9017Y18129D01*
G01X8971Y18107D01*
G01X8927Y18084D01*
G01X8884Y18058D01*
G01X8841Y18031D01*
G01X8800Y18002D01*
G01X8761Y17971D01*
G01X8722Y17939D01*
G01X8685Y17905D01*
G01X8650Y17870D01*
G01X8616Y17833D01*
G01X8583Y17794D01*
G01X8553Y17754D01*
G01X8524Y17713D01*
G01X8496Y17671D01*
G01X8471Y17628D01*
G01X8447Y17583D01*
G01X8426Y17538D01*
G01X8406Y17492D01*
G01X8388Y17445D01*
G01X8372Y17397D01*
G01X8359Y17349D01*
G01X8347Y17300D01*
G01X8338Y17251D01*
G01X8330Y17201D01*
G01X8325Y17151D01*
G01X8322Y17101D01*
G01X8321Y17051D01*
G01X8322Y17000D01*
G01X8325Y16950D01*
G01X8330Y16900D01*
G01X8338Y16850D01*
G01X8347Y16801D01*
G01X8359Y16752D01*
G01X8372Y16704D01*
G01X8388Y16656D01*
G01X8406Y16609D01*
G01X8426Y16563D01*
G01X8447Y16518D01*
G01X8471Y16473D01*
G01X8496Y16430D01*
G01X8524Y16388D01*
G01X8553Y16347D01*
G01X8583Y16307D01*
G01X8616Y16269D01*
G01X8650Y16232D01*
G01X8685Y16196D01*
G01X8722Y16162D01*
G01X8761Y16130D01*
G01X8800Y16099D01*
G01X8841Y16070D01*
G01X8884Y16043D01*
G01X8927Y16017D01*
G01X8971Y15994D01*
G01X9017Y15972D01*
G01X9063Y15952D01*
G01X9110Y15934D01*
G01X9158Y15919D01*
G01X9206Y15905D01*
G01X9255Y15893D01*
G01X9304Y15884D01*
G01X9354Y15876D01*
G01X9404Y15871D01*
G01X9454Y15868D01*
G01X9504Y15867D01*
G01X9554Y15868D01*
G01X9605Y15871D01*
G01X9655Y15876D01*
G01X9704Y15884D01*
G01X9754Y15893D01*
G01X9802Y15905D01*
G01X9851Y15919D01*
G01X9898Y15934D01*
G01X9946Y15952D01*
G01X9992Y15972D01*
G01X10037Y15994D01*
G01X10081Y16017D01*
G01X10125Y16043D01*
G01X10167Y16070D01*
G01X10208Y16099D01*
G01X10248Y16130D01*
G01X10286Y16162D01*
G01X10323Y16196D01*
G01X10359Y16232D01*
G01X10393Y16269D01*
G01X10425Y16307D01*
G01X10456Y16347D01*
G01X10485Y16388D01*
G01X10512Y16430D01*
G01X10538Y16473D01*
G01X10561Y16518D01*
G01X10583Y16563D01*
G01X10602Y16609D01*
G01X10620Y16656D01*
G01X10636Y16704D01*
G01X10650Y16752D01*
G01X10661Y16801D01*
G01X10671Y16850D01*
G01X10678Y16900D01*
G01X10684Y16950D01*
G01X10687Y17000D01*
G01X10688Y17051D01*
G01X10687Y17101D01*
G01X10684Y17151D01*
G01X10678Y17201D01*
G01X10671Y17251D01*
G01X10661Y17300D01*
G01X10650Y17349D01*
G01X10636Y17397D01*
G01X10620Y17445D01*
G01X10602Y17492D01*
G01X10583Y17538D01*
G01X10561Y17583D01*
G01X10538Y17628D01*
G01X10512Y17671D01*
G01X10485Y17713D01*
G01X10456Y17754D01*
G01X10425Y17794D01*
G01X10393Y17833D01*
G01X10359Y17870D01*
G01X10323Y17905D01*
G01X10286Y17939D01*
G01X10248Y17971D01*
G01X10208Y18002D01*
G01X10167Y18031D01*
G01X10125Y18058D01*
G01X10081Y18084D01*
G01X10037Y18107D01*
G01X9992Y18129D01*
G01X9946Y18149D01*
G01X9898Y18167D01*
G01X9851Y18182D01*
G01X9802Y18196D01*
G01X9754Y18208D01*
G01X9704Y18217D01*
G01X9655Y18225D01*
G01X9605Y18230D01*
G01X9554Y18233D01*
G37*
G36*
G01X12602Y15134D02*
G01X12552Y15135D01*
G01X12502Y15134D01*
G01X12452Y15131D01*
G01X12402Y15126D01*
G01X12352Y15118D01*
G01X12303Y15109D01*
G01X12254Y15097D01*
G01X12206Y15083D01*
G01X12158Y15068D01*
G01X12111Y15050D01*
G01X12065Y15030D01*
G01X12019Y15009D01*
G01X11975Y14985D01*
G01X11932Y14960D01*
G01X11889Y14932D01*
G01X11848Y14903D01*
G01X11809Y14873D01*
G01X11770Y14840D01*
G01X11733Y14806D01*
G01X11698Y14771D01*
G01X11664Y14734D01*
G01X11631Y14695D01*
G01X11601Y14656D01*
G01X11572Y14615D01*
G01X11544Y14572D01*
G01X11519Y14529D01*
G01X11495Y14485D01*
G01X11474Y14439D01*
G01X11454Y14393D01*
G01X11436Y14346D01*
G01X11420Y14298D01*
G01X11407Y14250D01*
G01X11395Y14201D01*
G01X11386Y14152D01*
G01X11378Y14102D01*
G01X11373Y14052D01*
G01X11370Y14002D01*
G01X11369Y13952D01*
G01X11370Y13901D01*
G01X11373Y13851D01*
G01X11378Y13801D01*
G01X11386Y13752D01*
G01X11395Y13702D01*
G01X11407Y13653D01*
G01X11420Y13605D01*
G01X11436Y13557D01*
G01X11454Y13510D01*
G01X11474Y13464D01*
G01X11495Y13419D01*
G01X11519Y13374D01*
G01X11544Y13331D01*
G01X11572Y13289D01*
G01X11601Y13248D01*
G01X11631Y13208D01*
G01X11664Y13170D01*
G01X11698Y13133D01*
G01X11733Y13097D01*
G01X11770Y13063D01*
G01X11809Y13031D01*
G01X11848Y13000D01*
G01X11889Y12971D01*
G01X11932Y12944D01*
G01X11975Y12918D01*
G01X12019Y12895D01*
G01X12065Y12873D01*
G01X12111Y12853D01*
G01X12158Y12836D01*
G01X12206Y12820D01*
G01X12254Y12806D01*
G01X12303Y12795D01*
G01X12352Y12785D01*
G01X12402Y12778D01*
G01X12452Y12772D01*
G01X12502Y12769D01*
G01X12552Y12768D01*
G01X12602Y12769D01*
G01X12653Y12772D01*
G01X12703Y12778D01*
G01X12752Y12785D01*
G01X12802Y12795D01*
G01X12850Y12806D01*
G01X12899Y12820D01*
G01X12946Y12836D01*
G01X12994Y12853D01*
G01X13040Y12873D01*
G01X13085Y12895D01*
G01X13129Y12918D01*
G01X13173Y12944D01*
G01X13215Y12971D01*
G01X13256Y13000D01*
G01X13296Y13031D01*
G01X13334Y13063D01*
G01X13371Y13097D01*
G01X13407Y13133D01*
G01X13441Y13170D01*
G01X13473Y13208D01*
G01X13504Y13248D01*
G01X13533Y13289D01*
G01X13560Y13331D01*
G01X13586Y13374D01*
G01X13609Y13419D01*
G01X13631Y13464D01*
G01X13650Y13510D01*
G01X13668Y13557D01*
G01X13684Y13605D01*
G01X13698Y13653D01*
G01X13709Y13702D01*
G01X13719Y13752D01*
G01X13726Y13801D01*
G01X13732Y13851D01*
G01X13735Y13901D01*
G01X13736Y13952D01*
G01X13735Y14002D01*
G01X13732Y14052D01*
G01X13726Y14102D01*
G01X13719Y14152D01*
G01X13709Y14201D01*
G01X13698Y14250D01*
G01X13684Y14298D01*
G01X13668Y14346D01*
G01X13650Y14393D01*
G01X13631Y14439D01*
G01X13609Y14485D01*
G01X13586Y14529D01*
G01X13560Y14572D01*
G01X13533Y14615D01*
G01X13504Y14656D01*
G01X13473Y14695D01*
G01X13441Y14734D01*
G01X13407Y14771D01*
G01X13371Y14806D01*
G01X13334Y14840D01*
G01X13296Y14873D01*
G01X13256Y14903D01*
G01X13215Y14932D01*
G01X13173Y14960D01*
G01X13129Y14985D01*
G01X13085Y15009D01*
G01X13040Y15030D01*
G01X12994Y15050D01*
G01X12946Y15068D01*
G01X12899Y15083D01*
G01X12850Y15097D01*
G01X12802Y15109D01*
G01X12752Y15118D01*
G01X12703Y15126D01*
G01X12653Y15131D01*
G01X12602Y15134D01*
G37*
G36*
G01X12089Y17514D02*
G01X12089Y18140D01*
G01X12043Y18119D01*
G01X11998Y18096D01*
G01X11954Y18072D01*
G01X11911Y18045D01*
G01X11869Y18017D01*
G01X11829Y17987D01*
G01X11789Y17956D01*
G01X11752Y17922D01*
G01X11715Y17887D01*
G01X11680Y17851D01*
G01X11647Y17813D01*
G01X11615Y17774D01*
G01X11586Y17734D01*
G01X11557Y17692D01*
G01X11531Y17649D01*
G01X11506Y17605D01*
G01X11484Y17560D01*
G01X11463Y17514D01*
G01X12089Y17514D01*
G37*
G36*
G01X12089Y16587D02*
G01X11463Y16587D01*
G01X11484Y16541D01*
G01X11506Y16496D01*
G01X11531Y16452D01*
G01X11557Y16409D01*
G01X11586Y16367D01*
G01X11615Y16327D01*
G01X11647Y16288D01*
G01X11680Y16250D01*
G01X11715Y16214D01*
G01X11752Y16179D01*
G01X11789Y16145D01*
G01X11829Y16114D01*
G01X11869Y16084D01*
G01X11911Y16056D01*
G01X11954Y16029D01*
G01X11998Y16005D01*
G01X12043Y15982D01*
G01X12089Y15961D01*
G01X12089Y16587D01*
G37*
G36*
G01X13641Y16587D02*
G01X13016Y16587D01*
G01X13016Y15961D01*
G01X13062Y15982D01*
G01X13107Y16005D01*
G01X13151Y16029D01*
G01X13194Y16056D01*
G01X13235Y16084D01*
G01X13276Y16114D01*
G01X13315Y16145D01*
G01X13353Y16179D01*
G01X13389Y16214D01*
G01X13424Y16250D01*
G01X13457Y16288D01*
G01X13489Y16327D01*
G01X13519Y16367D01*
G01X13547Y16409D01*
G01X13573Y16452D01*
G01X13598Y16496D01*
G01X13621Y16541D01*
G01X13641Y16587D01*
G37*
G36*
G01X13062Y18119D02*
G01X13016Y18140D01*
G01X13016Y17514D01*
G01X13641Y17514D01*
G01X13621Y17560D01*
G01X13598Y17605D01*
G01X13573Y17649D01*
G01X13547Y17692D01*
G01X13519Y17734D01*
G01X13489Y17774D01*
G01X13457Y17813D01*
G01X13424Y17851D01*
G01X13389Y17887D01*
G01X13353Y17922D01*
G01X13315Y17956D01*
G01X13276Y17987D01*
G01X13235Y18017D01*
G01X13194Y18045D01*
G01X13151Y18072D01*
G01X13107Y18096D01*
G01X13062Y18119D01*
G37*
G36*
G01X7625Y4119D02*
G01X7061Y4119D01*
G01X7079Y4077D01*
G01X7099Y4036D01*
G01X7120Y3996D01*
G01X7144Y3957D01*
G01X7169Y3919D01*
G01X7196Y3882D01*
G01X7224Y3847D01*
G01X7254Y3813D01*
G01X7285Y3780D01*
G01X7318Y3748D01*
G01X7352Y3718D01*
G01X7388Y3690D01*
G01X7425Y3663D01*
G01X7463Y3638D01*
G01X7502Y3615D01*
G01X7542Y3593D01*
G01X7583Y3573D01*
G01X7625Y3555D01*
G01X7625Y4119D01*
G37*
G36*
G01X7625Y4881D02*
G01X7625Y5444D01*
G01X7583Y5427D01*
G01X7542Y5407D01*
G01X7502Y5385D01*
G01X7463Y5362D01*
G01X7425Y5337D01*
G01X7388Y5310D01*
G01X7352Y5281D01*
G01X7318Y5252D01*
G01X7285Y5220D01*
G01X7254Y5187D01*
G01X7224Y5153D01*
G01X7196Y5117D01*
G01X7169Y5081D01*
G01X7144Y5043D01*
G01X7120Y5004D01*
G01X7099Y4964D01*
G01X7079Y4923D01*
G01X7061Y4881D01*
G01X7625Y4881D01*
G37*

%LPD*%
G54D12*
G01X15503Y11500D02*
G01X10503Y11500D01*
G01X9503Y12500D01*
G01X9503Y13902D01*
G01X9453Y13952D01*
G54D19*
G01X12552Y13952D03*
G01X12552Y17051D03*
G01X9453Y13952D03*
G01X9504Y17051D03*
G36*
G01X14635Y3865D02*
G01X13365Y3865D01*
G01X13365Y5135D01*
G01X14635Y5135D01*
G01X14635Y3865D01*
G37*
G54D20*
G01X11993Y4500D03*
G01X10012Y4500D03*
G01X8006Y4500D03*
G54D13*
G01X5006Y13997D03*
G01X3502Y7500D03*
G01X15503Y8500D03*
G01X16004Y17500D03*
G01X5003Y19999D03*
G01X15504Y11501D03*
M00*
M02*
