G04 Layer: TopPasteMaskLayer*
G04 EasyEDA v6.1.49, Tue, 04 Jun 2019 06:49:07 GMT*
G04 9f8e81427d8b462fa1083d36fee6df15,195b170a8e6c43a181dcefc3e1346bee,10*
G04 Gerber Generator version 0.2*
G04 Scale: 100 percent, Rotated: No, Reflected: No *
G04 Dimensions in millimeters *
G04 leading zeros omitted , absolute positions ,3 integer and 3 decimal *
%FSLAX33Y33*%
%MOMM*%
G90*
G71D02*

%ADD17R,1.016000X1.143000*%
%ADD18R,0.635000X1.270000*%

%LPD*%
G36*
G01X1869Y15095D02*
G01X1869Y16365D01*
G01X3139Y16365D01*
G01X3139Y15095D01*
G01X1869Y15095D01*
G37*
G36*
G01X3139Y18905D02*
G01X3139Y17635D01*
G01X1869Y17635D01*
G01X1869Y18905D01*
G01X3139Y18905D01*
G37*
G36*
G01X6601Y11049D02*
G01X6601Y9949D01*
G01X5402Y9949D01*
G01X5402Y11049D01*
G01X6601Y11049D01*
G37*
G36*
G01X6601Y9349D02*
G01X6601Y8249D01*
G01X5402Y8249D01*
G01X5402Y9349D01*
G01X6601Y9349D01*
G37*
G36*
G01X4404Y15948D02*
G01X4404Y17048D01*
G01X5603Y17048D01*
G01X5603Y15948D01*
G01X4404Y15948D01*
G37*
G36*
G01X4404Y17647D02*
G01X4404Y18747D01*
G01X5603Y18747D01*
G01X5603Y17647D01*
G01X4404Y17647D01*
G37*
G36*
G01X19550Y10904D02*
G01X18450Y10904D01*
G01X18450Y12103D01*
G01X19550Y12103D01*
G01X19550Y10904D01*
G37*
G36*
G01X17851Y10904D02*
G01X16751Y10904D01*
G01X16751Y12103D01*
G01X17851Y12103D01*
G01X17851Y10904D01*
G37*
G36*
G01X19552Y14899D02*
G01X18453Y14899D01*
G01X18453Y16098D01*
G01X19552Y16098D01*
G01X19552Y14899D01*
G37*
G36*
G01X17853Y14899D02*
G01X16753Y14899D01*
G01X16753Y16098D01*
G01X17853Y16098D01*
G01X17853Y14899D01*
G37*
G36*
G01X3512Y9913D02*
G01X2496Y9913D01*
G01X2496Y11056D01*
G01X3512Y11056D01*
G01X3512Y9913D01*
G37*
G36*
G01X2623Y11945D02*
G01X1607Y11945D01*
G01X1607Y13088D01*
G01X2623Y13088D01*
G01X2623Y11945D01*
G37*
G54D17*
G01X3893Y12517D03*
G54D18*
G01X17997Y19498D03*
G01X19013Y19498D03*
M00*
M02*
