G04 Layer: TopSilkLayer*
G04 EasyEDA v6.1.49, Tue, 04 Jun 2019 06:49:07 GMT*
G04 9f8e81427d8b462fa1083d36fee6df15,195b170a8e6c43a181dcefc3e1346bee,10*
G04 Gerber Generator version 0.2*
G04 Scale: 100 percent, Rotated: No, Reflected: No *
G04 Dimensions in millimeters *
G04 leading zeros omitted , absolute positions ,3 integer and 3 decimal *
%FSLAX33Y33*%
%MOMM*%
G90*
G71D02*

%ADD10C,0.254000*%
%ADD21C,0.228600*%
%ADD22C,0.203200*%
%ADD23C,0.177800*%
%ADD24C,0.152400*%

%LPD*%
G54D10*
G01X1691Y14917D02*
G01X1691Y19083D01*
G01X3317Y19083D01*
G01X3317Y14917D01*
G01X1691Y14917D01*
G01X2504Y16568D02*
G01X2504Y17051D01*
G01X2758Y16822D02*
G01X2250Y16822D01*
G54D21*
G01X6901Y11350D02*
G01X6901Y7950D01*
G01X5102Y7950D01*
G01X5102Y11350D01*
G01X6901Y11350D01*
G01X4103Y15649D02*
G01X4103Y19049D01*
G01X5903Y19049D01*
G01X5903Y15649D01*
G01X4103Y15649D01*
G01X19851Y10603D02*
G01X16451Y10603D01*
G01X16451Y12403D01*
G01X19851Y12403D01*
G01X19851Y10603D01*
G01X19852Y14599D02*
G01X16452Y14599D01*
G01X16452Y16399D01*
G01X19852Y16399D01*
G01X19852Y14599D01*
G54D10*
G01X16007Y3509D02*
G01X16007Y5491D01*
G01X5999Y3001D02*
G01X5999Y5999D01*
G01X5999Y6710D02*
G01X7802Y6710D01*
G01X7802Y7294D01*
G01X5999Y7294D01*
G01X5999Y6710D01*
G01X5999Y2290D01*
G01X16007Y2290D01*
G01X16007Y6710D01*
G01X14203Y6710D01*
G01X14203Y7294D01*
G01X16007Y7294D01*
G01X16007Y6710D01*
G01X14203Y6710D02*
G01X7802Y6710D01*
G01X3182Y12136D02*
G01X2827Y12136D01*
G01X1557Y11755D02*
G01X1557Y10866D01*
G01X2319Y10866D01*
G01X3690Y10866D02*
G01X4452Y10866D01*
G01X4452Y11755D01*
G01X19318Y18482D02*
G01X17692Y18482D01*
G01X17692Y20514D02*
G01X19318Y20514D01*
G54D22*
G01X7683Y9298D02*
G01X7614Y9263D01*
G01X7546Y9194D01*
G01X7510Y9126D01*
G01X7510Y8986D01*
G01X7546Y8917D01*
G01X7614Y8849D01*
G01X7683Y8813D01*
G01X7787Y8780D01*
G01X7960Y8780D01*
G01X8064Y8813D01*
G01X8133Y8849D01*
G01X8204Y8917D01*
G01X8237Y8986D01*
G01X8237Y9126D01*
G01X8204Y9194D01*
G01X8133Y9263D01*
G01X8064Y9298D01*
G01X7960Y9298D01*
G01X7960Y9126D02*
G01X7960Y9298D01*
G01X7510Y9527D02*
G01X8237Y9527D01*
G01X7510Y9527D02*
G01X8237Y10012D01*
G01X7510Y10012D02*
G01X8237Y10012D01*
G01X7510Y10241D02*
G01X8237Y10241D01*
G01X7510Y10241D02*
G01X7510Y10482D01*
G01X7546Y10586D01*
G01X7614Y10657D01*
G01X7683Y10690D01*
G01X7787Y10726D01*
G01X7960Y10726D01*
G01X8064Y10690D01*
G01X8133Y10657D01*
G01X8204Y10586D01*
G01X8237Y10482D01*
G01X8237Y10241D01*
G01X9489Y8760D02*
G01X10218Y9037D01*
G01X9489Y9314D02*
G01X10218Y9037D01*
G01X9489Y9959D02*
G01X10218Y9959D01*
G01X9837Y9959D02*
G01X9766Y9890D01*
G01X9733Y9819D01*
G01X9733Y9715D01*
G01X9766Y9646D01*
G01X9837Y9578D01*
G01X9941Y9542D01*
G01X10010Y9542D01*
G01X10114Y9578D01*
G01X10182Y9646D01*
G01X10218Y9715D01*
G01X10218Y9819D01*
G01X10182Y9890D01*
G01X10114Y9959D01*
G01X9489Y10601D02*
G01X10218Y10601D01*
G01X9837Y10601D02*
G01X9766Y10533D01*
G01X9733Y10464D01*
G01X9733Y10360D01*
G01X9766Y10292D01*
G01X9837Y10220D01*
G01X9941Y10187D01*
G01X10010Y10187D01*
G01X10114Y10220D01*
G01X10182Y10292D01*
G01X10218Y10360D01*
G01X10218Y10464D01*
G01X10182Y10533D01*
G01X10114Y10601D01*
G01X11684Y9486D02*
G01X11615Y9418D01*
G01X11579Y9314D01*
G01X11579Y9174D01*
G01X11615Y9070D01*
G01X11684Y9001D01*
G01X11755Y9001D01*
G01X11823Y9037D01*
G01X11856Y9070D01*
G01X11892Y9141D01*
G01X11960Y9347D01*
G01X11996Y9418D01*
G01X12031Y9451D01*
G01X12100Y9486D01*
G01X12204Y9486D01*
G01X12273Y9418D01*
G01X12308Y9314D01*
G01X12308Y9174D01*
G01X12273Y9070D01*
G01X12204Y9001D01*
G01X11579Y9715D02*
G01X12308Y9715D01*
G01X11579Y9715D02*
G01X11579Y9956D01*
G01X11615Y10060D01*
G01X11684Y10132D01*
G01X11755Y10165D01*
G01X11856Y10200D01*
G01X12031Y10200D01*
G01X12136Y10165D01*
G01X12204Y10132D01*
G01X12273Y10060D01*
G01X12308Y9956D01*
G01X12308Y9715D01*
G01X11579Y10706D02*
G01X12308Y10429D01*
G01X11579Y10706D02*
G01X12308Y10982D01*
G01X12065Y10533D02*
G01X12065Y10878D01*
G01X13690Y9486D02*
G01X13622Y9418D01*
G01X13586Y9314D01*
G01X13586Y9174D01*
G01X13622Y9070D01*
G01X13690Y9001D01*
G01X13761Y9001D01*
G01X13830Y9037D01*
G01X13863Y9070D01*
G01X13898Y9141D01*
G01X13967Y9347D01*
G01X14003Y9418D01*
G01X14038Y9451D01*
G01X14107Y9486D01*
G01X14211Y9486D01*
G01X14279Y9418D01*
G01X14315Y9314D01*
G01X14315Y9174D01*
G01X14279Y9070D01*
G01X14211Y9001D01*
G01X13761Y10233D02*
G01X13690Y10200D01*
G01X13622Y10132D01*
G01X13586Y10060D01*
G01X13586Y9923D01*
G01X13622Y9852D01*
G01X13690Y9784D01*
G01X13761Y9751D01*
G01X13863Y9715D01*
G01X14038Y9715D01*
G01X14142Y9751D01*
G01X14211Y9784D01*
G01X14279Y9852D01*
G01X14315Y9923D01*
G01X14315Y10060D01*
G01X14279Y10132D01*
G01X14211Y10200D01*
G01X14142Y10233D01*
G01X13586Y10462D02*
G01X14315Y10462D01*
G01X14315Y10462D02*
G01X14315Y10878D01*
G01X5280Y1343D02*
G01X5280Y614D01*
G01X5280Y1343D02*
G01X5557Y614D01*
G01X5834Y1343D02*
G01X5557Y614D01*
G01X5834Y1343D02*
G01X5834Y614D01*
G01X6062Y1343D02*
G01X6062Y614D01*
G01X6062Y614D02*
G01X6479Y614D01*
G01X6708Y1343D02*
G01X7193Y614D01*
G01X7193Y1343D02*
G01X6708Y614D01*
G01X7871Y1099D02*
G01X7835Y995D01*
G01X7767Y927D01*
G01X7663Y891D01*
G01X7630Y891D01*
G01X7526Y927D01*
G01X7454Y995D01*
G01X7421Y1099D01*
G01X7421Y1135D01*
G01X7454Y1239D01*
G01X7526Y1308D01*
G01X7630Y1343D01*
G01X7663Y1343D01*
G01X7767Y1308D01*
G01X7835Y1239D01*
G01X7871Y1099D01*
G01X7871Y927D01*
G01X7835Y754D01*
G01X7767Y650D01*
G01X7663Y614D01*
G01X7594Y614D01*
G01X7490Y650D01*
G01X7454Y718D01*
G01X8308Y1343D02*
G01X8204Y1308D01*
G01X8135Y1203D01*
G01X8100Y1031D01*
G01X8100Y927D01*
G01X8135Y754D01*
G01X8204Y650D01*
G01X8308Y614D01*
G01X8376Y614D01*
G01X8481Y650D01*
G01X8549Y754D01*
G01X8585Y927D01*
G01X8585Y1031D01*
G01X8549Y1203D01*
G01X8481Y1308D01*
G01X8376Y1343D01*
G01X8308Y1343D01*
G01X9230Y1239D02*
G01X9194Y1308D01*
G01X9090Y1343D01*
G01X9022Y1343D01*
G01X8917Y1308D01*
G01X8849Y1203D01*
G01X8813Y1031D01*
G01X8813Y858D01*
G01X8849Y718D01*
G01X8917Y650D01*
G01X9022Y614D01*
G01X9055Y614D01*
G01X9159Y650D01*
G01X9230Y718D01*
G01X9263Y822D01*
G01X9263Y858D01*
G01X9230Y962D01*
G01X9159Y1031D01*
G01X9055Y1066D01*
G01X9022Y1066D01*
G01X8917Y1031D01*
G01X8849Y962D01*
G01X8813Y858D01*
G01X9491Y1203D02*
G01X9560Y1239D01*
G01X9664Y1343D01*
G01X9664Y614D01*
G01X10241Y1343D02*
G01X9893Y858D01*
G01X10414Y858D01*
G01X10241Y1343D02*
G01X10241Y614D01*
G01X11176Y1343D02*
G01X11176Y614D01*
G01X11176Y1343D02*
G01X11488Y1343D01*
G01X11592Y1308D01*
G01X11625Y1272D01*
G01X11661Y1203D01*
G01X11661Y1135D01*
G01X11625Y1066D01*
G01X11592Y1031D01*
G01X11488Y995D01*
G01X11176Y995D02*
G01X11488Y995D01*
G01X11592Y962D01*
G01X11625Y927D01*
G01X11661Y858D01*
G01X11661Y754D01*
G01X11625Y685D01*
G01X11592Y650D01*
G01X11488Y614D01*
G01X11176Y614D01*
G01X12062Y1099D02*
G01X11993Y1066D01*
G01X11922Y995D01*
G01X11889Y891D01*
G01X11889Y822D01*
G01X11922Y718D01*
G01X11993Y650D01*
G01X12062Y614D01*
G01X12166Y614D01*
G01X12235Y650D01*
G01X12303Y718D01*
G01X12339Y822D01*
G01X12339Y891D01*
G01X12303Y995D01*
G01X12235Y1066D01*
G01X12166Y1099D01*
G01X12062Y1099D01*
G01X12984Y1099D02*
G01X12984Y614D01*
G01X12984Y995D02*
G01X12913Y1066D01*
G01X12844Y1099D01*
G01X12740Y1099D01*
G01X12672Y1066D01*
G01X12603Y995D01*
G01X12567Y891D01*
G01X12567Y822D01*
G01X12603Y718D01*
G01X12672Y650D01*
G01X12740Y614D01*
G01X12844Y614D01*
G01X12913Y650D01*
G01X12984Y718D01*
G01X13213Y1099D02*
G01X13213Y614D01*
G01X13213Y891D02*
G01X13246Y995D01*
G01X13317Y1066D01*
G01X13385Y1099D01*
G01X13489Y1099D01*
G01X14132Y1343D02*
G01X14132Y614D01*
G01X14132Y995D02*
G01X14063Y1066D01*
G01X13995Y1099D01*
G01X13891Y1099D01*
G01X13822Y1066D01*
G01X13751Y995D01*
G01X13718Y891D01*
G01X13718Y822D01*
G01X13751Y718D01*
G01X13822Y650D01*
G01X13891Y614D01*
G01X13995Y614D01*
G01X14063Y650D01*
G01X14132Y718D01*
G01X14894Y1099D02*
G01X15102Y614D01*
G01X15311Y1099D02*
G01X15102Y614D01*
G01X15575Y787D02*
G01X15539Y754D01*
G01X15575Y718D01*
G01X15608Y754D01*
G01X15575Y787D01*
G01X15836Y1203D02*
G01X15908Y1239D01*
G01X16012Y1343D01*
G01X16012Y614D01*
G01X16273Y787D02*
G01X16240Y754D01*
G01X16273Y718D01*
G01X16309Y754D01*
G01X16273Y787D01*
G01X16570Y1168D02*
G01X16570Y1203D01*
G01X16606Y1272D01*
G01X16642Y1308D01*
G01X16710Y1343D01*
G01X16850Y1343D01*
G01X16918Y1308D01*
G01X16951Y1272D01*
G01X16987Y1203D01*
G01X16987Y1135D01*
G01X16951Y1066D01*
G01X16883Y962D01*
G01X16537Y614D01*
G01X17023Y614D01*
G01X20507Y5979D02*
G01X21064Y5979D01*
G01X21165Y5946D01*
G01X21201Y5910D01*
G01X21236Y5842D01*
G01X21236Y5773D01*
G01X21201Y5702D01*
G01X21165Y5669D01*
G01X21064Y5633D01*
G01X20993Y5633D01*
G01X20751Y6383D02*
G01X20784Y6311D01*
G01X20855Y6243D01*
G01X20960Y6207D01*
G01X21028Y6207D01*
G01X21132Y6243D01*
G01X21201Y6311D01*
G01X21236Y6383D01*
G01X21236Y6484D01*
G01X21201Y6555D01*
G01X21132Y6624D01*
G01X21028Y6659D01*
G01X20960Y6659D01*
G01X20855Y6624D01*
G01X20784Y6555D01*
G01X20751Y6484D01*
G01X20751Y6383D01*
G01X20855Y7269D02*
G01X20784Y7233D01*
G01X20751Y7129D01*
G01X20751Y7025D01*
G01X20784Y6921D01*
G01X20855Y6888D01*
G01X20924Y6921D01*
G01X20960Y6992D01*
G01X20993Y7165D01*
G01X21028Y7233D01*
G01X21097Y7269D01*
G01X21132Y7269D01*
G01X21201Y7233D01*
G01X21236Y7129D01*
G01X21236Y7025D01*
G01X21201Y6921D01*
G01X21132Y6888D01*
G01X20960Y7498D02*
G01X20960Y7912D01*
G01X20888Y7912D01*
G01X20820Y7879D01*
G01X20784Y7843D01*
G01X20751Y7774D01*
G01X20751Y7670D01*
G01X20784Y7602D01*
G01X20855Y7531D01*
G01X20960Y7498D01*
G01X21028Y7498D01*
G01X21132Y7531D01*
G01X21201Y7602D01*
G01X21236Y7670D01*
G01X21236Y7774D01*
G01X21201Y7843D01*
G01X21132Y7912D01*
G01X20507Y8950D02*
G01X21236Y8674D01*
G01X20507Y8950D02*
G01X21236Y9227D01*
G01X20993Y8778D02*
G01X20993Y9126D01*
G01X21064Y9491D02*
G01X21097Y9456D01*
G01X21132Y9491D01*
G01X21097Y9527D01*
G01X21064Y9491D01*
G01X20507Y10634D02*
G01X21064Y10634D01*
G01X21165Y10599D01*
G01X21201Y10566D01*
G01X21236Y10497D01*
G01X21236Y10426D01*
G01X21201Y10358D01*
G01X21165Y10322D01*
G01X21064Y10289D01*
G01X20993Y10289D01*
G01X20507Y10863D02*
G01X20543Y10899D01*
G01X20507Y10932D01*
G01X20474Y10899D01*
G01X20507Y10863D01*
G01X20751Y10899D02*
G01X21236Y10899D01*
G01X20751Y11160D02*
G01X21236Y11160D01*
G01X20888Y11160D02*
G01X20784Y11264D01*
G01X20751Y11336D01*
G01X20751Y11437D01*
G01X20784Y11508D01*
G01X20888Y11541D01*
G01X21236Y11541D01*
G01X20888Y11541D02*
G01X20784Y11645D01*
G01X20751Y11717D01*
G01X20751Y11818D01*
G01X20784Y11889D01*
G01X20888Y11922D01*
G01X21236Y11922D01*
G01X20960Y12151D02*
G01X20960Y12567D01*
G01X20888Y12567D01*
G01X20820Y12532D01*
G01X20784Y12499D01*
G01X20751Y12428D01*
G01X20751Y12326D01*
G01X20784Y12255D01*
G01X20855Y12186D01*
G01X20960Y12151D01*
G01X21028Y12151D01*
G01X21132Y12186D01*
G01X21201Y12255D01*
G01X21236Y12326D01*
G01X21236Y12428D01*
G01X21201Y12499D01*
G01X21132Y12567D01*
G01X20751Y12796D02*
G01X21236Y12796D01*
G01X20888Y12796D02*
G01X20784Y12900D01*
G01X20751Y12969D01*
G01X20751Y13073D01*
G01X20784Y13141D01*
G01X20888Y13177D01*
G01X21236Y13177D01*
G01X20960Y13406D02*
G01X20960Y13822D01*
G01X20888Y13822D01*
G01X20820Y13787D01*
G01X20784Y13751D01*
G01X20751Y13682D01*
G01X20751Y13578D01*
G01X20784Y13510D01*
G01X20855Y13441D01*
G01X20960Y13406D01*
G01X21028Y13406D01*
G01X21132Y13441D01*
G01X21201Y13510D01*
G01X21236Y13578D01*
G01X21236Y13682D01*
G01X21201Y13751D01*
G01X21132Y13822D01*
G01X20751Y14432D02*
G01X21236Y14051D01*
G01X20751Y14051D02*
G01X20751Y14432D01*
G01X21236Y14051D02*
G01X21236Y14432D01*
G01X20924Y14660D02*
G01X20924Y15283D01*
G01X20507Y15511D02*
G01X21236Y15511D01*
G01X20507Y15511D02*
G01X20507Y15824D01*
G01X20543Y15928D01*
G01X20579Y15961D01*
G01X20647Y15996D01*
G01X20716Y15996D01*
G01X20784Y15961D01*
G01X20820Y15928D01*
G01X20855Y15824D01*
G01X20855Y15511D02*
G01X20855Y15824D01*
G01X20888Y15928D01*
G01X20924Y15961D01*
G01X20993Y15996D01*
G01X21097Y15996D01*
G01X21165Y15961D01*
G01X21201Y15928D01*
G01X21236Y15824D01*
G01X21236Y15511D01*
G01X20960Y16225D02*
G01X20960Y16642D01*
G01X20888Y16642D01*
G01X20820Y16606D01*
G01X20784Y16570D01*
G01X20751Y16502D01*
G01X20751Y16398D01*
G01X20784Y16329D01*
G01X20855Y16261D01*
G01X20960Y16225D01*
G01X21028Y16225D01*
G01X21132Y16261D01*
G01X21201Y16329D01*
G01X21236Y16398D01*
G01X21236Y16502D01*
G01X21201Y16570D01*
G01X21132Y16642D01*
G01X20751Y16870D02*
G01X21236Y16870D01*
G01X20960Y16870D02*
G01X20855Y16903D01*
G01X20784Y16974D01*
G01X20751Y17043D01*
G01X20751Y17147D01*
G01X20751Y17376D02*
G01X21236Y17376D01*
G01X20888Y17376D02*
G01X20784Y17480D01*
G01X20751Y17548D01*
G01X20751Y17653D01*
G01X20784Y17721D01*
G01X20888Y17757D01*
G01X21236Y17757D01*
G01X20507Y17985D02*
G01X20543Y18018D01*
G01X20507Y18054D01*
G01X20474Y18018D01*
G01X20507Y17985D01*
G01X20751Y18018D02*
G01X21236Y18018D01*
G01X20924Y18816D02*
G01X20924Y19438D01*
G01X20683Y20236D02*
G01X20647Y20236D01*
G01X20579Y20271D01*
G01X20543Y20304D01*
G01X20507Y20375D01*
G01X20507Y20513D01*
G01X20543Y20581D01*
G01X20579Y20617D01*
G01X20647Y20652D01*
G01X20716Y20652D01*
G01X20784Y20617D01*
G01X20888Y20548D01*
G01X21236Y20200D01*
G01X21236Y20685D01*
G01X20507Y21122D02*
G01X20543Y21018D01*
G01X20647Y20949D01*
G01X20820Y20914D01*
G01X20924Y20914D01*
G01X21097Y20949D01*
G01X21201Y21018D01*
G01X21236Y21122D01*
G01X21236Y21191D01*
G01X21201Y21295D01*
G01X21097Y21366D01*
G01X20924Y21399D01*
G01X20820Y21399D01*
G01X20647Y21366D01*
G01X20543Y21295D01*
G01X20507Y21191D01*
G01X20507Y21122D01*
G01X20647Y21628D02*
G01X20612Y21699D01*
G01X20507Y21800D01*
G01X21236Y21800D01*
G01X20751Y22481D02*
G01X20855Y22445D01*
G01X20924Y22377D01*
G01X20960Y22273D01*
G01X20960Y22237D01*
G01X20924Y22133D01*
G01X20855Y22064D01*
G01X20751Y22029D01*
G01X20716Y22029D01*
G01X20612Y22064D01*
G01X20543Y22133D01*
G01X20507Y22237D01*
G01X20507Y22273D01*
G01X20543Y22377D01*
G01X20612Y22445D01*
G01X20751Y22481D01*
G01X20924Y22481D01*
G01X21097Y22445D01*
G01X21201Y22377D01*
G01X21236Y22273D01*
G01X21236Y22204D01*
G01X21201Y22100D01*
G01X21132Y22064D01*
G54D23*
G01X2377Y20363D02*
G01X2324Y20467D01*
G01X2219Y20571D01*
G01X2118Y20622D01*
G01X1910Y20622D01*
G01X1805Y20571D01*
G01X1701Y20467D01*
G01X1648Y20363D01*
G01X1597Y20208D01*
G01X1597Y19949D01*
G01X1648Y19791D01*
G01X1701Y19687D01*
G01X1805Y19583D01*
G01X1910Y19532D01*
G01X2118Y19532D01*
G01X2219Y19583D01*
G01X2324Y19687D01*
G01X2377Y19791D01*
G01X2824Y20622D02*
G01X3395Y20622D01*
G01X3086Y20208D01*
G01X3238Y20208D01*
G01X3345Y20154D01*
G01X3395Y20104D01*
G01X3446Y19949D01*
G01X3446Y19845D01*
G01X3395Y19687D01*
G01X3291Y19583D01*
G01X3134Y19532D01*
G01X2979Y19532D01*
G01X2824Y19583D01*
G01X2773Y19636D01*
G01X2720Y19740D01*
G01X5946Y12603D02*
G01X5895Y12707D01*
G01X5786Y12811D01*
G01X5687Y12865D01*
G01X5473Y12865D01*
G01X5374Y12811D01*
G01X5273Y12707D01*
G01X5214Y12603D01*
G01X5168Y12448D01*
G01X5168Y12189D01*
G01X5214Y12031D01*
G01X5273Y11930D01*
G01X5374Y11826D01*
G01X5473Y11772D01*
G01X5687Y11772D01*
G01X5786Y11826D01*
G01X5895Y11930D01*
G01X5946Y12031D01*
G01X6289Y12656D02*
G01X6393Y12707D01*
G01X6548Y12865D01*
G01X6548Y11772D01*
G01X4871Y20261D02*
G01X4820Y20365D01*
G01X4716Y20469D01*
G01X4612Y20523D01*
G01X4404Y20523D01*
G01X4300Y20469D01*
G01X4198Y20365D01*
G01X4145Y20261D01*
G01X4094Y20106D01*
G01X4094Y19847D01*
G01X4145Y19690D01*
G01X4198Y19588D01*
G01X4300Y19484D01*
G01X4404Y19431D01*
G01X4612Y19431D01*
G01X4716Y19484D01*
G01X4820Y19588D01*
G01X4871Y19690D01*
G01X5267Y20261D02*
G01X5267Y20314D01*
G01X5318Y20419D01*
G01X5372Y20469D01*
G01X5476Y20523D01*
G01X5684Y20523D01*
G01X5786Y20469D01*
G01X5839Y20419D01*
G01X5890Y20314D01*
G01X5890Y20210D01*
G01X5839Y20106D01*
G01X5735Y19951D01*
G01X5214Y19431D01*
G01X5943Y19431D01*
G01X16832Y13812D02*
G01X16832Y12720D01*
G01X16832Y13812D02*
G01X17299Y13812D01*
G01X17454Y13759D01*
G01X17508Y13708D01*
G01X17559Y13604D01*
G01X17559Y13500D01*
G01X17508Y13395D01*
G01X17454Y13345D01*
G01X17299Y13291D01*
G01X16832Y13291D01*
G01X17195Y13291D02*
G01X17559Y12720D01*
G01X17901Y13604D02*
G01X18006Y13655D01*
G01X18161Y13812D01*
G01X18161Y12720D01*
G01X16510Y18067D02*
G01X16510Y16974D01*
G01X16510Y18067D02*
G01X16982Y18067D01*
G01X17134Y18013D01*
G01X17188Y17962D01*
G01X17241Y17858D01*
G01X17241Y17754D01*
G01X17188Y17650D01*
G01X17134Y17599D01*
G01X16982Y17546D01*
G01X16510Y17546D01*
G01X16875Y17546D02*
G01X17241Y16974D01*
G01X17632Y17805D02*
G01X17632Y17858D01*
G01X17686Y17962D01*
G01X17731Y18013D01*
G01X17843Y18067D01*
G01X18049Y18067D01*
G01X18150Y18013D01*
G01X18204Y17962D01*
G01X18257Y17858D01*
G01X18257Y17754D01*
G01X18204Y17650D01*
G01X18102Y17495D01*
G01X17579Y16974D01*
G01X18303Y16974D01*
G54D24*
G01X17023Y7000D02*
G01X17023Y6169D01*
G01X16970Y6014D01*
G01X16919Y5961D01*
G01X16815Y5910D01*
G01X16711Y5910D01*
G01X16607Y5961D01*
G01X16554Y6014D01*
G01X16503Y6169D01*
G01X16503Y6274D01*
G01X17417Y6741D02*
G01X17417Y6794D01*
G01X17468Y6898D01*
G01X17521Y6949D01*
G01X17625Y7000D01*
G01X17834Y7000D01*
G01X17938Y6949D01*
G01X17989Y6898D01*
G01X18039Y6794D01*
G01X18039Y6690D01*
G01X17989Y6586D01*
G01X17885Y6428D01*
G01X17366Y5910D01*
G01X18093Y5910D01*
G54D23*
G01X535Y14480D02*
G01X535Y13703D01*
G01X586Y13545D01*
G01X690Y13441D01*
G01X848Y13390D01*
G01X952Y13390D01*
G01X1107Y13441D01*
G01X1211Y13545D01*
G01X1262Y13703D01*
G01X1262Y14480D01*
G01X1605Y14274D02*
G01X1709Y14325D01*
G01X1866Y14480D01*
G01X1866Y13390D01*
G54D24*
G01X17731Y21843D02*
G01X17627Y21948D01*
G01X17472Y21998D01*
G01X17264Y21998D01*
G01X17109Y21948D01*
G01X17005Y21843D01*
G01X17005Y21739D01*
G01X17056Y21635D01*
G01X17109Y21584D01*
G01X17213Y21531D01*
G01X17525Y21427D01*
G01X17627Y21376D01*
G01X17680Y21325D01*
G01X17731Y21221D01*
G01X17731Y21064D01*
G01X17627Y20960D01*
G01X17472Y20909D01*
G01X17264Y20909D01*
G01X17109Y20960D01*
G01X17005Y21064D01*
G01X18595Y21998D02*
G01X18595Y21168D01*
G01X18541Y21013D01*
G01X18491Y20960D01*
G01X18387Y20909D01*
G01X18282Y20909D01*
G01X18178Y20960D01*
G01X18127Y21013D01*
G01X18074Y21168D01*
G01X18074Y21272D01*
G01X18938Y21793D02*
G01X19042Y21843D01*
G01X19197Y21998D01*
G01X19197Y20909D01*
G54D10*
G75*
G01X19331Y20515D02*
G02X19585Y20261I0J-254D01*
G01*
G75*
G01X17426Y20261D02*
G02X17680Y20515I254J0D01*
G01*
G75*
G01X17426Y18737D02*
G03X17680Y18483I254J0D01*
G01*
G75*
G01X19331Y18483D02*
G03X19585Y18737I0J254D01*
G01*
M00*
M02*
