G04 Layer: TopLayer*
G04 EasyEDA v6.1.49, Tue, 04 Jun 2019 06:49:07 GMT*
G04 9f8e81427d8b462fa1083d36fee6df15,195b170a8e6c43a181dcefc3e1346bee,10*
G04 Gerber Generator version 0.2*
G04 Scale: 100 percent, Rotated: No, Reflected: No *
G04 Dimensions in millimeters *
G04 leading zeros omitted , absolute positions ,3 integer and 3 decimal *
%FSLAX33Y33*%
%MOMM*%
G90*
G71D02*

%ADD10C,0.254000*%
%ADD11C,0.509999*%
%ADD12C,0.508000*%
%ADD13C,0.619760*%
%ADD17R,1.016000X1.143000*%
%ADD18R,0.635000X1.270000*%
%ADD19C,1.600200*%
%ADD20C,1.270000*%

%LPD*%
G36*
G01X9707Y23604D02*
G01X2502Y23604D01*
G01X2437Y23603D01*
G01X2371Y23600D01*
G01X2306Y23595D01*
G01X2241Y23587D01*
G01X2176Y23578D01*
G01X2111Y23567D01*
G01X2047Y23554D01*
G01X1983Y23539D01*
G01X1920Y23521D01*
G01X1857Y23502D01*
G01X1795Y23481D01*
G01X1733Y23458D01*
G01X1673Y23433D01*
G01X1613Y23407D01*
G01X1554Y23378D01*
G01X1496Y23347D01*
G01X1439Y23315D01*
G01X1383Y23281D01*
G01X1328Y23245D01*
G01X1274Y23208D01*
G01X1221Y23169D01*
G01X1170Y23128D01*
G01X1120Y23086D01*
G01X1071Y23042D01*
G01X1024Y22997D01*
G01X978Y22950D01*
G01X933Y22902D01*
G01X890Y22852D01*
G01X849Y22801D01*
G01X809Y22749D01*
G01X771Y22696D01*
G01X735Y22641D01*
G01X700Y22585D01*
G01X667Y22529D01*
G01X636Y22471D01*
G01X607Y22412D01*
G01X579Y22353D01*
G01X553Y22293D01*
G01X530Y22231D01*
G01X508Y22170D01*
G01X488Y22107D01*
G01X470Y22044D01*
G01X454Y21980D01*
G01X440Y21916D01*
G01X428Y21852D01*
G01X418Y21787D01*
G01X410Y21722D01*
G01X404Y21657D01*
G01X400Y21591D01*
G01X398Y21526D01*
G01X398Y21524D01*
G01X399Y21519D01*
G01X399Y21500D01*
G01X398Y5296D01*
G01X399Y5282D01*
G01X403Y5268D01*
G01X408Y5254D01*
G01X415Y5241D01*
G01X423Y5230D01*
G01X433Y5219D01*
G01X445Y5211D01*
G01X458Y5204D01*
G01X471Y5199D01*
G01X486Y5196D01*
G01X500Y5195D01*
G01X514Y5196D01*
G01X529Y5199D01*
G01X542Y5204D01*
G01X555Y5211D01*
G01X567Y5220D01*
G01X577Y5230D01*
G01X618Y5276D01*
G01X661Y5321D01*
G01X706Y5365D01*
G01X752Y5407D01*
G01X799Y5448D01*
G01X847Y5487D01*
G01X897Y5524D01*
G01X948Y5560D01*
G01X1000Y5594D01*
G01X1053Y5626D01*
G01X1108Y5657D01*
G01X1163Y5685D01*
G01X1219Y5712D01*
G01X1276Y5737D01*
G01X1334Y5760D01*
G01X1392Y5782D01*
G01X1452Y5801D01*
G01X1511Y5818D01*
G01X1572Y5833D01*
G01X1632Y5847D01*
G01X1694Y5858D01*
G01X1755Y5867D01*
G01X1817Y5874D01*
G01X1879Y5879D01*
G01X1941Y5883D01*
G01X2004Y5884D01*
G01X2066Y5882D01*
G01X2129Y5879D01*
G01X2192Y5874D01*
G01X2255Y5867D01*
G01X2317Y5857D01*
G01X2379Y5846D01*
G01X2440Y5832D01*
G01X2501Y5817D01*
G01X2562Y5799D01*
G01X2621Y5779D01*
G01X2681Y5758D01*
G01X2739Y5734D01*
G01X2796Y5709D01*
G01X2853Y5681D01*
G01X2909Y5652D01*
G01X2963Y5621D01*
G01X3017Y5588D01*
G01X3070Y5553D01*
G01X3121Y5516D01*
G01X3171Y5478D01*
G01X3220Y5438D01*
G01X3267Y5397D01*
G01X3313Y5354D01*
G01X3357Y5309D01*
G01X3400Y5263D01*
G01X3442Y5216D01*
G01X3482Y5167D01*
G01X3520Y5117D01*
G01X3556Y5066D01*
G01X3591Y5013D01*
G01X3624Y4960D01*
G01X3655Y4905D01*
G01X3685Y4849D01*
G01X3712Y4793D01*
G01X3738Y4735D01*
G01X3761Y4677D01*
G01X3783Y4618D01*
G01X3803Y4558D01*
G01X3820Y4498D01*
G01X3836Y4437D01*
G01X3849Y4375D01*
G01X3861Y4313D01*
G01X3870Y4251D01*
G01X3878Y4189D01*
G01X3883Y4126D01*
G01X3886Y4063D01*
G01X3887Y4000D01*
G01X3886Y3937D01*
G01X3883Y3874D01*
G01X3878Y3811D01*
G01X3870Y3749D01*
G01X3861Y3687D01*
G01X3849Y3625D01*
G01X3836Y3563D01*
G01X3820Y3502D01*
G01X3803Y3442D01*
G01X3783Y3382D01*
G01X3761Y3323D01*
G01X3738Y3265D01*
G01X3712Y3207D01*
G01X3685Y3151D01*
G01X3655Y3095D01*
G01X3624Y3040D01*
G01X3591Y2987D01*
G01X3556Y2934D01*
G01X3520Y2883D01*
G01X3482Y2833D01*
G01X3442Y2784D01*
G01X3400Y2737D01*
G01X3357Y2691D01*
G01X3313Y2646D01*
G01X3267Y2603D01*
G01X3220Y2562D01*
G01X3171Y2522D01*
G01X3121Y2484D01*
G01X3070Y2447D01*
G01X3017Y2412D01*
G01X2963Y2379D01*
G01X2909Y2348D01*
G01X2853Y2319D01*
G01X2796Y2291D01*
G01X2739Y2266D01*
G01X2681Y2242D01*
G01X2621Y2221D01*
G01X2562Y2201D01*
G01X2501Y2183D01*
G01X2440Y2168D01*
G01X2379Y2154D01*
G01X2317Y2143D01*
G01X2255Y2133D01*
G01X2192Y2126D01*
G01X2129Y2121D01*
G01X2066Y2118D01*
G01X2004Y2116D01*
G01X1941Y2117D01*
G01X1879Y2121D01*
G01X1817Y2126D01*
G01X1755Y2133D01*
G01X1694Y2142D01*
G01X1632Y2153D01*
G01X1572Y2167D01*
G01X1511Y2182D01*
G01X1451Y2199D01*
G01X1392Y2218D01*
G01X1334Y2240D01*
G01X1276Y2263D01*
G01X1219Y2288D01*
G01X1163Y2315D01*
G01X1107Y2343D01*
G01X1053Y2374D01*
G01X1000Y2406D01*
G01X948Y2440D01*
G01X897Y2476D01*
G01X847Y2513D01*
G01X799Y2552D01*
G01X751Y2593D01*
G01X706Y2635D01*
G01X661Y2679D01*
G01X618Y2724D01*
G01X577Y2770D01*
G01X567Y2781D01*
G01X555Y2789D01*
G01X542Y2796D01*
G01X529Y2801D01*
G01X514Y2805D01*
G01X500Y2806D01*
G01X485Y2805D01*
G01X471Y2801D01*
G01X458Y2796D01*
G01X445Y2789D01*
G01X433Y2781D01*
G01X423Y2770D01*
G01X414Y2759D01*
G01X407Y2746D01*
G01X402Y2733D01*
G01X399Y2718D01*
G01X398Y2704D01*
G01X398Y2499D01*
G01X397Y2463D01*
G01X396Y2454D01*
G01X396Y2452D01*
G01X399Y2385D01*
G01X404Y2319D01*
G01X410Y2253D01*
G01X419Y2187D01*
G01X430Y2121D01*
G01X443Y2056D01*
G01X458Y1992D01*
G01X475Y1927D01*
G01X494Y1864D01*
G01X515Y1801D01*
G01X538Y1738D01*
G01X563Y1677D01*
G01X590Y1616D01*
G01X619Y1556D01*
G01X650Y1497D01*
G01X683Y1439D01*
G01X717Y1382D01*
G01X753Y1327D01*
G01X791Y1272D01*
G01X831Y1219D01*
G01X872Y1167D01*
G01X915Y1116D01*
G01X959Y1066D01*
G01X1005Y1019D01*
G01X1053Y972D01*
G01X1102Y927D01*
G01X1152Y884D01*
G01X1204Y842D01*
G01X1257Y802D01*
G01X1311Y764D01*
G01X1367Y727D01*
G01X1423Y692D01*
G01X1481Y659D01*
G01X1540Y628D01*
G01X1599Y598D01*
G01X1660Y571D01*
G01X1721Y545D01*
G01X1783Y522D01*
G01X1846Y500D01*
G01X1909Y480D01*
G01X1974Y463D01*
G01X2038Y447D01*
G01X2103Y433D01*
G01X2169Y422D01*
G01X2234Y413D01*
G01X2301Y405D01*
G01X2367Y400D01*
G01X2433Y397D01*
G01X2500Y396D01*
G01X19025Y396D01*
G01X19098Y397D01*
G01X19171Y401D01*
G01X19244Y407D01*
G01X19317Y414D01*
G01X19390Y424D01*
G01X19462Y436D01*
G01X19534Y450D01*
G01X19606Y466D01*
G01X19677Y484D01*
G01X19748Y504D01*
G01X19818Y526D01*
G01X19887Y549D01*
G01X19956Y575D01*
G01X20024Y603D01*
G01X20091Y633D01*
G01X20157Y664D01*
G01X20223Y697D01*
G01X20287Y733D01*
G01X20350Y770D01*
G01X20413Y808D01*
G01X20474Y849D01*
G01X20534Y891D01*
G01X20593Y935D01*
G01X20650Y981D01*
G01X20707Y1028D01*
G01X20761Y1076D01*
G01X20815Y1127D01*
G01X20867Y1178D01*
G01X20918Y1231D01*
G01X20967Y1286D01*
G01X21014Y1342D01*
G01X21060Y1399D01*
G01X21104Y1458D01*
G01X21147Y1517D01*
G01X21188Y1578D01*
G01X21227Y1640D01*
G01X21264Y1704D01*
G01X21300Y1768D01*
G01X21334Y1833D01*
G01X21366Y1899D01*
G01X21396Y1966D01*
G01X21424Y2034D01*
G01X21450Y2102D01*
G01X21475Y2171D01*
G01X21497Y2241D01*
G01X21517Y2312D01*
G01X21536Y2383D01*
G01X21552Y2454D01*
G01X21566Y2526D01*
G01X21579Y2599D01*
G01X21589Y2671D01*
G01X21590Y2684D01*
G01X21589Y2698D01*
G01X21586Y2713D01*
G01X21581Y2726D01*
G01X21574Y2739D01*
G01X21565Y2751D01*
G01X21555Y2761D01*
G01X21543Y2769D01*
G01X21530Y2776D01*
G01X21517Y2781D01*
G01X21503Y2785D01*
G01X21488Y2786D01*
G01X21471Y2784D01*
G01X21455Y2780D01*
G01X21439Y2773D01*
G01X21425Y2763D01*
G01X21412Y2751D01*
G01X21369Y2704D01*
G01X21325Y2659D01*
G01X21278Y2615D01*
G01X21231Y2572D01*
G01X21182Y2532D01*
G01X21131Y2493D01*
G01X21080Y2455D01*
G01X21027Y2420D01*
G01X20973Y2386D01*
G01X20918Y2354D01*
G01X20861Y2324D01*
G01X20804Y2296D01*
G01X20746Y2270D01*
G01X20687Y2245D01*
G01X20627Y2223D01*
G01X20567Y2203D01*
G01X20506Y2185D01*
G01X20444Y2169D01*
G01X20382Y2155D01*
G01X20319Y2143D01*
G01X20256Y2134D01*
G01X20193Y2126D01*
G01X20129Y2121D01*
G01X20066Y2118D01*
G01X20002Y2116D01*
G01X19939Y2118D01*
G01X19876Y2121D01*
G01X19813Y2126D01*
G01X19751Y2133D01*
G01X19689Y2143D01*
G01X19627Y2154D01*
G01X19565Y2168D01*
G01X19504Y2183D01*
G01X19444Y2201D01*
G01X19384Y2221D01*
G01X19325Y2242D01*
G01X19267Y2266D01*
G01X19209Y2291D01*
G01X19153Y2319D01*
G01X19097Y2348D01*
G01X19042Y2379D01*
G01X18989Y2412D01*
G01X18936Y2447D01*
G01X18885Y2484D01*
G01X18835Y2522D01*
G01X18786Y2562D01*
G01X18739Y2603D01*
G01X18693Y2646D01*
G01X18648Y2691D01*
G01X18605Y2737D01*
G01X18564Y2784D01*
G01X18524Y2833D01*
G01X18486Y2883D01*
G01X18449Y2934D01*
G01X18414Y2987D01*
G01X18381Y3040D01*
G01X18350Y3095D01*
G01X18321Y3151D01*
G01X18293Y3207D01*
G01X18268Y3265D01*
G01X18244Y3323D01*
G01X18223Y3382D01*
G01X18203Y3442D01*
G01X18185Y3502D01*
G01X18170Y3563D01*
G01X18156Y3625D01*
G01X18145Y3687D01*
G01X18135Y3749D01*
G01X18128Y3811D01*
G01X18123Y3874D01*
G01X18120Y3937D01*
G01X18118Y4000D01*
G01X18120Y4063D01*
G01X18123Y4126D01*
G01X18128Y4189D01*
G01X18135Y4251D01*
G01X18145Y4313D01*
G01X18156Y4375D01*
G01X18170Y4437D01*
G01X18185Y4498D01*
G01X18203Y4558D01*
G01X18223Y4618D01*
G01X18244Y4677D01*
G01X18268Y4735D01*
G01X18293Y4793D01*
G01X18321Y4849D01*
G01X18350Y4905D01*
G01X18381Y4960D01*
G01X18414Y5013D01*
G01X18449Y5066D01*
G01X18486Y5117D01*
G01X18524Y5167D01*
G01X18564Y5216D01*
G01X18605Y5263D01*
G01X18648Y5309D01*
G01X18693Y5354D01*
G01X18739Y5397D01*
G01X18786Y5438D01*
G01X18835Y5478D01*
G01X18885Y5516D01*
G01X18936Y5553D01*
G01X18989Y5588D01*
G01X19042Y5621D01*
G01X19097Y5652D01*
G01X19153Y5681D01*
G01X19209Y5709D01*
G01X19267Y5734D01*
G01X19325Y5758D01*
G01X19384Y5779D01*
G01X19444Y5799D01*
G01X19504Y5817D01*
G01X19565Y5832D01*
G01X19627Y5846D01*
G01X19689Y5857D01*
G01X19751Y5867D01*
G01X19813Y5874D01*
G01X19876Y5879D01*
G01X19939Y5882D01*
G01X20002Y5884D01*
G01X20064Y5883D01*
G01X20126Y5879D01*
G01X20188Y5874D01*
G01X20250Y5867D01*
G01X20312Y5858D01*
G01X20373Y5847D01*
G01X20434Y5833D01*
G01X20494Y5818D01*
G01X20554Y5801D01*
G01X20613Y5782D01*
G01X20672Y5760D01*
G01X20730Y5737D01*
G01X20787Y5712D01*
G01X20843Y5685D01*
G01X20898Y5657D01*
G01X20952Y5626D01*
G01X21006Y5594D01*
G01X21058Y5560D01*
G01X21109Y5524D01*
G01X21158Y5487D01*
G01X21207Y5448D01*
G01X21254Y5407D01*
G01X21300Y5365D01*
G01X21344Y5321D01*
G01X21387Y5276D01*
G01X21429Y5230D01*
G01X21439Y5220D01*
G01X21451Y5211D01*
G01X21463Y5204D01*
G01X21477Y5199D01*
G01X21491Y5196D01*
G01X21506Y5195D01*
G01X21520Y5196D01*
G01X21534Y5199D01*
G01X21548Y5204D01*
G01X21561Y5211D01*
G01X21572Y5219D01*
G01X21582Y5230D01*
G01X21591Y5241D01*
G01X21598Y5254D01*
G01X21603Y5268D01*
G01X21606Y5282D01*
G01X21607Y5296D01*
G01X21607Y21459D01*
G01X21606Y21467D01*
G01X21605Y21501D01*
G01X21604Y21567D01*
G01X21601Y21633D01*
G01X21595Y21698D01*
G01X21588Y21764D01*
G01X21579Y21830D01*
G01X21567Y21895D01*
G01X21554Y21959D01*
G01X21539Y22024D01*
G01X21521Y22087D01*
G01X21502Y22150D01*
G01X21480Y22213D01*
G01X21457Y22275D01*
G01X21432Y22336D01*
G01X21404Y22396D01*
G01X21375Y22455D01*
G01X21344Y22514D01*
G01X21312Y22571D01*
G01X21277Y22627D01*
G01X21241Y22683D01*
G01X21203Y22737D01*
G01X21163Y22789D01*
G01X21122Y22841D01*
G01X21079Y22891D01*
G01X21035Y22940D01*
G01X20989Y22988D01*
G01X20941Y23034D01*
G01X20892Y23078D01*
G01X20842Y23121D01*
G01X20791Y23162D01*
G01X20738Y23202D01*
G01X20684Y23240D01*
G01X20628Y23276D01*
G01X20572Y23311D01*
G01X20515Y23343D01*
G01X20456Y23374D01*
G01X20397Y23403D01*
G01X20337Y23431D01*
G01X20276Y23456D01*
G01X20214Y23479D01*
G01X20151Y23501D01*
G01X20088Y23520D01*
G01X20025Y23538D01*
G01X19960Y23553D01*
G01X19896Y23566D01*
G01X19831Y23578D01*
G01X19765Y23587D01*
G01X19700Y23594D01*
G01X19634Y23600D01*
G01X19568Y23603D01*
G01X19502Y23604D01*
G01X12299Y23604D01*
G01X12284Y23603D01*
G01X12270Y23600D01*
G01X12257Y23595D01*
G01X12244Y23588D01*
G01X12232Y23579D01*
G01X12222Y23569D01*
G01X12213Y23557D01*
G01X12206Y23544D01*
G01X12201Y23531D01*
G01X12198Y23517D01*
G01X12197Y23502D01*
G01X12198Y23488D01*
G01X12201Y23473D01*
G01X12206Y23460D01*
G01X12213Y23447D01*
G01X12222Y23435D01*
G01X12232Y23425D01*
G01X12279Y23384D01*
G01X12324Y23341D01*
G01X12368Y23296D01*
G01X12410Y23251D01*
G01X12450Y23203D01*
G01X12489Y23155D01*
G01X12527Y23105D01*
G01X12563Y23054D01*
G01X12597Y23002D01*
G01X12629Y22949D01*
G01X12659Y22895D01*
G01X12688Y22839D01*
G01X12715Y22783D01*
G01X12740Y22726D01*
G01X12763Y22668D01*
G01X12784Y22610D01*
G01X12804Y22551D01*
G01X12821Y22491D01*
G01X12836Y22430D01*
G01X12849Y22370D01*
G01X12861Y22308D01*
G01X12870Y22247D01*
G01X12877Y22185D01*
G01X12882Y22123D01*
G01X12885Y22061D01*
G01X12886Y21998D01*
G01X12885Y21936D01*
G01X12882Y21874D01*
G01X12877Y21812D01*
G01X12870Y21750D01*
G01X12861Y21689D01*
G01X12849Y21628D01*
G01X12836Y21567D01*
G01X12821Y21507D01*
G01X12804Y21447D01*
G01X12785Y21388D01*
G01X12763Y21329D01*
G01X12740Y21272D01*
G01X12715Y21215D01*
G01X12689Y21158D01*
G01X12660Y21103D01*
G01X12630Y21049D01*
G01X12597Y20996D01*
G01X12563Y20944D01*
G01X12528Y20893D01*
G01X12490Y20843D01*
G01X12451Y20795D01*
G01X12411Y20747D01*
G01X12369Y20702D01*
G01X12325Y20657D01*
G01X12280Y20614D01*
G01X12234Y20573D01*
G01X12186Y20533D01*
G01X12137Y20495D01*
G01X12087Y20458D01*
G01X12035Y20423D01*
G01X11983Y20390D01*
G01X11929Y20358D01*
G01X11875Y20329D01*
G01X11861Y20320D01*
G01X11849Y20310D01*
G01X11839Y20298D01*
G01X11831Y20284D01*
G01X11825Y20270D01*
G01X11821Y20254D01*
G01X11820Y20239D01*
G01X11821Y20224D01*
G01X11824Y20210D01*
G01X11829Y20197D01*
G01X11836Y20184D01*
G01X11845Y20172D01*
G01X11855Y20162D01*
G01X11867Y20153D01*
G01X11879Y20146D01*
G01X11893Y20141D01*
G01X11907Y20138D01*
G01X11922Y20137D01*
G01X17206Y20137D01*
G01X17221Y20138D01*
G01X17236Y20142D01*
G01X17250Y20147D01*
G01X17263Y20155D01*
G01X17275Y20164D01*
G01X17285Y20176D01*
G01X17294Y20188D01*
G01X17300Y20202D01*
G01X17305Y20217D01*
G01X17312Y20245D01*
G01X17322Y20272D01*
G01X17333Y20298D01*
G01X17346Y20324D01*
G01X17362Y20348D01*
G01X17379Y20371D01*
G01X17397Y20393D01*
G01X17418Y20414D01*
G01X17439Y20433D01*
G01X17462Y20450D01*
G01X17487Y20465D01*
G01X17512Y20479D01*
G01X17539Y20490D01*
G01X17566Y20500D01*
G01X17594Y20507D01*
G01X17622Y20513D01*
G01X17651Y20516D01*
G01X17679Y20517D01*
G01X18314Y20517D01*
G01X18345Y20516D01*
G01X18376Y20512D01*
G01X18406Y20506D01*
G01X18436Y20497D01*
G01X18465Y20486D01*
G01X18484Y20480D01*
G01X18505Y20478D01*
G01X18525Y20480D01*
G01X18545Y20486D01*
G01X18574Y20497D01*
G01X18603Y20506D01*
G01X18634Y20512D01*
G01X18664Y20516D01*
G01X18695Y20517D01*
G01X19330Y20517D01*
G01X19359Y20516D01*
G01X19387Y20513D01*
G01X19416Y20507D01*
G01X19443Y20500D01*
G01X19470Y20490D01*
G01X19497Y20479D01*
G01X19522Y20466D01*
G01X19546Y20450D01*
G01X19569Y20433D01*
G01X19591Y20415D01*
G01X19611Y20394D01*
G01X19630Y20373D01*
G01X19647Y20350D01*
G01X19662Y20325D01*
G01X19676Y20300D01*
G01X19687Y20274D01*
G01X19697Y20246D01*
G01X19704Y20219D01*
G01X19710Y20191D01*
G01X19713Y20162D01*
G01X19714Y20133D01*
G01X19714Y18863D01*
G01X19713Y18835D01*
G01X19710Y18807D01*
G01X19705Y18780D01*
G01X19697Y18752D01*
G01X19688Y18726D01*
G01X19677Y18700D01*
G01X19664Y18675D01*
G01X19657Y18659D01*
G01X19653Y18642D01*
G01X19651Y18625D01*
G01X19651Y16540D01*
G01X19652Y16525D01*
G01X19655Y16511D01*
G01X19660Y16498D01*
G01X19667Y16485D01*
G01X19676Y16473D01*
G01X19686Y16463D01*
G01X19698Y16454D01*
G01X19711Y16447D01*
G01X19737Y16434D01*
G01X19762Y16419D01*
G01X19786Y16402D01*
G01X19809Y16384D01*
G01X19830Y16363D01*
G01X19849Y16341D01*
G01X19867Y16318D01*
G01X19882Y16293D01*
G01X19896Y16268D01*
G01X19908Y16241D01*
G01X19918Y16213D01*
G01X19926Y16185D01*
G01X19931Y16156D01*
G01X19935Y16127D01*
G01X19936Y16098D01*
G01X19936Y14899D01*
G01X19935Y14871D01*
G01X19932Y14843D01*
G01X19927Y14816D01*
G01X19920Y14788D01*
G01X19911Y14762D01*
G01X19900Y14736D01*
G01X19887Y14711D01*
G01X19872Y14687D01*
G01X19856Y14664D01*
G01X19838Y14643D01*
G01X19818Y14623D01*
G01X19797Y14604D01*
G01X19775Y14587D01*
G01X19751Y14571D01*
G01X19727Y14558D01*
G01X19701Y14546D01*
G01X19688Y14539D01*
G01X19676Y14530D01*
G01X19665Y14520D01*
G01X19656Y14508D01*
G01X19649Y14495D01*
G01X19644Y14481D01*
G01X19640Y14467D01*
G01X19639Y14452D01*
G01X19639Y12549D01*
G01X19640Y12534D01*
G01X19644Y12519D01*
G01X19649Y12506D01*
G01X19656Y12493D01*
G01X19665Y12481D01*
G01X19676Y12471D01*
G01X19688Y12462D01*
G01X19701Y12455D01*
G01X19726Y12443D01*
G01X19750Y12429D01*
G01X19774Y12414D01*
G01X19796Y12397D01*
G01X19817Y12378D01*
G01X19836Y12358D01*
G01X19854Y12337D01*
G01X19870Y12314D01*
G01X19885Y12290D01*
G01X19897Y12265D01*
G01X19908Y12239D01*
G01X19917Y12213D01*
G01X19924Y12186D01*
G01X19929Y12158D01*
G01X19932Y12131D01*
G01X19933Y12103D01*
G01X19933Y10904D01*
G01X19932Y10875D01*
G01X19929Y10847D01*
G01X19924Y10818D01*
G01X19916Y10791D01*
G01X19907Y10764D01*
G01X19895Y10737D01*
G01X19882Y10712D01*
G01X19867Y10688D01*
G01X19850Y10665D01*
G01X19831Y10643D01*
G01X19811Y10623D01*
G01X19789Y10604D01*
G01X19766Y10587D01*
G01X19742Y10572D01*
G01X19716Y10558D01*
G01X19690Y10547D01*
G01X19663Y10537D01*
G01X19635Y10530D01*
G01X19607Y10524D01*
G01X19579Y10521D01*
G01X19550Y10520D01*
G01X18450Y10520D01*
G01X18422Y10521D01*
G01X18394Y10524D01*
G01X18366Y10530D01*
G01X18338Y10537D01*
G01X18311Y10546D01*
G01X18285Y10557D01*
G01X18260Y10570D01*
G01X18236Y10585D01*
G01X18213Y10602D01*
G01X18199Y10611D01*
G01X18184Y10618D01*
G01X18167Y10622D01*
G01X18150Y10624D01*
G01X18134Y10622D01*
G01X18117Y10618D01*
G01X18102Y10611D01*
G01X18088Y10602D01*
G01X18065Y10585D01*
G01X18041Y10570D01*
G01X18015Y10557D01*
G01X17989Y10546D01*
G01X17962Y10537D01*
G01X17935Y10530D01*
G01X17907Y10524D01*
G01X17879Y10521D01*
G01X17851Y10520D01*
G01X16751Y10520D01*
G01X16722Y10521D01*
G01X16694Y10524D01*
G01X16666Y10530D01*
G01X16638Y10537D01*
G01X16611Y10547D01*
G01X16585Y10558D01*
G01X16560Y10571D01*
G01X16535Y10586D01*
G01X16512Y10603D01*
G01X16491Y10622D01*
G01X16470Y10642D01*
G01X16452Y10664D01*
G01X16435Y10687D01*
G01X16419Y10711D01*
G01X16406Y10736D01*
G01X16394Y10762D01*
G01X16385Y10789D01*
G01X16379Y10804D01*
G01X16370Y10818D01*
G01X16360Y10830D01*
G01X16348Y10841D01*
G01X16334Y10849D01*
G01X16319Y10855D01*
G01X16304Y10859D01*
G01X16288Y10861D01*
G01X15790Y10861D01*
G01X15771Y10859D01*
G01X15753Y10854D01*
G01X15713Y10840D01*
G01X15672Y10828D01*
G01X15631Y10819D01*
G01X15589Y10812D01*
G01X15546Y10809D01*
G01X15504Y10807D01*
G01X15465Y10808D01*
G01X15426Y10812D01*
G01X15387Y10817D01*
G01X15349Y10825D01*
G01X15311Y10834D01*
G01X15274Y10846D01*
G01X15238Y10860D01*
G01X15202Y10876D01*
G01X15168Y10894D01*
G01X15134Y10914D01*
G01X15102Y10936D01*
G01X15071Y10959D01*
G01X15041Y10984D01*
G01X15013Y11011D01*
G01X14986Y11039D01*
G01X14961Y11069D01*
G01X14937Y11100D01*
G01X14916Y11133D01*
G01X14896Y11167D01*
G01X14878Y11201D01*
G01X14862Y11237D01*
G01X14849Y11273D01*
G01X14837Y11310D01*
G01X14832Y11324D01*
G01X14825Y11337D01*
G01X14816Y11349D01*
G01X14806Y11359D01*
G01X14794Y11368D01*
G01X14782Y11375D01*
G01X14768Y11380D01*
G01X14754Y11383D01*
G01X14739Y11384D01*
G01X14725Y11383D01*
G01X14710Y11380D01*
G01X14697Y11375D01*
G01X14684Y11368D01*
G01X14673Y11359D01*
G01X14662Y11349D01*
G01X14654Y11338D01*
G01X14647Y11325D01*
G01X14642Y11311D01*
G01X14639Y11297D01*
G01X14638Y11283D01*
G01X14638Y5609D01*
G01X14639Y5594D01*
G01X14642Y5579D01*
G01X14648Y5565D01*
G01X14655Y5551D01*
G01X14665Y5539D01*
G01X14676Y5529D01*
G01X14689Y5521D01*
G01X14703Y5514D01*
G01X14745Y5502D01*
G01X14773Y5493D01*
G01X14799Y5482D01*
G01X14825Y5468D01*
G01X14849Y5453D01*
G01X14872Y5436D01*
G01X14894Y5417D01*
G01X14915Y5397D01*
G01X14934Y5375D01*
G01X14951Y5352D01*
G01X14967Y5328D01*
G01X14980Y5302D01*
G01X14992Y5276D01*
G01X15001Y5249D01*
G01X15009Y5221D01*
G01X15014Y5193D01*
G01X15017Y5164D01*
G01X15019Y5135D01*
G01X15019Y3865D01*
G01X15017Y3836D01*
G01X15014Y3808D01*
G01X15009Y3780D01*
G01X15001Y3752D01*
G01X14992Y3725D01*
G01X14981Y3699D01*
G01X14967Y3673D01*
G01X14952Y3649D01*
G01X14935Y3626D01*
G01X14916Y3604D01*
G01X14896Y3584D01*
G01X14874Y3565D01*
G01X14851Y3548D01*
G01X14827Y3533D01*
G01X14801Y3519D01*
G01X14775Y3508D01*
G01X14748Y3498D01*
G01X14720Y3491D01*
G01X14692Y3486D01*
G01X14664Y3483D01*
G01X14635Y3481D01*
G01X13365Y3481D01*
G01X13337Y3483D01*
G01X13309Y3486D01*
G01X13281Y3491D01*
G01X13254Y3498D01*
G01X13227Y3507D01*
G01X13201Y3518D01*
G01X13176Y3531D01*
G01X13152Y3546D01*
G01X13129Y3563D01*
G01X13107Y3581D01*
G01X13087Y3601D01*
G01X13068Y3622D01*
G01X13051Y3644D01*
G01X13036Y3668D01*
G01X13022Y3693D01*
G01X13010Y3719D01*
G01X13001Y3745D01*
G01X12993Y3772D01*
G01X12987Y3800D01*
G01X12983Y3828D01*
G01X12981Y3843D01*
G01X12976Y3857D01*
G01X12969Y3870D01*
G01X12961Y3882D01*
G01X12950Y3893D01*
G01X12939Y3903D01*
G01X12926Y3910D01*
G01X12912Y3915D01*
G01X12897Y3919D01*
G01X12882Y3920D01*
G01X12867Y3918D01*
G01X12852Y3915D01*
G01X12837Y3909D01*
G01X12824Y3901D01*
G01X12812Y3891D01*
G01X12802Y3880D01*
G01X12772Y3844D01*
G01X12741Y3809D01*
G01X12709Y3775D01*
G01X12675Y3743D01*
G01X12640Y3713D01*
G01X12603Y3684D01*
G01X12565Y3657D01*
G01X12526Y3631D01*
G01X12485Y3608D01*
G01X12444Y3586D01*
G01X12402Y3567D01*
G01X12358Y3549D01*
G01X12314Y3533D01*
G01X12270Y3520D01*
G01X12225Y3508D01*
G01X12179Y3498D01*
G01X12133Y3491D01*
G01X12087Y3486D01*
G01X12040Y3482D01*
G01X11993Y3481D01*
G01X11947Y3482D01*
G01X11901Y3485D01*
G01X11856Y3491D01*
G01X11810Y3498D01*
G01X11765Y3507D01*
G01X11720Y3519D01*
G01X11676Y3532D01*
G01X11633Y3547D01*
G01X11590Y3565D01*
G01X11548Y3584D01*
G01X11507Y3605D01*
G01X11467Y3628D01*
G01X11429Y3652D01*
G01X11391Y3679D01*
G01X11354Y3707D01*
G01X11319Y3736D01*
G01X11285Y3768D01*
G01X11253Y3800D01*
G01X11222Y3835D01*
G01X11193Y3870D01*
G01X11165Y3907D01*
G01X11139Y3945D01*
G01X11115Y3984D01*
G01X11093Y4024D01*
G01X11084Y4038D01*
G01X11074Y4050D01*
G01X11062Y4060D01*
G01X11048Y4068D01*
G01X11034Y4074D01*
G01X11018Y4077D01*
G01X11003Y4079D01*
G01X10987Y4077D01*
G01X10972Y4074D01*
G01X10957Y4068D01*
G01X10944Y4060D01*
G01X10932Y4050D01*
G01X10921Y4038D01*
G01X10913Y4024D01*
G01X10891Y3984D01*
G01X10866Y3945D01*
G01X10840Y3907D01*
G01X10813Y3870D01*
G01X10753Y3800D01*
G01X10720Y3768D01*
G01X10686Y3736D01*
G01X10651Y3707D01*
G01X10615Y3679D01*
G01X10577Y3652D01*
G01X10538Y3628D01*
G01X10498Y3605D01*
G01X10457Y3584D01*
G01X10415Y3565D01*
G01X10373Y3547D01*
G01X10329Y3532D01*
G01X10285Y3519D01*
G01X10240Y3507D01*
G01X10195Y3498D01*
G01X10150Y3491D01*
G01X10104Y3485D01*
G01X10058Y3482D01*
G01X10012Y3481D01*
G01X9965Y3482D01*
G01X9918Y3486D01*
G01X9871Y3491D01*
G01X9825Y3499D01*
G01X9779Y3508D01*
G01X9733Y3520D01*
G01X9688Y3534D01*
G01X9644Y3550D01*
G01X9600Y3568D01*
G01X9558Y3588D01*
G01X9516Y3610D01*
G01X9475Y3634D01*
G01X9436Y3660D01*
G01X9398Y3687D01*
G01X9361Y3717D01*
G01X9325Y3748D01*
G01X9291Y3780D01*
G01X9259Y3814D01*
G01X9228Y3850D01*
G01X9199Y3887D01*
G01X9171Y3925D01*
G01X9146Y3965D01*
G01X9122Y4005D01*
G01X9100Y4047D01*
G01X9092Y4061D01*
G01X9081Y4073D01*
G01X9069Y4084D01*
G01X9055Y4092D01*
G01X9041Y4098D01*
G01X9025Y4102D01*
G01X9009Y4103D01*
G01X8993Y4102D01*
G01X8977Y4098D01*
G01X8962Y4092D01*
G01X8949Y4084D01*
G01X8937Y4073D01*
G01X8926Y4061D01*
G01X8918Y4047D01*
G01X8896Y4006D01*
G01X8873Y3966D01*
G01X8848Y3927D01*
G01X8821Y3890D01*
G01X8793Y3853D01*
G01X8762Y3818D01*
G01X8731Y3784D01*
G01X8697Y3752D01*
G01X8663Y3722D01*
G01X8627Y3693D01*
G01X8589Y3665D01*
G01X8551Y3640D01*
G01X8511Y3616D01*
G01X8471Y3594D01*
G01X8429Y3574D01*
G01X8387Y3555D01*
G01X8387Y4119D01*
G01X8927Y4119D01*
G01X8942Y4120D01*
G01X8956Y4123D01*
G01X8970Y4128D01*
G01X8982Y4135D01*
G01X8994Y4144D01*
G01X9004Y4154D01*
G01X9013Y4166D01*
G01X9020Y4178D01*
G01X9025Y4192D01*
G01X9028Y4206D01*
G01X9029Y4220D01*
G01X9026Y4246D01*
G01X9014Y4296D01*
G01X9005Y4346D01*
G01X8999Y4397D01*
G01X8995Y4449D01*
G01X8994Y4500D01*
G01X8995Y4551D01*
G01X8999Y4602D01*
G01X9005Y4653D01*
G01X9014Y4704D01*
G01X9026Y4754D01*
G01X9029Y4779D01*
G01X9028Y4794D01*
G01X9025Y4808D01*
G01X9020Y4821D01*
G01X9013Y4834D01*
G01X9004Y4846D01*
G01X8994Y4856D01*
G01X8982Y4865D01*
G01X8970Y4872D01*
G01X8956Y4877D01*
G01X8942Y4880D01*
G01X8927Y4881D01*
G01X8387Y4881D01*
G01X8387Y5444D01*
G01X8429Y5426D01*
G01X8471Y5406D01*
G01X8511Y5384D01*
G01X8551Y5360D01*
G01X8589Y5334D01*
G01X8627Y5307D01*
G01X8663Y5278D01*
G01X8697Y5247D01*
G01X8731Y5215D01*
G01X8762Y5182D01*
G01X8793Y5147D01*
G01X8821Y5110D01*
G01X8848Y5073D01*
G01X8873Y5034D01*
G01X8896Y4994D01*
G01X8918Y4953D01*
G01X8926Y4939D01*
G01X8937Y4927D01*
G01X8949Y4916D01*
G01X8962Y4908D01*
G01X8977Y4901D01*
G01X8993Y4898D01*
G01X9009Y4896D01*
G01X9025Y4898D01*
G01X9041Y4901D01*
G01X9055Y4908D01*
G01X9069Y4916D01*
G01X9081Y4927D01*
G01X9092Y4939D01*
G01X9100Y4953D01*
G01X9123Y4997D01*
G01X9148Y5039D01*
G01X9175Y5080D01*
G01X9204Y5120D01*
G01X9235Y5159D01*
G01X9268Y5196D01*
G01X9303Y5231D01*
G01X9339Y5264D01*
G01X9349Y5275D01*
G01X9358Y5286D01*
G01X9365Y5299D01*
G01X9370Y5312D01*
G01X9373Y5326D01*
G01X9374Y5341D01*
G01X9374Y9184D01*
G01X9372Y9200D01*
G01X9369Y9215D01*
G01X9363Y9230D01*
G01X9354Y9244D01*
G01X9344Y9256D01*
G01X8768Y9832D01*
G01X8756Y9842D01*
G01X8742Y9850D01*
G01X8728Y9856D01*
G01X8712Y9860D01*
G01X8696Y9861D01*
G01X7048Y9861D01*
G01X7033Y9860D01*
G01X7018Y9857D01*
G01X7005Y9852D01*
G01X6992Y9844D01*
G01X6980Y9835D01*
G01X6970Y9825D01*
G01X6961Y9813D01*
G01X6954Y9799D01*
G01X6940Y9769D01*
G01X6922Y9739D01*
G01X6903Y9712D01*
G01X6893Y9698D01*
G01X6886Y9682D01*
G01X6882Y9666D01*
G01X6881Y9649D01*
G01X6882Y9632D01*
G01X6886Y9616D01*
G01X6893Y9600D01*
G01X6903Y9586D01*
G01X6919Y9563D01*
G01X6934Y9539D01*
G01X6947Y9514D01*
G01X6959Y9488D01*
G01X6968Y9461D01*
G01X6975Y9434D01*
G01X6980Y9406D01*
G01X6983Y9378D01*
G01X6984Y9349D01*
G01X6985Y9138D01*
G01X6365Y9138D01*
G01X6365Y9464D01*
G01X6364Y9478D01*
G01X6361Y9492D01*
G01X6356Y9506D01*
G01X6349Y9518D01*
G01X6340Y9530D01*
G01X6330Y9540D01*
G01X6318Y9549D01*
G01X6305Y9556D01*
G01X6292Y9561D01*
G01X6278Y9564D01*
G01X6263Y9565D01*
G01X5740Y9565D01*
G01X5725Y9564D01*
G01X5711Y9561D01*
G01X5698Y9556D01*
G01X5685Y9549D01*
G01X5673Y9540D01*
G01X5663Y9530D01*
G01X5654Y9518D01*
G01X5647Y9506D01*
G01X5642Y9492D01*
G01X5639Y9478D01*
G01X5638Y9464D01*
G01X5638Y9138D01*
G01X5019Y9138D01*
G01X5019Y9349D01*
G01X5020Y9378D01*
G01X5023Y9406D01*
G01X5028Y9434D01*
G01X5035Y9461D01*
G01X5044Y9488D01*
G01X5056Y9514D01*
G01X5069Y9539D01*
G01X5084Y9563D01*
G01X5100Y9586D01*
G01X5110Y9600D01*
G01X5117Y9616D01*
G01X5121Y9632D01*
G01X5122Y9649D01*
G01X5121Y9666D01*
G01X5117Y9682D01*
G01X5110Y9698D01*
G01X5100Y9712D01*
G01X5081Y9739D01*
G01X5063Y9769D01*
G01X5049Y9799D01*
G01X5042Y9813D01*
G01X5033Y9825D01*
G01X5023Y9835D01*
G01X5011Y9844D01*
G01X4998Y9852D01*
G01X4985Y9857D01*
G01X4970Y9860D01*
G01X4955Y9861D01*
G01X3973Y9861D01*
G01X3957Y9860D01*
G01X3941Y9856D01*
G01X3927Y9850D01*
G01X3913Y9842D01*
G01X3901Y9832D01*
G01X3891Y9820D01*
G01X3882Y9806D01*
G01X3876Y9792D01*
G01X3866Y9765D01*
G01X3855Y9740D01*
G01X3841Y9715D01*
G01X3825Y9692D01*
G01X3808Y9669D01*
G01X3790Y9648D01*
G01X3748Y9610D01*
G01X3725Y9594D01*
G01X3701Y9579D01*
G01X3676Y9566D01*
G01X3650Y9555D01*
G01X3623Y9546D01*
G01X3596Y9539D01*
G01X3568Y9534D01*
G01X3540Y9531D01*
G01X3512Y9530D01*
G01X2496Y9530D01*
G01X2468Y9531D01*
G01X2439Y9534D01*
G01X2411Y9539D01*
G01X2383Y9547D01*
G01X2356Y9556D01*
G01X2330Y9568D01*
G01X2305Y9581D01*
G01X2280Y9596D01*
G01X2257Y9613D01*
G01X2235Y9632D01*
G01X2215Y9652D01*
G01X2196Y9674D01*
G01X2179Y9697D01*
G01X2164Y9721D01*
G01X2151Y9747D01*
G01X2139Y9773D01*
G01X2130Y9800D01*
G01X2122Y9828D01*
G01X2117Y9856D01*
G01X2114Y9884D01*
G01X2113Y9913D01*
G01X2113Y11056D01*
G01X2114Y11085D01*
G01X2117Y11114D01*
G01X2123Y11142D01*
G01X2130Y11170D01*
G01X2140Y11198D01*
G01X2152Y11224D01*
G01X2165Y11250D01*
G01X2181Y11274D01*
G01X2198Y11298D01*
G01X2217Y11319D01*
G01X2238Y11340D01*
G01X2260Y11358D01*
G01X2284Y11375D01*
G01X2297Y11386D01*
G01X2308Y11398D01*
G01X2317Y11412D01*
G01X2324Y11427D01*
G01X2328Y11443D01*
G01X2329Y11460D01*
G01X2328Y11474D01*
G01X2325Y11489D01*
G01X2320Y11502D01*
G01X2313Y11515D01*
G01X2304Y11527D01*
G01X2294Y11537D01*
G01X2282Y11545D01*
G01X2270Y11552D01*
G01X2256Y11557D01*
G01X2242Y11561D01*
G01X2228Y11562D01*
G01X1607Y11562D01*
G01X1579Y11563D01*
G01X1550Y11566D01*
G01X1522Y11571D01*
G01X1494Y11579D01*
G01X1467Y11588D01*
G01X1441Y11600D01*
G01X1416Y11613D01*
G01X1391Y11628D01*
G01X1368Y11645D01*
G01X1346Y11664D01*
G01X1326Y11684D01*
G01X1307Y11706D01*
G01X1290Y11729D01*
G01X1275Y11753D01*
G01X1262Y11779D01*
G01X1250Y11805D01*
G01X1241Y11832D01*
G01X1233Y11860D01*
G01X1228Y11888D01*
G01X1225Y11916D01*
G01X1224Y11945D01*
G01X1224Y13088D01*
G01X1225Y13118D01*
G01X1228Y13147D01*
G01X1234Y13176D01*
G01X1242Y13204D01*
G01X1252Y13232D01*
G01X1264Y13259D01*
G01X1278Y13284D01*
G01X1294Y13309D01*
G01X1312Y13332D01*
G01X1331Y13354D01*
G01X1352Y13375D01*
G01X1375Y13393D01*
G01X1399Y13410D01*
G01X1425Y13425D01*
G01X1438Y13434D01*
G01X1449Y13444D01*
G01X1459Y13456D01*
G01X1467Y13470D01*
G01X1473Y13484D01*
G01X1477Y13499D01*
G01X1478Y13515D01*
G01X1478Y15341D01*
G01X1479Y15387D01*
G01X1484Y15432D01*
G01X1485Y15447D01*
G01X1485Y16365D01*
G01X1486Y16393D01*
G01X1490Y16422D01*
G01X1495Y16450D01*
G01X1502Y16478D01*
G01X1512Y16505D01*
G01X1523Y16531D01*
G01X1537Y16556D01*
G01X1552Y16581D01*
G01X1569Y16604D01*
G01X1588Y16626D01*
G01X1608Y16646D01*
G01X1630Y16665D01*
G01X1653Y16682D01*
G01X1677Y16697D01*
G01X1703Y16710D01*
G01X1729Y16722D01*
G01X1756Y16731D01*
G01X1784Y16739D01*
G01X1812Y16744D01*
G01X1840Y16747D01*
G01X1869Y16748D01*
G01X3139Y16748D01*
G01X3168Y16747D01*
G01X3196Y16744D01*
G01X3225Y16739D01*
G01X3253Y16731D01*
G01X3280Y16721D01*
G01X3306Y16710D01*
G01X3332Y16696D01*
G01X3356Y16681D01*
G01X3379Y16664D01*
G01X3401Y16645D01*
G01X3421Y16624D01*
G01X3440Y16602D01*
G01X3457Y16579D01*
G01X3472Y16554D01*
G01X3486Y16529D01*
G01X3497Y16502D01*
G01X3506Y16475D01*
G01X3514Y16447D01*
G01X3518Y16432D01*
G01X3524Y16419D01*
G01X3533Y16406D01*
G01X3543Y16395D01*
G01X3555Y16385D01*
G01X3568Y16377D01*
G01X3583Y16372D01*
G01X3598Y16368D01*
G01X3613Y16367D01*
G01X3919Y16367D01*
G01X3933Y16368D01*
G01X3947Y16371D01*
G01X3961Y16376D01*
G01X3974Y16383D01*
G01X3985Y16392D01*
G01X3996Y16402D01*
G01X4004Y16414D01*
G01X4011Y16427D01*
G01X4016Y16440D01*
G01X4019Y16454D01*
G01X4020Y16469D01*
G01X4020Y17048D01*
G01X4021Y17076D01*
G01X4025Y17105D01*
G01X4030Y17132D01*
G01X4037Y17160D01*
G01X4046Y17187D01*
G01X4058Y17213D01*
G01X4071Y17238D01*
G01X4086Y17262D01*
G01X4102Y17285D01*
G01X4112Y17299D01*
G01X4118Y17314D01*
G01X4123Y17331D01*
G01X4124Y17348D01*
G01X4123Y17365D01*
G01X4118Y17381D01*
G01X4112Y17396D01*
G01X4102Y17410D01*
G01X4086Y17433D01*
G01X4071Y17458D01*
G01X4058Y17483D01*
G01X4046Y17509D01*
G01X4037Y17536D01*
G01X4030Y17563D01*
G01X4025Y17591D01*
G01X4021Y17619D01*
G01X4020Y17647D01*
G01X4020Y17859D01*
G01X4640Y17859D01*
G01X4640Y17533D01*
G01X4641Y17519D01*
G01X4644Y17504D01*
G01X4649Y17491D01*
G01X4656Y17478D01*
G01X4665Y17467D01*
G01X4675Y17456D01*
G01X4687Y17448D01*
G01X4699Y17441D01*
G01X4713Y17436D01*
G01X4727Y17433D01*
G01X4742Y17432D01*
G01X5265Y17432D01*
G01X5279Y17433D01*
G01X5294Y17436D01*
G01X5307Y17441D01*
G01X5320Y17448D01*
G01X5331Y17456D01*
G01X5342Y17467D01*
G01X5350Y17478D01*
G01X5357Y17491D01*
G01X5362Y17504D01*
G01X5365Y17519D01*
G01X5367Y17533D01*
G01X5367Y17859D01*
G01X5986Y17859D01*
G01X5986Y17647D01*
G01X5985Y17619D01*
G01X5982Y17591D01*
G01X5977Y17563D01*
G01X5970Y17536D01*
G01X5960Y17509D01*
G01X5949Y17483D01*
G01X5936Y17458D01*
G01X5921Y17433D01*
G01X5904Y17410D01*
G01X5895Y17396D01*
G01X5888Y17381D01*
G01X5884Y17365D01*
G01X5883Y17348D01*
G01X5884Y17331D01*
G01X5888Y17314D01*
G01X5895Y17299D01*
G01X5904Y17285D01*
G01X5924Y17258D01*
G01X5941Y17229D01*
G01X5955Y17199D01*
G01X5962Y17185D01*
G01X5971Y17173D01*
G01X5981Y17163D01*
G01X5993Y17154D01*
G01X6006Y17146D01*
G01X6020Y17141D01*
G01X6034Y17138D01*
G01X6049Y17137D01*
G01X8233Y17137D01*
G01X8247Y17138D01*
G01X8261Y17141D01*
G01X8275Y17146D01*
G01X8288Y17153D01*
G01X8299Y17162D01*
G01X8309Y17172D01*
G01X8318Y17183D01*
G01X8325Y17196D01*
G01X8330Y17210D01*
G01X8333Y17224D01*
G01X8342Y17273D01*
G01X8352Y17323D01*
G01X8365Y17372D01*
G01X8380Y17420D01*
G01X8396Y17468D01*
G01X8415Y17514D01*
G01X8436Y17560D01*
G01X8459Y17605D01*
G01X8483Y17650D01*
G01X8510Y17693D01*
G01X8538Y17734D01*
G01X8568Y17775D01*
G01X8600Y17814D01*
G01X8633Y17852D01*
G01X8668Y17888D01*
G01X8705Y17923D01*
G01X8743Y17957D01*
G01X8782Y17988D01*
G01X8823Y18018D01*
G01X8835Y18029D01*
G01X8846Y18041D01*
G01X8854Y18054D01*
G01X8861Y18069D01*
G01X8864Y18085D01*
G01X8866Y18101D01*
G01X8866Y18501D01*
G01X8867Y18540D01*
G01X8870Y18578D01*
G01X8876Y18616D01*
G01X8884Y18654D01*
G01X8895Y18691D01*
G01X8907Y18728D01*
G01X8922Y18763D01*
G01X8939Y18798D01*
G01X8958Y18832D01*
G01X8979Y18864D01*
G01X9002Y18895D01*
G01X9026Y18925D01*
G01X9053Y18953D01*
G01X10050Y19950D01*
G01X10079Y19978D01*
G01X10111Y20004D01*
G01X10143Y20027D01*
G01X10177Y20049D01*
G01X10213Y20068D01*
G01X10250Y20085D01*
G01X10263Y20092D01*
G01X10275Y20101D01*
G01X10285Y20111D01*
G01X10294Y20123D01*
G01X10302Y20136D01*
G01X10307Y20150D01*
G01X10310Y20164D01*
G01X10311Y20179D01*
G01X10310Y20193D01*
G01X10307Y20208D01*
G01X10302Y20222D01*
G01X10286Y20246D01*
G01X10275Y20256D01*
G01X10263Y20265D01*
G01X10250Y20272D01*
G01X10193Y20298D01*
G01X10137Y20325D01*
G01X10082Y20355D01*
G01X10028Y20386D01*
G01X9976Y20420D01*
G01X9924Y20455D01*
G01X9873Y20491D01*
G01X9824Y20529D01*
G01X9776Y20569D01*
G01X9729Y20611D01*
G01X9684Y20654D01*
G01X9640Y20698D01*
G01X9598Y20744D01*
G01X9557Y20791D01*
G01X9518Y20840D01*
G01X9480Y20889D01*
G01X9444Y20941D01*
G01X9410Y20993D01*
G01X9378Y21046D01*
G01X9347Y21100D01*
G01X9318Y21156D01*
G01X9291Y21212D01*
G01X9266Y21269D01*
G01X9243Y21327D01*
G01X9222Y21386D01*
G01X9202Y21445D01*
G01X9185Y21505D01*
G01X9170Y21565D01*
G01X9156Y21626D01*
G01X9145Y21688D01*
G01X9136Y21750D01*
G01X9129Y21812D01*
G01X9123Y21874D01*
G01X9120Y21936D01*
G01X9119Y21998D01*
G01X9120Y22061D01*
G01X9123Y22123D01*
G01X9128Y22185D01*
G01X9136Y22247D01*
G01X9145Y22308D01*
G01X9156Y22370D01*
G01X9169Y22430D01*
G01X9185Y22491D01*
G01X9202Y22551D01*
G01X9221Y22610D01*
G01X9242Y22668D01*
G01X9265Y22726D01*
G01X9290Y22783D01*
G01X9317Y22839D01*
G01X9346Y22895D01*
G01X9377Y22949D01*
G01X9409Y23002D01*
G01X9443Y23054D01*
G01X9479Y23105D01*
G01X9516Y23155D01*
G01X9555Y23203D01*
G01X9596Y23251D01*
G01X9638Y23296D01*
G01X9682Y23341D01*
G01X9727Y23384D01*
G01X9773Y23425D01*
G01X9783Y23435D01*
G01X9792Y23447D01*
G01X9799Y23460D01*
G01X9804Y23473D01*
G01X9807Y23488D01*
G01X9808Y23502D01*
G01X9807Y23517D01*
G01X9804Y23531D01*
G01X9799Y23544D01*
G01X9792Y23557D01*
G01X9784Y23569D01*
G01X9773Y23579D01*
G01X9762Y23588D01*
G01X9749Y23595D01*
G01X9735Y23600D01*
G01X9721Y23603D01*
G01X9707Y23604D01*
G37*

%LPC*%
G36*
G01X3139Y19288D02*
G01X2885Y19288D01*
G01X2885Y18651D01*
G01X3522Y18651D01*
G01X3522Y18905D01*
G01X3521Y18933D01*
G01X3518Y18962D01*
G01X3513Y18990D01*
G01X3505Y19018D01*
G01X3496Y19045D01*
G01X3484Y19071D01*
G01X3471Y19096D01*
G01X3456Y19121D01*
G01X3439Y19144D01*
G01X3420Y19166D01*
G01X3400Y19186D01*
G01X3378Y19205D01*
G01X3355Y19222D01*
G01X3331Y19237D01*
G01X3305Y19250D01*
G01X3279Y19262D01*
G01X3252Y19271D01*
G01X3224Y19279D01*
G01X3196Y19284D01*
G01X3168Y19287D01*
G01X3139Y19288D01*
G37*
G36*
G01X2123Y19288D02*
G01X1869Y19288D01*
G01X1840Y19287D01*
G01X1812Y19284D01*
G01X1784Y19279D01*
G01X1756Y19271D01*
G01X1729Y19262D01*
G01X1703Y19250D01*
G01X1677Y19237D01*
G01X1653Y19222D01*
G01X1630Y19205D01*
G01X1608Y19186D01*
G01X1588Y19166D01*
G01X1569Y19144D01*
G01X1552Y19121D01*
G01X1537Y19096D01*
G01X1523Y19071D01*
G01X1512Y19045D01*
G01X1502Y19018D01*
G01X1495Y18990D01*
G01X1490Y18962D01*
G01X1486Y18933D01*
G01X1485Y18905D01*
G01X1485Y18651D01*
G01X2123Y18651D01*
G01X2123Y19288D01*
G37*
G36*
G01X2123Y17889D02*
G01X1485Y17889D01*
G01X1485Y17635D01*
G01X1486Y17606D01*
G01X1490Y17578D01*
G01X1495Y17549D01*
G01X1502Y17522D01*
G01X1512Y17495D01*
G01X1523Y17468D01*
G01X1537Y17443D01*
G01X1552Y17419D01*
G01X1569Y17396D01*
G01X1588Y17374D01*
G01X1608Y17354D01*
G01X1630Y17335D01*
G01X1653Y17318D01*
G01X1677Y17303D01*
G01X1703Y17289D01*
G01X1729Y17278D01*
G01X1756Y17268D01*
G01X1784Y17261D01*
G01X1812Y17255D01*
G01X1840Y17252D01*
G01X1869Y17251D01*
G01X2123Y17251D01*
G01X2123Y17889D01*
G37*
G36*
G01X3522Y17889D02*
G01X2885Y17889D01*
G01X2885Y17251D01*
G01X3139Y17251D01*
G01X3168Y17252D01*
G01X3196Y17255D01*
G01X3224Y17261D01*
G01X3252Y17268D01*
G01X3279Y17278D01*
G01X3305Y17289D01*
G01X3331Y17303D01*
G01X3355Y17318D01*
G01X3378Y17335D01*
G01X3400Y17354D01*
G01X3420Y17374D01*
G01X3439Y17396D01*
G01X3456Y17419D01*
G01X3471Y17443D01*
G01X3484Y17468D01*
G01X3496Y17495D01*
G01X3505Y17522D01*
G01X3513Y17549D01*
G01X3518Y17578D01*
G01X3521Y17606D01*
G01X3522Y17635D01*
G01X3522Y17889D01*
G37*
G36*
G01X6985Y8461D02*
G01X6365Y8461D01*
G01X6365Y7866D01*
G01X6601Y7866D01*
G01X6630Y7867D01*
G01X6658Y7870D01*
G01X6686Y7875D01*
G01X6714Y7883D01*
G01X6741Y7892D01*
G01X6767Y7904D01*
G01X6793Y7917D01*
G01X6817Y7933D01*
G01X6840Y7950D01*
G01X6862Y7968D01*
G01X6882Y7989D01*
G01X6901Y8010D01*
G01X6918Y8033D01*
G01X6933Y8058D01*
G01X6947Y8083D01*
G01X6958Y8109D01*
G01X6967Y8136D01*
G01X6975Y8164D01*
G01X6980Y8192D01*
G01X6983Y8221D01*
G01X6985Y8249D01*
G01X6985Y8461D01*
G37*
G36*
G01X5638Y8461D02*
G01X5019Y8461D01*
G01X5019Y8249D01*
G01X5020Y8221D01*
G01X5023Y8192D01*
G01X5028Y8164D01*
G01X5036Y8136D01*
G01X5045Y8109D01*
G01X5057Y8083D01*
G01X5070Y8058D01*
G01X5085Y8033D01*
G01X5102Y8010D01*
G01X5121Y7989D01*
G01X5141Y7968D01*
G01X5163Y7950D01*
G01X5186Y7933D01*
G01X5210Y7917D01*
G01X5236Y7904D01*
G01X5262Y7892D01*
G01X5289Y7883D01*
G01X5317Y7875D01*
G01X5345Y7870D01*
G01X5373Y7867D01*
G01X5402Y7866D01*
G01X5638Y7866D01*
G01X5638Y8461D01*
G37*
G36*
G01X5603Y19131D02*
G01X5367Y19131D01*
G01X5367Y18536D01*
G01X5986Y18536D01*
G01X5986Y18747D01*
G01X5985Y18776D01*
G01X5982Y18804D01*
G01X5977Y18833D01*
G01X5969Y18860D01*
G01X5960Y18887D01*
G01X5948Y18914D01*
G01X5935Y18939D01*
G01X5920Y18963D01*
G01X5903Y18986D01*
G01X5884Y19008D01*
G01X5864Y19028D01*
G01X5842Y19047D01*
G01X5819Y19064D01*
G01X5795Y19079D01*
G01X5769Y19093D01*
G01X5743Y19104D01*
G01X5716Y19114D01*
G01X5688Y19121D01*
G01X5660Y19126D01*
G01X5631Y19130D01*
G01X5603Y19131D01*
G37*
G36*
G01X4640Y19131D02*
G01X4404Y19131D01*
G01X4375Y19130D01*
G01X4347Y19126D01*
G01X4319Y19121D01*
G01X4291Y19114D01*
G01X4264Y19104D01*
G01X4237Y19093D01*
G01X4212Y19079D01*
G01X4188Y19064D01*
G01X4165Y19047D01*
G01X4143Y19028D01*
G01X4123Y19008D01*
G01X4104Y18986D01*
G01X4087Y18963D01*
G01X4072Y18939D01*
G01X4058Y18914D01*
G01X4047Y18887D01*
G01X4037Y18860D01*
G01X4030Y18833D01*
G01X4025Y18804D01*
G01X4021Y18776D01*
G01X4020Y18747D01*
G01X4020Y18536D01*
G01X4640Y18536D01*
G01X4640Y19131D01*
G37*
G36*
G01X7625Y4881D02*
G01X7625Y5444D01*
G01X7583Y5427D01*
G01X7542Y5407D01*
G01X7502Y5385D01*
G01X7463Y5362D01*
G01X7425Y5337D01*
G01X7388Y5310D01*
G01X7352Y5281D01*
G01X7318Y5252D01*
G01X7285Y5220D01*
G01X7254Y5187D01*
G01X7224Y5153D01*
G01X7196Y5117D01*
G01X7169Y5081D01*
G01X7144Y5043D01*
G01X7120Y5004D01*
G01X7099Y4964D01*
G01X7079Y4923D01*
G01X7061Y4881D01*
G01X7625Y4881D01*
G37*
G36*
G01X7625Y4119D02*
G01X7061Y4119D01*
G01X7079Y4077D01*
G01X7099Y4036D01*
G01X7120Y3996D01*
G01X7144Y3957D01*
G01X7169Y3919D01*
G01X7196Y3882D01*
G01X7224Y3847D01*
G01X7254Y3813D01*
G01X7285Y3780D01*
G01X7318Y3748D01*
G01X7352Y3718D01*
G01X7388Y3690D01*
G01X7425Y3663D01*
G01X7463Y3638D01*
G01X7502Y3615D01*
G01X7542Y3593D01*
G01X7583Y3573D01*
G01X7625Y3555D01*
G01X7625Y4119D01*
G37*

%LPD*%
G36*
G01X17206Y18860D02*
G01X10808Y18860D01*
G01X10792Y18859D01*
G01X10777Y18855D01*
G01X10762Y18849D01*
G01X10748Y18841D01*
G01X10736Y18830D01*
G01X10172Y18267D01*
G01X10162Y18254D01*
G01X10154Y18241D01*
G01X10148Y18226D01*
G01X10144Y18211D01*
G01X10143Y18195D01*
G01X10143Y18101D01*
G01X10144Y18085D01*
G01X10148Y18069D01*
G01X10154Y18054D01*
G01X10163Y18041D01*
G01X10173Y18029D01*
G01X10186Y18018D01*
G01X10225Y17989D01*
G01X10264Y17958D01*
G01X10301Y17926D01*
G01X10337Y17892D01*
G01X10371Y17857D01*
G01X10404Y17820D01*
G01X10435Y17782D01*
G01X10465Y17742D01*
G01X10493Y17702D01*
G01X10519Y17660D01*
G01X10543Y17617D01*
G01X10566Y17574D01*
G01X10587Y17529D01*
G01X10606Y17484D01*
G01X10623Y17437D01*
G01X10638Y17390D01*
G01X10651Y17343D01*
G01X10662Y17295D01*
G01X10671Y17247D01*
G01X10679Y17198D01*
G01X10684Y17149D01*
G01X10687Y17100D01*
G01X10688Y17051D01*
G01X10687Y17000D01*
G01X10684Y16950D01*
G01X10678Y16900D01*
G01X10671Y16850D01*
G01X10661Y16801D01*
G01X10650Y16752D01*
G01X10636Y16704D01*
G01X10620Y16656D01*
G01X10602Y16609D01*
G01X10583Y16563D01*
G01X10561Y16518D01*
G01X10538Y16473D01*
G01X10512Y16430D01*
G01X10485Y16388D01*
G01X10456Y16347D01*
G01X10425Y16307D01*
G01X10393Y16269D01*
G01X10359Y16232D01*
G01X10323Y16196D01*
G01X10286Y16162D01*
G01X10248Y16130D01*
G01X10208Y16099D01*
G01X10167Y16070D01*
G01X10125Y16043D01*
G01X10081Y16017D01*
G01X10037Y15994D01*
G01X9992Y15972D01*
G01X9946Y15952D01*
G01X9898Y15934D01*
G01X9851Y15919D01*
G01X9802Y15905D01*
G01X9754Y15893D01*
G01X9704Y15884D01*
G01X9655Y15876D01*
G01X9605Y15871D01*
G01X9554Y15868D01*
G01X9504Y15867D01*
G01X9447Y15868D01*
G01X9391Y15872D01*
G01X9334Y15879D01*
G01X9278Y15889D01*
G01X9223Y15901D01*
G01X9198Y15904D01*
G01X9181Y15902D01*
G01X9165Y15898D01*
G01X9124Y15885D01*
G01X9082Y15875D01*
G01X9039Y15868D01*
G01X8996Y15863D01*
G01X8953Y15862D01*
G01X6050Y15862D01*
G01X6035Y15861D01*
G01X6021Y15857D01*
G01X6007Y15852D01*
G01X5994Y15845D01*
G01X5982Y15836D01*
G01X5972Y15825D01*
G01X5963Y15813D01*
G01X5956Y15800D01*
G01X5944Y15774D01*
G01X5931Y15750D01*
G01X5915Y15726D01*
G01X5898Y15704D01*
G01X5880Y15683D01*
G01X5859Y15663D01*
G01X5838Y15645D01*
G01X5815Y15629D01*
G01X5791Y15614D01*
G01X5766Y15601D01*
G01X5740Y15590D01*
G01X5714Y15581D01*
G01X5686Y15574D01*
G01X5659Y15569D01*
G01X5631Y15566D01*
G01X5603Y15565D01*
G01X5012Y15565D01*
G01X4996Y15563D01*
G01X4981Y15560D01*
G01X4966Y15554D01*
G01X4953Y15545D01*
G01X4940Y15535D01*
G01X4684Y15279D01*
G01X4656Y15253D01*
G01X4627Y15228D01*
G01X4596Y15205D01*
G01X4564Y15184D01*
G01X4530Y15165D01*
G01X4495Y15148D01*
G01X4460Y15134D01*
G01X4423Y15121D01*
G01X4386Y15111D01*
G01X4349Y15103D01*
G01X4311Y15097D01*
G01X4272Y15093D01*
G01X4234Y15092D01*
G01X3613Y15092D01*
G01X3598Y15091D01*
G01X3583Y15088D01*
G01X3568Y15082D01*
G01X3555Y15074D01*
G01X3543Y15065D01*
G01X3533Y15053D01*
G01X3524Y15041D01*
G01X3518Y15027D01*
G01X3514Y15012D01*
G01X3506Y14984D01*
G01X3497Y14957D01*
G01X3486Y14931D01*
G01X3472Y14905D01*
G01X3457Y14881D01*
G01X3440Y14857D01*
G01X3421Y14835D01*
G01X3401Y14815D01*
G01X3379Y14796D01*
G01X3356Y14779D01*
G01X3332Y14763D01*
G01X3306Y14750D01*
G01X3280Y14738D01*
G01X3253Y14728D01*
G01X3225Y14721D01*
G01X3196Y14716D01*
G01X3168Y14712D01*
G01X3139Y14711D01*
G01X2854Y14711D01*
G01X2840Y14710D01*
G01X2826Y14707D01*
G01X2812Y14702D01*
G01X2800Y14695D01*
G01X2788Y14686D01*
G01X2778Y14676D01*
G01X2769Y14665D01*
G01X2762Y14652D01*
G01X2757Y14638D01*
G01X2754Y14624D01*
G01X2753Y14610D01*
G01X2753Y13515D01*
G01X2754Y13499D01*
G01X2758Y13484D01*
G01X2763Y13470D01*
G01X2771Y13456D01*
G01X2781Y13444D01*
G01X2793Y13434D01*
G01X2806Y13425D01*
G01X2833Y13409D01*
G01X2858Y13391D01*
G01X2882Y13371D01*
G01X2904Y13349D01*
G01X2925Y13326D01*
G01X2935Y13314D01*
G01X2947Y13305D01*
G01X2960Y13297D01*
G01X2974Y13291D01*
G01X2989Y13288D01*
G01X3004Y13287D01*
G01X3020Y13288D01*
G01X3034Y13291D01*
G01X3049Y13297D01*
G01X3062Y13305D01*
G01X3074Y13314D01*
G01X3084Y13326D01*
G01X3103Y13348D01*
G01X3123Y13368D01*
G01X3145Y13387D01*
G01X3168Y13404D01*
G01X3192Y13420D01*
G01X3218Y13433D01*
G01X3244Y13445D01*
G01X3272Y13454D01*
G01X3299Y13462D01*
G01X3328Y13467D01*
G01X3356Y13471D01*
G01X3385Y13472D01*
G01X3576Y13472D01*
G01X3576Y12866D01*
G01X3108Y12866D01*
G01X3094Y12865D01*
G01X3080Y12862D01*
G01X3066Y12857D01*
G01X3054Y12850D01*
G01X3042Y12841D01*
G01X3032Y12831D01*
G01X3023Y12819D01*
G01X3016Y12806D01*
G01X3011Y12793D01*
G01X3008Y12779D01*
G01X3007Y12764D01*
G01X3007Y12269D01*
G01X3008Y12255D01*
G01X3011Y12240D01*
G01X3016Y12227D01*
G01X3023Y12214D01*
G01X3032Y12202D01*
G01X3042Y12192D01*
G01X3054Y12183D01*
G01X3066Y12177D01*
G01X3080Y12171D01*
G01X3094Y12168D01*
G01X3108Y12167D01*
G01X3576Y12167D01*
G01X3576Y11512D01*
G01X3577Y11497D01*
G01X3581Y11482D01*
G01X3586Y11467D01*
G01X3594Y11454D01*
G01X3604Y11442D01*
G01X3616Y11432D01*
G01X3629Y11423D01*
G01X3671Y11405D01*
G01X3699Y11391D01*
G01X3725Y11375D01*
G01X3748Y11359D01*
G01X3770Y11340D01*
G01X3790Y11320D01*
G01X3809Y11299D01*
G01X3826Y11276D01*
G01X3842Y11252D01*
G01X3855Y11227D01*
G01X3867Y11201D01*
G01X3874Y11188D01*
G01X3883Y11176D01*
G01X3893Y11165D01*
G01X3905Y11156D01*
G01X3918Y11148D01*
G01X3932Y11143D01*
G01X3946Y11140D01*
G01X3961Y11138D01*
G01X4956Y11138D01*
G01X4971Y11139D01*
G01X4986Y11143D01*
G01X4999Y11148D01*
G01X5012Y11155D01*
G01X5024Y11164D01*
G01X5034Y11175D01*
G01X5043Y11187D01*
G01X5050Y11200D01*
G01X5062Y11225D01*
G01X5075Y11249D01*
G01X5091Y11273D01*
G01X5108Y11295D01*
G01X5127Y11315D01*
G01X5147Y11335D01*
G01X5168Y11353D01*
G01X5191Y11369D01*
G01X5215Y11383D01*
G01X5240Y11396D01*
G01X5266Y11407D01*
G01X5292Y11416D01*
G01X5319Y11423D01*
G01X5346Y11428D01*
G01X5374Y11431D01*
G01X5402Y11432D01*
G01X6601Y11432D01*
G01X6629Y11431D01*
G01X6657Y11428D01*
G01X6684Y11423D01*
G01X6711Y11416D01*
G01X6738Y11407D01*
G01X6763Y11396D01*
G01X6788Y11383D01*
G01X6812Y11369D01*
G01X6835Y11353D01*
G01X6856Y11335D01*
G01X6876Y11315D01*
G01X6895Y11295D01*
G01X6912Y11273D01*
G01X6928Y11249D01*
G01X6941Y11225D01*
G01X6953Y11200D01*
G01X6960Y11187D01*
G01X6969Y11175D01*
G01X6979Y11164D01*
G01X6991Y11155D01*
G01X7004Y11148D01*
G01X7018Y11143D01*
G01X7032Y11139D01*
G01X7047Y11138D01*
G01X9003Y11138D01*
G01X9041Y11137D01*
G01X9080Y11134D01*
G01X9118Y11128D01*
G01X9156Y11120D01*
G01X9193Y11109D01*
G01X9229Y11097D01*
G01X9265Y11082D01*
G01X9300Y11065D01*
G01X9333Y11046D01*
G01X9366Y11025D01*
G01X9397Y11003D01*
G01X9426Y10978D01*
G01X9454Y10951D01*
G01X10464Y9942D01*
G01X10490Y9914D01*
G01X10515Y9884D01*
G01X10538Y9853D01*
G01X10559Y9821D01*
G01X10578Y9787D01*
G01X10594Y9753D01*
G01X10609Y9717D01*
G01X10622Y9680D01*
G01X10632Y9643D01*
G01X10640Y9606D01*
G01X10646Y9567D01*
G01X10650Y9529D01*
G01X10651Y9490D01*
G01X10651Y5341D01*
G01X10652Y5326D01*
G01X10655Y5312D01*
G01X10660Y5299D01*
G01X10667Y5286D01*
G01X10675Y5275D01*
G01X10685Y5264D01*
G01X10719Y5233D01*
G01X10752Y5200D01*
G01X10783Y5166D01*
G01X10812Y5130D01*
G01X10840Y5093D01*
G01X10866Y5055D01*
G01X10890Y5016D01*
G01X10913Y4975D01*
G01X10921Y4962D01*
G01X10932Y4950D01*
G01X10944Y4940D01*
G01X10957Y4932D01*
G01X10972Y4926D01*
G01X10987Y4922D01*
G01X11003Y4921D01*
G01X11018Y4922D01*
G01X11034Y4926D01*
G01X11048Y4932D01*
G01X11062Y4940D01*
G01X11074Y4950D01*
G01X11084Y4962D01*
G01X11093Y4975D01*
G01X11115Y5016D01*
G01X11140Y5056D01*
G01X11167Y5095D01*
G01X11195Y5132D01*
G01X11225Y5168D01*
G01X11256Y5203D01*
G01X11289Y5236D01*
G01X11324Y5267D01*
G01X11334Y5278D01*
G01X11343Y5289D01*
G01X11350Y5302D01*
G01X11355Y5315D01*
G01X11358Y5329D01*
G01X11359Y5344D01*
G01X11365Y7262D01*
G01X11365Y10694D01*
G01X11364Y10710D01*
G01X11360Y10725D01*
G01X11354Y10740D01*
G01X11346Y10754D01*
G01X11335Y10766D01*
G01X11269Y10833D01*
G01X11256Y10843D01*
G01X11243Y10851D01*
G01X11228Y10857D01*
G01X11213Y10861D01*
G01X11197Y10862D01*
G01X10503Y10862D01*
G01X10464Y10863D01*
G01X10426Y10867D01*
G01X10388Y10873D01*
G01X10350Y10881D01*
G01X10313Y10891D01*
G01X10277Y10904D01*
G01X10241Y10918D01*
G01X10206Y10935D01*
G01X10173Y10954D01*
G01X10140Y10975D01*
G01X10109Y10998D01*
G01X10080Y11023D01*
G01X10052Y11049D01*
G01X9041Y12060D01*
G01X9003Y12099D01*
G01X8976Y12127D01*
G01X8952Y12156D01*
G01X8929Y12187D01*
G01X8908Y12220D01*
G01X8889Y12253D01*
G01X8872Y12288D01*
G01X8857Y12323D01*
G01X8845Y12360D01*
G01X8834Y12397D01*
G01X8826Y12434D01*
G01X8820Y12473D01*
G01X8817Y12511D01*
G01X8816Y12549D01*
G01X8816Y12900D01*
G01X8815Y12916D01*
G01X8811Y12932D01*
G01X8804Y12947D01*
G01X8796Y12961D01*
G01X8785Y12973D01*
G01X8773Y12983D01*
G01X8733Y13013D01*
G01X8694Y13043D01*
G01X8657Y13076D01*
G01X8622Y13110D01*
G01X8587Y13145D01*
G01X8554Y13182D01*
G01X8523Y13220D01*
G01X8493Y13259D01*
G01X8465Y13300D01*
G01X8439Y13342D01*
G01X8415Y13384D01*
G01X8392Y13428D01*
G01X8371Y13473D01*
G01X8352Y13518D01*
G01X8335Y13565D01*
G01X8320Y13611D01*
G01X8307Y13659D01*
G01X8295Y13707D01*
G01X8286Y13755D01*
G01X8279Y13804D01*
G01X8274Y13853D01*
G01X8271Y13902D01*
G01X8270Y13952D01*
G01X8271Y14002D01*
G01X8274Y14052D01*
G01X8279Y14102D01*
G01X8287Y14152D01*
G01X8296Y14201D01*
G01X8308Y14250D01*
G01X8322Y14298D01*
G01X8337Y14346D01*
G01X8355Y14393D01*
G01X8375Y14439D01*
G01X8396Y14485D01*
G01X8420Y14529D01*
G01X8445Y14572D01*
G01X8473Y14615D01*
G01X8502Y14656D01*
G01X8532Y14695D01*
G01X8565Y14734D01*
G01X8599Y14771D01*
G01X8634Y14806D01*
G01X8671Y14840D01*
G01X8710Y14873D01*
G01X8750Y14903D01*
G01X8791Y14932D01*
G01X8833Y14960D01*
G01X8876Y14985D01*
G01X8921Y15009D01*
G01X8966Y15030D01*
G01X9012Y15050D01*
G01X9059Y15068D01*
G01X9107Y15083D01*
G01X9155Y15097D01*
G01X9204Y15109D01*
G01X9253Y15118D01*
G01X9303Y15126D01*
G01X9353Y15131D01*
G01X9403Y15134D01*
G01X9453Y15135D01*
G01X9504Y15134D01*
G01X9554Y15131D01*
G01X9604Y15126D01*
G01X9653Y15118D01*
G01X9703Y15109D01*
G01X9752Y15097D01*
G01X9800Y15083D01*
G01X9848Y15068D01*
G01X9895Y15050D01*
G01X9941Y15030D01*
G01X9986Y15009D01*
G01X10031Y14985D01*
G01X10074Y14960D01*
G01X10116Y14932D01*
G01X10157Y14903D01*
G01X10197Y14873D01*
G01X10235Y14840D01*
G01X10272Y14806D01*
G01X10308Y14771D01*
G01X10342Y14734D01*
G01X10374Y14695D01*
G01X10405Y14656D01*
G01X10434Y14615D01*
G01X10461Y14572D01*
G01X10487Y14529D01*
G01X10510Y14485D01*
G01X10532Y14439D01*
G01X10552Y14393D01*
G01X10569Y14346D01*
G01X10585Y14298D01*
G01X10599Y14250D01*
G01X10610Y14201D01*
G01X10620Y14152D01*
G01X10627Y14102D01*
G01X10633Y14052D01*
G01X10636Y14002D01*
G01X10637Y13952D01*
G01X10636Y13902D01*
G01X10633Y13853D01*
G01X10628Y13804D01*
G01X10621Y13755D01*
G01X10611Y13707D01*
G01X10600Y13659D01*
G01X10587Y13611D01*
G01X10572Y13565D01*
G01X10555Y13518D01*
G01X10536Y13473D01*
G01X10515Y13428D01*
G01X10492Y13384D01*
G01X10468Y13342D01*
G01X10441Y13300D01*
G01X10413Y13259D01*
G01X10384Y13220D01*
G01X10352Y13182D01*
G01X10320Y13145D01*
G01X10285Y13110D01*
G01X10249Y13076D01*
G01X10212Y13043D01*
G01X10174Y13013D01*
G01X10134Y12983D01*
G01X10122Y12973D01*
G01X10111Y12961D01*
G01X10102Y12947D01*
G01X10096Y12932D01*
G01X10092Y12916D01*
G01X10091Y12900D01*
G01X10091Y12855D01*
G01X10092Y12839D01*
G01X10096Y12824D01*
G01X10102Y12809D01*
G01X10110Y12796D01*
G01X10121Y12783D01*
G01X10737Y12167D01*
G01X10749Y12157D01*
G01X10763Y12148D01*
G01X10777Y12142D01*
G01X10793Y12139D01*
G01X10809Y12137D01*
G01X11503Y12137D01*
G01X11541Y12136D01*
G01X11580Y12133D01*
G01X11618Y12127D01*
G01X11655Y12119D01*
G01X11693Y12109D01*
G01X11729Y12096D01*
G01X11765Y12081D01*
G01X11799Y12064D01*
G01X11833Y12045D01*
G01X11865Y12025D01*
G01X11896Y12002D01*
G01X11926Y11977D01*
G01X11954Y11951D01*
G01X12454Y11451D01*
G01X12480Y11423D01*
G01X12505Y11393D01*
G01X12527Y11362D01*
G01X12548Y11330D01*
G01X12567Y11296D01*
G01X12584Y11262D01*
G01X12599Y11226D01*
G01X12611Y11190D01*
G01X12622Y11153D01*
G01X12630Y11115D01*
G01X12636Y11077D01*
G01X12639Y11038D01*
G01X12640Y11000D01*
G01X12640Y7258D01*
G01X12634Y5339D01*
G01X12635Y5322D01*
G01X12640Y5305D01*
G01X12647Y5290D01*
G01X12656Y5275D01*
G01X12668Y5263D01*
G01X12704Y5230D01*
G01X12738Y5195D01*
G01X12771Y5158D01*
G01X12801Y5120D01*
G01X12812Y5108D01*
G01X12824Y5098D01*
G01X12837Y5091D01*
G01X12852Y5085D01*
G01X12867Y5081D01*
G01X12882Y5080D01*
G01X12897Y5081D01*
G01X12912Y5084D01*
G01X12926Y5090D01*
G01X12939Y5097D01*
G01X12950Y5106D01*
G01X12961Y5117D01*
G01X12969Y5130D01*
G01X12976Y5143D01*
G01X12981Y5157D01*
G01X12983Y5172D01*
G01X12987Y5200D01*
G01X12993Y5228D01*
G01X13001Y5255D01*
G01X13011Y5282D01*
G01X13022Y5307D01*
G01X13036Y5332D01*
G01X13052Y5356D01*
G01X13069Y5379D01*
G01X13088Y5400D01*
G01X13108Y5420D01*
G01X13130Y5438D01*
G01X13153Y5454D01*
G01X13177Y5469D01*
G01X13202Y5482D01*
G01X13228Y5493D01*
G01X13255Y5502D01*
G01X13297Y5514D01*
G01X13311Y5521D01*
G01X13324Y5529D01*
G01X13335Y5539D01*
G01X13345Y5551D01*
G01X13352Y5565D01*
G01X13358Y5579D01*
G01X13361Y5594D01*
G01X13362Y5609D01*
G01X13362Y12198D01*
G01X13361Y12214D01*
G01X13357Y12229D01*
G01X13351Y12244D01*
G01X13343Y12257D01*
G01X13333Y12270D01*
G01X12845Y12757D01*
G01X12833Y12768D01*
G01X12819Y12776D01*
G01X12804Y12782D01*
G01X12789Y12786D01*
G01X12773Y12787D01*
G01X12756Y12786D01*
G01X12705Y12778D01*
G01X12654Y12772D01*
G01X12603Y12769D01*
G01X12552Y12768D01*
G01X12502Y12769D01*
G01X12452Y12772D01*
G01X12402Y12778D01*
G01X12352Y12785D01*
G01X12303Y12795D01*
G01X12254Y12806D01*
G01X12206Y12820D01*
G01X12158Y12836D01*
G01X12111Y12853D01*
G01X12065Y12873D01*
G01X12019Y12895D01*
G01X11975Y12918D01*
G01X11932Y12944D01*
G01X11889Y12971D01*
G01X11848Y13000D01*
G01X11809Y13031D01*
G01X11770Y13063D01*
G01X11733Y13097D01*
G01X11698Y13133D01*
G01X11664Y13170D01*
G01X11631Y13208D01*
G01X11601Y13248D01*
G01X11572Y13289D01*
G01X11544Y13331D01*
G01X11519Y13374D01*
G01X11495Y13419D01*
G01X11474Y13464D01*
G01X11454Y13510D01*
G01X11436Y13557D01*
G01X11420Y13605D01*
G01X11407Y13653D01*
G01X11395Y13702D01*
G01X11386Y13752D01*
G01X11378Y13801D01*
G01X11373Y13851D01*
G01X11370Y13901D01*
G01X11369Y13952D01*
G01X11370Y14002D01*
G01X11373Y14052D01*
G01X11378Y14102D01*
G01X11386Y14152D01*
G01X11395Y14201D01*
G01X11407Y14250D01*
G01X11420Y14298D01*
G01X11436Y14346D01*
G01X11454Y14393D01*
G01X11474Y14439D01*
G01X11495Y14485D01*
G01X11519Y14529D01*
G01X11544Y14572D01*
G01X11572Y14615D01*
G01X11601Y14656D01*
G01X11631Y14695D01*
G01X11664Y14734D01*
G01X11698Y14771D01*
G01X11733Y14806D01*
G01X11770Y14840D01*
G01X11809Y14873D01*
G01X11848Y14903D01*
G01X11889Y14932D01*
G01X11932Y14960D01*
G01X11975Y14985D01*
G01X12019Y15009D01*
G01X12065Y15030D01*
G01X12111Y15050D01*
G01X12158Y15068D01*
G01X12206Y15083D01*
G01X12254Y15097D01*
G01X12303Y15109D01*
G01X12352Y15118D01*
G01X12402Y15126D01*
G01X12452Y15131D01*
G01X12502Y15134D01*
G01X12552Y15135D01*
G01X12603Y15134D01*
G01X12654Y15131D01*
G01X12705Y15125D01*
G01X12756Y15118D01*
G01X12773Y15116D01*
G01X12789Y15117D01*
G01X12804Y15121D01*
G01X12819Y15127D01*
G01X12833Y15136D01*
G01X12845Y15146D01*
G01X13648Y15949D01*
G01X13676Y15976D01*
G01X13706Y16000D01*
G01X13737Y16023D01*
G01X13769Y16044D01*
G01X13803Y16063D01*
G01X13837Y16080D01*
G01X13873Y16095D01*
G01X13909Y16107D01*
G01X13946Y16118D01*
G01X13984Y16126D01*
G01X14022Y16131D01*
G01X14061Y16135D01*
G01X14099Y16136D01*
G01X16289Y16136D01*
G01X16303Y16137D01*
G01X16317Y16140D01*
G01X16331Y16145D01*
G01X16343Y16152D01*
G01X16355Y16161D01*
G01X16365Y16171D01*
G01X16374Y16182D01*
G01X16381Y16195D01*
G01X16386Y16208D01*
G01X16395Y16236D01*
G01X16407Y16262D01*
G01X16420Y16288D01*
G01X16435Y16312D01*
G01X16452Y16336D01*
G01X16471Y16358D01*
G01X16491Y16378D01*
G01X16513Y16397D01*
G01X16536Y16414D01*
G01X16561Y16430D01*
G01X16586Y16443D01*
G01X16612Y16455D01*
G01X16640Y16464D01*
G01X16668Y16472D01*
G01X16696Y16477D01*
G01X16725Y16480D01*
G01X16753Y16482D01*
G01X17853Y16482D01*
G01X17882Y16481D01*
G01X17910Y16477D01*
G01X17938Y16472D01*
G01X17965Y16465D01*
G01X17992Y16456D01*
G01X18018Y16444D01*
G01X18043Y16431D01*
G01X18067Y16416D01*
G01X18090Y16400D01*
G01X18104Y16390D01*
G01X18120Y16383D01*
G01X18136Y16379D01*
G01X18153Y16378D01*
G01X18170Y16379D01*
G01X18186Y16383D01*
G01X18202Y16390D01*
G01X18216Y16400D01*
G01X18245Y16421D01*
G01X18277Y16439D01*
G01X18310Y16454D01*
G01X18324Y16461D01*
G01X18336Y16469D01*
G01X18347Y16480D01*
G01X18357Y16492D01*
G01X18364Y16505D01*
G01X18370Y16519D01*
G01X18373Y16533D01*
G01X18374Y16549D01*
G01X18374Y18378D01*
G01X18373Y18393D01*
G01X18370Y18407D01*
G01X18365Y18421D01*
G01X18358Y18433D01*
G01X18349Y18445D01*
G01X18339Y18455D01*
G01X18327Y18464D01*
G01X18315Y18471D01*
G01X18301Y18476D01*
G01X18287Y18479D01*
G01X18273Y18480D01*
G01X17679Y18480D01*
G01X17651Y18481D01*
G01X17622Y18484D01*
G01X17594Y18490D01*
G01X17566Y18497D01*
G01X17539Y18507D01*
G01X17512Y18518D01*
G01X17487Y18532D01*
G01X17462Y18547D01*
G01X17439Y18564D01*
G01X17417Y18583D01*
G01X17397Y18604D01*
G01X17378Y18626D01*
G01X17361Y18649D01*
G01X17346Y18673D01*
G01X17333Y18699D01*
G01X17322Y18725D01*
G01X17312Y18753D01*
G01X17305Y18780D01*
G01X17300Y18795D01*
G01X17294Y18809D01*
G01X17285Y18821D01*
G01X17275Y18833D01*
G01X17263Y18842D01*
G01X17250Y18850D01*
G01X17236Y18855D01*
G01X17221Y18859D01*
G01X17206Y18860D01*
G37*

%LPC*%
G36*
G01X12089Y17514D02*
G01X12089Y18140D01*
G01X12043Y18119D01*
G01X11998Y18096D01*
G01X11954Y18072D01*
G01X11911Y18045D01*
G01X11869Y18017D01*
G01X11829Y17987D01*
G01X11789Y17956D01*
G01X11752Y17922D01*
G01X11715Y17887D01*
G01X11680Y17851D01*
G01X11647Y17813D01*
G01X11615Y17774D01*
G01X11586Y17734D01*
G01X11557Y17692D01*
G01X11531Y17649D01*
G01X11506Y17605D01*
G01X11484Y17560D01*
G01X11463Y17514D01*
G01X12089Y17514D01*
G37*
G36*
G01X13062Y18119D02*
G01X13016Y18140D01*
G01X13016Y17514D01*
G01X13641Y17514D01*
G01X13621Y17560D01*
G01X13598Y17605D01*
G01X13573Y17649D01*
G01X13547Y17692D01*
G01X13519Y17734D01*
G01X13489Y17774D01*
G01X13457Y17813D01*
G01X13424Y17851D01*
G01X13389Y17887D01*
G01X13353Y17922D01*
G01X13315Y17956D01*
G01X13276Y17987D01*
G01X13235Y18017D01*
G01X13194Y18045D01*
G01X13151Y18072D01*
G01X13107Y18096D01*
G01X13062Y18119D01*
G37*
G36*
G01X13641Y16587D02*
G01X13016Y16587D01*
G01X13016Y15961D01*
G01X13062Y15982D01*
G01X13107Y16005D01*
G01X13151Y16029D01*
G01X13194Y16056D01*
G01X13235Y16084D01*
G01X13276Y16114D01*
G01X13315Y16145D01*
G01X13353Y16179D01*
G01X13389Y16214D01*
G01X13424Y16250D01*
G01X13457Y16288D01*
G01X13489Y16327D01*
G01X13519Y16367D01*
G01X13547Y16409D01*
G01X13573Y16452D01*
G01X13598Y16496D01*
G01X13621Y16541D01*
G01X13641Y16587D01*
G37*
G36*
G01X12089Y16587D02*
G01X11463Y16587D01*
G01X11484Y16541D01*
G01X11506Y16496D01*
G01X11531Y16452D01*
G01X11557Y16409D01*
G01X11586Y16367D01*
G01X11615Y16327D01*
G01X11647Y16288D01*
G01X11680Y16250D01*
G01X11715Y16214D01*
G01X11752Y16179D01*
G01X11789Y16145D01*
G01X11829Y16114D01*
G01X11869Y16084D01*
G01X11911Y16056D01*
G01X11954Y16029D01*
G01X11998Y16005D01*
G01X12043Y15982D01*
G01X12089Y15961D01*
G01X12089Y16587D01*
G37*
G36*
G01X4401Y13472D02*
G01X4211Y13472D01*
G01X4211Y12866D01*
G01X4785Y12866D01*
G01X4785Y13088D01*
G01X4784Y13117D01*
G01X4781Y13145D01*
G01X4775Y13173D01*
G01X4768Y13201D01*
G01X4758Y13228D01*
G01X4747Y13255D01*
G01X4733Y13280D01*
G01X4718Y13304D01*
G01X4701Y13327D01*
G01X4682Y13349D01*
G01X4662Y13369D01*
G01X4640Y13388D01*
G01X4617Y13405D01*
G01X4593Y13420D01*
G01X4568Y13434D01*
G01X4541Y13445D01*
G01X4514Y13455D01*
G01X4487Y13462D01*
G01X4458Y13467D01*
G01X4430Y13471D01*
G01X4401Y13472D01*
G37*
G36*
G01X4785Y12167D02*
G01X4211Y12167D01*
G01X4211Y11562D01*
G01X4401Y11562D01*
G01X4430Y11563D01*
G01X4458Y11566D01*
G01X4487Y11571D01*
G01X4514Y11579D01*
G01X4541Y11588D01*
G01X4568Y11600D01*
G01X4593Y11613D01*
G01X4617Y11628D01*
G01X4640Y11645D01*
G01X4662Y11664D01*
G01X4682Y11684D01*
G01X4701Y11706D01*
G01X4718Y11729D01*
G01X4733Y11753D01*
G01X4747Y11779D01*
G01X4758Y11805D01*
G01X4768Y11832D01*
G01X4775Y11860D01*
G01X4781Y11888D01*
G01X4784Y11916D01*
G01X4785Y11945D01*
G01X4785Y12167D01*
G37*

%LPD*%
G54D11*
G01X10012Y4500D02*
G01X10012Y9490D01*
G01X9003Y10500D01*
G01X6002Y10500D01*
G01X6002Y10500D02*
G01X3020Y10500D01*
G01X3004Y10485D01*
G54D12*
G01X2115Y12517D02*
G01X2115Y15341D01*
G01X2504Y15730D01*
G01X2504Y15730D02*
G01X4234Y15730D01*
G01X5003Y16499D01*
G01X14000Y4500D02*
G01X14000Y12504D01*
G01X12552Y13952D01*
G01X17305Y15499D02*
G01X14099Y15499D01*
G01X12552Y13952D01*
G01X17305Y11498D02*
G01X15505Y11498D01*
G01X15503Y11500D01*
G01X5003Y16499D02*
G01X8953Y16499D01*
G01X9504Y17051D01*
G01X9453Y13952D02*
G01X9453Y12549D01*
G01X9503Y12500D01*
G01X9503Y12500D01*
G01X10503Y11500D01*
G01X11503Y11500D01*
G01X12003Y11000D01*
G01X12003Y7261D01*
G01X11993Y4500D01*
G54D11*
G01X19013Y19499D02*
G01X19013Y15510D01*
G01X19002Y15499D01*
G01X19002Y15499D02*
G01X19001Y15498D01*
G01X19001Y11503D01*
G01X9504Y17051D02*
G01X9504Y18501D01*
G01X10501Y19499D01*
G01X17997Y19499D01*
G54D10*
G01X18124Y19498D02*
G01X18886Y19498D01*
G36*
G01X1869Y15095D02*
G01X1869Y16365D01*
G01X3139Y16365D01*
G01X3139Y15095D01*
G01X1869Y15095D01*
G37*
G36*
G01X3139Y18905D02*
G01X3139Y17635D01*
G01X1869Y17635D01*
G01X1869Y18905D01*
G01X3139Y18905D01*
G37*
G36*
G01X6601Y11049D02*
G01X6601Y9949D01*
G01X5402Y9949D01*
G01X5402Y11049D01*
G01X6601Y11049D01*
G37*
G36*
G01X6601Y9349D02*
G01X6601Y8249D01*
G01X5402Y8249D01*
G01X5402Y9349D01*
G01X6601Y9349D01*
G37*
G36*
G01X4404Y15948D02*
G01X4404Y17048D01*
G01X5603Y17048D01*
G01X5603Y15948D01*
G01X4404Y15948D01*
G37*
G36*
G01X4404Y17647D02*
G01X4404Y18747D01*
G01X5603Y18747D01*
G01X5603Y17647D01*
G01X4404Y17647D01*
G37*
G36*
G01X19550Y10904D02*
G01X18450Y10904D01*
G01X18450Y12103D01*
G01X19550Y12103D01*
G01X19550Y10904D01*
G37*
G36*
G01X17851Y10904D02*
G01X16751Y10904D01*
G01X16751Y12103D01*
G01X17851Y12103D01*
G01X17851Y10904D01*
G37*
G36*
G01X19552Y14899D02*
G01X18453Y14899D01*
G01X18453Y16098D01*
G01X19552Y16098D01*
G01X19552Y14899D01*
G37*
G36*
G01X17853Y14899D02*
G01X16753Y14899D01*
G01X16753Y16098D01*
G01X17853Y16098D01*
G01X17853Y14899D01*
G37*
G36*
G01X3512Y9913D02*
G01X2496Y9913D01*
G01X2496Y11056D01*
G01X3512Y11056D01*
G01X3512Y9913D01*
G37*
G36*
G01X2623Y11945D02*
G01X1607Y11945D01*
G01X1607Y13088D01*
G01X2623Y13088D01*
G01X2623Y11945D01*
G37*
G54D17*
G01X3893Y12517D03*
G54D18*
G01X17997Y19498D03*
G01X19013Y19498D03*
G54D19*
G01X12552Y13952D03*
G01X12552Y17051D03*
G01X9453Y13952D03*
G01X9504Y17051D03*
G36*
G01X14635Y3865D02*
G01X13365Y3865D01*
G01X13365Y5135D01*
G01X14635Y5135D01*
G01X14635Y3865D01*
G37*
G54D20*
G01X11993Y4500D03*
G01X10012Y4500D03*
G01X8006Y4500D03*
G54D13*
G01X5006Y13997D03*
G01X3502Y7500D03*
G01X15503Y8500D03*
G01X16004Y17500D03*
G01X5003Y19999D03*
G01X15504Y11501D03*
M00*
M02*
